<?xml version="1.0" standalone="no"?>
<!DOCTYPE svg PUBLIC "-//W3C//DTD SVG 20010904//EN"
 "http://www.w3.org/TR/2001/REC-SVG-20010904/DTD/svg10.dtd">
<svg version="1.0" xmlns="http://www.w3.org/2000/svg"
 width="1872.000000pt" height="988.000000pt" viewBox="0 0 1872.000000 988.000000"
 preserveAspectRatio="xMidYMid meet">

<g transform="translate(0.000000,988.000000) scale(0.100000,-0.100000)"
fill="#000000" stroke="none">
<path d="M2613 9372 c-21 -13 -55 -103 -55 -143 1 -46 23 -90 73 -148 48 -54
51 -95 13 -140 -48 -58 -107 -35 -120 47 -4 27 -14 47 -26 53 -24 13 -35 4
-19 -15 7 -8 11 -20 10 -28 -5 -42 4 -72 30 -99 23 -23 38 -29 72 -29 36 0 47
5 79 41 61 65 58 124 -11 203 -61 69 -72 108 -48 171 10 27 19 51 19 53 0 1
16 2 35 2 31 0 39 -5 63 -45 25 -41 52 -59 52 -35 0 18 -30 84 -47 102 -17 19
-96 25 -120 10z"/>
<path d="M14553 9273 c-32 -57 -54 -87 -64 -84 -72 20 -132 -7 -149 -69 -15
-52 -13 -66 14 -96 l23 -28 -35 -67 c-48 -93 -35 -108 19 -22 39 63 48 72 81
78 49 9 100 44 112 77 7 20 5 37 -9 67 l-18 40 37 61 c20 34 36 70 36 80 0 10
6 20 13 23 9 3 9 8 1 17 -9 9 -23 -10 -61 -77z m-90 -135 c-4 -7 -22 -37 -40
-67 l-32 -54 -12 27 c-10 20 -10 35 0 66 11 38 14 40 52 40 30 0 38 -3 32 -12z
m51 -37 c12 -22 13 -32 3 -44 -13 -18 -87 -52 -87 -40 0 7 62 113 67 113 1 0
9 -13 17 -29z"/>
<path d="M4573 9281 c-56 -34 -160 -141 -183 -189 -13 -26 -26 -70 -28 -99 -4
-51 -3 -55 35 -92 30 -30 50 -41 87 -46 57 -9 158 10 189 36 31 24 18 31 -28
14 -52 -18 -147 -19 -190 -1 -60 25 -71 82 -33 164 23 50 154 192 177 192 11
0 12 -15 7 -70 -8 -81 4 -92 42 -36 35 51 39 98 11 125 -28 26 -45 26 -86 2z
m74 -63 c-3 -7 -5 -2 -5 12 0 14 2 19 5 13 2 -7 2 -19 0 -25z"/>
<path d="M8387 9283 c-4 -3 -7 -48 -7 -98 0 -157 -28 -255 -82 -285 -33 -18
-61 -6 -66 30 -4 27 62 100 90 100 10 0 18 5 18 10 0 17 -31 24 -49 12 -9 -7
-26 -16 -37 -21 -29 -13 -66 -67 -66 -97 0 -13 7 -35 16 -49 13 -19 25 -25 55
-25 69 0 131 72 150 175 16 87 15 255 -2 255 -8 0 -17 -3 -20 -7z"/>
<path d="M4880 9150 c-63 -64 -116 -124 -118 -133 -4 -20 16 -31 32 -18 13 11
148 42 155 36 2 -3 -4 -42 -14 -89 -18 -88 -15 -136 10 -136 10 0 15 11 15 33
0 17 10 73 21 122 23 103 26 116 38 205 5 36 5 66 0 68 -4 2 -5 10 -2 18 14
38 -32 2 -137 -106z m101 -9 c-6 -11 -11 -29 -11 -41 0 -23 -22 -34 -90 -45
l-45 -7 75 74 c55 54 76 69 78 56 2 -9 -2 -26 -7 -37z"/>
<path d="M9004 9249 c-9 -10 -14 -20 -11 -20 9 -2 25 -6 35 -9 4 -1 17 -1 30
0 19 1 15 -6 -28 -49 -61 -61 -104 -146 -94 -188 19 -80 103 -110 222 -80 50
13 52 13 73 -10 24 -24 59 -31 59 -11 0 6 -10 22 -22 36 -23 23 -23 24 -3 34
43 24 95 86 95 113 0 76 -61 132 -185 170 -105 33 -150 37 -171 14z m186 -59
c151 -60 178 -122 83 -195 -52 -40 -63 -37 -91 24 -10 20 -25 37 -35 39 -15 3
-17 -1 -11 -25 3 -15 15 -41 26 -56 26 -38 16 -46 -63 -53 -142 -11 -175 73
-77 193 31 37 99 93 115 93 1 0 25 -9 53 -20z"/>
<path d="M16602 9258 c-5 -7 -17 -30 -25 -50 -9 -22 -23 -38 -32 -38 -22 0
-75 -28 -103 -54 -53 -47 -69 -123 -38 -171 15 -23 14 -27 -24 -86 -74 -115
-37 -107 43 10 22 32 34 41 58 41 37 0 97 25 126 52 35 33 32 101 -5 138 l-29
28 28 61 c15 34 33 61 38 61 6 0 11 5 11 10 0 14 -36 12 -48 -2z m-118 -229
c-38 -77 -60 -80 -55 -7 2 25 50 78 72 78 17 0 16 -7 -17 -71z m106 -5 c0 -28
-5 -35 -43 -53 -24 -12 -49 -21 -55 -21 -7 0 2 29 23 71 35 69 37 70 56 53 11
-10 19 -30 19 -50z"/>
<path d="M11344 9243 c-11 -2 -28 -16 -36 -31 -9 -15 -30 -42 -45 -61 l-29
-34 -41 22 c-48 24 -78 28 -50 7 17 -13 16 -15 -16 -35 -18 -11 -39 -32 -45
-46 -16 -35 -15 -106 2 -128 12 -16 8 -30 -39 -115 -28 -53 -55 -110 -59 -127
l-6 -30 21 25 c22 26 76 112 105 167 16 30 19 31 63 26 67 -8 129 12 173 57
31 31 38 45 38 78 0 33 -6 45 -31 66 -17 14 -39 26 -50 26 -10 0 -19 3 -19 6
0 12 63 96 81 107 19 12 26 28 12 26 -5 -1 -17 -4 -29 -6z m-124 -146 c0 -8
-9 -22 -20 -32 -11 -10 -33 -38 -48 -62 -15 -23 -30 -43 -34 -43 -5 0 -8 18
-8 41 0 33 6 47 34 75 34 34 76 46 76 21z m85 -31 c69 -29 52 -101 -32 -138
-45 -20 -113 -19 -113 2 0 16 90 150 101 150 5 0 25 -6 44 -14z"/>
<path d="M6864 9175 c-43 -46 -62 -58 -88 -60 -79 -5 -142 -78 -151 -174 -3
-44 -11 -59 -62 -120 -107 -128 -148 -196 -133 -221 10 -16 30 -4 30 18 0 22
25 57 113 158 66 76 68 78 116 78 85 2 183 81 166 135 -3 10 -16 30 -29 44
l-23 24 55 66 c29 37 63 69 73 72 11 4 18 12 16 18 -8 26 -33 15 -83 -38z
m-74 -89 c0 -11 -19 -15 -25 -6 -3 5 1 10 9 10 9 0 16 -2 16 -4z m-71 -77
c-35 -44 -49 -55 -49 -39 0 33 46 91 66 83 11 -4 7 -14 -17 -44z m104 -52
c-14 -30 -119 -85 -134 -70 -6 6 9 33 43 75 l53 66 24 -24 c21 -20 23 -27 14
-47z"/>
<path d="M15460 9180 c-54 -53 -70 -91 -49 -116 15 -19 80 -12 116 11 21 14
21 14 11 -23 -5 -20 -23 -68 -40 -105 -34 -78 -34 -110 0 -115 20 -3 22 0 17
21 -4 15 1 39 13 63 37 74 83 245 74 273 -4 12 -40 29 -75 36 -12 3 -36 -13
-67 -45z m104 -19 c-4 -14 -16 -34 -28 -43 -23 -19 -95 -43 -103 -34 -10 10
40 77 75 101 42 29 66 19 56 -24z"/>
<path d="M14840 9203 c0 -16 -71 -27 -80 -12 -13 20 -58 1 -75 -32 -18 -33
-13 -45 33 -82 42 -35 18 -107 -36 -107 -15 0 -24 8 -28 25 -9 36 -24 31 -24
-8 0 -66 56 -78 108 -24 45 46 44 89 -3 137 l-36 36 21 19 c17 15 23 16 29 6
9 -14 85 -7 112 10 12 7 11 11 -3 26 -10 9 -18 12 -18 6z"/>
<path d="M15280 9163 c-26 -53 -60 -173 -60 -214 0 -14 7 -32 15 -39 8 -7 15
-11 15 -9 0 2 3 31 5 64 4 62 34 162 61 202 14 22 12 43 -5 43 -4 0 -18 -21
-31 -47z"/>
<path d="M16193 9185 c-28 -14 -59 -37 -68 -51 -19 -29 -10 -48 9 -22 13 18
111 68 134 68 16 0 15 -35 -2 -68 -20 -37 -96 -108 -125 -117 -34 -10 -111
-84 -111 -106 0 -29 18 -23 79 27 l56 46 8 -41 c10 -52 43 -72 82 -51 28 15
25 31 -5 23 -32 -8 -50 15 -50 64 0 29 5 45 15 49 23 9 84 98 91 132 8 38 -10
72 -39 72 -13 0 -46 -11 -74 -25z"/>
<path d="M16827 9203 c-2 -4 -10 -26 -17 -48 -7 -22 -28 -79 -46 -127 -34 -87
-43 -148 -24 -148 6 0 15 10 20 23 37 90 71 184 74 206 2 14 7 39 11 54 7 27
-7 59 -18 40z"/>
<path d="M17050 9197 c0 -8 -12 -20 -26 -27 -39 -21 -67 -66 -62 -100 4 -23 0
-30 -16 -32 -13 -2 -21 -10 -21 -23 0 -11 -15 -40 -32 -64 -53 -72 -38 -118
35 -109 58 8 125 45 150 82 27 40 23 66 -15 96 -14 11 -21 20 -15 20 6 0 24
12 41 26 36 30 40 66 14 104 -27 39 -53 52 -53 27z m38 -70 c3 -27 -19 -48
-65 -62 -34 -10 -30 23 7 64 34 37 54 37 58 -2z m-46 -144 c25 -22 23 -37 -11
-65 -30 -26 -117 -56 -128 -44 -18 18 67 126 100 126 11 0 29 -7 39 -17z"/>
<path d="M6429 9152 c-71 -46 -169 -182 -169 -235 0 -36 36 -77 68 -77 54 1
162 64 162 95 0 20 -33 43 -72 50 -29 6 -45 2 -74 -15 l-36 -23 22 44 c35 68
81 118 133 145 26 13 47 29 47 34 0 18 -36 10 -81 -18z m26 -211 c14 -24 -104
-81 -139 -68 -10 4 -16 18 -16 36 0 22 4 29 14 25 8 -3 23 -1 33 5 22 13 100
14 108 2z"/>
<path d="M9461 9139 c-6 -18 -11 -53 -11 -79 0 -48 -13 -130 -25 -162 -5 -13
-2 -18 9 -18 23 0 35 38 43 138 3 48 7 82 9 77 25 -107 101 -245 135 -245 31
0 51 62 59 185 7 113 3 132 -25 122 -13 -6 -15 -24 -14 -114 0 -60 -4 -121 -9
-138 l-9 -30 -40 62 c-35 54 -56 108 -77 206 -8 36 -31 34 -45 -4z"/>
<path d="M10663 9145 c0 -27 21 -34 30 -11 5 13 -10 36 -24 36 -3 0 -6 -11 -6
-25z"/>
<path d="M2900 9126 c0 -15 18 -31 26 -23 7 7 -7 37 -17 37 -5 0 -9 -6 -9 -14z"/>
<path d="M10668 9097 c-16 -13 -42 -174 -32 -201 10 -26 37 -20 31 7 -3 12 0
63 8 112 7 50 12 91 11 92 -1 2 -9 -3 -18 -10z"/>
<path d="M3473 9063 c-56 -11 -95 -110 -58 -147 34 -34 162 -28 159 7 -1 9 2
17 7 17 5 0 9 5 9 10 0 16 -28 12 -38 -5 -13 -25 -79 -31 -102 -10 -11 10 -20
26 -20 35 0 26 32 59 59 62 33 4 38 -20 7 -28 -27 -6 -36 -24 -13 -24 22 0 57
30 57 50 0 16 -30 44 -42 39 -2 -1 -13 -4 -25 -6z"/>
<path d="M5563 9056 c4 -13 41 -24 89 -25 43 -1 68 7 68 23 0 7 -27 11 -80 12
-53 0 -79 -3 -77 -10z"/>
<path d="M2989 9023 c-57 -59 -88 -133 -56 -133 7 0 19 16 26 36 7 19 26 51
43 70 62 70 79 31 40 -93 -11 -35 -2 -52 16 -30 20 23 41 124 33 154 -6 22
-14 29 -37 31 -23 2 -37 -5 -65 -35z"/>
<path d="M3224 9051 c-49 -21 -71 -112 -38 -159 20 -28 81 -30 112 -3 27 23
28 35 3 21 -26 -14 -64 -13 -79 2 -32 32 1 113 49 120 13 1 23 8 22 13 -3 13
-43 16 -69 6z"/>
<path d="M7768 9013 c-33 -34 -58 -79 -58 -103 0 -5 9 -14 20 -20 16 -8 29 -5
67 19 l48 30 3 -34 c2 -19 7 -35 13 -35 5 0 12 -1 16 -2 5 -2 6 15 5 36 -2 22
4 55 14 78 19 43 13 58 -16 40 -17 -10 -23 -9 -40 8 -27 27 -30 26 -72 -17z
m62 -13 c0 -5 -5 -10 -11 -10 -6 0 -9 -7 -5 -15 3 -9 -4 -21 -20 -31 -36 -24
-41 -10 -10 31 26 34 46 45 46 25z"/>
<path d="M10083 9043 c-45 -4 -55 -16 -26 -27 27 -11 144 4 140 18 -4 12 -47
15 -114 9z"/>
<path d="M2839 8988 c-14 -60 -14 -61 -1 -66 10 -3 42 78 42 105 0 7 -6 13
-14 13 -9 0 -19 -20 -27 -52z"/>
<path d="M7980 9008 c0 -13 -9 -37 -20 -55 -24 -40 -6 -58 22 -23 22 28 78 70
91 70 9 0 5 -40 -9 -87 -5 -17 -2 -23 9 -23 19 0 40 62 35 105 -4 39 -39 45
-79 16 -29 -21 -29 -21 -29 -1 0 11 -4 20 -10 20 -5 0 -10 -10 -10 -22z"/>
<path d="M5543 8963 c-24 -2 -43 -8 -43 -14 0 -10 8 -11 105 -13 39 -1 85 -5
103 -10 35 -8 45 6 14 23 -22 12 -123 20 -179 14z"/>
<path d="M10856 8954 c-3 -9 -3 -20 0 -25 8 -13 34 9 34 27 0 19 -26 18 -34
-2z"/>
<path d="M10088 8953 c-45 -4 -60 -14 -39 -28 6 -3 53 -2 105 1 71 5 96 11 96
20 0 14 -45 16 -162 7z"/>
<path d="M14883 8943 c-17 -6 -16 -33 1 -33 17 0 38 24 29 33 -7 8 -12 8 -30
0z"/>
<path d="M15690 8910 c-13 -9 -13 -11 -1 -19 18 -11 55 5 46 20 -8 12 -26 11
-45 -1z"/>
<path d="M7105 8301 c-38 -23 -132 -122 -173 -182 -42 -62 -90 -185 -104 -270
-19 -111 13 -193 92 -234 33 -17 166 -35 203 -28 39 8 33 25 -7 22 -19 -2 -38
0 -42 4 -4 4 -23 7 -43 7 -50 1 -130 47 -153 90 -16 28 -18 48 -14 100 6 81
74 265 121 330 35 47 116 126 151 146 13 8 16 15 9 23 -8 7 -19 5 -40 -8z"/>
<path d="M6298 8236 c-22 -16 -23 -30 -3 -22 19 7 19 3 -7 -111 -24 -106 -31
-113 -114 -113 -24 0 -44 -4 -44 -10 0 -15 46 -23 90 -16 l38 6 -5 -40 c-9
-62 13 -80 95 -80 56 0 63 2 52 15 -8 10 -30 15 -61 15 -55 0 -63 8 -55 55 6
28 12 34 41 39 39 8 91 45 63 46 -9 0 -20 -5 -23 -10 -4 -6 -11 -8 -16 -5 -5
4 -9 3 -9 -2 0 -4 -11 -8 -25 -8 -14 0 -23 5 -21 11 2 6 14 56 27 111 27 121
21 153 -23 119z"/>
<path d="M9420 8212 c0 -5 20 -22 43 -39 28 -19 53 -48 67 -78 20 -40 22 -57
17 -121 -9 -126 -77 -231 -155 -241 -48 -6 -44 -24 6 -25 40 -1 102 41 136 92
58 88 73 250 30 319 -36 56 -144 126 -144 93z"/>
<path d="M7812 8183 c-11 -16 -29 -47 -41 -70 -18 -36 -26 -43 -49 -42 l-27 1
28 11 c32 13 30 33 -4 29 -40 -4 -70 -31 -95 -85 -30 -66 -30 -101 -1 -131
l24 -24 -43 -68 c-51 -80 -64 -128 -41 -151 19 -19 43 -8 26 13 -15 18 0 60
49 136 31 49 42 58 67 58 53 2 118 33 137 67 17 29 18 35 4 66 -8 20 -25 43
-39 52 l-24 16 22 55 c12 31 28 61 34 67 13 13 14 27 2 27 -5 0 -18 -12 -29
-27z m-72 -150 c0 -3 -16 -34 -35 -69 -37 -65 -57 -74 -71 -32 -8 28 15 96 35
101 26 7 71 7 71 0z m72 -43 c12 -23 14 -38 8 -51 -10 -18 -107 -56 -117 -46
-3 3 4 18 15 34 11 15 27 45 36 66 18 45 34 44 58 -3z"/>
<path d="M5766 8178 c-2 -7 -7 -67 -10 -133 -6 -119 -20 -195 -35 -195 -10 0
-45 39 -62 70 -8 14 -30 63 -49 109 -19 47 -39 85 -45 85 -13 1 -37 -256 -24
-268 16 -17 22 2 27 79 2 41 8 75 11 75 4 0 20 -27 36 -60 32 -68 78 -120 106
-120 30 0 49 42 59 131 15 143 16 232 2 237 -6 2 -14 -2 -16 -10z"/>
<path d="M9149 8135 c-32 -53 -34 -54 -57 -39 -44 29 -122 -17 -141 -82 -9
-34 4 -93 24 -100 10 -4 6 -17 -18 -55 -22 -36 -27 -53 -19 -61 8 -8 19 3 42
41 26 41 37 51 59 51 40 0 114 41 129 72 11 23 10 33 -4 65 -9 21 -16 43 -14
48 1 6 3 17 2 27 0 9 7 18 17 21 11 3 20 17 23 36 7 45 -5 38 -43 -24z m-59
-79 c0 -15 -86 -136 -97 -136 -3 0 -4 3 -1 6 4 3 0 17 -7 31 -26 49 20 111 83
113 12 0 22 -6 22 -14z m52 -50 c7 -34 -7 -54 -49 -71 -55 -23 -57 -19 -12 45
23 32 46 57 49 55 4 -3 10 -16 12 -29z"/>
<path d="M7438 8156 c-44 -19 -98 -77 -129 -138 -36 -72 -37 -113 -3 -144 46
-44 144 -23 144 30 0 28 -33 38 -98 29 -28 -4 -42 -2 -42 6 0 28 61 129 100
165 34 32 46 37 71 32 31 -6 37 2 17 22 -14 14 -24 14 -60 -2z m-25 -261 c-3
-13 -49 -19 -71 -9 -14 6 -13 8 8 15 32 10 66 7 63 -6z"/>
<path d="M8588 8144 c-4 -3 -4 -38 -1 -77 3 -41 0 -91 -7 -117 -22 -85 -24
-103 -9 -98 21 7 48 105 48 174 1 94 -11 139 -31 118z"/>
<path d="M4478 8013 c-14 -16 -32 -39 -41 -52 l-16 -24 1 30 c1 17 -2 35 -6
42 -14 23 -24 10 -25 -31 0 -24 -7 -67 -15 -97 -8 -30 -13 -58 -10 -63 6 -10
34 9 34 23 0 22 106 169 121 169 5 0 9 -35 9 -79 0 -84 13 -110 47 -96 17 6
17 7 1 16 -15 8 -18 24 -18 84 0 40 -3 80 -6 89 -9 25 -48 19 -76 -11z"/>
<path d="M4976 8022 c-52 -18 -81 -50 -35 -39 24 6 112 25 158 34 13 2 20 7
17 10 -14 14 -94 12 -140 -5z"/>
<path d="M6543 7991 c-58 -36 -69 -86 -28 -126 32 -33 85 -33 142 0 23 14 43
30 43 35 0 20 -18 18 -53 -5 -41 -28 -88 -32 -107 -10 -10 12 -10 15 3 15 8 0
29 13 46 29 26 24 30 33 22 53 -11 30 -29 33 -68 9z m34 -42 c-13 -21 -45 -35
-55 -24 -9 9 49 56 60 49 4 -3 2 -14 -5 -25z"/>
<path d="M5940 7981 c-14 -4 -26 -15 -28 -25 -3 -14 1 -17 17 -12 12 3 30 9
41 12 15 4 13 -1 -11 -25 -33 -33 -36 -67 -7 -84 24 -16 98 35 98 67 0 50 -55
83 -110 67z m80 -69 c0 -4 -13 -16 -30 -25 -32 -19 -36 -17 -20 14 10 18 50
27 50 11z"/>
<path d="M4998 7917 c-67 -20 -80 -30 -55 -40 18 -7 160 36 165 51 5 17 -30
14 -110 -11z"/>
<path d="M8730 7900 c-14 -26 -4 -45 16 -29 16 13 18 35 5 44 -6 3 -15 -4 -21
-15z"/>
<path d="M6406 7881 c-7 -11 14 -20 32 -14 6 3 12 9 12 14 0 12 -37 12 -44 0z"/>
<path d="M8005 7840 c-3 -5 -4 -14 0 -19 3 -5 -15 -40 -41 -76 -32 -48 -42
-71 -35 -78 14 -14 81 58 106 113 15 32 15 42 5 55 -14 17 -26 19 -35 5z"/>
<path d="M13755 7331 c-63 -39 -151 -154 -214 -279 -23 -45 -41 -88 -41 -97 0
-15 -84 -86 -132 -111 -15 -8 -28 -19 -28 -24 0 -21 35 -8 96 35 35 24 64 40
64 34 0 -22 53 -59 84 -58 30 0 81 16 61 19 -5 1 -26 3 -45 6 -73 9 -79 60
-13 118 37 33 112 120 171 201 26 36 64 100 72 120 20 53 -18 72 -75 36z m-1
-93 c-20 -35 -48 -79 -61 -98 -31 -49 -124 -152 -130 -146 -7 7 42 101 85 161
39 56 134 157 140 150 2 -2 -13 -32 -34 -67z"/>
<path d="M7013 7298 c-6 -7 -11 -20 -11 -28 -3 -34 -23 -130 -45 -210 l-23
-85 -62 -3 c-46 -2 -62 -7 -62 -17 0 -12 14 -15 59 -15 l59 0 -10 -42 c-5 -24
-12 -50 -15 -58 -12 -32 -11 -41 5 -38 12 2 22 23 32 65 9 34 19 66 24 70 4 4
25 13 47 18 47 12 48 30 2 26 -18 -1 -33 0 -33 3 0 3 11 49 24 103 40 161 44
256 9 211z"/>
<path d="M7180 7291 c0 -5 5 -11 11 -13 12 -4 -34 -179 -70 -261 -11 -26 -21
-51 -22 -55 -1 -4 -12 -31 -25 -61 -45 -101 -21 -138 34 -53 46 71 102 133
114 126 7 -4 8 -35 3 -86 -5 -64 -4 -79 7 -76 29 10 35 171 7 189 -28 18 -37
13 -87 -46 -30 -35 -36 -28 -17 18 8 21 12 37 8 37 -5 0 -3 4 4 8 11 7 83 229
83 257 0 7 -7 16 -16 19 -22 9 -34 7 -34 -3z"/>
<path d="M10343 7278 c-6 -7 -36 -63 -67 -125 l-57 -112 -42 -3 c-52 -4 -55
-22 -5 -26 36 -3 36 -4 27 -35 -21 -75 0 -137 47 -137 38 0 83 28 84 51 0 4
-20 -1 -45 -10 -40 -14 -47 -14 -55 -1 -13 20 -12 55 1 101 11 35 16 39 63 49
51 12 102 37 93 46 -3 3 -32 -1 -65 -9 l-60 -14 8 22 c5 13 30 62 56 109 30
57 43 91 37 97 -6 6 -14 5 -20 -3z"/>
<path d="M14561 7263 c-5 -10 -14 -43 -20 -73 -6 -30 -22 -89 -35 -130 -21
-70 -25 -75 -55 -81 -45 -9 -111 -57 -134 -97 -37 -63 13 -109 86 -79 44 19
106 120 136 222 18 62 61 238 61 250 0 13 -30 3 -39 -12z m-100 -330 c-6 -10
-17 -34 -26 -54 -15 -34 -49 -59 -80 -59 -41 0 -19 58 39 100 46 34 82 41 67
13z"/>
<path d="M12145 7248 c-4 -13 -23 -65 -43 -116 l-35 -92 -53 -16 c-62 -18 -64
-40 -3 -30 22 3 39 3 39 -2 0 -5 -13 -48 -30 -97 -35 -104 -36 -112 -11 -88
10 10 33 62 51 115 29 88 35 97 61 103 33 7 39 25 9 25 -26 0 -25 6 9 92 16
41 31 84 32 97 5 32 -17 39 -26 9z"/>
<path d="M17417 7263 c-2 -4 -12 -35 -22 -68 -9 -33 -41 -109 -70 -170 -59
-121 -70 -156 -60 -182 4 -13 26 21 76 122 89 180 123 292 92 302 -6 2 -13 0
-16 -4z"/>
<path d="M11465 7218 c-15 -97 -73 -273 -95 -288 -4 -3 -12 -15 -19 -27 -30
-59 55 -96 129 -58 52 27 67 87 30 120 -17 15 -26 17 -53 8 l-32 -10 29 86
c16 47 29 103 29 124 0 21 4 40 8 43 15 9 10 44 -5 44 -9 0 -17 -16 -21 -42z
m38 -271 c4 3 2 -9 -3 -27 -11 -37 -8 -34 -37 -49 -20 -10 -83 -16 -83 -7 0 1
5 17 11 34 12 35 64 65 90 52 9 -5 19 -7 22 -3z"/>
<path d="M2500 7241 c0 -6 5 -13 11 -17 7 -4 8 -9 1 -13 -6 -3 -15 -49 -21
-102 -6 -53 -23 -140 -37 -195 -45 -165 -34 -195 31 -88 22 36 51 75 64 87
l24 22 -8 -40 c-12 -58 -12 -88 0 -92 6 -2 16 23 23 55 14 70 15 99 3 107 -17
10 -61 -18 -82 -52 -12 -19 -23 -32 -25 -30 -3 2 3 35 11 72 9 38 21 107 26
154 5 48 12 98 15 114 5 23 2 27 -15 27 -12 0 -21 -4 -21 -9z"/>
<path d="M4227 7233 c-4 -3 -7 -21 -7 -39 0 -18 -22 -103 -50 -189 -60 -189
-67 -222 -47 -222 9 0 19 20 27 51 7 28 30 105 52 171 51 155 63 267 25 228z"/>
<path d="M17090 7204 c-6 -14 -10 -29 -10 -33 0 -10 -101 -243 -129 -299 -27
-54 -23 -69 24 -78 46 -8 106 9 142 41 23 19 26 27 17 42 -6 10 -22 24 -36 32
-22 13 -30 12 -66 -6 l-41 -20 14 31 c104 236 131 316 106 316 -6 0 -16 -12
-21 -26z m9 -328 c18 -21 -24 -46 -77 -46 -50 0 -48 11 6 40 45 23 56 24 71 6z"/>
<path d="M2351 7138 c-1 -40 -6 -91 -9 -113 l-7 -40 -68 -3 c-86 -4 -88 -26
-3 -30 57 -3 58 -3 52 -30 -14 -66 -19 -152 -8 -152 12 0 16 13 27 85 13 82
25 113 46 118 15 4 20 11 16 21 -4 9 -2 16 3 16 6 0 10 5 10 11 0 6 -8 8 -19
4 -18 -5 -19 -2 -16 27 2 18 7 61 9 96 5 55 4 62 -12 62 -16 0 -18 -11 -21
-72z"/>
<path d="M5922 7188 c-6 -7 -21 -61 -34 -120 l-23 -108 -57 0 c-32 0 -58 -4
-58 -10 0 -5 25 -10 56 -10 49 0 55 -2 49 -17 -13 -37 -18 -143 -6 -143 13 0
13 -1 36 91 16 61 20 68 47 73 16 3 27 10 24 15 -3 5 -15 7 -26 4 -26 -7 -26
11 0 108 28 106 25 156 -8 117z"/>
<path d="M4331 7148 c-44 -139 -73 -338 -50 -338 8 0 22 51 18 66 -2 10 -2 11
41 181 15 61 25 114 22 117 -12 12 -21 5 -31 -26z"/>
<path d="M4062 7110 c-16 -27 -15 -30 8 -30 15 0 20 7 20 25 0 30 -11 32 -28
5z"/>
<path d="M16807 7113 c-10 -9 -9 -43 1 -43 10 0 42 33 42 43 0 9 -35 9 -43 0z"/>
<path d="M2775 7080 c-4 -6 -3 -16 3 -22 6 -6 12 -6 17 2 4 6 3 16 -3 22 -6 6
-12 6 -17 -2z"/>
<path d="M8212 7060 c-23 -11 -45 -26 -48 -35 -7 -17 12 -51 51 -89 14 -14 25
-30 25 -37 0 -21 -41 -69 -60 -69 -26 0 -50 27 -50 56 0 31 -16 31 -22 0 -6
-31 15 -81 37 -90 59 -22 106 10 120 80 5 31 2 43 -24 80 -17 23 -31 47 -31
52 0 5 14 15 31 23 24 10 38 10 62 1 38 -14 47 -7 21 17 -30 29 -64 32 -112
11z"/>
<path d="M16561 7042 c-19 -9 -36 -21 -38 -27 -3 -9 11 -33 49 -88 11 -15 10
-20 -6 -33 -23 -16 -86 -19 -86 -3 0 5 -4 7 -10 4 -16 -10 -12 -42 6 -49 32
-12 68 -5 101 20 41 31 41 49 3 101 l-31 41 36 13 c19 7 34 18 32 23 -6 17
-21 17 -56 -2z"/>
<path d="M9680 7039 c0 -6 -16 -52 -36 -101 -20 -49 -33 -93 -29 -96 3 -4 37
26 74 66 72 77 90 89 66 42 -17 -33 -20 -76 -5 -85 5 -3 14 12 20 34 6 22 17
52 25 68 40 76 -8 79 -87 6 l-26 -25 14 42 c8 23 12 46 9 51 -8 13 -25 11 -25
-2z"/>
<path d="M9958 7016 c-38 -47 -60 -95 -53 -115 11 -36 89 -36 121 0 16 18 16
22 -2 66 -10 27 -17 53 -16 59 5 26 -26 20 -50 -10z m38 -57 c8 -17 12 -35 7
-39 -15 -15 -61 -22 -68 -11 -6 10 30 81 41 81 2 0 11 -14 20 -31z"/>
<path d="M10482 7025 c-17 -14 -40 -45 -52 -70 -18 -38 -20 -49 -10 -85 15
-56 42 -68 106 -46 66 23 132 81 118 103 -14 23 -39 31 -31 10 8 -21 -49 -71
-98 -87 -41 -14 -57 -5 -70 38 -5 19 -2 24 24 33 17 6 31 15 31 21 0 5 4 7 9
3 14 -8 53 52 49 78 -4 32 -39 33 -76 2z m35 -38 c-9 -14 -25 -27 -37 -30 -21
-5 -21 -5 -4 16 42 50 71 60 41 14z"/>
<path d="M8807 7016 c-31 -21 -37 -23 -48 -10 -10 12 -16 12 -45 -5 -28 -17
-34 -18 -34 -6 0 25 -17 16 -25 -12 -3 -16 -20 -49 -37 -76 -28 -44 -32 -77
-9 -77 6 0 20 19 32 43 23 45 67 97 82 97 5 0 6 -11 3 -25 -9 -37 9 -31 66 20
28 25 55 45 60 45 7 0 8 -21 4 -57 -3 -32 -2 -64 3 -72 13 -20 21 0 28 75 5
51 3 68 -8 75 -22 13 -33 11 -72 -15z"/>
<path d="M12878 7029 c-24 -14 -23 -33 8 -84 l26 -44 -28 -27 c-26 -27 -27
-27 -41 -8 -12 16 -15 17 -23 4 -15 -23 -12 -38 9 -50 28 -15 36 -13 69 15 41
35 46 70 16 122 -13 23 -24 44 -24 47 0 3 16 6 35 6 36 0 47 13 19 24 -22 9
-46 7 -66 -5z"/>
<path d="M3676 7005 c-21 -14 -55 -34 -77 -45 -40 -21 -51 -40 -24 -40 19 0
91 36 100 50 3 5 10 10 15 10 5 0 -6 -36 -25 -80 -42 -98 -34 -136 18 -96 17
13 17 15 2 23 -14 8 -12 19 20 92 49 110 41 133 -29 86z"/>
<path d="M16335 7016 c-16 -7 -38 -23 -49 -34 -18 -20 -18 -23 -2 -47 9 -14
24 -25 33 -25 25 0 4 -17 -31 -26 -21 -5 -27 -4 -22 5 4 6 3 11 -3 11 -17 0
-22 -19 -11 -41 14 -26 53 -19 89 16 28 28 23 51 -16 66 l-27 10 21 20 c11 12
41 23 68 27 60 9 74 32 18 32 -21 -1 -51 -7 -68 -14z"/>
<path d="M17483 7010 c-44 -26 -68 -66 -68 -113 0 -45 30 -77 74 -77 47 0 156
36 159 52 3 14 -2 15 -35 6 -95 -25 -131 -31 -146 -25 -24 9 -21 37 3 37 11 0
29 9 39 19 11 11 22 17 25 14 11 -11 46 30 46 53 0 27 -24 54 -48 54 -9 0 -31
-9 -49 -20z m65 -33 c3 -15 -26 -35 -82 -57 -21 -8 -24 -7 -19 8 20 55 93 91
101 49z"/>
<path d="M9002 6998 c-11 -13 -26 -36 -32 -52 -9 -25 -7 -33 16 -63 26 -34 29
-35 81 -31 32 3 61 12 70 21 22 22 12 30 -21 17 -46 -17 -94 -13 -106 10 -8
15 -8 20 1 20 21 0 77 32 83 47 20 52 -50 75 -92 31z m49 -28 c-24 -21 -41
-26 -41 -12 0 15 24 32 45 32 19 -1 19 -1 -4 -20z"/>
<path d="M4875 6996 c-38 -17 -71 -53 -79 -88 -7 -29 8 -78 27 -90 18 -11 95
-10 118 2 33 18 21 25 -41 22 -55 -3 -61 -2 -70 20 -26 56 41 123 112 111 47
-7 50 9 5 25 -40 14 -35 14 -72 -2z"/>
<path d="M11731 6977 c-22 -36 -98 -110 -141 -138 -14 -9 -22 -20 -18 -24 7
-7 50 17 86 49 l24 21 -7 -27 c-6 -25 -4 -28 18 -28 15 0 35 11 49 28 13 15
34 36 46 46 l22 19 -15 -36 c-10 -25 -12 -38 -4 -43 6 -3 14 -2 18 2 17 19 41
102 35 118 -8 21 -30 15 -27 -8 0 -10 -1 -15 -4 -12 -3 3 -26 -12 -51 -34 -26
-21 -48 -37 -50 -35 -2 2 10 29 28 60 21 38 29 60 22 67 -6 6 -17 -2 -31 -25z"/>
<path d="M12590 6953 c-37 -43 -50 -65 -48 -83 4 -35 44 -38 91 -6 l36 25 -6
-30 c-4 -21 0 -35 12 -49 21 -24 39 -16 25 10 -7 13 -7 34 0 64 12 56 -10 126
-40 126 -10 0 -41 -26 -70 -57z m68 -33 c-32 -28 -79 -53 -86 -46 -5 6 8 23
57 78 24 27 25 27 38 8 13 -18 12 -23 -9 -40z"/>
<path d="M13781 6996 c-7 -8 -8 -17 -3 -20 6 -3 -8 -24 -30 -45 -42 -43 -49
-84 -18 -103 38 -24 160 40 160 83 0 36 -29 77 -61 88 -39 13 -34 14 -48 -3z
m77 -72 c2 -11 -5 -27 -15 -36 -22 -19 -92 -42 -101 -33 -12 12 23 60 58 77
41 21 54 19 58 -8z"/>
<path d="M15195 7001 c-11 -5 -28 -18 -39 -30 -16 -18 -17 -24 -6 -50 7 -17
11 -33 10 -38 -1 -4 8 -11 20 -15 19 -7 20 -10 9 -25 -13 -15 -14 -15 -17 0
-5 23 -15 21 -30 -4 -12 -18 -11 -24 1 -37 13 -12 21 -13 45 -3 36 15 47 48
27 76 -48 65 -48 65 -35 80 7 8 30 18 52 21 22 4 37 12 35 18 -4 14 -46 18
-72 7z"/>
<path d="M15834 6984 c-21 -14 -49 -38 -61 -53 -22 -26 -22 -26 -23 -3 0 12
-4 22 -8 22 -8 0 -42 -105 -42 -131 0 -8 -4 -19 -9 -24 -5 -6 -11 -19 -13 -30
-1 -11 -5 -22 -8 -25 -12 -12 -100 -194 -95 -198 17 -17 62 58 145 241 18 39
26 47 42 41 26 -8 122 40 143 73 61 92 17 146 -71 87z m66 -23 c0 -42 -77
-101 -132 -101 -21 0 -1 30 49 73 60 51 83 58 83 28z"/>
<path d="M7354 6966 c-30 -30 -34 -40 -34 -84 0 -71 22 -95 85 -94 32 1 59 9
81 24 36 24 46 45 17 33 -52 -22 -116 -34 -134 -24 -30 16 -23 45 14 59 68 28
94 71 61 104 -24 25 -53 19 -90 -18z m72 -8 c7 -11 -47 -68 -66 -68 -16 0 -11
26 11 54 22 28 43 33 55 14z"/>
<path d="M8401 6965 c-33 -38 -47 -75 -37 -100 8 -21 59 -19 89 5 15 12 25 15
24 7 -1 -32 4 -47 17 -47 12 0 16 22 17 109 1 26 -35 60 -62 61 -10 0 -31 -16
-48 -35z m67 -8 c14 -16 -35 -77 -61 -77 -24 0 -21 18 9 57 27 36 36 40 52 20z"/>
<path d="M14084 6963 c-46 -61 -137 -144 -152 -138 -21 8 -35 -5 -21 -21 18
-22 38 -17 85 21 38 31 46 34 63 23 17 -10 25 -9 48 8 51 37 53 37 42 4 -15
-40 -4 -80 21 -80 26 0 34 17 14 28 -15 9 -15 13 1 63 10 30 24 66 31 81 24
47 -3 42 -54 -10 -48 -50 -92 -80 -92 -64 0 5 14 30 31 56 22 32 28 51 22 57
-7 7 -20 -2 -39 -28z"/>
<path d="M16063 6983 c-4 -10 -22 -38 -40 -63 -38 -49 -40 -83 -6 -88 25 -4
82 23 100 47 25 33 11 91 -27 111 -16 9 -22 7 -27 -7z m37 -62 c0 -21 -26 -46
-59 -56 -23 -7 -22 -6 8 39 32 46 51 52 51 17z"/>
<path d="M5165 6964 c-23 -24 -55 -112 -55 -148 0 -22 19 -20 26 2 29 90 66
142 101 142 21 0 24 2 13 15 -19 23 -58 18 -85 -11z"/>
<path d="M14935 6971 c-47 -29 -67 -56 -63 -88 2 -22 9 -29 30 -31 15 -2 36 2
48 8 19 10 20 9 14 -14 -6 -25 10 -66 26 -66 5 0 9 15 9 33 0 17 1 61 2 96 0
43 -3 66 -13 72 -18 12 -19 12 -53 -10z m43 -43 c-7 -19 -55 -51 -69 -46 -9 3
-5 12 13 31 27 27 63 37 56 15z"/>
<path d="M2882 6964 c-30 -21 -29 -68 3 -119 24 -40 32 -75 17 -75 -17 0 -41
26 -45 50 l-3 25 -12 -29 c-17 -39 -7 -62 30 -75 26 -9 35 -8 50 5 25 23 23
53 -8 108 -35 63 -30 90 19 94 38 3 49 15 21 26 -26 10 -48 7 -72 -10z"/>
<path d="M6078 6957 c-49 -41 -61 -93 -33 -146 25 -49 75 -55 141 -16 40 24
72 61 61 71 -2 3 -28 -11 -57 -31 -58 -39 -89 -44 -113 -17 -26 28 -21 38 28
62 50 24 69 50 60 80 -9 27 -53 26 -87 -3z m51 -23 c-7 -8 -26 -22 -43 -31
-30 -16 -31 -16 -16 3 22 27 43 43 59 44 11 0 11 -3 0 -16z"/>
<path d="M5336 6951 c-19 -21 -45 -85 -46 -112 0 -20 31 -49 53 -49 24 0 97
31 97 41 0 14 -17 11 -33 -6 -13 -13 -57 -13 -79 1 -19 12 -5 33 38 55 52 27
70 48 61 73 -9 23 -69 21 -91 -3z m69 -21 c-8 -12 -65 -43 -65 -35 0 21 24 45
46 45 14 0 23 -4 19 -10z"/>
<path d="M3961 6937 c-26 -67 -34 -108 -24 -118 10 -10 31 39 47 114 8 33 -11
37 -23 4z"/>
<path d="M16721 6931 c-24 -33 -27 -51 -8 -51 13 0 47 50 47 69 0 20 -18 11
-39 -18z"/>
<path d="M3815 6928 c-3 -13 -7 -36 -10 -52 -7 -46 -23 -55 -44 -27 -19 25
-19 25 -47 6 -17 -11 -24 -20 -16 -23 7 -2 19 1 27 8 11 9 16 7 25 -9 6 -12
19 -21 29 -21 25 0 61 62 61 106 0 38 -17 46 -25 12z"/>
<path d="M5519 6921 c-24 -24 -27 -34 -20 -53 7 -18 15 -23 43 -21 26 1 36 -3
43 -20 6 -12 21 -24 35 -26 25 -3 25 -3 6 18 -17 19 -18 26 -8 59 11 33 10 39
-9 55 -30 25 -56 21 -90 -12z m66 -7 c14 -6 12 -10 -12 -25 -38 -26 -47 -24
-27 6 18 28 17 27 39 19z"/>
<path d="M2685 6929 c-14 -21 -18 -126 -6 -134 17 -10 18 -9 25 73 5 46 4 72
-3 72 -5 0 -13 -5 -16 -11z"/>
<path d="M4970 6850 c0 -5 5 -10 11 -10 5 0 7 5 4 10 -3 6 -8 10 -11 10 -2 0
-4 -4 -4 -10z"/>
<path d="M10840 6820 c0 -5 7 -10 15 -10 63 0 -73 -181 -147 -197 -30 -6 -37
-20 -14 -29 22 -9 88 31 133 79 86 93 98 167 27 167 -8 0 -14 -4 -14 -10z"/>
<path d="M7513 6270 c-97 -23 -254 -165 -310 -280 -71 -147 -65 -264 19 -362
27 -31 136 -108 154 -108 6 0 31 -9 55 -20 46 -20 94 -27 85 -11 -4 5 -44 28
-90 50 -208 101 -266 203 -211 375 24 75 105 189 170 238 73 55 158 98 195 98
21 0 30 4 28 13 -5 15 -51 18 -95 7z"/>
<path d="M12376 6271 c-3 -5 28 -42 70 -82 100 -97 107 -113 102 -210 -4 -64
-11 -92 -41 -152 -37 -75 -130 -177 -161 -177 -9 0 -16 -4 -16 -10 0 -38 113
22 161 85 64 85 91 156 97 256 4 81 3 91 -21 131 -30 51 -133 153 -164 162
-12 4 -24 3 -27 -3z"/>
<path d="M6042 6182 c0 -48 -6 -110 -11 -137 -13 -62 -73 -215 -84 -215 -4 0
-21 21 -37 46 -29 47 -54 135 -66 237 -4 35 -11 56 -18 54 -6 -2 -19 -44 -29
-93 -16 -76 -46 -213 -58 -263 -2 -8 3 -16 12 -18 12 -3 20 17 37 91 12 52 22
106 22 120 0 46 15 27 33 -41 20 -75 63 -150 91 -159 30 -10 59 31 95 132 46
126 62 334 27 334 -9 0 -13 -27 -14 -88z"/>
<path d="M6506 6198 c-2 -7 -9 -35 -15 -63 -6 -27 -21 -74 -33 -103 -20 -49
-25 -53 -75 -69 -29 -9 -53 -20 -53 -24 0 -16 19 -18 49 -8 18 6 34 9 36 7 2
-2 -2 -26 -10 -53 -38 -124 -3 -191 80 -153 25 11 34 41 15 53 -5 3 -10 -1
-10 -9 0 -17 -42 -32 -59 -21 -16 9 -12 72 7 135 16 50 20 55 52 60 45 7 53
30 10 30 -27 0 -31 3 -25 18 51 118 70 202 48 209 -7 3 -15 -1 -17 -9z"/>
<path d="M8018 6196 c-133 -36 -197 -155 -153 -286 34 -103 127 -157 253 -147
171 14 197 44 34 39 -157 -5 -215 23 -248 121 -32 96 0 176 91 225 33 17 192
23 233 8 34 -13 27 11 -10 34 -39 23 -126 26 -200 6z"/>
<path d="M11990 6193 c-96 -18 -106 -21 -94 -33 7 -7 46 -6 113 0 57 6 105 9
107 8 2 -2 -20 -51 -49 -110 l-52 -106 -58 -7 c-31 -4 -59 -11 -62 -15 -8 -14
31 -22 70 -14 19 3 35 4 35 2 0 -3 -9 -30 -19 -61 -20 -58 -18 -97 5 -97 8 0
14 9 14 20 0 11 12 49 26 85 20 49 31 65 46 65 25 0 58 18 58 31 0 7 -12 8
-30 4 -21 -5 -30 -3 -30 6 0 6 24 56 53 111 50 96 51 100 33 114 -24 17 -66
16 -166 -3z"/>
<path d="M9716 6182 c-74 -23 -133 -72 -169 -143 -53 -106 -26 -189 73 -223
50 -17 64 -17 153 -7 94 12 99 11 128 -10 23 -16 33 -19 42 -10 8 8 6 17 -10
33 l-22 21 32 21 c64 43 97 159 63 224 -47 91 -169 130 -290 94z m178 -44 c54
-28 96 -86 96 -133 0 -44 -30 -95 -72 -123 l-40 -26 -37 40 c-21 21 -43 49
-50 62 -10 19 -41 32 -41 17 0 -11 33 -70 51 -94 11 -13 19 -27 19 -31 0 -14
-135 -22 -178 -11 -48 13 -82 60 -82 112 0 68 98 186 166 201 32 7 146 -2 168
-14z"/>
<path d="M10346 6192 c-3 -5 -1 -33 4 -63 20 -108 22 -167 10 -218 -6 -28 -15
-51 -18 -51 -15 1 -124 163 -139 205 -31 92 -51 63 -68 -102 -7 -70 -12 -130
-10 -132 2 -2 11 -1 20 2 10 5 15 20 15 50 0 24 3 72 7 107 l6 63 19 -37 c35
-68 139 -197 156 -194 59 11 70 378 11 378 -4 0 -10 -4 -13 -8z"/>
<path d="M8600 6174 c0 -8 -35 -56 -79 -106 -81 -93 -109 -133 -98 -144 3 -4
36 1 73 10 37 9 69 15 71 12 3 -2 0 -28 -6 -56 -15 -69 -14 -132 2 -155 22
-29 37 -10 31 43 -3 26 1 79 8 117 13 69 14 70 46 73 39 4 38 25 -1 30 -26 3
-27 6 -27 60 0 31 7 70 15 86 21 39 19 46 -10 46 -16 0 -25 -6 -25 -16z m-20
-179 c-10 -12 -99 -40 -105 -33 -2 2 22 32 53 67 l57 65 3 -43 c2 -23 -2 -48
-8 -56z"/>
<path d="M11295 6098 c4 -36 2 -66 -8 -94 -37 -104 -45 -264 -13 -264 9 0 15
24 19 83 3 45 15 111 26 147 12 36 21 79 21 97 0 41 -19 83 -37 83 -11 0 -13
-11 -8 -52z"/>
<path d="M11583 6129 c-24 -12 -43 -27 -43 -35 0 -18 3 -18 50 6 22 11 48 20
59 20 31 0 36 -40 13 -93 -19 -43 -129 -161 -206 -221 -58 -45 -35 -74 27 -32
30 21 38 22 48 10 22 -26 154 -4 154 26 0 16 -15 17 -97 4 -27 -3 -48 -4 -48
0 0 4 29 37 65 74 100 103 136 188 99 240 -20 28 -65 29 -121 1z"/>
<path d="M4434 5958 c-34 -35 -71 -78 -84 -96 -12 -18 -24 -32 -25 -30 -2 2 3
28 11 58 19 72 18 110 -1 110 -9 0 -15 -9 -15 -24 0 -14 -11 -71 -25 -127 -18
-74 -22 -106 -14 -114 8 -7 15 -4 23 9 24 40 124 172 143 189 20 17 20 16 5
-52 -14 -64 -14 -72 1 -95 22 -33 82 -46 105 -22 15 15 14 16 -20 16 -37 0
-68 20 -68 44 0 7 9 48 20 91 33 128 29 131 -56 43z"/>
<path d="M5126 5986 c-52 -12 -75 -37 -34 -35 48 1 162 25 165 34 4 14 -74 15
-131 1z"/>
<path d="M6545 5979 c-10 -14 -1 -21 19 -13 9 3 13 10 10 15 -7 12 -21 11 -29
-2z"/>
<path d="M5170 5901 c0 -22 49 -27 76 -6 18 13 15 14 -28 15 -27 0 -48 -4 -48
-9z"/>
<path d="M6702 5887 c-50 -53 -49 -119 3 -153 22 -14 31 -15 70 -4 27 7 45 18
45 27 0 8 4 12 8 9 10 -6 38 11 31 19 -3 3 -34 -5 -68 -17 l-63 -23 -19 24
c-21 25 -16 49 6 31 11 -9 20 -6 40 14 30 30 33 71 6 86 -28 14 -35 13 -59
-13z m48 -21 c0 -16 -26 -46 -41 -46 -13 0 -11 13 7 38 17 25 34 29 34 8z"/>
<path d="M5096 5881 c-51 -18 -73 -41 -39 -41 30 0 114 33 110 44 -5 16 -19
15 -71 -3z"/>
<path d="M6118 5893 c-19 -5 -25 -23 -7 -23 5 0 3 -10 -5 -22 -23 -32 -20 -65
8 -83 21 -14 28 -14 59 -1 33 13 57 41 57 65 0 5 -12 23 -26 40 -25 30 -44 35
-86 24z m66 -52 c16 -18 16 -20 -9 -39 -44 -35 -71 -10 -39 36 19 27 26 27 48
3z"/>
<path d="M10627 5823 c-4 -3 -4 -17 -1 -30 6 -24 -36 -103 -56 -103 -5 0 -14
-9 -20 -20 -19 -35 16 -37 51 -4 46 44 68 85 62 116 -6 29 -26 52 -36 41z"/>
<path d="M8997 5773 c-4 -3 -7 -13 -7 -22 0 -24 -51 -91 -82 -107 -32 -17 -37
-44 -8 -44 28 0 90 58 110 103 22 48 13 96 -13 70z"/>
<path d="M7120 5249 c0 -6 5 -19 11 -31 15 -28 -3 -94 -43 -161 -39 -62 -48
-72 -70 -73 -52 -2 -57 -4 -51 -20 4 -11 13 -13 34 -9 16 4 29 4 29 0 0 -3
-11 -28 -25 -55 -28 -56 -44 -140 -27 -140 6 0 14 10 18 23 3 12 24 58 45 102
37 76 41 81 81 90 54 14 67 41 15 32 l-35 -5 13 26 c50 102 65 170 45 208 -13
24 -40 33 -40 13z"/>
<path d="M3886 5208 c-56 -267 -59 -278 -80 -278 -36 0 -67 -12 -63 -24 2 -6
20 -10 42 -8 32 3 37 1 31 -13 -14 -38 -28 -157 -18 -167 11 -11 32 41 32 81
0 14 5 43 11 64 9 34 13 37 48 37 46 0 103 18 96 31 -3 5 -33 6 -67 2 -61 -6
-61 -6 -55 18 8 32 44 206 51 247 4 24 2 32 -9 32 -8 0 -17 -10 -19 -22z"/>
<path d="M2132 5043 c-10 -126 -16 -159 -30 -169 -12 -10 -14 -16 -5 -22 8 -5
11 -38 10 -102 -1 -57 2 -96 8 -98 6 -1 11 8 12 20 1 13 5 58 8 100 6 73 8 78
28 74 80 -16 88 -16 85 2 -2 12 -16 18 -48 22 l-45 5 1 45 c0 25 4 98 8 163 7
98 6 117 -6 117 -11 0 -16 -34 -26 -157z"/>
<path d="M7281 5098 c-24 -57 -65 -151 -92 -210 -71 -155 -66 -186 17 -98 42
45 79 69 90 57 3 -2 -2 -23 -9 -45 -15 -42 -13 -52 9 -52 14 0 39 104 29 120
-11 17 -61 11 -89 -11 l-28 -22 30 60 c17 32 38 85 47 116 9 31 27 84 41 117
28 69 28 70 11 70 -8 0 -33 -46 -56 -102z"/>
<path d="M2295 5088 c-3 -35 -10 -85 -15 -113 -5 -27 -14 -95 -21 -151 -10
-83 -9 -104 2 -125 14 -24 14 -24 17 16 1 22 10 83 18 135 28 166 35 291 18
297 -8 3 -14 -18 -19 -59z"/>
<path d="M5486 5138 c-3 -7 -7 -52 -10 -100 -8 -109 -12 -121 -38 -107 -28 15
-63 -11 -93 -71 -30 -60 -32 -87 -5 -95 42 -13 100 47 146 151 34 76 48 234
20 234 -9 0 -18 -6 -20 -12z m-36 -237 c0 -14 -68 -98 -84 -104 -24 -9 -19 13
14 66 20 30 37 47 50 47 11 0 20 -4 20 -9z"/>
<path d="M3680 5052 c0 -11 7 -25 16 -33 14 -11 15 -9 12 16 -3 32 -28 47 -28
17z"/>
<path d="M4530 5026 c0 -7 7 -19 15 -26 13 -11 15 -8 15 14 0 16 -5 26 -15 26
-8 0 -15 -6 -15 -14z"/>
<path d="M8343 4971 c-41 -26 -43 -58 -7 -100 14 -17 24 -38 21 -46 -10 -24
-54 -47 -78 -40 -17 6 -20 12 -15 36 7 38 -9 37 -23 -1 -12 -35 -6 -57 20 -70
32 -18 60 -11 95 24 40 40 41 53 13 107 -15 30 -17 44 -9 54 14 17 51 24 78
14 13 -5 24 -4 28 2 10 16 -7 27 -51 34 -30 4 -48 1 -72 -14z"/>
<path d="M9185 4973 c-11 -2 -36 -21 -55 -42 -28 -29 -36 -46 -38 -84 -1 -26
2 -56 8 -67 19 -35 70 -60 124 -60 52 0 116 18 116 33 0 4 5 5 10 2 6 -3 10 5
10 19 0 14 -4 28 -10 31 -5 3 -10 -1 -10 -9 0 -23 -28 -33 -98 -35 -57 -2 -65
0 -92 28 -38 38 -40 71 -5 71 63 0 156 73 128 101 -11 11 -63 19 -88 12z m55
-33 c0 -13 -39 -37 -74 -46 -27 -6 -28 -5 -16 15 16 32 90 57 90 31z"/>
<path d="M5998 4943 c-53 -58 -63 -112 -27 -157 19 -24 27 -27 80 -25 50 2 61
6 75 27 19 29 11 41 -14 19 -12 -11 -36 -17 -63 -17 -75 0 -94 39 -32 65 43
18 83 52 83 71 0 20 -29 44 -54 44 -12 0 -34 -12 -48 -27z m65 -18 c1 -5 -18
-21 -43 -34 -47 -26 -47 -24 -1 32 15 18 41 20 44 2z"/>
<path d="M6925 4960 c-9 -15 -1 -23 21 -18 15 3 16 4 1 16 -11 9 -17 10 -22 2z"/>
<path d="M5572 4936 c-52 -44 -72 -125 -38 -148 17 -12 22 -10 56 19 30 25 32
30 27 75 -5 39 -3 48 9 48 20 0 13 24 -8 28 -8 2 -29 -8 -46 -22z m16 -76 c-3
-23 -32 -49 -43 -38 -3 3 2 22 11 42 19 38 38 36 32 -4z"/>
<path d="M4681 4924 c-39 -32 -39 -43 -1 -79 47 -45 34 -101 -22 -93 -17 2
-22 9 -21 26 3 25 0 26 -28 12 -44 -24 -5 -80 56 -80 36 0 48 8 64 37 20 40
13 83 -19 113 -27 26 -28 28 -12 43 9 8 28 17 41 19 37 5 39 28 3 28 -18 0
-43 -11 -61 -26z"/>
<path d="M5795 4920 c-21 -22 -31 -27 -36 -18 -11 18 -26 0 -33 -37 -3 -16 -8
-40 -12 -52 -9 -33 18 -30 39 5 29 48 85 107 93 99 5 -4 1 -30 -9 -56 -19 -53
-22 -81 -8 -81 12 0 51 107 51 141 0 25 -4 29 -28 29 -18 0 -38 -11 -57 -30z"/>
<path d="M8795 4923 c-16 -15 -29 -30 -27 -35 1 -4 -3 -8 -8 -8 -6 0 -10 6 -9
13 5 41 -15 52 -27 15 -4 -13 -17 -46 -30 -75 -13 -28 -24 -57 -24 -62 0 -23
26 -9 54 29 39 53 106 117 106 102 0 -7 -7 -29 -15 -49 -29 -68 -14 -71 49 -9
24 24 57 51 74 60 l30 16 -19 -55 c-15 -42 -17 -60 -9 -76 12 -22 35 -16 26 7
-3 8 3 38 14 67 11 29 20 60 20 70 0 27 -41 21 -91 -13 l-44 -29 -5 27 c-7 36
-28 37 -65 5z"/>
<path d="M2465 4909 c-68 -55 -75 -164 -10 -189 25 -10 65 -3 65 11 0 5 -9 9
-21 9 -29 0 -59 18 -59 35 0 8 9 15 19 15 19 0 81 62 81 81 0 18 -19 46 -34
52 -8 3 -26 -3 -41 -14z m45 -31 c0 -16 -41 -58 -57 -58 -20 0 -16 17 13 50
26 28 44 31 44 8z"/>
<path d="M8504 4896 c-38 -38 -44 -70 -15 -85 10 -6 20 -9 22 -7 2 2 16 6 30
9 23 6 27 4 27 -18 0 -31 21 -60 35 -46 6 6 5 16 -1 27 -6 10 -6 29 -1 48 12
41 -2 51 -39 32 -59 -31 -83 -14 -35 24 19 15 35 19 55 15 29 -7 36 3 16 23
-22 22 -59 13 -94 -22z"/>
<path d="M7479 4871 c-47 -45 -51 -53 -45 -82 11 -55 32 -79 71 -79 51 0 141
43 129 62 -3 5 -11 5 -19 -2 -14 -11 -36 -18 -95 -27 -32 -4 -37 -2 -48 22 -7
15 -11 28 -10 29 2 2 22 8 45 14 53 16 98 65 83 93 -18 33 -56 23 -111 -30z
m80 3 c-13 -16 -62 -44 -76 -44 -14 1 61 60 75 60 12 0 12 -3 1 -16z"/>
<path d="M2862 4894 c-50 -35 -69 -141 -30 -168 29 -20 102 -21 118 -1 11 13
6 15 -33 15 -60 0 -77 8 -77 34 0 15 12 26 40 39 26 12 42 27 46 44 11 41 -27
63 -64 37z m25 -42 c-10 -10 -14 -22 -10 -26 4 -4 0 -4 -10 0 -15 5 -15 9 -5
23 17 21 31 31 37 26 2 -3 -3 -13 -12 -23z"/>
<path d="M3586 4881 c-18 -34 -25 -112 -11 -117 6 -2 17 1 25 6 12 8 12 12 2
18 -13 9 -7 34 23 105 13 30 -23 20 -39 -12z"/>
<path d="M4477 4850 c-20 -72 -21 -100 -4 -100 8 0 18 24 26 58 7 31 15 67 18
80 4 15 1 22 -9 22 -9 0 -21 -22 -31 -60z"/>
<path d="M2641 4877 c-37 -46 -53 -140 -25 -151 25 -10 27 -8 21 29 -8 48 16
103 48 111 14 3 22 10 19 15 -8 14 -50 11 -63 -4z"/>
<path d="M6273 4248 c-6 -7 -14 -57 -17 -112 -11 -154 -32 -252 -72 -338 -21
-43 -40 -78 -44 -78 -29 0 -60 125 -60 247 0 86 -12 137 -31 131 -7 -2 -24
-44 -39 -93 -44 -145 -101 -299 -112 -306 -7 -4 -6 -9 2 -14 19 -12 42 31 91
169 l46 129 6 -83 c5 -62 14 -100 37 -147 27 -59 32 -64 57 -61 24 3 34 15 70
88 23 47 49 108 57 135 17 52 36 195 38 278 1 52 -12 77 -29 55z"/>
<path d="M7733 4240 c-178 -80 -318 -255 -330 -413 -5 -56 -2 -70 26 -128 37
-73 80 -123 132 -149 63 -33 229 -69 229 -50 0 5 -26 17 -57 25 -162 46 -197
64 -243 126 -87 121 -53 291 89 438 92 95 172 141 246 141 48 0 60 14 23 24
-39 10 -71 6 -115 -14z"/>
<path d="M6751 4169 c-7 -22 -30 -87 -53 -144 -40 -104 -40 -105 -81 -116 -23
-6 -48 -16 -54 -21 -17 -14 -5 -31 16 -23 9 4 28 11 42 15 l26 8 -13 -46 c-32
-105 -9 -174 57 -174 38 0 107 30 129 57 22 27 5 27 -45 0 -55 -29 -110 -33
-119 -9 -10 25 -7 76 8 124 14 48 5 43 123 68 65 13 49 28 -24 21 -38 -3 -69
-5 -70 -5 -1 1 18 51 41 111 53 136 63 175 43 175 -8 0 -19 -18 -26 -41z"/>
<path d="M13905 4160 c-10 -11 -15 -20 -12 -20 3 0 -5 -12 -18 -26 -13 -14
-27 -35 -31 -46 -3 -11 -15 -29 -26 -40 -16 -16 -26 -18 -56 -11 -54 13 -104
-14 -131 -70 -26 -55 -26 -80 0 -127 l22 -38 -30 -49 c-53 -87 -74 -163 -45
-163 4 0 13 19 20 43 7 23 30 70 50 105 35 59 38 62 75 62 21 0 63 7 93 16
110 32 141 134 54 179 -17 9 -30 20 -30 26 0 12 88 146 101 155 5 3 9 9 9 15
0 16 -26 10 -45 -11z m-149 -224 c-9 -11 -28 -40 -43 -63 -32 -49 -38 -51 -54
-22 -8 17 -8 31 0 60 15 51 44 71 82 57 28 -10 29 -11 15 -32z m102 -2 c24
-16 28 -44 12 -74 -11 -21 -106 -54 -140 -48 -19 3 -16 9 25 71 48 70 64 79
103 51z"/>
<path d="M14200 4161 c0 -5 12 -17 28 -26 117 -75 172 -144 172 -217 0 -43
-25 -129 -55 -188 -30 -59 -98 -123 -160 -152 -62 -30 -72 -52 -18 -42 112 19
211 129 257 283 22 73 20 133 -4 184 -30 62 -38 69 -120 120 -73 46 -100 56
-100 38z"/>
<path d="M13156 4108 c-14 -29 -36 -65 -49 -80 l-22 -27 -41 19 c-40 17 -43
17 -71 0 -30 -18 -63 -82 -63 -121 0 -25 26 -76 41 -81 7 -2 -6 -34 -35 -83
-25 -44 -46 -88 -46 -97 0 -38 26 -14 57 51 42 87 73 121 112 121 49 0 110 29
126 61 22 41 19 58 -15 89 l-31 29 41 80 c43 87 45 91 31 91 -5 0 -20 -24 -35
-52z m-131 -128 c-3 -6 3 -14 15 -18 20 -7 19 -10 -17 -65 -21 -31 -41 -57
-45 -57 -16 0 -40 51 -34 73 9 36 45 77 67 77 11 0 17 -5 14 -10z m103 -52
c32 -32 -3 -77 -68 -85 l-42 -6 33 51 c34 52 55 62 77 40z"/>
<path d="M8199 4103 c-144 -103 -241 -296 -209 -415 15 -52 67 -105 115 -114
35 -6 183 19 219 38 31 16 56 40 51 48 -3 4 -22 -1 -43 -12 -22 -10 -73 -26
-114 -34 -71 -14 -78 -14 -113 3 -57 27 -80 63 -78 126 1 70 33 149 92 227 45
60 142 140 169 140 8 0 11 -16 10 -42 -1 -37 -2 -39 -5 -10 -3 22 -10 32 -21
32 -14 0 -17 -11 -19 -66 -1 -61 0 -65 20 -62 43 6 73 102 52 166 -11 36 -54
28 -126 -25z"/>
<path d="M12012 4110 c3 -13 22 -14 118 -11 l114 4 -17 -24 c-9 -13 -35 -55
-58 -94 -49 -83 -62 -95 -104 -95 -29 0 -55 -15 -55 -32 0 -4 21 -5 47 -1 41
5 46 4 40 -11 -10 -25 -37 -145 -37 -162 0 -39 24 -1 52 82 l31 91 56 11 c32
7 67 12 78 12 11 0 26 7 33 15 10 12 2 14 -64 12 -42 -1 -76 -1 -76 1 0 2 18
34 40 72 84 144 79 152 -86 148 -96 -2 -114 -5 -112 -18z"/>
<path d="M8693 4001 c-109 -115 -136 -157 -114 -170 7 -5 25 -3 40 5 14 7 43
16 64 19 l37 7 1 -58 c0 -68 17 -122 41 -138 26 -16 30 -3 13 44 -8 23 -15 68
-15 100 l0 57 50 6 c57 7 73 14 64 28 -4 7 -25 8 -55 4 l-49 -7 0 52 c0 60 23
116 51 125 10 4 19 10 19 15 0 8 -25 20 -38 20 -4 -1 -53 -49 -109 -109z m37
-66 l0 -45 -40 0 c-22 0 -40 3 -40 7 0 7 71 83 77 83 2 0 3 -20 3 -45z"/>
<path d="M10444 4099 c-3 -6 -10 -86 -15 -177 -12 -248 -17 -260 -75 -177 -29
43 -45 83 -65 163 -19 76 -32 108 -43 110 -22 5 -24 -7 -30 -128 -2 -66 -10
-121 -21 -148 -18 -45 -14 -66 9 -41 18 18 46 105 46 140 0 15 5 31 10 34 6 3
10 -3 10 -14 0 -29 33 -101 66 -142 16 -20 34 -45 40 -55 31 -52 82 39 89 158
15 267 16 288 1 288 -8 0 -18 -5 -22 -11z"/>
<path d="M11331 4053 c-15 -65 -34 -318 -27 -348 9 -34 33 -32 33 3 0 43 23
334 29 365 4 20 2 27 -9 27 -10 0 -19 -17 -26 -47z"/>
<path d="M11654 4089 c-21 -11 -60 -67 -51 -75 2 -3 22 6 42 21 35 23 95 35
95 17 0 -4 -8 -38 -19 -74 -18 -66 -86 -182 -102 -173 -9 6 -126 -86 -147
-116 -23 -33 1 -49 31 -21 13 12 30 22 38 22 8 0 25 7 37 16 22 15 23 14 33
-15 21 -60 79 -68 126 -18 34 36 53 68 53 91 0 26 -16 18 -44 -22 -15 -22 -38
-45 -52 -53 -23 -12 -27 -11 -40 6 -19 25 -18 84 1 91 32 13 93 123 110 198
21 96 13 116 -48 115 -23 0 -51 -5 -63 -10z"/>
<path d="M9760 4055 c0 -4 4 -15 10 -25 8 -15 2 -21 -50 -40 -90 -34 -170
-130 -170 -204 0 -14 7 -44 16 -66 29 -73 133 -106 238 -76 53 16 59 16 70 1
13 -18 67 -25 72 -10 2 6 -6 15 -18 20 -32 15 -32 28 3 50 40 26 79 93 79 136
0 19 -13 56 -28 83 -23 42 -39 56 -97 87 -68 36 -125 56 -125 44z m130 -90
c14 -7 39 -27 55 -45 25 -26 30 -39 30 -81 0 -47 -3 -54 -44 -91 l-43 -41 -22
39 c-12 21 -29 40 -39 42 -22 4 -22 -10 3 -57 l19 -38 -26 -12 c-41 -19 -105
-24 -151 -12 -34 10 -46 19 -62 51 -11 22 -20 49 -20 61 0 38 39 106 78 135
20 15 39 31 42 34 3 4 23 14 45 23 43 18 91 15 135 -8z"/>
<path d="M4234 3833 c-18 -65 -35 -128 -39 -140 -11 -35 16 -29 41 10 12 17
38 58 59 89 34 53 93 114 101 105 2 -2 -7 -37 -21 -78 -29 -87 -31 -122 -9
-143 22 -23 49 -20 79 9 32 33 32 36 -7 24 -18 -5 -36 -9 -40 -9 -15 0 -8 60
17 140 15 44 23 85 20 90 -14 23 -50 6 -111 -56 -36 -36 -63 -57 -60 -47 27
93 29 123 8 123 -4 0 -21 -53 -38 -117z"/>
<path d="M5175 3938 c-22 -4 -57 -11 -77 -14 -23 -4 -38 -12 -38 -20 0 -18 23
-18 107 1 91 21 106 26 99 33 -10 9 -48 9 -91 0z"/>
<path d="M7003 3840 c-24 -14 -33 -29 -42 -69 -13 -60 -5 -108 20 -121 33 -18
93 -11 132 15 48 33 48 50 0 29 -21 -10 -54 -19 -75 -22 -30 -3 -38 0 -48 19
-10 18 -10 21 3 16 27 -10 75 29 83 67 12 67 -22 98 -73 66z m47 -42 c0 -21
-35 -68 -52 -68 -14 0 -9 58 8 74 22 23 44 20 44 -6z"/>
<path d="M5096 3836 c-62 -15 -78 -42 -20 -32 22 3 68 8 104 11 88 8 112 14
105 25 -8 13 -128 11 -189 -4z"/>
<path d="M6371 3783 c-36 -54 -39 -83 -11 -108 23 -21 55 -15 88 16 27 24 26
72 -2 114 -24 36 -40 31 -75 -22z m69 -50 c0 -20 -49 -48 -62 -35 -12 12 -3
46 19 67 14 14 17 14 29 -2 7 -10 14 -24 14 -30z"/>
<path d="M13325 3791 c-7 -12 12 -24 25 -16 11 7 4 25 -10 25 -5 0 -11 -4 -15
-9z"/>
<path d="M10680 3713 c0 -40 -38 -118 -78 -161 -38 -42 -48 -72 -24 -72 15 0
102 97 113 127 6 16 13 49 16 76 4 38 2 47 -11 47 -9 0 -16 -8 -16 -17z"/>
<path d="M12370 3690 c0 -6 5 -19 12 -30 10 -16 8 -25 -18 -56 -30 -38 -44
-48 -78 -58 -15 -5 -16 -9 -6 -21 18 -22 38 -19 74 11 65 55 84 115 48 147
-21 19 -32 22 -32 7z"/>
<path d="M8960 3636 c0 -29 -9 -45 -45 -83 -25 -25 -45 -50 -45 -54 0 -40 84
14 107 68 16 40 14 95 -4 101 -9 2 -13 -8 -13 -32z"/>
<path d="M14085 3540 c3 -5 13 -10 21 -10 8 0 14 5 14 10 0 6 -9 10 -21 10
-11 0 -17 -4 -14 -10z"/>
<path d="M6145 3078 c-26 -86 -37 -124 -50 -185 -18 -77 -22 -83 -68 -92 -47
-10 -49 -35 -3 -29 l37 4 -6 -37 c-6 -36 10 -88 23 -75 3 3 7 28 8 56 3 59 9
70 36 70 29 0 88 22 88 32 0 5 -22 6 -50 3 -27 -3 -50 -2 -50 2 0 4 13 58 30
118 16 61 30 118 30 128 0 20 -19 23 -25 5z"/>
<path d="M6616 3083 c-3 -3 -6 -16 -6 -28 0 -11 -21 -82 -46 -156 -75 -219
-84 -250 -84 -274 0 -60 36 -78 38 -19 1 20 31 123 67 230 45 133 63 202 59
219 -7 27 -17 38 -28 28z"/>
<path d="M13775 3053 c-13 -59 -59 -171 -101 -245 -71 -125 -56 -141 46 -48
35 32 66 57 67 56 2 -2 -6 -26 -18 -55 -17 -40 -20 -56 -11 -74 10 -21 10 -21
17 -2 3 11 15 43 26 72 23 58 22 96 -1 101 -9 1 -36 -14 -60 -35 -37 -31 -42
-33 -29 -12 28 42 87 192 91 228 4 43 -19 54 -27 14z"/>
<path d="M2200 3001 c-41 -38 -76 -69 -77 -67 -1 1 -3 26 -4 54 -2 43 -5 52
-21 52 -16 0 -18 -9 -18 -84 0 -99 -11 -116 -59 -92 -31 17 -81 74 -81 94 0 7
-4 12 -10 12 -5 0 -10 -9 -10 -21 0 -29 19 -61 32 -53 6 4 8 3 5 -4 -4 -5 7
-22 25 -37 l32 -27 -107 4 c-148 4 -144 -18 6 -32 42 -4 80 -10 84 -14 4 -3
-5 -19 -19 -34 -32 -34 -51 -69 -40 -76 5 -3 32 22 61 55 29 32 56 59 62 59 5
0 8 -30 7 -68 -1 -37 1 -73 5 -80 14 -21 27 -13 27 16 0 15 3 44 6 64 l6 37
33 -24 c57 -44 73 -30 26 22 -31 34 -26 43 27 43 37 0 72 11 72 21 0 5 -34 9
-75 9 -62 0 -75 3 -75 16 0 9 38 57 85 107 77 83 99 117 77 117 -4 0 -41 -31
-82 -69z"/>
<path d="M15822 2973 c-22 -49 -43 -100 -47 -115 -6 -25 -12 -28 -47 -28 -47
0 -49 -23 -2 -28 28 -3 29 -4 26 -55 -4 -53 10 -107 26 -107 5 0 9 35 8 78
l-1 77 79 6 c52 5 83 12 94 23 16 15 10 16 -71 10 -73 -6 -87 -5 -87 8 0 8 20
56 45 107 49 100 52 111 31 111 -7 0 -31 -39 -54 -87z"/>
<path d="M10290 3030 c-79 -14 -189 -91 -239 -167 -40 -61 -41 -106 -2 -160
24 -33 39 -43 91 -57 50 -14 70 -15 111 -7 28 6 59 16 70 21 27 15 24 34 -3
26 -119 -34 -178 -26 -227 29 -37 43 -39 70 -7 133 29 57 43 70 127 116 87 48
99 47 86 -2 -6 -22 -7 -47 -4 -57 7 -15 10 -16 29 -3 37 25 43 42 28 88 -7 22
-16 42 -19 44 -3 1 -22 0 -41 -4z"/>
<path d="M11663 3023 c-13 -2 -23 -8 -23 -13 0 -4 -20 -20 -43 -34 -98 -57
-174 -217 -137 -287 21 -38 69 -54 170 -54 56 0 103 5 115 12 18 11 24 8 51
-24 39 -47 65 -38 35 12 l-19 33 39 43 c34 37 39 48 39 90 0 88 -45 176 -105
207 -25 12 -93 21 -122 15z m117 -58 c34 -17 70 -98 70 -155 0 -35 -22 -100
-34 -100 -3 0 -11 -2 -19 -6 -9 -3 -20 7 -31 31 -16 34 -41 54 -52 43 -2 -3 7
-25 21 -50 l25 -46 -44 -11 c-115 -29 -218 3 -224 68 -7 74 51 167 138 223 49
32 93 33 150 3z"/>
<path d="M12286 3018 c-3 -7 -9 -60 -15 -118 -11 -99 -37 -210 -51 -210 -8 0
-74 89 -94 128 -9 17 -16 42 -16 55 0 34 -35 76 -50 61 -17 -17 -29 -80 -30
-154 0 -37 -7 -76 -15 -90 -19 -33 -19 -60 0 -60 25 0 55 78 55 145 l0 60 25
-43 c36 -63 116 -162 131 -162 29 0 67 114 84 249 5 46 14 89 19 95 12 15 -5
56 -24 56 -9 0 -17 -6 -19 -12z"/>
<path d="M4611 3006 c-13 -15 -4 -26 21 -26 21 0 24 25 4 33 -8 3 -19 0 -25
-7z"/>
<path d="M10739 2974 c-33 -36 -121 -95 -201 -134 -80 -39 -96 -54 -78 -75 16
-19 52 -19 145 2 41 9 77 14 80 12 2 -3 0 -22 -6 -43 -12 -44 -3 -96 17 -96 9
0 14 11 14 34 0 41 18 97 36 112 8 6 13 20 12 30 -2 11 5 49 16 86 26 94 13
123 -35 72z m-16 -101 l-16 -52 -71 -16 c-39 -9 -82 -18 -96 -20 -23 -4 -23
-4 -6 8 125 83 201 133 203 132 1 -1 -5 -24 -14 -52z"/>
<path d="M16115 2930 c-10 -17 12 -37 25 -24 8 8 6 15 -4 23 -10 9 -16 9 -21
1z"/>
<path d="M5783 2868 c-13 -13 -23 -29 -23 -34 0 -5 20 -30 45 -54 50 -49 56
-71 23 -94 -46 -33 -107 -11 -95 34 7 26 -9 26 -23 1 -26 -50 -4 -81 65 -88
39 -5 47 -2 75 25 43 44 41 79 -11 133 l-42 43 29 12 c19 8 37 9 56 2 16 -6
32 -7 35 -4 14 13 -27 38 -68 43 -37 4 -48 1 -66 -19z"/>
<path d="M3458 2859 c-20 -11 -34 -55 -43 -130 -7 -60 7 -87 35 -68 13 8 13
10 1 18 -12 8 -12 17 -2 58 24 91 28 96 66 90 19 -3 35 -2 35 4 0 5 -2 9 -4 9
-2 0 -19 6 -37 14 -23 10 -40 11 -51 5z"/>
<path d="M7654 2855 c-6 -15 22 -48 79 -91 l27 -21 -75 -68 c-41 -37 -75 -73
-75 -81 0 -35 31 -18 115 61 l90 86 -70 64 c-38 35 -74 64 -78 65 -4 0 -10 -7
-13 -15z"/>
<path d="M13350 2852 c-62 -30 -100 -57 -100 -69 0 -17 16 -16 48 2 15 8 42
21 60 30 l33 16 -25 -49 c-13 -26 -32 -54 -40 -61 -16 -14 -21 -42 -10 -54 4
-3 31 12 60 34 54 39 54 39 54 15 0 -15 8 -30 19 -36 29 -15 90 16 97 50 3 14
10 42 16 63 6 20 8 40 5 43 -14 15 -37 -8 -47 -48 -16 -58 -24 -72 -44 -76
-12 -3 -16 4 -16 27 0 36 -12 46 -39 31 -19 -10 -20 -9 -6 25 18 42 18 40 -1
59 -19 20 -21 20 -64 -2z"/>
<path d="M9010 2840 c-25 -25 -25 -27 0 -68 27 -44 25 -73 -7 -96 -26 -19 -26
-19 -40 0 -8 10 -18 26 -23 34 -13 23 -19 8 -11 -30 4 -23 16 -40 33 -50 25
-13 29 -13 55 6 42 31 53 86 26 134 -25 46 -18 60 30 62 39 1 48 12 21 22 -30
12 -64 6 -84 -14z"/>
<path d="M16500 2839 c-59 -36 -90 -70 -90 -101 0 -21 6 -29 26 -34 32 -8 86
0 126 20 l31 16 -7 -58 c-3 -31 -14 -78 -23 -105 -15 -43 -21 -48 -54 -53 -84
-14 -121 -57 -138 -165 -14 -86 -14 -93 8 -120 l19 -24 25 23 25 23 7 -28 c3
-15 18 -43 32 -61 27 -35 49 -36 87 -3 24 21 68 109 61 121 -11 18 -23 10 -35
-24 -13 -41 -52 -79 -77 -74 -10 2 -28 22 -40 45 l-22 42 55 104 54 104 92 6
c89 6 158 21 158 35 0 4 -52 5 -116 4 -110 -4 -116 -3 -110 15 36 91 48 240
22 262 -11 9 -18 6 -35 -18 -13 -18 -37 -34 -59 -41 -82 -22 -91 -3 -20 43 33
21 44 24 55 15 11 -9 17 -8 24 3 28 44 -25 62 -81 28z m-19 -436 c-21 -43 -48
-89 -60 -103 l-22 -25 6 45 c14 98 18 111 47 135 16 14 38 25 49 25 17 0 15
-8 -20 -77z"/>
<path d="M4998 2834 c-31 -16 -57 -60 -52 -87 8 -55 31 -61 86 -23 l36 24 6
-37 c3 -21 9 -84 12 -140 l7 -103 -50 7 c-67 9 -126 -8 -141 -39 -30 -68 -20
-175 19 -196 53 -29 126 6 168 80 24 42 26 54 26 175 0 72 -6 178 -14 237 -12
94 -16 107 -35 112 -30 8 -38 7 -68 -10z m60 -36 c-2 -12 -19 -33 -38 -46 -32
-21 -35 -22 -39 -6 -3 18 49 74 70 74 6 0 9 -10 7 -22z m32 -375 c0 -66 -76
-157 -126 -151 -42 5 -60 43 -48 104 11 60 35 74 117 72 53 -1 57 -3 57 -25z"/>
<path d="M8737 2818 c-14 -18 -32 -47 -40 -64 -19 -37 -113 -124 -134 -124 -8
0 -13 -6 -10 -12 6 -19 37 -11 84 23 25 17 44 25 48 19 10 -17 40 -11 79 15
l36 24 0 -34 c0 -37 12 -50 37 -41 12 5 14 9 5 18 -14 14 -15 61 -3 105 11 39
-5 56 -26 27 -34 -47 -79 -94 -90 -94 -23 0 -14 28 27 86 22 32 40 63 40 71 0
24 -29 14 -53 -19z"/>
<path d="M9206 2820 c-46 -41 -79 -113 -72 -156 9 -44 29 -58 86 -56 49 1 130
34 130 52 0 13 -7 13 -31 0 -10 -6 -40 -14 -65 -19 -39 -8 -49 -6 -65 10 -10
10 -19 33 -19 49 0 24 4 30 21 30 41 0 109 50 109 81 0 18 -27 39 -49 39 -6 0
-26 -14 -45 -30z m64 -9 c0 -14 -50 -51 -69 -51 -11 0 -6 10 17 30 33 30 52
38 52 21z"/>
<path d="M2603 2806 c-21 -19 -42 -34 -48 -35 -15 -2 -23 -43 -36 -177 -12
-122 -9 -159 13 -152 8 3 13 39 15 103 3 66 10 116 24 154 11 31 21 63 22 72
1 9 6 15 13 12 6 -2 17 3 24 12 7 8 16 15 21 15 24 0 -3 -129 -32 -156 -18
-16 -19 -16 -19 9 0 39 -18 33 -26 -9 -13 -71 35 -73 79 -3 48 78 48 189 1
189 -8 0 -31 -15 -51 -34z"/>
<path d="M4726 2814 c-35 -31 -59 -93 -44 -112 8 -10 19 1 43 45 43 77 53 78
57 2 2 -39 8 -64 16 -67 9 -3 12 15 12 65 0 96 -26 117 -84 67z"/>
<path d="M12666 2833 c-3 -4 -6 -11 -6 -17 0 -15 267 -13 281 1 8 8 -6 12 -48
16 -81 8 -219 7 -227 0z"/>
<path d="M14785 2824 c-77 -28 -100 -93 -47 -134 23 -19 35 -21 82 -16 70 9
100 16 100 26 0 5 -27 6 -60 3 -62 -6 -110 12 -110 40 0 38 96 81 125 57 20
-17 32 -4 19 18 -14 22 -59 25 -109 6z"/>
<path d="M15053 2818 c-25 -27 -44 -89 -36 -118 9 -32 17 -23 30 31 16 65 28
81 59 73 26 -7 31 5 12 24 -18 18 -42 14 -65 -10z"/>
<path d="M2798 2784 c-18 -25 -33 -49 -33 -53 -1 -3 -11 -22 -23 -41 -23 -37
-27 -56 -13 -64 4 -3 21 18 36 47 44 82 85 137 100 137 8 0 15 5 15 10 0 6
-11 10 -24 10 -18 0 -34 -13 -58 -46z"/>
<path d="M6724 2820 c-12 -5 -34 -24 -48 -43 -56 -73 -20 -163 64 -160 45 2
118 32 139 56 18 22 3 21 -55 -3 -84 -37 -144 -26 -144 26 0 20 5 24 28 24 58
0 96 62 60 98 -14 14 -15 14 -44 2z m24 -47 c-2 -11 -14 -19 -33 -21 -30 -4
-30 -4 -11 17 23 26 49 28 44 4z"/>
<path d="M13955 2803 c-34 -29 -65 -72 -65 -90 0 -38 79 -57 135 -31 41 18 29
24 -40 20 -45 -3 -65 -1 -65 7 0 7 6 11 13 10 30 -4 47 2 47 17 0 12 -6 15
-21 11 -19 -5 -19 -3 7 24 15 16 34 29 41 29 20 0 15 -26 -7 -36 -14 -6 -17
-13 -11 -23 14 -21 61 12 61 42 0 51 -48 61 -95 20z"/>
<path d="M15247 2800 c-47 -41 -63 -81 -47 -119 19 -46 92 -53 118 -10 11 17
9 19 -13 19 -14 0 -25 -4 -25 -10 0 -15 -36 -12 -50 5 -15 18 -6 45 15 45 8 0
15 4 15 10 0 5 6 7 13 4 11 -4 57 29 57 42 0 16 -23 44 -35 44 -8 0 -30 -13
-48 -30z m34 -30 c-30 -26 -49 -26 -26 0 10 11 25 20 34 20 12 -1 10 -5 -8
-20z"/>
<path d="M15483 2813 c-46 -24 -64 -45 -61 -72 2 -22 8 -26 33 -26 17 1 40 4
52 9 19 6 25 3 32 -17 14 -37 31 -43 31 -12 0 14 -4 24 -9 21 -5 -4 -5 6 1 21
13 35 -3 78 -31 86 -11 2 -32 -2 -48 -10z m47 -32 c0 -13 -22 -29 -53 -36 -33
-9 -36 8 -5 29 24 17 58 21 58 7z"/>
<path d="M16223 2788 c-66 -55 -88 -91 -69 -108 12 -9 18 -6 31 14 9 13 31 36
49 49 l32 25 -4 -33 c-4 -37 13 -82 21 -55 2 8 12 39 20 69 12 40 13 58 5 68
-17 21 -31 16 -85 -29z"/>
<path d="M3151 2794 c-26 -33 -28 -92 -4 -101 12 -5 28 6 55 37 l38 43 0 -36
c0 -20 5 -39 10 -42 14 -9 13 61 -1 88 -24 45 -67 50 -98 11z m59 -3 c0 -6
-11 -23 -25 -38 -19 -22 -24 -24 -25 -10 0 9 9 26 20 37 22 22 30 25 30 11z"/>
<path d="M3935 2810 c-3 -5 -3 -14 0 -20 10 -15 -2 -12 -20 6 -18 19 -24 16
-30 -14 -2 -12 -13 -42 -24 -68 -20 -43 -20 -71 -1 -59 4 3 23 31 41 63 31 53
34 55 37 30 4 -37 24 -35 61 5 21 22 31 27 31 16 0 -20 31 -49 53 -49 23 0 21
17 -3 30 -11 6 -20 16 -20 23 0 7 -6 21 -13 31 -12 17 -15 16 -45 -9 l-32 -27
0 26 c0 26 -22 36 -35 16z"/>
<path d="M4213 2793 c-25 -57 -35 -94 -29 -109 5 -13 12 -8 35 22 15 22 35 45
44 53 15 12 17 11 17 -7 0 -33 20 -36 49 -7 27 25 29 26 34 6 6 -26 38 -27 60
-3 23 25 21 35 -2 22 -28 -14 -31 -13 -31 15 0 31 -5 31 -47 -1 -31 -24 -33
-24 -33 -5 0 30 -19 35 -49 13 l-28 -20 5 24 c6 33 -10 30 -25 -3z"/>
<path d="M14223 2795 c-37 -21 -40 -21 -36 -4 10 38 -15 17 -51 -41 -23 -37
-35 -67 -32 -77 6 -13 18 -5 64 39 61 60 102 87 102 68 0 -6 -12 -31 -26 -55
-25 -43 -25 -65 -1 -65 7 0 26 27 44 59 26 47 30 61 20 73 -21 26 -43 27 -84
3z"/>
<path d="M3650 2804 c-17 -5 -60 -64 -60 -82 0 -6 9 -16 21 -22 23 -13 78 3
80 24 1 6 4 -5 8 -24 3 -19 13 -36 21 -38 12 -2 15 9 14 53 0 30 -3 58 -7 61
-3 4 -23 -8 -44 -25 -41 -34 -53 -38 -53 -18 0 19 33 47 54 47 10 0 16 6 14
13 -5 13 -24 17 -48 11z"/>
<path d="M2951 2776 c-30 -16 -39 -38 -40 -89 -2 -86 44 -102 104 -36 31 35
36 46 31 72 -7 36 -33 67 -55 67 -9 -1 -27 -7 -40 -14z m61 -41 c16 -35 -19
-100 -54 -100 -21 0 -23 4 -20 45 3 31 10 50 25 62 29 23 35 22 49 -7z"/>
<path d="M6353 2768 c-11 -13 -28 -38 -37 -55 -18 -35 -36 -44 -36 -17 0 23
-32 74 -47 74 -19 0 -16 -15 13 -80 l26 -58 -40 -59 c-57 -85 -110 -194 -107
-223 2 -14 4 -28 4 -32 1 -5 8 -8 16 -8 8 0 12 6 10 13 -7 16 63 161 113 235
55 79 131 220 124 226 -10 10 -18 7 -39 -16z"/>
<path d="M4534 2745 c-6 -23 0 -45 10 -34 10 12 15 59 6 59 -5 0 -12 -11 -16
-25z"/>
<path d="M7401 2759 c-90 -17 -81 -55 10 -40 29 6 72 13 93 16 51 7 55 12 22
25 -31 12 -63 11 -125 -1z"/>
<path d="M16011 2720 c-11 -38 -9 -60 7 -60 7 0 32 70 32 90 0 5 -6 10 -13 10
-8 0 -19 -18 -26 -40z"/>
<path d="M3235 2585 l-7 -95 -39 0 c-26 0 -47 -8 -66 -24 -26 -23 -28 -29 -27
-98 1 -129 42 -170 96 -93 35 51 63 152 46 172 -9 11 -5 13 22 11 25 -2 33 1
36 16 1 11 -5 20 -17 23 -17 5 -19 15 -19 89 0 45 -4 85 -9 88 -5 4 -12 -37
-16 -89z m-15 -139 c0 -29 -41 -145 -59 -167 l-19 -23 -12 58 c-14 67 -7 121
18 135 26 16 72 13 72 -3z"/>
<path d="M10974 2618 c3 -13 9 -33 12 -45 8 -31 -40 -80 -61 -63 -12 10 -16 9
-21 -4 -19 -49 32 -61 76 -17 38 37 45 70 26 115 -16 40 -42 51 -32 14z"/>
<path d="M11345 2574 c-50 -26 -86 -66 -116 -129 -16 -33 -29 -65 -29 -70 0
-13 -102 -37 -123 -30 -23 10 -30 -13 -7 -25 12 -6 40 -8 71 -4 l50 7 -6 -29
c-19 -83 -40 -152 -53 -175 -18 -32 -67 -63 -91 -56 -23 6 -23 -21 0 -28 28
-9 72 5 102 33 28 27 54 96 77 205 11 55 13 57 43 58 48 1 149 24 141 32 -4 4
-42 7 -85 7 l-77 0 7 33 c22 93 98 166 162 152 22 -5 29 -3 29 8 0 29 -49 35
-95 11z"/>
<path d="M17127 2578 c-11 -41 -102 -280 -120 -315 -17 -33 -24 -118 -9 -109
19 11 164 384 160 410 -4 23 -26 34 -31 14z"/>
<path d="M15584 2565 c-3 -8 -3 -18 0 -23 3 -5 -3 -36 -13 -68 -10 -33 -30
-98 -45 -146 -31 -99 -54 -134 -96 -143 -43 -10 -41 -40 2 -31 52 10 84 51
117 145 17 47 42 118 55 156 32 88 34 125 6 125 -11 0 -23 -7 -26 -15z"/>
<path d="M9442 2507 c-6 -7 -20 -48 -32 -92 -12 -44 -33 -97 -48 -119 -47 -67
-56 -88 -45 -105 24 -38 157 -14 189 34 26 40 -21 112 -69 103 l-23 -4 22 75
c12 42 25 83 29 92 8 21 -9 33 -23 16z m26 -219 c23 -23 14 -55 -22 -72 -35
-16 -106 -22 -106 -8 1 21 81 92 105 92 6 0 16 -5 23 -12z"/>
<path d="M2477 2493 c-3 -5 -8 -30 -12 -58 -7 -49 -41 -184 -48 -192 -2 -2
-16 1 -31 6 -26 11 -56 6 -56 -9 0 -5 18 -11 41 -15 32 -6 39 -10 34 -23 -4
-10 -9 -36 -12 -58 -6 -48 13 -71 22 -27 21 98 27 113 50 113 37 0 85 12 85
21 0 5 -20 9 -45 9 -25 0 -45 4 -45 8 0 5 9 44 20 87 21 84 26 145 11 145 -6
0 -12 -3 -14 -7z"/>
<path d="M14852 2443 c-11 -27 -27 -73 -36 -103 -49 -163 -56 -178 -110 -220
-18 -14 -19 -13 -13 19 4 18 18 42 32 53 31 24 32 40 4 36 -29 -4 -58 -45 -65
-90 -5 -30 -3 -38 15 -47 42 -23 103 45 147 165 14 38 38 102 54 143 16 41 27
78 24 83 -13 20 -33 4 -52 -39z"/>
<path d="M7333 2433 c-17 -27 -40 -70 -51 -97 -20 -45 -145 -186 -165 -186
-25 0 36 181 87 257 31 45 33 63 6 63 -11 0 -20 -3 -20 -8 0 -17 -107 -153
-196 -249 -52 -56 -94 -104 -94 -107 0 -19 33 4 107 77 74 72 84 78 77 52 -17
-62 -2 -115 33 -115 19 0 151 126 170 163 22 44 27 25 8 -35 -13 -41 -14 -59
-6 -80 14 -36 31 -36 31 0 0 15 16 82 36 147 42 142 44 158 23 163 -11 2 -27
-14 -46 -45z"/>
<path d="M14087 2453 c-8 -15 -22 -61 -32 -100 -16 -69 -18 -73 -41 -67 -15 4
-24 2 -24 -6 0 -6 9 -14 20 -17 24 -6 23 -1 6 -51 -20 -57 -30 -148 -17 -156
6 -4 13 5 17 21 3 15 18 61 31 101 20 55 30 72 44 72 11 0 19 7 19 15 0 8 -7
15 -15 15 -16 0 -16 7 12 105 8 28 15 59 16 69 3 30 -21 30 -36 -1z"/>
<path d="M17760 2400 c-41 -7 -71 -23 -90 -45 -16 -19 4 -44 63 -82 31 -20 36
-27 27 -38 -16 -20 -79 -30 -93 -16 -16 16 -27 13 -27 -8 0 -45 131 -31 153
16 12 27 0 45 -57 81 l-39 24 24 14 c13 7 38 13 55 14 28 0 31 -3 26 -25 -6
-33 11 -32 26 1 8 17 9 31 2 43 -12 24 -28 29 -70 21z"/>
<path d="M2842 2357 c-37 -38 -40 -57 -12 -103 25 -39 18 -82 -14 -94 -16 -6
-23 -3 -28 11 -11 29 -28 22 -28 -11 0 -51 63 -63 93 -16 27 42 29 75 6 122
l-23 44 24 25 c13 14 32 25 43 25 24 0 17 24 -9 28 -11 2 -32 -11 -52 -31z"/>
<path d="M9862 2379 c2 -6 -11 -26 -28 -43 -37 -37 -64 -110 -47 -127 15 -15
36 -1 29 18 -10 26 33 93 70 109 32 13 46 34 23 34 -5 0 -7 5 -4 10 4 6 -5 10
-20 10 -15 0 -25 -5 -23 -11z"/>
<path d="M17410 2332 c-31 -31 -40 -46 -40 -73 0 -40 7 -52 37 -68 40 -21 199
-8 164 14 -7 4 -16 3 -20 -3 -4 -7 -22 -8 -56 -1 -84 17 -84 16 -32 63 49 46
53 55 37 87 -16 29 -45 23 -90 -19z m64 -15 c-3 -7 -21 -25 -40 -40 -27 -24
-34 -26 -34 -12 0 20 58 77 71 70 4 -3 6 -11 3 -18z"/>
<path d="M1967 2343 c-3 -5 -7 -26 -8 -48 -2 -22 -6 -42 -9 -45 -13 -13 -48
-95 -44 -102 9 -15 23 -8 30 14 9 31 83 127 106 139 19 10 19 9 2 -22 -25 -49
-33 -84 -22 -102 11 -21 29 -22 22 -2 -3 8 8 45 25 81 17 36 31 70 31 75 0 20
-62 8 -86 -16 -32 -32 -38 -32 -30 5 5 27 -6 41 -17 23z"/>
<path d="M9610 2321 c-61 -61 -45 -131 31 -131 45 0 45 14 0 23 -36 8 -45 30
-26 67 16 31 51 48 67 32 18 -18 1 -41 -36 -48 -20 -3 -36 -11 -36 -16 0 -12
64 -2 91 15 11 7 19 20 19 30 0 62 -61 77 -110 28z"/>
<path d="M17275 2338 c-2 -7 -9 -29 -15 -50 -9 -29 -19 -40 -51 -52 -49 -20
-59 -15 -59 30 0 46 -26 45 -34 -2 -6 -29 -3 -39 15 -55 28 -24 43 -23 99 4
39 19 47 29 62 72 9 28 17 53 17 58 2 12 -29 8 -34 -5z"/>
<path d="M7511 2327 c-53 -19 -60 -39 -32 -90 27 -50 25 -81 -6 -85 -17 -3
-22 3 -25 25 l-3 28 -13 -23 c-34 -60 21 -101 69 -52 35 34 37 72 9 115 -11
17 -20 33 -20 37 0 4 20 13 45 19 26 7 44 17 42 23 -5 16 -27 17 -66 3z"/>
<path d="M10033 2320 c-41 -25 -44 -62 -7 -96 29 -27 26 -39 -12 -47 -20 -3
-28 0 -31 14 -7 26 -17 24 -33 -6 -18 -34 -2 -49 47 -48 27 1 44 8 60 28 29
33 29 37 -2 73 -14 17 -25 35 -25 41 0 14 33 31 59 31 12 0 21 7 21 15 0 21
-39 19 -77 -5z"/>
<path d="M12572 2318 c-13 -13 -22 -17 -20 -9 2 7 -3 16 -10 18 -7 3 -19 -11
-28 -34 -8 -21 -25 -57 -36 -81 -31 -66 -8 -101 25 -39 10 18 36 53 57 77 36
41 39 43 40 21 0 -13 -5 -41 -11 -62 -7 -20 -8 -46 -5 -56 6 -13 15 2 37 62
33 89 32 125 -4 125 -12 0 -33 -10 -45 -22z"/>
<path d="M2607 2289 c-42 -49 -52 -82 -36 -121 12 -28 42 -43 76 -36 15 3 13
7 -11 18 -34 17 -46 40 -21 40 9 0 32 15 51 34 35 35 44 72 22 94 -21 21 -46
13 -81 -29z m63 -8 c0 -21 -63 -77 -68 -60 -5 12 45 79 59 79 5 0 9 -9 9 -19z"/>
<path d="M7688 2293 c-84 -85 -39 -172 66 -128 46 19 47 37 2 23 -44 -14 -86
-3 -86 21 0 13 9 21 29 26 69 15 108 86 51 93 -18 2 -35 -8 -62 -35z m62 2 c0
-2 -10 -10 -22 -16 -21 -11 -22 -11 -9 4 13 16 31 23 31 12z"/>
<path d="M11632 2295 c-63 -71 -82 -150 -37 -150 15 0 19 6 17 24 -3 34 56
124 77 116 30 -12 36 -10 36 14 0 20 -6 25 -31 28 -26 3 -37 -3 -62 -32z"/>
<path d="M16775 2320 c-43 -9 -69 -25 -99 -61 -29 -35 -30 -56 -4 -73 17 -10
60 -3 111 19 14 6 17 2 17 -18 0 -26 16 -44 28 -32 3 3 0 10 -7 14 -9 6 -10
11 -2 15 6 4 11 20 11 35 0 15 5 32 11 38 16 16 7 55 -16 63 -11 4 -33 4 -50
0z m28 -58 c-18 -18 -94 -45 -102 -36 -9 8 41 43 74 53 39 11 50 4 28 -17z"/>
<path d="M2183 2312 c-7 -4 -19 -27 -28 -51 -22 -63 -4 -121 37 -121 28 0 88
63 88 93 0 28 -47 80 -66 73 -7 -3 -14 -1 -16 4 -2 5 -8 6 -15 2z m67 -75 c0
-19 -42 -67 -59 -67 -19 0 -23 47 -7 84 l16 37 24 -18 c14 -10 26 -26 26 -36z"/>
<path d="M8535 2302 c-16 -10 -37 -16 -46 -14 -11 2 -19 -6 -23 -24 -4 -15
-18 -41 -32 -57 -13 -16 -24 -35 -24 -42 0 -32 21 -22 68 31 69 77 90 91 108
72 12 -11 12 -21 4 -42 -14 -37 -13 -77 2 -73 13 2 48 80 48 105 0 17 -45 62
-62 62 -7 0 -26 -8 -43 -18z"/>
<path d="M12753 2293 c-33 -29 -55 -97 -42 -130 20 -55 66 -58 115 -9 26 26
34 43 34 69 0 38 -19 61 -44 51 -17 -7 -22 -34 -6 -34 6 0 10 -8 10 -18 0 -20
-39 -62 -58 -62 -19 0 -14 52 8 95 23 44 13 65 -17 38z"/>
<path d="M14936 2280 c-65 -77 -37 -137 44 -95 27 14 29 14 32 -5 4 -29 21
-20 25 13 2 16 7 37 13 47 23 43 -1 41 -51 -5 -36 -32 -69 -45 -69 -27 0 4 9
22 20 40 18 28 25 33 46 28 21 -6 25 -4 22 11 -6 32 -52 28 -82 -7z"/>
<path d="M15167 2280 c-26 -30 -42 -83 -35 -115 6 -29 23 -16 38 30 20 60 45
88 71 80 17 -6 20 -3 17 12 -2 12 -13 19 -34 21 -25 2 -37 -3 -57 -28z"/>
<path d="M8750 2275 c-17 -45 -12 -84 15 -111 23 -23 27 -24 52 -10 47 24 83
63 83 91 0 36 -15 31 -47 -17 -21 -31 -36 -43 -53 -43 -23 0 -25 4 -24 40 0
22 2 46 5 54 8 26 -21 23 -31 -4z"/>
<path d="M9010 2276 c-6 -16 -19 -41 -30 -56 -43 -61 -13 -67 45 -10 25 25 43
36 49 30 15 -15 42 -12 56 5 20 24 40 17 47 -15 3 -17 10 -33 14 -36 16 -10
21 24 9 61 -9 29 -16 35 -38 35 -15 0 -36 -7 -46 -15 -14 -11 -23 -12 -32 -4
-7 6 -19 9 -26 7 -7 -3 -18 2 -25 11 -10 14 -13 12 -23 -13z"/>
<path d="M13020 2288 c-14 -5 -35 -19 -47 -30 l-23 -21 0 21 c0 37 -19 24 -31
-20 -6 -24 -18 -51 -26 -60 -15 -16 -11 -38 7 -38 5 0 34 25 65 56 31 31 58
54 61 51 3 -2 0 -25 -6 -51 -6 -26 -8 -52 -5 -57 9 -14 25 -11 25 4 0 8 7 27
15 44 8 16 18 44 21 60 8 38 -17 56 -56 41z"/>
<path d="M13754 2290 c-64 -14 -70 -35 -24 -87 34 -39 36 -46 14 -64 -12 -10
-20 -10 -35 -1 -26 17 -39 15 -39 -6 0 -44 59 -56 104 -21 34 27 33 60 -4 103
-31 34 -31 35 -8 38 13 2 36 0 51 -5 33 -11 45 -3 31 20 -14 22 -51 31 -90 23z"/>
<path d="M15414 2280 c-30 -12 -74 -68 -74 -94 0 -25 17 -46 37 -46 10 0 11 5
4 17 -6 12 -5 26 5 44 16 31 38 43 77 40 36 -3 37 26 1 39 -14 6 -26 10 -27 9
-1 0 -11 -4 -23 -9z"/>
<path d="M11375 2246 c-41 -44 -51 -80 -30 -112 26 -40 104 -25 153 29 35 38
26 67 -28 94 -25 12 -49 22 -54 23 -5 0 -23 -15 -41 -34z m119 -43 c6 -15 -38
-47 -75 -56 -41 -10 -58 16 -32 51 32 42 92 45 107 5z"/>
<path d="M14133 2265 c0 -19 18 -19 43 0 18 14 17 14 -12 15 -21 0 -31 -5 -31
-15z"/>
<path d="M14284 2259 c-38 -11 -96 -73 -88 -94 10 -25 47 -27 102 -7 l52 20 0
-39 c0 -21 4 -39 9 -39 11 0 31 123 21 133 -4 5 -27 -5 -51 -22 -50 -34 -89
-48 -89 -32 0 16 61 51 88 51 12 0 22 4 22 10 0 17 -34 27 -66 19z"/>
<path d="M14530 2245 c-19 -14 -36 -21 -38 -15 -7 20 -20 10 -27 -20 -4 -16
-11 -32 -16 -35 -15 -10 -10 -45 6 -45 8 0 15 6 15 13 0 13 91 97 106 97 11 0
-5 -63 -19 -72 -9 -6 -9 -10 3 -18 24 -16 29 -12 40 31 23 84 -6 111 -70 64z"/>
<path d="M13280 2213 c-58 -9 -70 -14 -70 -30 0 -14 9 -15 71 -9 39 3 81 13
92 21 12 8 19 15 17 16 -27 4 -90 6 -110 2z"/>
<path d="M17861 2141 c-9 -6 -10 -11 -2 -15 6 -4 11 -4 12 1 0 4 4 -3 10 -15
11 -30 34 -23 34 9 0 26 -28 37 -54 20z"/>
<path d="M3138 2133 c-25 -6 -22 -16 6 -29 27 -13 48 -1 39 22 -5 14 -14 15
-45 7z"/>
<path d="M15109 1687 c-41 -34 -122 -147 -174 -241 -45 -83 -48 -86 -82 -86
-38 0 -43 -23 -6 -28 19 -3 20 -8 15 -67 -7 -97 24 -131 137 -150 59 -10 51
10 -15 39 -72 30 -84 42 -84 87 0 57 15 89 41 86 12 -1 24 4 26 11 3 6 -2 12
-11 12 -9 0 -16 6 -16 13 0 19 107 197 139 232 45 49 74 96 65 105 -5 5 -21
-1 -35 -13z"/>
<path d="M9483 1608 c-9 -14 -31 -81 -109 -332 -36 -121 -43 -154 -35 -173 14
-31 31 -29 31 3 0 14 13 65 29 113 16 48 46 148 65 222 20 74 40 141 45 150
15 26 -8 41 -26 17z"/>
<path d="M14203 1588 c-4 -7 -26 -67 -48 -133 l-40 -120 -37 -6 c-45 -7 -103
-45 -117 -77 -15 -31 -14 -85 2 -104 19 -24 57 -29 90 -12 20 11 38 35 57 77
26 59 130 360 130 378 0 14 -28 11 -37 -3z m-103 -293 c0 -16 -54 -122 -67
-132 -35 -26 -60 41 -30 79 20 27 97 69 97 53z"/>
<path d="M1538 1500 c-108 -113 -170 -228 -176 -323 -4 -77 16 -120 76 -161
35 -25 55 -31 114 -34 50 -3 69 -1 64 7 -4 6 -24 11 -45 11 -56 0 -134 43
-154 85 -26 55 -22 120 13 193 41 87 124 205 177 251 24 21 43 44 43 50 0 28
-34 4 -112 -79z"/>
<path d="M10247 1475 c-26 -58 -50 -117 -53 -131 -8 -30 -11 -32 -88 -42 -37
-4 -61 -12 -64 -21 -4 -11 8 -13 61 -9 l66 6 -15 -37 c-42 -98 -60 -158 -55
-180 10 -39 28 -35 34 6 4 21 24 79 45 128 l38 90 64 8 c115 14 130 18 130 29
0 7 -28 9 -90 6 -49 -3 -90 -5 -90 -4 0 9 63 184 75 205 19 37 19 51 1 51 -7
0 -33 -46 -59 -105z"/>
<path d="M2850 1539 c0 -6 24 -34 54 -62 29 -29 61 -67 71 -86 37 -73 29 -203
-18 -296 -31 -63 -108 -164 -122 -159 -6 3 -17 -2 -24 -9 -9 -12 -6 -15 20
-19 26 -4 37 1 65 30 83 85 132 194 141 308 10 123 -15 169 -150 282 -30 25
-37 27 -37 11z"/>
<path d="M16820 1435 c-31 -65 -61 -115 -70 -116 -8 -1 -21 -2 -29 -3 -24 -2
-25 -27 -1 -33 13 -4 19 -11 16 -20 -4 -8 -9 -32 -12 -53 -6 -34 -3 -43 24
-70 25 -25 39 -30 76 -30 38 0 46 3 46 18 0 15 -6 17 -35 14 -41 -5 -75 19
-75 52 0 12 9 40 20 64 l19 42 85 0 c83 0 119 12 73 24 -12 3 -50 6 -84 6
l-62 0 26 58 c14 31 34 75 44 96 22 46 24 66 7 66 -7 -1 -38 -52 -68 -115z"/>
<path d="M4973 1508 c-28 -32 -75 -106 -97 -153 -10 -21 -56 -99 -102 -171
-82 -129 -94 -154 -74 -154 7 0 116 154 125 177 1 1 30 9 66 16 l64 14 -3 -76
c-3 -66 -2 -73 12 -62 8 7 18 34 21 59 9 65 21 92 44 92 26 0 51 10 51 21 0 5
-16 9 -36 9 -34 0 -36 1 -30 28 3 15 11 59 17 97 17 107 -10 156 -58 103z m12
-137 l-17 -90 -50 -17 c-27 -9 -52 -14 -55 -11 -2 3 8 27 23 54 46 80 105 165
111 159 3 -3 -2 -46 -12 -95z"/>
<path d="M6601 1493 c-7 -21 -22 -52 -32 -70 -17 -28 -26 -32 -82 -38 -61 -7
-87 -18 -87 -37 0 -5 8 -7 18 -4 9 3 39 8 65 11 47 5 48 5 36 -17 -7 -13 -28
-48 -47 -78 -57 -88 -47 -140 30 -161 50 -13 138 1 138 23 0 7 -18 9 -53 5
-28 -4 -66 -3 -82 2 -27 7 -30 11 -28 46 2 24 20 67 48 116 51 86 34 77 194
106 25 5 46 14 49 22 4 11 -8 12 -58 6 -35 -4 -76 -11 -91 -15 l-27 -8 23 50
c21 46 24 78 6 78 -4 0 -13 -17 -20 -37z"/>
<path d="M11475 1493 c-3 -16 -24 -58 -46 -95 l-39 -67 -52 -3 c-68 -4 -79
-28 -13 -28 54 0 53 8 11 -103 -38 -99 -32 -147 16 -147 45 0 179 63 164 77
-2 2 -35 -6 -73 -20 -72 -26 -93 -26 -93 2 0 25 60 175 73 183 7 4 38 8 70 8
41 0 56 3 51 12 -4 7 -3 8 5 4 14 -9 61 1 61 12 0 4 -38 5 -85 3 -60 -2 -85 0
-85 9 0 6 16 41 35 77 19 36 35 74 35 85 0 28 -27 21 -35 -9z"/>
<path d="M2604 1401 c-86 -90 -124 -142 -124 -165 0 -18 22 -21 48 -7 9 4 32
11 49 14 l33 6 -3 -77 c-2 -63 1 -77 13 -77 11 0 18 20 25 79 10 79 10 80 43
88 39 10 42 28 4 28 l-27 0 5 63 c3 34 12 72 20 84 11 17 12 25 3 34 -9 9 -31
-9 -89 -70z m22 -97 c-4 -14 -10 -23 -15 -20 -4 3 -23 1 -42 -4 l-33 -10 45
46 c46 47 58 43 45 -12z"/>
<path d="M2003 1438 c-54 -47 -92 -91 -93 -105 0 -22 45 -15 55 9 6 11 30 37
54 57 l44 36 -6 -32 c-8 -41 -80 -161 -139 -231 -27 -31 -48 -62 -48 -69 0
-26 26 -12 71 38 48 55 69 58 69 10 0 -32 16 -51 45 -51 25 0 73 36 62 46 -4
4 -13 2 -19 -4 -21 -21 -48 -14 -48 12 0 37 -18 76 -34 76 -10 0 -5 15 18 55
49 80 59 110 52 150 -9 45 -33 46 -83 3z"/>
<path d="M7415 1410 c-7 -12 2 -30 16 -30 12 0 12 27 0 35 -5 3 -12 1 -16 -5z"/>
<path d="M9212 1383 c5 -25 28 -28 28 -4 0 12 -6 21 -16 21 -9 0 -14 -7 -12
-17z"/>
<path d="M13560 1367 c-57 -15 -61 -34 -21 -93 34 -53 30 -77 -17 -95 -21 -8
-29 -7 -38 5 -15 21 -24 20 -24 -3 0 -47 68 -51 110 -6 30 31 28 68 -4 113
-14 21 -22 40 -17 45 5 5 30 9 55 9 25 1 46 5 46 9 0 7 -34 30 -42 28 -2 0
-23 -6 -48 -12z"/>
<path d="M13728 1321 c-83 -53 -99 -110 -42 -148 22 -14 27 -14 34 -2 7 10 3
16 -11 21 -49 19 -26 75 46 110 25 12 48 19 51 15 12 -12 -16 -35 -51 -41 -21
-4 -35 -13 -35 -21 0 -19 20 -19 70 1 44 18 62 53 40 79 -19 23 -51 18 -102
-14z"/>
<path d="M14980 1340 c0 -5 4 -10 9 -10 6 0 13 5 16 10 3 6 -1 10 -9 10 -9 0
-16 -4 -16 -10z"/>
<path d="M17059 1313 c-41 -35 -84 -103 -80 -128 5 -37 30 -65 59 -65 34 0
145 32 195 56 22 11 37 25 37 36 0 23 1 23 -51 -6 -51 -29 -171 -61 -194 -52
-20 7 -19 35 3 43 55 20 108 85 96 117 -10 26 -33 26 -65 -1z m24 -37 c-21
-28 -60 -56 -48 -34 13 22 48 58 57 58 5 0 1 -11 -9 -24z"/>
<path d="M5993 1298 c-40 -43 -53 -69 -53 -111 0 -49 35 -74 98 -68 26 2 10
19 -25 28 -53 12 -54 37 -4 63 22 11 48 31 57 45 15 23 15 27 0 50 -22 33 -36
32 -73 -7z m50 -13 c6 -14 -49 -63 -59 -52 -4 4 43 67 51 67 1 0 5 -7 8 -15z"/>
<path d="M6226 1312 c-15 -18 -15 -22 3 -63 20 -44 20 -44 -1 -66 -23 -25 -48
-20 -48 9 0 17 -2 18 -15 8 -23 -19 -14 -53 19 -69 25 -12 31 -11 54 6 36 27
45 68 25 111 -14 29 -14 35 -2 43 8 5 26 6 42 3 31 -7 37 10 8 26 -30 15 -66
12 -85 -8z"/>
<path d="M13237 1279 c-38 -60 -121 -146 -149 -155 -19 -6 -25 -34 -8 -34 15
0 59 29 93 59 15 13 27 19 27 13 0 -18 29 -14 66 9 l34 21 0 -26 c0 -19 5 -26
19 -26 11 0 23 5 27 12 4 7 3 8 -4 4 -19 -11 -14 19 10 69 25 51 18 67 -16 39
-14 -10 -41 -32 -60 -48 -20 -16 -39 -26 -42 -23 -4 3 8 31 26 62 22 39 29 60
22 67 -7 7 -21 -7 -45 -43z"/>
<path d="M5776 1289 c-19 -16 -38 -39 -41 -50 -4 -10 -12 -19 -19 -19 -8 0
-16 -18 -20 -42 -12 -70 -12 -81 1 -85 6 -2 28 31 51 79 42 91 77 124 118 114
26 -7 31 3 12 22 -21 21 -66 13 -102 -19z"/>
<path d="M8988 1312 c-46 -6 -53 -25 -29 -83 12 -27 19 -59 16 -69 -9 -28 -43
-35 -66 -14 -26 23 -36 11 -15 -21 21 -32 55 -32 90 0 31 29 32 39 7 104 l-18
49 36 6 c75 13 91 18 91 26 0 8 -60 10 -112 2z"/>
<path d="M15120 1300 c-21 -21 -40 -62 -40 -83 0 -7 7 -21 15 -31 13 -17 19
-18 55 -7 54 16 64 38 43 95 -19 52 -40 59 -73 26z m38 -57 c2 -15 -4 -23 -18
-28 -29 -9 -36 0 -21 31 13 29 35 28 39 -3z"/>
<path d="M7495 1296 c-18 -13 -18 -16 -2 -66 30 -91 19 -118 -34 -89 -20 10
-20 11 -2 24 10 7 16 16 13 19 -8 7 -53 -17 -57 -30 -6 -18 25 -43 62 -50 63
-12 79 26 51 119 -7 25 -11 48 -8 52 3 3 27 2 54 -1 55 -8 66 8 17 25 -43 15
-71 14 -94 -3z"/>
<path d="M11713 1291 c-21 -13 -36 -33 -43 -58 -16 -53 -10 -82 22 -106 25
-19 31 -19 87 -7 33 7 68 21 77 31 21 23 16 23 -68 3 -55 -13 -71 -14 -83 -4
-22 18 -18 28 14 35 47 10 83 50 79 88 -2 26 -8 33 -28 35 -14 1 -39 -6 -57
-17z m57 -23 c0 -19 -12 -33 -37 -47 -28 -14 -33 -14 -33 4 0 17 39 55 57 55
7 0 13 -6 13 -12z"/>
<path d="M16072 1270 c-30 -40 -54 -108 -46 -132 8 -25 29 -8 39 30 11 46 53
102 71 95 12 -4 15 -1 12 13 -6 33 -50 29 -76 -6z"/>
<path d="M8380 1276 c-44 -14 -74 -64 -65 -106 10 -44 34 -53 81 -30 45 24 45
24 38 7 -5 -14 32 -54 42 -44 3 3 0 15 -6 27 -7 13 -9 37 -5 56 3 19 2 34 -3
34 -5 0 -12 13 -15 29 -7 35 -23 42 -67 27z m26 -93 c-58 -50 -80 -5 -24 50
l31 32 10 -29 c9 -26 7 -32 -17 -53z"/>
<path d="M9603 1273 c-62 -21 -113 -82 -113 -134 0 -81 83 -124 160 -84 17 9
30 17 30 19 0 2 -26 2 -59 -1 -50 -5 -61 -3 -80 16 -41 41 -17 112 49 146 36
19 50 19 50 1 0 -20 -39 -46 -67 -46 -13 0 -23 -4 -23 -10 0 -5 14 -10 30 -10
41 0 80 39 80 79 0 39 -6 41 -57 24z"/>
<path d="M16257 1255 c-25 -19 -49 -44 -52 -56 -10 -29 30 -68 78 -76 48 -7
48 10 0 29 l-38 14 42 27 c47 30 63 52 56 78 -8 28 -35 23 -86 -16z m35 -36
c-18 -17 -40 -29 -49 -27 -13 2 -5 12 27 35 53 39 67 34 22 -8z"/>
<path d="M15785 1239 c-33 -31 -45 -49 -45 -71 0 -35 28 -48 98 -47 44 0 99
15 77 20 -5 1 -14 3 -20 4 -5 2 -34 3 -63 4 -70 1 -79 22 -29 68 25 22 47 33
67 33 20 0 30 5 30 15 0 10 -11 15 -35 15 -28 0 -45 -9 -80 -41z"/>
<path d="M10881 1229 c-38 -31 -52 -37 -49 -24 5 30 -21 29 -33 -2 -6 -15 -20
-47 -32 -70 -33 -67 -11 -74 45 -16 25 26 60 62 77 78 l32 30 -21 -49 c-26
-62 -24 -100 8 -104 12 -2 22 1 22 7 0 6 -5 11 -11 11 -15 0 -5 48 21 102 42
87 20 100 -59 37z"/>
<path d="M16458 1245 c-55 -37 -64 -60 -34 -80 20 -13 32 -14 63 -6 55 15 66
14 60 -8 -5 -20 9 -51 23 -51 5 0 8 13 8 29 -1 16 9 45 22 65 12 21 19 40 16
43 -3 4 -23 -3 -44 -15 -40 -22 -117 -43 -126 -34 -3 3 8 15 25 28 26 19 35
21 55 12 34 -16 44 0 15 23 -30 25 -39 24 -83 -6z"/>
<path d="M3760 1243 c-46 -14 -46 -14 -27 -24 27 -16 154 -16 168 -2 7 7 11
14 8 16 -7 7 -133 15 -149 10z"/>
<path d="M7301 1191 c-21 -58 -28 -111 -13 -111 10 0 63 151 56 162 -11 18
-22 5 -43 -51z"/>
<path d="M11073 1242 c-7 -4 -22 -29 -33 -55 -16 -35 -18 -51 -10 -66 15 -28
43 -34 84 -17 30 13 36 20 36 46 0 38 -16 70 -35 70 -9 0 -12 6 -9 15 7 16
-13 20 -33 7z m47 -84 c0 -21 -48 -44 -62 -30 -5 5 -2 24 8 45 17 35 19 36 36
20 10 -9 18 -25 18 -35z"/>
<path d="M9842 1220 c-26 -16 -30 -17 -25 -3 4 10 2 14 -7 11 -8 -2 -18 -18
-22 -34 -4 -17 -17 -39 -28 -49 -22 -20 -27 -45 -7 -45 6 1 35 23 62 50 l50
50 3 -32 c2 -18 -1 -34 -7 -36 -14 -5 -4 -22 13 -22 8 0 16 11 18 25 3 13 1
22 -3 19 -5 -3 -9 0 -9 5 0 6 5 11 10 11 15 0 12 46 -3 58 -10 8 -21 6 -45 -8z"/>
<path d="M9161 1199 c-15 -45 -14 -89 3 -89 8 0 15 16 19 43 2 23 8 50 12 60
5 12 2 17 -8 17 -8 0 -20 -14 -26 -31z"/>
<path d="M2276 1173 c-4 -9 -2 -21 4 -27 13 -13 46 17 36 33 -11 16 -33 13
-40 -6z"/>
<path d="M13740 1173 c0 -8 12 -13 30 -13 17 0 30 4 30 9 0 5 -13 11 -30 13
-20 3 -30 0 -30 -9z"/>
<path d="M12206 1048 c-3 -7 -7 -25 -10 -41 -9 -37 -87 -117 -115 -117 -16 0
-21 -5 -19 -17 8 -38 91 6 134 71 29 43 44 116 25 116 -6 0 -13 -6 -15 -12z"/>
<path d="M2947 923 c-4 -7 -17 -65 -33 -140 -3 -16 -14 -24 -46 -30 -59 -12
-66 -38 -7 -30 l44 6 -3 -87 c-2 -76 -1 -85 12 -69 7 9 17 41 20 70 13 94 14
97 55 97 33 0 79 18 56 21 -5 1 -14 3 -20 4 -5 2 -24 3 -41 4 -32 1 -32 1 -23
39 17 72 7 152 -14 115z"/>
<path d="M7892 907 c-20 -23 -22 -62 -9 -127 l14 -65 -37 -10 c-48 -13 -70
-32 -70 -60 0 -35 24 -48 75 -43 82 10 85 21 58 181 -15 95 -15 100 2 109 14
8 15 12 4 19 -19 12 -25 11 -37 -4z m18 -246 c0 -21 -19 -31 -61 -31 -60 0
-23 48 39 49 15 1 22 -5 22 -18z"/>
<path d="M5780 867 c0 -8 7 -21 16 -28 14 -11 15 -10 12 11 -3 26 -28 41 -28
17z"/>
<path d="M7382 783 c-27 -120 -28 -149 -1 -192 27 -45 40 -28 26 35 -9 43 -7
64 10 133 21 83 21 121 -1 121 -7 0 -21 -41 -34 -97z"/>
<path d="M2163 769 c-17 -11 -41 -40 -53 -65 -22 -44 -22 -44 -3 -77 24 -41
56 -57 113 -57 39 1 80 17 80 32 0 3 -27 3 -60 1 -45 -4 -66 -1 -85 11 l-26
17 48 32 c52 35 74 77 57 105 -16 24 -35 25 -71 1z m37 -48 c-13 -25 -70 -57
-70 -40 0 18 73 86 77 72 2 -7 -1 -21 -7 -32z"/>
<path d="M6766 758 c-14 -18 -26 -27 -26 -20 0 8 -5 12 -11 10 -6 -2 -13 -36
-14 -81 -4 -86 9 -100 30 -31 14 45 53 124 62 124 3 0 3 -22 0 -49 -4 -33 -1
-55 8 -67 12 -17 16 -16 59 27 l46 46 0 -37 c0 -39 23 -70 53 -70 23 0 21 17
-3 30 -16 8 -20 21 -20 59 0 69 -22 75 -73 22 -21 -23 -39 -41 -41 -41 -1 0 0
18 2 40 7 72 -30 91 -72 38z"/>
<path d="M2383 756 c-13 -6 -23 -16 -23 -22 0 -7 -9 -31 -20 -55 -11 -24 -20
-54 -20 -67 0 -41 31 -21 51 32 23 62 39 80 39 44 0 -40 16 -42 59 -7 47 37
68 33 73 -13 4 -43 22 -43 26 0 4 36 -19 72 -45 72 -8 0 -27 -7 -43 -15 -29
-15 -30 -15 -30 9 0 13 -7 27 -16 30 -19 7 -23 7 -51 -8z"/>
<path d="M3954 747 c-23 -20 -25 -26 -15 -45 7 -12 30 -34 51 -47 50 -31 55
-65 11 -65 -16 0 -36 7 -44 15 -22 22 -28 6 -10 -26 14 -23 24 -29 53 -29 44
0 60 15 60 55 0 32 -23 61 -67 84 -13 6 -23 16 -23 21 0 14 78 32 111 25 16
-4 29 -3 29 2 0 21 -28 33 -76 33 -41 0 -59 -5 -80 -23z"/>
<path d="M4909 749 c-46 -46 -62 -126 -33 -167 12 -18 24 -22 67 -21 60 1 83
7 117 31 34 25 20 31 -30 13 -23 -8 -62 -15 -86 -15 -34 0 -44 4 -49 21 -4 11
-5 21 -3 23 1 1 20 9 41 19 42 19 63 54 53 91 -8 33 -47 35 -77 5z m51 -22 c0
-8 -8 -21 -17 -29 -45 -38 -58 -30 -22 16 22 28 39 34 39 13z"/>
<path d="M7111 743 c-43 -41 -47 -85 -13 -124 22 -24 38 -32 85 -38 87 -12 92
19 5 33 -37 6 -78 35 -78 56 0 5 17 12 38 15 79 13 100 35 66 69 -24 25 -70
20 -103 -11z m79 -13 c0 -5 -9 -10 -19 -10 -11 0 -28 -3 -38 -6 -16 -5 -16 -4
1 10 22 18 56 21 56 6z"/>
<path d="M8196 753 c-3 -10 -19 -33 -35 -52 l-29 -34 -28 42 c-17 26 -31 38
-37 32 -10 -10 5 -45 35 -78 l20 -22 -38 -91 c-40 -97 -51 -175 -24 -175 9 0
17 13 21 35 8 50 40 131 93 237 25 50 46 99 46 107 0 22 -17 20 -24 -1z"/>
<path d="M5904 741 c-50 -31 -71 -111 -29 -111 8 0 15 9 15 19 0 23 46 81 65
81 13 0 41 -62 47 -104 5 -35 25 -28 32 11 4 25 1 42 -7 48 -6 6 -19 24 -27
40 -19 37 -53 43 -96 16z"/>
<path d="M4211 718 c-25 -27 -31 -29 -31 -15 0 27 -24 15 -28 -14 -2 -13 -14
-85 -27 -159 -25 -137 -22 -171 10 -139 19 18 36 77 25 84 -4 2 -4 19 -1 37 6
29 11 33 37 30 89 -8 160 123 99 183 -32 33 -48 31 -84 -7z m63 -14 c24 -23
19 -57 -12 -87 -30 -29 -88 -51 -97 -37 -3 5 -1 11 4 14 5 3 12 21 15 40 6 33
46 86 65 86 5 0 17 -7 25 -16z"/>
<path d="M4651 739 c-35 -14 -50 -39 -51 -82 0 -32 5 -40 33 -57 32 -20 107
-28 107 -11 0 5 -16 12 -35 15 -63 12 -86 64 -45 101 15 14 23 15 34 6 19 -16
32 4 16 24 -14 17 -25 18 -59 4z"/>
<path d="M3173 728 c-5 -7 -16 -34 -23 -60 -7 -27 -16 -48 -20 -48 -4 0 -15
18 -25 40 -12 26 -25 40 -37 40 -27 0 -22 -22 17 -78 l34 -50 -40 -83 c-38
-79 -46 -119 -24 -125 6 -2 34 49 63 113 62 134 92 237 76 253 -8 8 -14 7 -21
-2z"/>
<path d="M2682 714 c-12 -8 -31 -32 -42 -52 l-19 -37 -1 33 c0 44 -22 38 -32
-9 -13 -57 -17 -228 -6 -235 15 -9 25 12 33 65 11 80 16 93 30 81 16 -13 53 0
76 26 41 47 55 101 34 134 -9 15 -48 12 -73 -6z m38 -53 c-11 -22 -25 -43 -31
-47 -8 -5 -9 -3 -4 6 5 9 2 10 -15 5 -19 -6 -20 -4 -12 12 17 30 52 63 68 63
12 0 11 -7 -6 -39z"/>
<path d="M4381 704 c-41 -34 -44 -90 -6 -100 26 -6 68 -2 97 10 11 5 18 1 23
-13 6 -20 41 -38 52 -27 3 3 -2 13 -12 22 -13 13 -15 27 -10 61 7 46 -6 58
-25 23 -24 -45 -120 -69 -120 -30 0 29 43 53 80 45 31 -7 39 2 18 23 -20 20
-65 14 -97 -14z"/>
<path d="M7548 723 c-25 -6 -33 -59 -14 -88 12 -19 25 -25 52 -25 79 0 96 39
39 89 -35 30 -43 33 -77 24z m63 -54 c11 -5 17 -14 14 -20 -9 -14 -65 -11 -65
4 0 28 19 34 51 16z"/>
<path d="M5755 709 c-9 -13 -8 -106 0 -120 12 -18 37 -10 30 10 -7 22 -9 80
-4 100 5 17 -17 26 -26 10z"/>
<path d="M8345 590 c-8 -14 3 -30 21 -30 8 0 14 9 14 20 0 21 -24 28 -35 10z"/>
</g>
</svg>
