<?xml version="1.0" standalone="no"?>
<!DOCTYPE svg PUBLIC "-//W3C//DTD SVG 20010904//EN"
 "http://www.w3.org/TR/2001/REC-SVG-20010904/DTD/svg10.dtd">
<svg version="1.0" xmlns="http://www.w3.org/2000/svg"
 width="1404.000000pt" height="464.000000pt" viewBox="0 0 1404.000000 464.000000"
 preserveAspectRatio="xMidYMid meet">

<g transform="translate(0.000000,464.000000) scale(0.100000,-0.100000)"
fill="#000000" stroke="none">
<path d="M11032 3345 c-6 -14 -18 -25 -27 -25 -8 0 -15 -4 -15 -10 0 -5 7 -10
16 -10 11 0 9 -8 -12 -35 -21 -28 -29 -33 -44 -25 -33 17 -106 12 -131 -10
-20 -16 -21 -21 -10 -29 9 -6 12 -20 8 -43 -3 -18 1 -50 7 -69 12 -34 11 -40
-26 -101 -40 -67 -42 -98 -8 -98 21 0 36 16 20 22 -6 2 7 31 29 65 34 53 44
62 78 68 52 8 100 39 115 71 10 22 9 31 -5 56 -22 39 -22 43 8 83 28 35 45 82
38 103 -7 20 -29 14 -41 -13z m-97 -145 c3 -5 -13 -35 -36 -67 l-43 -57 -7 28
c-4 15 -6 33 -4 39 2 7 6 24 9 40 5 23 11 27 41 27 18 0 37 -4 40 -10z m61
-56 c8 -32 -9 -51 -54 -60 l-34 -7 33 47 c18 25 36 46 41 46 4 0 11 -12 14
-26z"/>
<path d="M12830 3266 c-25 -51 -35 -63 -51 -59 -36 10 -121 -65 -134 -119 -4
-14 -1 -36 5 -48 10 -18 8 -28 -14 -60 -14 -21 -28 -50 -31 -63 -13 -48 14
-36 52 23 29 47 42 59 57 56 11 -3 41 0 68 5 66 15 92 48 85 112 -2 26 -12 56
-21 66 -16 17 -15 21 9 66 27 51 31 70 16 80 -5 3 -24 -23 -41 -59z m-106
-156 c-20 -27 -38 -50 -40 -50 -13 0 0 30 27 63 45 55 55 45 13 -13z m100 34
c18 -48 -4 -104 -42 -104 -9 0 -28 -3 -41 -7 -24 -6 -24 -6 7 40 18 25 32 50
32 54 0 11 21 33 31 33 4 0 10 -7 13 -16z"/>
<path d="M11916 3264 c-57 -58 -7 -122 66 -83 18 10 19 8 13 -13 -4 -12 -14
-36 -23 -53 -8 -16 -15 -46 -16 -66 0 -21 -3 -36 -5 -33 -2 2 -10 -1 -18 -7
-15 -13 -18 -49 -3 -49 6 0 10 7 10 15 0 8 9 20 20 27 11 7 20 21 20 30 0 22
51 152 79 202 12 20 19 41 16 47 -8 12 -35 12 -35 -1 0 -6 -9 -6 -26 0 -42 16
-70 12 -98 -16z m94 -24 c0 -10 -52 -40 -70 -40 -14 0 -13 23 2 38 14 14 68
16 68 2z"/>
<path d="M12455 3256 c-39 -17 -53 -34 -60 -74 -6 -37 7 -43 22 -9 12 27 77
61 99 53 34 -13 -21 -84 -131 -172 -80 -64 -103 -94 -70 -94 8 0 44 22 81 50
74 55 90 55 108 -1 6 -19 16 -33 21 -31 17 5 6 65 -16 88 l-20 22 30 34 c43
49 54 83 39 116 -15 32 -57 39 -103 18z"/>
<path d="M11303 3245 c-24 -10 -31 -18 -27 -30 5 -12 13 -15 33 -9 14 4 40 8
56 9 22 1 31 7 33 23 3 19 -1 22 -30 22 -18 -1 -48 -7 -65 -15z"/>
<path d="M11689 3258 c-1 -1 -3 -12 -4 -23 -2 -11 -17 -62 -34 -114 -25 -73
-29 -96 -20 -108 16 -18 34 -11 35 13 1 11 11 49 22 85 26 78 32 140 15 146
-7 3 -14 3 -14 1z"/>
<path d="M11190 3233 c-86 -56 -89 -82 -19 -125 48 -30 49 -32 27 -41 -13 -4
-38 -6 -55 -2 -24 4 -33 2 -33 -8 0 -38 53 -48 120 -21 63 25 52 56 -41 107
l-32 18 34 22 c19 12 43 27 54 33 10 6 21 16 23 22 6 18 -49 14 -78 -5z"/>
<path d="M13036 3193 c-10 -32 -31 -78 -46 -103 -44 -69 -60 -112 -49 -132 11
-21 29 -24 29 -5 0 6 22 62 50 122 57 127 70 175 48 175 -9 0 -21 -22 -32 -57z"/>
<path d="M13189 3209 c-17 -17 -17 -21 -3 -71 l16 -52 -38 -35 c-85 -76 -96
-126 -38 -160 43 -26 86 -27 107 -3 21 23 32 113 19 150 -10 29 -10 30 45 48
63 22 70 32 53 74 -26 62 -120 90 -161 49z m88 -41 c-3 -18 -3 -27 0 -20 7 17
30 15 37 -3 4 -12 -6 -21 -37 -34 l-42 -18 -13 31 c-17 40 -12 59 18 67 41 11
43 10 37 -23z m-52 -151 c4 -18 3 -49 -2 -68 -7 -27 -15 -35 -36 -37 -33 -4
-67 14 -67 35 0 17 77 103 92 103 4 0 10 -15 13 -33z"/>
<path d="M11343 3014 c-7 -20 17 -37 34 -23 15 13 6 39 -13 39 -8 0 -17 -7
-21 -16z"/>
<path d="M12120 3005 c0 -10 7 -15 18 -13 21 4 19 22 -2 26 -10 2 -16 -3 -16
-13z"/>
<path d="M400 2240 c0 -7 641 -10 1904 -10 1259 0 1907 3 1911 10 4 7 -633 10
-1904 10 -1267 0 -1911 -3 -1911 -10z"/>
<path d="M4635 2240 c4 -7 1517 -10 4506 -10 2993 0 4499 3 4499 10 0 7 -1509
10 -4506 10 -3001 0 -4503 -3 -4499 -10z"/>
<path d="M4078 2093 c-24 -6 -23 -38 1 -55 10 -7 21 -23 25 -35 l7 -23 -1855
0 c-1231 0 -1856 -3 -1856 -10 0 -7 628 -10 1864 -10 1631 0 1865 -2 1876 -15
10 -12 6 -31 -19 -100 -17 -47 -31 -94 -31 -103 0 -9 17 -36 39 -59 l38 -43
-22 -14 c-35 -23 -40 -76 -14 -136 25 -59 51 -80 95 -80 42 0 64 9 64 26 0 15
-8 17 -57 14 -26 -1 -35 4 -47 29 -25 48 -20 75 19 105 27 21 35 23 35 12 0
-9 7 -16 15 -16 8 0 15 7 15 15 0 10 10 15 30 15 17 0 30 5 30 10 0 20 -30 70
-42 70 -6 0 -8 3 -5 7 4 3 -3 11 -15 17 -48 24 -46 111 3 123 11 3 18 11 16
17 -2 6 3 17 12 23 14 11 7 21 -55 80 -39 38 -82 85 -95 105 -23 36 -34 41
-71 31z"/>
<path d="M4630 1970 c0 -7 1508 -10 4505 -10 2997 0 4505 3 4505 10 0 7 -1508
10 -4505 10 -2997 0 -4505 -3 -4505 -10z"/>
<path d="M7968 1906 c-54 -59 -43 -113 31 -151 66 -33 117 -33 167 1 21 15 54
35 71 45 l33 19 -20 -53 c-11 -28 -20 -53 -20 -54 0 -2 -304 -3 -675 -3 l-676
0 16 29 c8 16 37 44 65 62 49 32 65 59 34 59 -8 0 -24 -5 -35 -11 -18 -9 -19
-8 -10 9 6 11 7 22 4 26 -17 17 -36 1 -55 -44 -23 -57 -91 -110 -140 -110
l-29 0 41 38 c32 31 40 46 40 74 0 48 -26 77 -72 80 -42 2 -57 -8 -99 -70
l-30 -45 41 -48 41 -49 -1065 0 c-704 0 -1066 -3 -1066 -10 0 -7 383 -10 1130
-10 622 0 1130 -2 1130 -5 0 -11 -63 -131 -99 -187 l-36 -57 -1105 -3 -1105
-3 1099 -2 c865 -3 1102 -6 1108 -16 6 -9 11 -9 28 1 15 9 171 12 690 12 l670
0 -21 -42 c-33 -64 -69 -166 -69 -193 l0 -25 -3797 -2 c-2593 -2 -3067 -4
-1495 -5 1412 -2 2301 -7 2297 -12 -3 -5 1 -51 10 -102 11 -71 12 -102 3 -136
-10 -42 -12 -43 -32 -30 -23 16 -65 79 -96 145 -19 42 -37 54 -44 30 -3 -7 -7
-55 -10 -106 -6 -89 -5 -92 15 -92 15 0 19 4 15 16 -4 9 -3 32 0 51 l7 35 57
-62 c63 -68 80 -72 113 -27 25 32 26 122 4 225 l-14 62 1484 0 c1476 0 1483 0
1483 -20 0 -11 7 -20 15 -20 8 0 14 3 14 8 -1 4 -1 13 0 19 1 10 576 13 2824
16 l2822 2 -2822 3 -2821 2 13 50 c7 28 30 86 51 130 l37 80 2771 2 2771 3
-2768 2 -2767 3 52 83 c28 45 60 101 70 125 l19 42 2689 0 c1782 0 2691 3
2695 10 4 7 -893 10 -2683 10 l-2689 0 28 81 c33 91 37 129 14 129 -8 0 -15
-5 -15 -11 0 -6 -7 -8 -16 -5 -10 4 -32 -12 -66 -50 -53 -57 -111 -94 -149
-94 l-22 0 20 23 c47 51 55 100 23 135 -30 32 -87 26 -122 -12z m-1278 -60 c0
-2 -8 -10 -17 -17 -16 -13 -17 -12 -4 4 13 16 21 21 21 13z m1499 -216 c-17
-33 -37 -60 -43 -60 -6 0 -34 -18 -63 -39 -28 -22 -61 -45 -73 -51 -21 -11
-21 -11 -7 12 27 42 39 105 25 129 -11 18 -20 20 -63 16 -40 -4 -54 -10 -76
-37 -35 -41 -40 -72 -20 -113 13 -27 23 -33 61 -38 25 -3 -235 -7 -578 -7
l-623 -2 29 43 c16 23 48 79 71 125 l41 82 676 0 675 0 -32 -60z m-96 -160
c-12 -21 -25 -30 -43 -30 -25 0 -25 0 6 19 18 11 35 24 38 30 16 26 15 8 -1
-19z"/>
<path d="M2837 1877 c-57 -6 -87 -13 -84 -21 2 -6 13 -12 25 -14 24 -4 21 -21
-11 -62 l-19 -25 4 44 c4 63 -19 66 -28 4 -3 -26 -11 -54 -17 -61 -8 -10 -7
-16 4 -23 8 -5 -265 -9 -693 -9 -623 0 -708 2 -708 15 0 8 -7 15 -15 15 -8 0
-15 -7 -15 -15 0 -13 -56 -15 -446 -15 -294 0 -443 -3 -439 -10 4 -6 108 -10
281 -10 l274 0 0 -39 c0 -22 -5 -43 -10 -46 -7 -4 -8 -11 -1 -18 5 -7 11 -23
13 -36 4 -31 28 -40 35 -13 7 28 31 33 168 32 67 -1 129 2 138 6 24 9 21 24
-5 25 -21 1 -21 2 -3 6 31 7 40 20 26 37 -10 11 -8 17 11 30 20 14 112 16 874
16 672 0 854 -3 858 -12 5 -10 7 -10 12 0 4 9 118 12 520 12 336 0 514 3 514
10 0 7 -175 10 -506 10 -457 0 -506 2 -500 16 3 9 6 24 6 34 0 10 8 20 19 23
14 3 17 11 14 31 -3 16 -1 26 6 26 7 0 21 8 32 19 20 18 20 18 -12 25 -44 8
-216 5 -322 -7z m293 -17 c0 -5 -5 -10 -11 -10 -5 0 -7 5 -4 10 3 6 8 10 11
10 2 0 4 -4 4 -10z m-167 -7 c-7 -2 -21 -2 -30 0 -10 3 -4 5 12 5 17 0 24 -2
18 -5z m-33 -72 c0 -5 -7 -12 -16 -15 -14 -5 -15 -4 -4 9 14 17 20 19 20 6z
m86 -53 c3 -4 14 -3 25 2 15 9 19 7 19 -5 0 -13 -19 -15 -122 -14 -91 0 -117
3 -99 10 14 5 37 7 52 4 15 -3 30 -1 34 4 7 13 83 12 91 -1z m-1810 -57 c-3
-5 -15 -7 -25 -4 -10 3 -30 0 -42 -7 -23 -11 -23 -10 -5 4 21 17 81 22 72 7z
m-192 -16 c3 3 2 0 -3 -6 -10 -12 -31 -4 -31 13 0 7 4 7 13 -1 8 -6 17 -9 21
-6z m246 0 c-7 -9 -15 -13 -19 -10 -3 3 1 10 9 15 21 14 24 12 10 -5z m-220
-35 c-14 -11 -32 -19 -40 -19 -8 0 1 8 20 19 45 25 51 25 20 0z m94 4 c9 -3
16 -11 16 -16 0 -6 -6 -6 -14 1 -10 8 -16 9 -21 1 -3 -5 -14 -10 -23 -10 -15
1 -15 2 2 15 23 17 20 17 40 9z"/>
<path d="M1323 1433 c515 -2 1359 -2 1875 0 515 1 93 2 -938 2 -1031 0 -1453
-1 -937 -2z"/>
<path d="M4480 1104 c-58 -42 -72 -57 -92 -102 -33 -74 0 -140 82 -162 35 -9
52 -9 92 5 50 16 51 16 89 -9 39 -26 73 -33 83 -17 3 5 -14 21 -39 35 -25 15
-45 29 -45 33 0 3 10 21 21 40 29 46 20 95 -23 141 -34 36 -85 63 -115 61 -10
0 -34 -12 -53 -25z m148 -61 c38 -43 40 -72 9 -109 l-23 -26 -32 32 c-27 26
-33 29 -38 15 -4 -8 0 -23 8 -33 31 -35 29 -41 -10 -52 -53 -14 -94 2 -118 45
-17 32 -17 35 0 73 10 21 36 53 59 71 54 42 97 37 145 -16z"/>
<path d="M3448 1009 c-4 -62 -10 -94 -19 -100 -11 -6 -11 -11 -1 -21 7 -7 12
-40 12 -84 0 -51 4 -75 15 -84 12 -10 15 -10 15 1 0 8 2 96 4 197 4 145 2 182
-8 182 -10 0 -15 -26 -18 -91z"/>
<path d="M2275 1060 c-9 -17 -38 -55 -65 -86 -69 -75 -67 -84 11 -74 48 6 50
5 44 -14 -3 -12 -9 -48 -12 -81 -3 -33 -10 -65 -15 -71 -5 -8 -2 -14 9 -18 10
-4 14 -4 10 0 -4 4 1 13 11 20 13 9 17 22 14 42 -2 17 4 56 14 89 10 32 16 62
15 67 -1 5 5 3 14 -4 8 -7 19 -10 23 -6 4 4 -1 13 -10 20 -12 9 -15 22 -11 52
5 41 -10 94 -26 94 -6 0 -18 -14 -26 -30z m20 -72 c-8 -37 -29 -58 -58 -58
-16 0 -13 7 19 44 22 24 40 45 42 45 2 1 1 -14 -3 -31z"/>
<path d="M2830 1080 c0 -5 -14 -25 -31 -45 -27 -30 -34 -33 -52 -24 -17 9 -23
8 -34 -7 -7 -10 -13 -14 -13 -9 0 5 -11 -2 -25 -15 -29 -27 -49 -82 -41 -112
3 -14 -7 -41 -30 -78 -38 -62 -57 -133 -33 -128 8 2 30 35 49 73 l35 70 57 -3
c69 -4 122 18 144 59 12 25 13 33 0 63 -8 19 -22 38 -32 44 -16 9 -15 13 9 55
31 52 33 67 12 67 -8 0 -15 -4 -15 -10z m-109 -138 c-11 -16 -27 -35 -36 -42
-14 -12 -14 -10 -5 16 11 29 35 54 53 54 4 0 -1 -13 -12 -28z m102 -60 c-3 -9
-10 -23 -16 -29 -11 -14 -107 -18 -107 -4 0 4 19 30 42 56 l42 47 23 -26 c13
-16 20 -33 16 -44z"/>
<path d="M3675 1070 c-3 -6 -4 -20 0 -33 5 -19 5 -20 -5 -4 -6 9 -15 15 -20
12 -13 -8 11 -44 24 -39 12 5 36 -102 36 -161 0 -32 -2 -35 -19 -26 -32 18
-81 101 -81 139 0 22 -4 32 -12 30 -9 -3 -15 -39 -19 -114 -3 -60 -4 -111 -2
-113 1 -2 9 2 18 9 9 7 15 29 15 52 l0 39 38 -41 c40 -41 75 -52 86 -24 16 41
-4 243 -26 272 -13 15 -25 16 -33 2z"/>
<path d="M10465 1063 c-86 -18 -168 -38 -209 -51 -84 -26 -109 -73 -47 -87 33
-7 74 -42 68 -58 -5 -16 -55 -27 -80 -18 -12 5 -21 11 -19 15 5 14 -12 10 -21
-5 -27 -43 43 -72 107 -45 63 26 58 89 -10 124 l-36 19 51 21 c28 12 95 32
151 44 80 17 98 24 89 35 -6 7 -14 12 -18 12 -3 -1 -15 -3 -26 -6z"/>
<path d="M1443 1052 c-6 -4 -10 -26 -10 -50 0 -42 -41 -162 -55 -162 -14 0
-30 42 -38 102 -5 33 -11 62 -14 65 -14 14 -35 -11 -56 -69 -13 -34 -32 -80
-42 -102 -13 -25 -16 -42 -10 -48 14 -14 38 24 64 102 l21 65 12 -52 c14 -62
39 -103 63 -103 41 0 118 233 84 254 -4 2 -13 2 -19 -2z"/>
<path d="M3347 1043 c-4 -3 -7 -39 -7 -80 0 -56 -4 -75 -15 -79 -8 -4 -15 -11
-15 -16 0 -6 7 -7 16 -4 13 5 15 -3 13 -52 -1 -32 1 -64 5 -70 4 -7 2 -12 -3
-12 -6 0 -11 -4 -11 -10 0 -16 27 -11 34 6 3 9 6 45 6 80 0 62 1 64 26 64 31
0 28 23 -4 28 -20 3 -22 9 -22 78 0 68 -6 85 -23 67z"/>
<path d="M8294 1035 c-71 -37 -60 -87 29 -131 102 -51 124 -94 62 -120 -39
-16 -103 -18 -125 -5 -8 6 -14 24 -13 48 l1 38 -19 -24 c-47 -58 -7 -112 83
-110 67 0 129 28 144 65 11 27 10 35 -6 62 -11 18 -43 44 -71 59 -28 16 -61
36 -72 45 -22 18 -22 18 -3 33 25 19 85 19 113 0 17 -12 23 -12 32 -1 32 38
-94 72 -155 41z"/>
<path d="M8751 1036 l-24 -13 21 -21 c30 -30 38 -89 18 -136 -13 -32 -18 -36
-35 -27 -30 17 -58 57 -76 112 -17 50 -38 70 -55 53 -5 -5 -10 -49 -11 -99 -2
-98 12 -123 32 -56 l12 40 21 -31 c29 -42 90 -64 122 -43 30 19 48 85 39 144
-14 98 -18 103 -64 77z"/>
<path d="M9622 1012 c-26 -37 -28 -38 -57 -26 -61 26 -105 8 -150 -59 -22 -33
-13 -92 15 -107 27 -15 25 -25 -15 -74 -20 -25 -35 -54 -35 -70 0 -29 17 -35
27 -8 4 9 9 19 12 22 3 3 23 26 44 53 30 37 45 47 68 47 72 0 115 51 98 115
-7 23 -7 41 -1 48 12 15 52 86 52 92 0 3 -7 5 -15 5 -8 0 -27 -17 -43 -38z
m-84 -58 c30 -8 28 -16 -15 -74 -41 -54 -63 -59 -77 -19 -7 21 -4 34 13 63 23
36 36 41 79 30z m62 -91 c0 -15 -45 -46 -60 -41 -6 2 1 19 17 40 26 34 42 34
43 1z"/>
<path d="M9968 971 c-33 -29 -33 -56 0 -33 26 19 42 25 49 19 12 -13 -43 -103
-94 -154 -34 -34 -53 -60 -49 -69 7 -19 30 -8 70 35 l29 30 16 -32 c20 -40 38
-44 81 -15 49 34 52 53 5 34 -41 -18 -55 -14 -55 14 0 10 -4 22 -10 25 -6 3 1
22 15 43 66 99 23 175 -57 103z"/>
<path d="M925 981 c-3 -6 -30 -24 -59 -41 -52 -29 -74 -54 -58 -64 5 -3 30 10
57 29 28 18 51 32 52 31 1 -1 -11 -44 -28 -96 -16 -52 -27 -101 -24 -107 9
-26 33 -12 70 43 36 51 40 54 52 37 24 -35 34 -43 53 -43 31 0 57 37 85 123
26 81 23 113 -8 83 -15 -16 -47 -109 -47 -139 0 -8 -7 -20 -15 -27 -19 -16
-40 0 -49 35 -8 31 -23 32 -53 3 -28 -26 -29 -14 -3 52 26 65 26 90 1 90 -11
0 -22 -4 -26 -9z"/>
<path d="M9027 963 c-18 -17 0 -23 74 -23 71 0 80 2 69 15 -13 15 -129 22
-143 8z"/>
<path d="M1717 953 c-19 -5 -18 -29 1 -27 7 1 37 2 67 3 40 1 55 5 55 15 0 11
-13 14 -52 14 -29 -1 -61 -3 -71 -5z"/>
<path d="M6554 927 c-10 -6 -49 -11 -87 -11 -66 -1 -68 -2 -66 -26 3 -63 -1
-90 -16 -90 -8 0 -15 -4 -15 -10 0 -5 7 -10 15 -10 19 0 22 -106 3 -113 -23
-8 7 -28 51 -34 43 -6 121 13 121 29 0 5 -29 6 -65 2 l-65 -7 0 57 0 56 39 0
c44 0 71 8 71 21 0 5 -25 9 -55 9 l-55 0 0 39 0 38 54 6 c43 4 145 43 126 47
-27 7 -39 6 -56 -3z"/>
<path d="M6794 905 c-4 -8 -2 -21 4 -28 6 -6 14 -35 20 -64 8 -44 6 -57 -9
-83 -10 -16 -23 -30 -28 -30 -25 0 -55 43 -80 115 -42 125 -75 112 -85 -33 -2
-39 -10 -80 -16 -92 -9 -16 -9 -25 -1 -33 16 -16 23 -3 47 90 20 82 22 85 29
52 21 -97 80 -148 131 -114 29 19 54 71 54 113 0 73 -49 152 -66 107z"/>
<path d="M9058 897 c-70 -15 -58 -28 22 -24 39 2 69 8 68 13 -1 5 -8 8 -15 6
-7 -2 -13 2 -13 8 0 5 -3 9 -7 9 -5 -1 -29 -6 -55 -12z"/>
<path d="M1765 869 c-16 -6 -49 -7 -72 -5 -24 3 -43 1 -43 -4 0 -14 35 -30 67
-30 33 1 106 33 96 43 -8 8 -9 8 -48 -4z"/>
<path d="M2435 850 c-11 -17 5 -32 21 -19 8 6 14 15 14 20 0 12 -27 11 -35 -1z"/>
<path d="M9684 798 c-4 -6 1 -17 11 -25 32 -23 43 -15 29 21 -7 19 -30 21 -40
4z"/>
<path d="M5231 725 c-19 -35 -29 -45 -50 -46 -36 -1 -94 -23 -99 -37 -2 -7 0
-12 5 -12 4 0 8 -22 9 -49 0 -27 5 -56 11 -63 8 -10 1 -35 -29 -97 -41 -87
-44 -114 -15 -119 12 -2 15 1 11 12 -3 9 10 51 31 94 34 74 38 78 65 74 38 -5
106 33 120 68 12 30 -2 70 -37 105 -16 17 -16 20 5 56 25 43 28 59 9 59 -6 0
-23 -20 -36 -45z m-67 -135 c-19 -35 -30 -47 -36 -38 -20 33 3 88 37 88 l26 0
-27 -50z m72 32 c6 -4 17 -18 24 -31 12 -23 10 -27 -19 -53 -26 -23 -81 -39
-81 -23 0 10 54 115 60 115 3 0 10 -4 16 -8z"/>
<path d="M4832 655 c-15 -57 -15 -132 -1 -174 20 -57 29 -29 32 93 2 128 -10
160 -31 81z"/>
<path d="M4582 609 c-48 -9 -62 -16 -62 -30 0 -7 18 -7 48 -3 26 4 58 8 72 10
14 1 27 2 30 3 6 2 -32 31 -39 30 -3 -1 -25 -5 -49 -10z"/>
<path d="M6952 575 c-27 -44 -28 -44 -45 -25 -16 19 -19 19 -45 5 -86 -47
-119 -128 -72 -175 19 -19 19 -19 -15 -59 -18 -23 -43 -57 -55 -77 -21 -33
-21 -37 -7 -52 15 -14 17 -14 22 4 11 33 32 67 72 115 34 41 43 47 87 51 72 8
96 55 62 117 -12 22 -11 29 9 60 13 20 26 46 30 59 11 38 -13 25 -43 -23z
m-63 -68 c16 -20 -49 -123 -67 -105 -18 18 -14 56 9 89 22 32 40 36 58 16z
m41 -76 c0 -22 -19 -41 -42 -41 -16 0 -16 3 3 35 21 35 39 38 39 6z"/>
<path d="M3812 554 c-24 -49 -30 -55 -52 -51 -35 6 -75 -6 -76 -23 0 -8 -6
-34 -14 -57 -10 -33 -10 -48 -1 -71 11 -27 9 -37 -23 -101 -21 -41 -36 -85
-36 -106 0 -36 17 -48 26 -17 3 9 22 52 42 95 l36 77 49 0 c44 0 54 4 83 36
45 47 45 85 1 129 l-33 33 23 39 c12 21 23 46 23 56 0 33 -20 17 -48 -39z
m-62 -101 c0 -20 -43 -92 -52 -87 -12 7 -3 61 13 81 12 14 39 18 39 6z m76
-20 c21 -28 17 -70 -8 -87 -23 -16 -82 -22 -76 -8 30 69 53 112 61 112 5 0 16
-8 23 -17z"/>
<path d="M7351 575 c-39 -10 -59 -10 -71 -3 -23 14 -83 2 -112 -22 l-23 -20
24 -20 c13 -11 31 -20 41 -20 9 0 30 -12 45 -26 l29 -27 -24 -19 c-18 -15 -34
-19 -62 -15 -42 6 -53 0 -37 -20 25 -29 132 -2 142 37 8 31 -16 64 -63 88 -24
12 -40 22 -35 22 6 0 44 3 85 6 41 3 86 6 100 5 43 0 52 6 40 29 -6 11 -14 20
-18 19 -4 -1 -31 -7 -61 -14z"/>
<path d="M4562 543 c-13 -3 -26 -11 -29 -20 -4 -11 -8 -12 -13 -2 -9 13 -40 5
-40 -11 0 -14 31 -13 106 6 44 11 61 20 52 25 -13 9 -36 9 -76 2z"/>
<path d="M3383 520 c-38 -22 -59 -55 -42 -66 6 -3 25 8 43 25 33 32 56 40 56
19 -1 -37 -75 -162 -90 -153 -15 9 -41 -7 -56 -37 -27 -53 0 -77 42 -37 l23
21 29 -21 c34 -24 62 -27 80 -9 19 19 14 25 -17 20 -20 -3 -35 2 -50 17 l-21
21 35 53 c82 121 64 206 -32 147z"/>
<path d="M3088 503 c-25 -3 -38 -9 -38 -19 0 -12 10 -14 48 -10 26 2 55 5 65
5 9 1 17 8 17 16 0 15 -11 16 -92 8z"/>
<path d="M4928 503 c-12 -3 -18 -14 -18 -31 1 -24 2 -25 14 -10 9 12 16 14 23
7 18 -18 35 -1 23 22 -11 19 -13 20 -42 12z"/>
<path d="M6405 501 c-56 -12 -31 -26 48 -27 53 0 77 4 77 12 0 22 -60 29 -125
15z"/>
<path d="M3135 430 c-11 -5 -32 -9 -47 -9 -33 -1 -37 -17 -7 -26 23 -8 109 21
109 36 0 11 -28 11 -55 -1z"/>
<path d="M6416 411 c-8 -12 0 -17 46 -25 40 -7 94 2 81 14 -14 13 -120 22
-127 11z"/>
<path d="M3540 340 c-12 -7 -12 -13 -4 -27 15 -25 40 -23 36 2 -5 28 -15 36
-32 25z"/>
<path d="M7062 313 c2 -10 10 -18 18 -18 8 0 16 8 18 18 2 12 -3 17 -18 17
-15 0 -20 -5 -18 -17z"/>
<path d="M3702 93 c1825 -2 4811 -2 6635 0 1825 1 332 2 -3317 2 -3649 0
-5142 -1 -3318 -2z"/>
</g>
</svg>
