<?xml version="1.0" standalone="no"?>
<!DOCTYPE svg PUBLIC "-//W3C//DTD SVG 20010904//EN"
 "http://www.w3.org/TR/2001/REC-SVG-20010904/DTD/svg10.dtd">
<svg version="1.0" xmlns="http://www.w3.org/2000/svg"
 width="1872.000000pt" height="1404.000000pt" viewBox="0 0 1872.000000 1404.000000"
 preserveAspectRatio="xMidYMid meet">

<g transform="translate(0.000000,1404.000000) scale(0.100000,-0.100000)"
fill="#000000" stroke="none">
<path d="M12851 13497 c-6 -15 -17 -55 -26 -89 -9 -35 -27 -91 -41 -124 l-25
-61 -72 -7 c-41 -4 -78 -13 -86 -21 -21 -21 -12 -24 39 -15 25 5 57 9 73 10
l27 0 -16 -37 c-9 -21 -26 -62 -38 -90 -12 -29 -27 -53 -33 -53 -7 0 -13 -6
-13 -14 0 -16 34 -11 48 8 6 6 26 50 47 99 36 85 38 87 71 87 19 0 34 -2 34
-5 0 -3 -13 -32 -30 -65 -17 -34 -26 -61 -20 -65 5 -3 31 10 56 29 67 51 76
47 49 -21 -17 -42 -21 -61 -13 -70 16 -20 28 -15 28 12 0 13 10 44 21 69 12
24 19 51 16 60 -7 19 -57 22 -75 4 -29 -29 -17 8 43 132 36 74 70 139 75 144
15 15 12 26 -7 26 -13 0 -34 -33 -72 -110 -53 -106 -56 -110 -87 -110 l-32 0
29 73 c15 39 28 79 29 88 0 9 7 40 17 68 12 38 13 55 5 63 -8 8 -14 4 -21 -15z"/>
<path d="M3803 13478 c-10 -17 -56 -188 -57 -215 -1 -11 -4 -20 -7 -18 -5 4
-59 -152 -59 -173 0 -23 25 -12 48 22 12 18 34 43 47 56 l25 23 0 -61 c0 -62
12 -82 24 -39 9 35 7 135 -4 142 -5 3 -28 -11 -50 -31 l-41 -37 20 51 c19 47
81 266 81 285 0 12 -18 8 -27 -5z"/>
<path d="M2199 13437 c-51 -27 -79 -68 -64 -93 6 -8 24 -23 40 -32 17 -9 32
-18 34 -20 3 -1 -6 -17 -19 -34 -55 -74 -27 -182 53 -202 48 -12 71 8 87 75
14 59 7 107 -22 144 l-21 26 32 33 c36 37 39 51 10 43 -18 -5 -20 -2 -15 17 7
30 -19 66 -48 66 -13 0 -43 -10 -67 -23z m88 -53 c-8 -46 -32 -65 -66 -52 -43
16 -53 28 -39 46 16 18 66 41 92 42 16 0 18 -5 13 -36z m-4 -146 c35 -47 4
-158 -40 -144 -45 14 -55 87 -20 141 25 39 33 40 60 3z"/>
<path d="M10719 13458 c0 -2 -2 -23 -5 -48 -13 -115 -59 -259 -77 -241 -22 22
-56 10 -111 -40 -57 -52 -68 -77 -41 -99 23 -19 84 2 139 48 50 42 88 114 110
213 23 103 24 169 1 169 -8 0 -15 -1 -16 -2z m-96 -323 c10 -25 -102 -100
-121 -80 -9 9 85 95 103 95 7 0 15 -7 18 -15z"/>
<path d="M14437 13453 c-2 -4 -10 -26 -17 -48 -7 -22 -18 -49 -25 -60 -6 -11
-21 -45 -32 -75 -12 -30 -37 -89 -56 -130 -41 -92 -55 -150 -34 -150 8 0 17 8
20 18 3 9 28 67 55 127 70 156 119 302 105 316 -6 6 -13 7 -16 2z"/>
<path d="M3277 13409 c-26 -17 -47 -35 -47 -39 0 -20 19 -17 53 7 21 14 40 24
43 20 3 -3 -13 -48 -36 -99 -116 -259 -133 -309 -110 -323 15 -9 39 8 158 114
l102 92 0 -95 c0 -87 2 -96 22 -110 12 -9 26 -16 30 -16 16 0 52 47 75 99 31
68 59 271 43 302 -13 24 -24 18 -27 -14 -11 -142 -50 -298 -86 -345 -21 -27
-31 9 -32 110 0 83 -3 103 -15 105 -8 2 -67 -44 -130 -101 -63 -57 -116 -103
-118 -101 -2 1 25 65 59 141 107 242 112 254 98 270 -17 20 -30 18 -82 -17z"/>
<path d="M15370 13409 c-12 -16 -19 -33 -16 -36 3 -4 6 -1 6 6 0 7 5 9 11 6
13 -9 52 32 44 45 -10 17 -23 11 -45 -21z"/>
<path d="M5243 13418 c-13 -15 -99 -274 -109 -323 -9 -50 6 -45 85 25 37 33
70 60 72 60 3 0 5 -23 4 -52 0 -69 20 -74 28 -6 4 29 9 63 13 76 11 39 -36 27
-103 -27 l-62 -50 16 52 c8 29 31 94 49 146 19 53 31 98 26 103 -5 5 -13 3
-19 -4z"/>
<path d="M4302 13408 c-7 -7 -12 -18 -12 -26 0 -15 -25 -101 -45 -152 -25 -63
-47 -182 -36 -193 12 -12 13 -9 36 83 16 63 34 107 35 84 0 -11 125 17 138 31
12 12 -6 14 -39 5 -40 -12 -99 -13 -99 -2 0 4 7 29 15 56 8 27 15 62 15 78 0
15 5 28 10 28 6 0 10 5 10 10 0 14 -13 13 -28 -2z"/>
<path d="M14638 13379 c-83 -54 -88 -125 -7 -117 l38 3 -31 -55 c-60 -107 -71
-131 -75 -174 -6 -50 13 -73 23 -29 8 39 44 112 109 222 55 95 68 144 43 169
-19 19 -50 14 -100 -19z m82 -19 c0 -29 -33 -58 -75 -66 -20 -3 -38 -4 -41 -1
-9 8 80 86 99 87 10 0 17 -8 17 -20z"/>
<path d="M14934 13352 c-62 -55 -42 -78 42 -48 l39 13 -38 -79 c-21 -44 -62
-118 -92 -166 -56 -87 -67 -122 -40 -122 8 0 15 6 15 13 0 7 20 46 45 86 52
84 165 298 165 312 0 5 -9 9 -19 9 -11 0 -23 5 -26 10 -12 20 -51 8 -91 -28z
m62 -7 c-26 -19 -42 -19 -26 0 7 8 20 15 29 15 13 -1 13 -3 -3 -15z"/>
<path d="M15755 13379 c-22 -5 -50 -11 -62 -14 -13 -3 -23 -12 -23 -21 0 -12
7 -14 33 -9 48 11 107 36 107 46 0 10 -1 10 -55 -2z"/>
<path d="M3185 13337 c-47 -34 -85 -76 -74 -82 8 -5 65 33 106 72 14 13 17 33
6 33 -5 -1 -22 -11 -38 -23z"/>
<path d="M15324 13342 c-10 -15 -14 -15 -36 -4 -36 20 -83 12 -83 -13 -1 -11
-14 -42 -29 -68 -16 -26 -35 -70 -43 -97 -12 -42 -12 -53 -1 -77 13 -26 12
-31 -12 -68 -55 -82 -80 -138 -68 -152 12 -15 21 -10 24 13 1 8 23 48 49 89
41 67 50 75 77 75 42 0 93 26 128 66 25 30 30 43 30 89 0 30 -5 66 -12 80 -9
20 -9 31 0 45 8 14 8 21 -1 29 -9 7 -16 5 -23 -7z m-39 -52 c4 -6 -12 -39 -35
-74 -22 -35 -39 -68 -38 -72 2 -5 -7 -19 -19 -31 -16 -16 -23 -18 -27 -8 -11
29 29 121 72 168 28 29 37 33 47 17z m35 -86 c0 -56 -10 -76 -54 -103 -65 -41
-68 -27 -13 64 29 47 55 85 60 85 4 0 7 -21 7 -46z"/>
<path d="M8865 13289 c-4 -6 -1 -15 6 -20 21 -13 31 -11 27 8 -4 20 -24 28
-33 12z"/>
<path d="M11422 13274 c1 -9 9 -19 16 -22 9 -3 13 2 10 14 -1 9 -9 19 -16 22
-9 3 -13 -2 -10 -14z"/>
<path d="M4948 13243 c-35 -38 -48 -66 -48 -102 0 -45 37 -65 113 -62 20 1 27
6 27 20 0 17 -6 20 -40 18 -22 -1 -45 4 -51 10 -16 16 -5 53 26 85 20 22 31
26 55 21 38 -7 41 13 4 27 -40 16 -58 12 -86 -17z"/>
<path d="M6512 13234 c-30 -21 -28 -38 13 -83 39 -43 42 -57 19 -89 -20 -29
-32 -28 -45 6 -8 22 -12 24 -19 11 -18 -32 7 -79 42 -79 10 0 30 12 43 26 37
40 33 85 -10 139 l-36 43 31 10 c16 6 30 16 30 21 0 16 -43 13 -68 -5z"/>
<path d="M10848 13203 c-22 -31 -57 -61 -96 -83 -34 -19 -62 -39 -62 -44 0
-13 59 2 89 23 17 12 36 17 53 14 18 -3 39 2 61 16 19 12 37 21 41 21 3 0 5
-17 4 -38 -1 -42 8 -65 24 -60 11 4 19 146 9 153 -4 2 -31 -12 -61 -30 -30
-19 -57 -31 -60 -29 -3 3 3 10 13 15 21 12 50 66 42 79 -11 18 -23 10 -57 -37z"/>
<path d="M6251 13194 c-32 -28 -41 -43 -41 -69 0 -19 7 -41 16 -49 19 -19 58
-30 79 -22 25 9 17 26 -14 26 -16 0 -34 7 -41 15 -10 13 -9 15 9 15 35 0 73
45 69 83 -4 45 -29 45 -77 1z m33 -35 c-9 -10 -24 -19 -32 -19 -11 0 -7 9 13
30 31 33 49 22 19 -11z"/>
<path d="M11182 13207 c-25 -8 -39 -22 -58 -58 -44 -88 -25 -109 26 -29 32 49
70 82 70 60 0 -5 5 -10 10 -10 14 0 12 37 -2 42 -7 3 -28 0 -46 -5z"/>
<path d="M5763 13197 c-39 -22 -92 -107 -67 -107 4 0 26 21 50 46 39 42 73 55
66 24 -11 -48 -13 -100 -5 -100 11 0 17 15 33 79 16 62 -21 89 -77 58z"/>
<path d="M8524 13188 c-48 -34 -106 -148 -75 -148 5 0 23 25 40 55 40 71 72
93 114 77 39 -15 49 -6 18 19 -30 25 -59 24 -97 -3z"/>
<path d="M15635 13198 c-16 -6 -36 -15 -42 -21 -16 -12 -17 -61 -2 -88 14 -27
-5 -49 -42 -49 -27 0 -56 30 -42 44 3 3 -1 6 -10 6 -21 0 -32 -37 -16 -56 7
-8 26 -22 41 -30 27 -14 33 -14 66 4 40 21 41 28 26 114 -6 35 -5 37 31 47 20
5 43 7 51 4 9 -3 14 2 14 16 0 24 -24 27 -75 9z"/>
<path d="M5994 13190 c-31 -12 -74 -68 -74 -95 0 -15 7 -26 19 -30 21 -6 85
17 112 41 15 13 17 13 22 -8 4 -13 2 -52 -3 -88 -5 -36 -10 -68 -10 -72 0 -4
-24 4 -52 17 -87 41 -127 31 -159 -38 -35 -78 -16 -146 46 -167 71 -23 130 16
173 115 30 71 45 203 28 252 -16 48 -37 52 -68 15 -24 -28 -78 -51 -78 -33 0
5 11 19 24 32 13 13 21 29 19 37 -4 10 1 13 17 10 13 -1 25 3 27 10 5 14 -12
15 -43 2z m3 -262 c27 -13 49 -23 51 -24 9 -4 -27 -64 -56 -93 -28 -28 -38
-32 -65 -27 -44 9 -62 30 -62 76 0 27 8 46 24 64 30 32 47 32 108 4z"/>
<path d="M7698 13175 c-93 -63 -68 -145 43 -145 61 0 64 15 5 24 -24 4 -52 13
-62 20 -28 21 -5 59 50 86 25 12 46 26 46 31 0 18 -46 9 -82 -16z"/>
<path d="M7922 13183 c-107 -52 -125 -148 -30 -159 37 -5 108 13 108 26 0 6
-19 7 -44 4 -47 -7 -86 7 -86 31 0 23 89 85 121 85 19 0 29 5 29 15 0 20 -55
19 -98 -2z"/>
<path d="M8990 13174 c-50 -36 -120 -106 -120 -121 0 -22 19 -14 50 20 36 41
108 92 117 83 3 -3 2 -26 -4 -51 -6 -25 -7 -48 -3 -50 26 -16 53 102 30 130
-17 20 -28 18 -70 -11z"/>
<path d="M13200 13186 c-14 -8 -36 -28 -48 -46 -59 -79 -45 -140 31 -140 44 0
88 17 94 36 3 8 -13 8 -53 1 -44 -9 -57 -8 -64 3 -12 19 4 54 26 56 42 2 51 5
72 24 26 25 28 43 6 64 -19 19 -31 19 -64 2z m44 -24 c2 -4 -2 -16 -10 -27 -8
-10 -14 -16 -14 -12 0 4 -12 2 -27 -4 l-28 -10 29 30 c30 32 41 37 50 23z"/>
<path d="M5486 13159 c-55 -65 -9 -111 75 -75 12 5 18 1 22 -14 6 -24 27 -18
27 7 0 8 8 28 17 44 24 40 12 45 -34 15 -48 -32 -103 -45 -103 -24 0 24 36 51
58 44 12 -4 22 -1 25 8 15 39 -53 36 -87 -5z"/>
<path d="M9194 13165 c-19 -19 -24 -34 -22 -58 3 -29 6 -32 40 -35 20 -2 51 4
68 13 18 9 33 15 35 13 24 -29 32 -100 19 -167 -6 -30 -8 -31 -61 -31 -30 0
-71 -7 -90 -17 -65 -30 -112 -139 -84 -192 30 -54 142 -2 214 100 42 60 43 61
95 42 25 -10 11 26 -17 43 -26 15 -28 20 -20 48 17 57 10 128 -17 186 -33 71
-43 83 -59 70 -7 -6 -11 -19 -8 -28 3 -12 -4 -22 -22 -30 -31 -14 -55 -16 -55
-3 0 13 26 32 34 24 10 -10 25 17 19 34 -8 21 -42 15 -69 -12z m95 -337 c-69
-101 -159 -153 -159 -93 0 69 59 125 132 125 l49 0 -22 -32z"/>
<path d="M11504 13177 c-43 -25 -114 -127 -89 -127 4 0 27 23 52 50 25 28 49
50 54 50 5 0 9 -27 9 -60 0 -33 4 -60 10 -60 14 0 22 39 18 100 -3 59 -15 70
-54 47z"/>
<path d="M3979 13156 c-49 -42 -60 -86 -23 -86 8 0 33 9 54 20 l40 20 0 -23
c0 -46 15 -37 26 15 15 62 7 76 -27 50 -13 -11 -35 -25 -49 -32 l-25 -13 28
30 c15 16 27 32 27 36 0 14 -26 6 -51 -17z"/>
<path d="M7414 13155 c-46 -27 -79 -83 -69 -116 14 -43 88 -43 158 0 51 31 61
68 29 108 -27 34 -70 37 -118 8z m69 -30 c40 10 48 -21 14 -51 -31 -27 -97
-48 -110 -35 -13 13 -1 44 29 76 18 20 28 25 33 16 5 -8 18 -10 34 -6z"/>
<path d="M8219 13147 c-14 -17 -51 -45 -82 -62 -32 -16 -57 -35 -57 -42 0 -17
4 -17 50 7 47 24 50 24 50 5 0 -22 46 -19 85 5 l33 20 5 -20 c5 -20 33 -37 44
-26 3 3 1 12 -6 19 -6 8 -8 27 -5 46 8 40 -7 40 -65 1 -24 -17 -46 -28 -49
-25 -3 2 7 23 22 45 14 22 26 44 26 50 0 20 -26 9 -51 -23z"/>
<path d="M11731 13154 c-11 -14 -23 -34 -26 -45 -13 -39 32 -62 75 -39 15 8
19 4 29 -35 12 -49 14 -89 4 -124 -6 -23 -9 -23 -72 -18 -84 7 -128 -8 -158
-52 -70 -104 26 -194 133 -125 98 63 147 185 126 312 -6 37 -10 82 -9 101 2
42 -19 52 -28 13 -3 -18 -16 -34 -31 -41 -39 -17 -46 -13 -29 19 9 17 22 30
30 30 20 0 19 16 -1 24 -22 8 -20 9 -43 -20z m53 -306 c-23 -40 -67 -86 -97
-103 -45 -24 -87 -15 -87 20 0 38 21 73 49 84 41 15 144 14 135 -1z"/>
<path d="M11343 13154 c3 -3 -3 -15 -14 -27 -22 -24 -25 -47 -6 -47 7 0 21 16
30 35 21 44 21 45 0 45 -9 0 -14 -3 -10 -6z"/>
<path d="M8751 13108 c-18 -43 -18 -58 0 -58 11 0 39 61 39 85 0 29 -21 15
-39 -27z"/>
<path d="M2447 13123 c-12 -12 -7 -53 6 -53 15 0 39 44 30 54 -8 8 -28 8 -36
-1z"/>
<path d="M4663 12963 c-8 -3 -11 -14 -7 -28 8 -31 -21 -144 -63 -245 -43 -103
-50 -111 -69 -86 -15 21 -31 16 -18 -6 5 -7 8 -22 9 -33 0 -17 8 -20 54 -23
47 -3 60 1 107 32 29 20 60 49 69 66 15 29 15 31 -8 41 -20 9 -34 7 -72 -10
-26 -12 -49 -21 -51 -21 -2 0 8 30 22 67 31 83 67 230 59 243 -7 11 -13 11
-32 3z m36 -329 c-23 -26 -76 -54 -100 -54 -21 0 21 38 65 59 55 28 64 26 35
-5z"/>
<path d="M3447 12908 c-8 -13 -20 -56 -26 -97 -14 -88 -15 -91 -46 -91 -13 0
-39 -15 -59 -34 -28 -26 -36 -41 -36 -69 0 -53 9 -67 41 -67 55 0 109 87 133
216 25 132 25 134 37 134 8 0 7 5 -1 15 -17 21 -27 19 -43 -7z m-52 -240 c-11
-34 -54 -88 -71 -88 -25 0 -17 58 12 85 35 33 68 34 59 3z"/>
<path d="M5228 12868 c-3 -7 -11 -46 -18 -85 -10 -55 -17 -73 -29 -73 -9 0
-33 -14 -53 -31 -87 -71 -62 -197 25 -129 43 34 66 83 88 186 12 55 22 108 23
119 1 22 -29 33 -36 13z m-55 -233 c-14 -43 -56 -85 -70 -72 -11 12 8 56 38
86 42 43 50 39 32 -14z"/>
<path d="M4420 12825 c0 -9 5 -15 11 -13 6 2 11 8 11 13 0 5 -5 11 -11 13 -6
2 -11 -4 -11 -13z"/>
<path d="M3831 12740 c-30 -19 -33 -25 -27 -53 11 -62 11 -70 -4 -75 -13 -5
-13 -3 -1 11 20 25 -10 23 -40 -3 -24 -20 -24 -20 -5 -35 22 -17 54 -19 76 -5
14 8 16 40 8 110 -2 20 3 27 30 36 18 5 34 15 35 20 4 18 -38 14 -72 -6z"/>
<path d="M2336 12724 c-14 -15 -26 -37 -26 -50 0 -12 -7 -30 -17 -39 -14 -14
-14 -18 -2 -26 22 -14 24 -12 46 39 24 55 46 77 68 68 9 -3 15 0 15 8 0 14
-21 26 -44 26 -8 0 -25 -12 -40 -26z"/>
<path d="M3576 12729 c-16 -12 -35 -38 -43 -56 -19 -46 -1 -87 42 -91 36 -4
105 15 105 29 0 6 -9 7 -22 3 -32 -10 -91 -5 -100 9 -8 14 7 24 46 31 41 7 68
35 64 65 -4 36 -53 41 -92 10z m64 -18 c0 -9 -34 -34 -63 -44 -20 -7 -16 4 11
36 16 18 52 24 52 8z"/>
<path d="M4015 12722 c-37 -5 -55 -19 -70 -56 -24 -57 8 -89 86 -88 64 1 68
15 9 27 -44 8 -56 14 -58 31 -4 29 23 54 59 54 16 0 29 4 29 9 0 16 -25 27
-55 23z"/>
<path d="M4863 12698 c-38 -41 -53 -69 -53 -102 0 -54 69 -85 114 -51 20 15
16 19 -18 15 -40 -4 -66 10 -66 35 0 18 5 25 19 25 10 0 35 7 55 15 29 12 36
21 36 43 0 59 -41 68 -87 20z m61 -14 c8 -22 9 -20 -24 -34 -40 -17 -49 -6
-20 25 27 29 36 31 44 9z"/>
<path d="M2519 12681 c-72 -73 5 -158 118 -130 50 13 59 33 10 24 -19 -4 -52
-2 -75 5 -53 14 -68 53 -32 82 12 10 27 18 34 18 6 0 -1 -8 -16 -18 -51 -31
-23 -45 32 -17 32 16 38 33 18 53 -21 21 -58 13 -89 -17z"/>
<path d="M2091 12691 c-13 -4 -33 -23 -44 -43 -18 -30 -19 -38 -8 -52 13 -15
17 -15 48 4 19 11 35 20 36 20 2 0 4 -12 5 -27 3 -39 25 -57 57 -49 14 4 23
11 19 17 -3 6 -12 8 -20 5 -20 -8 -33 32 -23 69 12 39 12 38 -10 32 -13 -3
-18 0 -15 8 7 16 -14 23 -45 16z m13 -46 c-25 -19 -40 -19 -24 0 7 8 20 15 28
15 13 0 12 -3 -4 -15z"/>
<path d="M4196 12639 c-15 -34 -25 -64 -22 -66 10 -10 29 11 48 53 17 39 23
44 51 44 30 1 31 1 13 15 -40 31 -61 19 -90 -46z"/>
<path d="M4376 12605 c-11 -16 -12 -25 -5 -25 12 0 38 29 39 43 0 16 -18 6
-34 -18z"/>
<path d="M15227 12592 c-115 -62 -235 -180 -285 -278 -48 -94 -66 -239 -38
-305 32 -76 121 -129 216 -129 70 0 140 11 140 23 0 6 -16 7 -40 4 -51 -7
-194 24 -227 49 -49 37 -65 81 -60 164 3 41 14 100 26 131 47 125 181 268 309
331 34 17 62 35 62 39 0 18 -37 8 -103 -29z"/>
<path d="M15451 12335 c-10 -35 -18 -45 -35 -45 -14 0 -34 -15 -54 -42 -39
-51 -49 -83 -32 -103 11 -13 9 -20 -11 -43 -13 -15 -28 -30 -34 -34 -6 -5 -5
-12 3 -20 10 -10 21 -3 56 35 25 27 52 47 64 47 11 0 34 12 51 26 34 29 40 62
17 105 -11 22 -11 30 0 50 17 31 18 69 1 69 -7 0 -19 -20 -26 -45z m9 -122 c0
-21 -29 -53 -47 -53 -10 0 -8 10 7 40 20 39 40 46 40 13z m-75 -12 c-17 -33
-35 -49 -35 -30 0 11 38 59 47 59 2 0 -3 -13 -12 -29z"/>
<path d="M17239 12323 c-23 -66 -32 -82 -44 -87 -7 -2 -11 -13 -9 -23 6 -23
-55 -118 -68 -105 -14 14 17 69 42 77 24 8 22 28 -4 33 -36 7 -92 -71 -82
-114 4 -13 11 -24 16 -24 5 0 0 -16 -12 -36 -15 -25 -18 -38 -10 -46 8 -8 17
-1 32 26 19 30 27 36 56 36 97 0 156 97 99 160 -14 15 -14 21 0 53 17 42 20
77 5 77 -6 0 -15 -12 -21 -27z m-3 -186 c-5 -22 -60 -57 -71 -46 -2 2 11 27
28 56 28 44 33 49 41 33 5 -10 6 -30 2 -43z"/>
<path d="M17862 12333 c2 -10 10 -18 18 -18 25 1 93 -25 111 -41 24 -22 34
-112 19 -161 -9 -27 -43 -67 -121 -143 -60 -58 -109 -111 -109 -118 0 -26 33
-10 92 46 170 158 195 198 185 299 -7 68 -43 110 -115 136 -61 22 -84 22 -80
0z"/>
<path d="M16370 12311 c0 -12 -5 -21 -10 -21 -18 0 -60 -48 -60 -69 0 -11 7
-27 16 -36 9 -9 15 -17 13 -18 -2 -2 -23 -15 -47 -30 -23 -15 -48 -39 -55 -54
-10 -22 -8 -28 13 -45 19 -16 34 -19 66 -14 76 10 94 22 94 60 0 19 -7 41 -15
50 -22 21 -19 34 14 50 40 21 55 68 36 107 -9 16 -20 29 -24 29 -5 0 -16 3
-25 6 -12 4 -16 0 -16 -15z m40 -60 c0 -22 -35 -51 -62 -51 -25 0 -23 25 4 50
28 26 58 26 58 1z m-54 -146 c21 -32 13 -42 -41 -50 -73 -11 -82 14 -19 56 37
24 40 24 60 -6z"/>
<path d="M15735 12308 c-67 -9 -122 -30 -137 -52 -4 -5 4 -23 18 -39 31 -37
31 -57 -2 -57 -16 0 -23 4 -18 11 4 7 1 10 -7 7 -8 -3 -15 -14 -17 -26 -3 -20
1 -22 42 -22 32 0 48 5 55 17 10 19 -1 58 -25 84 -13 15 -12 17 13 27 15 6 51
14 78 17 54 8 85 20 85 35 0 6 -3 9 -7 8 -5 0 -39 -5 -78 -10z"/>
<path d="M17599 12297 c-36 -24 -50 -67 -29 -92 9 -10 6 -15 -12 -20 -34 -11
-68 -45 -68 -70 0 -54 77 -72 140 -34 46 28 48 33 43 83 -4 28 0 54 11 74 16
31 16 33 -8 57 -31 31 -35 31 -77 2z m66 -26 c6 -10 -46 -51 -64 -51 -18 0
-13 38 7 49 22 13 49 14 57 2z m-21 -124 c6 -24 -49 -58 -89 -55 -43 4 -45 33
-4 57 40 24 86 23 93 -2z"/>
<path d="M16165 12290 c-3 -5 -4 -10 -1 -10 3 0 -12 -36 -35 -80 -38 -76 -46
-118 -24 -123 5 -1 12 12 15 29 4 17 25 65 48 106 23 41 39 78 35 81 -10 10
-31 8 -38 -3z"/>
<path d="M16883 12281 c-29 -19 -51 -56 -39 -68 3 -3 19 9 36 26 34 33 80 42
80 16 0 -42 -67 -115 -104 -115 -9 0 -30 -13 -48 -29 -26 -23 -30 -32 -21 -42
9 -9 20 -7 47 9 36 21 36 21 46 1 15 -27 56 -42 81 -29 27 15 24 33 -5 26 -16
-4 -30 0 -40 10 -22 21 -21 25 19 64 39 38 60 89 51 126 -5 19 -13 24 -39 24
-17 0 -46 -9 -64 -19z"/>
<path d="M17373 12202 c-50 -105 -54 -118 -47 -137 10 -26 19 -17 32 31 7 26
21 59 31 73 19 27 51 97 51 112 0 5 -6 9 -12 9 -7 0 -32 -40 -55 -88z"/>
<path d="M15834 12079 c-8 -14 11 -33 25 -25 11 7 4 36 -9 36 -5 0 -12 -5 -16
-11z"/>
<path d="M16496 12025 c4 -9 11 -14 16 -13 15 5 11 23 -6 26 -11 2 -14 -2 -10
-13z"/>
<path d="M7060 11534 c-12 -31 -1 -97 15 -92 6 2 10 21 11 43 0 22 2 46 5 54
8 27 -21 22 -31 -5z"/>
<path d="M7825 11550 c-64 -13 -151 -49 -170 -70 -10 -12 -15 -26 -11 -37 6
-15 10 -14 29 10 49 60 277 99 372 63 127 -49 91 -165 -77 -252 -69 -35 -72
-34 -65 36 5 47 4 60 -7 60 -15 0 -26 -42 -26 -96 l0 -34 -72 1 c-76 1 -139
17 -146 37 -2 7 3 12 12 12 9 0 16 4 16 10 0 14 -52 8 -68 -7 -19 -18 0 -47
45 -69 24 -11 69 -19 126 -22 48 -2 87 -7 87 -9 0 -3 -7 -36 -17 -74 -9 -38
-14 -72 -10 -75 14 -14 27 12 43 84 l17 78 46 17 c115 41 201 135 201 221 0
48 -47 99 -105 115 -45 12 -160 13 -220 1z"/>
<path d="M1674 11460 c-130 -74 -214 -256 -214 -466 0 -83 16 -127 60 -169 27
-26 40 -30 100 -33 84 -5 97 13 15 20 -102 9 -145 64 -145 188 1 201 87 382
209 441 47 22 59 38 35 46 -5 1 -32 -10 -60 -27z"/>
<path d="M5502 11423 c-11 -27 -30 -90 -43 -140 l-24 -93 -57 0 c-32 0 -58 -4
-58 -9 0 -13 26 -21 68 -21 l37 0 -3 -61 c-4 -71 3 -109 21 -109 10 0 12 15 9
60 -7 90 0 106 48 114 34 5 40 10 40 31 0 27 -14 34 -23 11 -3 -7 -16 -15 -30
-18 l-25 -5 23 86 c13 47 32 109 44 137 18 48 19 64 1 64 -4 0 -17 -21 -28
-47z"/>
<path d="M5627 11428 c-7 -27 -16 -101 -21 -173 -2 -27 -6 -57 -9 -65 -3 -8
-11 -40 -17 -70 -7 -30 -14 -63 -17 -72 -8 -32 20 -19 58 25 42 48 55 45 40
-10 -16 -58 -14 -83 7 -83 14 0 19 8 19 33 1 17 4 53 8 78 6 39 5 47 -11 53
-11 4 -28 -1 -46 -14 -32 -24 -32 -24 -13 55 18 74 19 147 3 164 -9 9 -9 12
-1 7 12 -6 16 3 28 62 5 24 3 32 -8 32 -8 0 -17 -10 -20 -22z"/>
<path d="M2620 11420 c0 -5 5 -10 11 -10 25 0 113 -88 135 -135 31 -66 31
-115 -2 -171 -32 -55 -161 -174 -188 -174 -18 0 -19 -1 -5 -16 15 -14 20 -14
53 0 49 20 155 129 184 187 52 107 13 206 -122 307 -30 23 -66 29 -66 12z"/>
<path d="M3938 11337 c-31 -50 -85 -131 -121 -178 -35 -48 -73 -102 -83 -120
-11 -19 -27 -45 -36 -58 -21 -28 -23 -41 -5 -41 12 0 62 60 102 123 24 38 65
57 121 57 l47 0 -7 -87 c-10 -128 10 -96 45 69 32 149 45 264 35 302 -12 48
-38 30 -98 -67z m57 -44 c-4 -32 -11 -78 -16 -103 l-10 -45 -52 3 -53 4 65 99
c36 54 68 99 70 99 2 0 0 -26 -4 -57z"/>
<path d="M4218 11413 c-3 -16 -4 -30 -12 -96 -4 -37 -25 -127 -45 -198 -36
-126 -41 -179 -17 -179 23 0 117 444 100 472 -6 10 -24 10 -26 1z"/>
<path d="M1887 11343 c-18 -56 -41 -300 -32 -326 15 -38 23 -10 35 136 7 83
19 167 26 186 14 32 11 51 -6 51 -5 0 -15 -21 -23 -47z"/>
<path d="M2344 11303 c-27 -32 -73 -81 -103 -109 -76 -74 -66 -88 52 -69 l47
8 0 -51 c0 -35 6 -57 20 -73 22 -27 21 -28 23 60 2 60 4 65 26 71 35 8 39 30
6 30 -24 0 -26 3 -20 23 4 12 9 46 12 75 3 29 9 55 14 58 16 10 9 34 -10 34
-10 0 -40 -25 -67 -57z m27 -80 c-15 -54 -21 -59 -69 -66 l-42 -5 23 26 c54
62 92 99 95 91 2 -4 -2 -25 -7 -46z"/>
<path d="M5247 11273 c-12 -11 -8 -23 8 -23 8 0 15 7 15 15 0 16 -12 20 -23 8z"/>
<path d="M9887 11273 c-13 -12 -7 -23 13 -23 11 0 20 7 20 15 0 15 -21 21 -33
8z"/>
<path d="M6995 11243 c-11 -2 -30 -6 -42 -9 -17 -3 -24 -14 -29 -42 -4 -28
-14 -42 -35 -54 -42 -25 -41 -73 4 -115 37 -35 66 -46 86 -33 12 7 9 11 -15
21 -43 19 -64 39 -64 64 0 32 25 48 70 47 22 -1 40 2 40 7 0 15 -30 41 -46 41
-26 0 -14 21 21 36 26 10 41 12 55 4 23 -12 50 -13 50 -1 0 8 -63 43 -72 40
-1 -1 -12 -3 -23 -6z"/>
<path d="M6280 11182 c-8 -3 -27 -14 -42 -24 -33 -23 -36 -55 -8 -91 27 -34
25 -51 -7 -72 -28 -19 -57 -11 -59 16 -2 29 -4 31 -19 19 -38 -32 7 -96 60
-86 64 12 97 93 55 131 -11 10 -20 25 -20 33 0 18 29 41 53 42 9 0 17 6 17 14
0 18 -11 25 -30 18z"/>
<path d="M5904 11161 c3 -5 0 -8 -8 -7 -8 0 -28 -16 -45 -38 l-31 -39 0 37 c0
58 -24 39 -32 -25 -4 -30 -12 -67 -17 -82 -6 -16 -9 -33 -6 -37 11 -17 33 2
58 49 15 26 40 64 57 86 l30 38 0 -66 c0 -36 4 -68 9 -72 6 -3 24 15 41 39 44
64 54 68 47 16 -6 -47 -1 -70 17 -70 15 0 19 147 4 156 -5 3 -27 -11 -49 -32
l-39 -38 0 47 c0 41 -3 47 -21 47 -11 0 -18 -4 -15 -9z"/>
<path d="M4979 11137 c-19 -11 -35 -22 -37 -23 -2 -1 -9 -25 -17 -52 -10 -41
-10 -54 0 -68 18 -25 31 -11 39 42 7 57 29 84 68 84 33 0 34 19 2 31 -14 5
-32 0 -55 -14z"/>
<path d="M10040 11145 c-7 -8 -18 -15 -24 -15 -14 0 -50 -86 -41 -100 11 -17
23 -11 29 14 7 30 53 86 70 86 7 0 18 -24 25 -55 12 -51 25 -74 38 -62 4 5 -7
70 -24 130 -6 21 -55 23 -73 2z"/>
<path d="M10299 11144 c-61 -18 -86 -46 -73 -82 7 -19 19 -29 45 -36 31 -8 37
-14 47 -52 7 -25 12 -76 12 -114 l0 -70 -88 6 c-141 10 -195 -19 -156 -85 23
-39 75 -66 153 -82 64 -12 64 -12 88 15 12 15 23 38 23 51 0 37 26 55 80 55
27 0 55 3 64 6 19 7 22 26 4 23 -7 -1 -41 -1 -75 0 l-61 1 -5 98 c-3 53 -8
109 -12 123 -6 21 -3 27 14 32 23 6 30 50 10 63 -6 3 -9 15 -6 25 8 30 -14 38
-64 23z m23 -40 c-12 -8 -22 -24 -22 -35 0 -22 -13 -25 -29 -5 -9 11 -6 18 15
35 15 12 34 21 43 21 11 0 10 -4 -7 -16z m23 -34 c3 -5 1 -10 -4 -10 -6 0 -11
5 -11 10 0 6 2 10 4 10 3 0 8 -4 11 -10z m-18 -324 c3 -3 -1 -24 -8 -48 -14
-42 -15 -43 -55 -40 -71 4 -180 79 -141 96 14 7 196 0 204 -8z"/>
<path d="M8701 11125 c-16 -14 -37 -46 -47 -71 -14 -38 -15 -48 -4 -69 19 -35
34 -31 26 6 -6 33 14 88 40 110 11 9 21 9 39 1 43 -20 41 14 -2 36 -18 10 -26
8 -52 -13z"/>
<path d="M9514 11125 c-34 -28 -44 -31 -44 -10 0 8 -6 15 -12 15 -14 0 -18
-83 -5 -96 4 -4 22 7 41 25 l33 32 7 -25 c8 -33 29 -33 84 -1 24 14 47 23 51
20 5 -2 8 -18 9 -36 2 -60 32 -49 32 12 0 32 -5 41 -24 50 -21 10 -32 7 -72
-15 -25 -14 -48 -26 -50 -26 -2 0 -4 15 -4 34 0 46 -10 50 -46 21z"/>
<path d="M4460 11122 c-32 -16 -79 -80 -80 -109 0 -20 30 -43 56 -43 14 0 38
7 54 15 l29 15 -5 -82 c-7 -107 -9 -112 -33 -98 -35 18 -106 12 -127 -11 -27
-31 -27 -141 2 -189 45 -78 113 -36 158 98 30 91 44 351 19 359 -7 3 -13 -3
-13 -12 0 -23 -49 -65 -76 -65 -13 0 -24 4 -24 9 0 17 47 76 72 90 24 14 28
14 46 -2 23 -21 32 -22 32 -3 0 17 -38 46 -60 46 -8 0 -31 -8 -50 -18z m28
-334 c18 -2 9 -48 -21 -107 -28 -57 -53 -73 -72 -47 -22 29 -29 102 -15 137
12 29 16 30 54 25 23 -3 47 -7 54 -8z"/>
<path d="M8051 11131 c-18 -11 -35 -131 -21 -145 5 -5 12 -8 14 -5 4 4 15 74
16 102 0 14 7 18 28 17 46 -3 48 -1 17 20 -34 23 -35 23 -54 11z"/>
<path d="M9847 11133 c-4 -3 -7 -26 -7 -50 0 -52 25 -56 26 -5 0 17 3 35 7 38
4 4 7 11 7 16 0 10 -24 11 -33 1z"/>
<path d="M9205 11116 c-10 -7 -24 -12 -30 -10 -5 2 -16 -5 -23 -16 -7 -12 -8
-20 -2 -20 5 0 10 -5 10 -11 0 -5 -4 -7 -10 -4 -6 4 -10 -8 -10 -29 0 -50 17
-45 43 14 25 57 37 63 37 20 0 -32 22 -42 37 -16 4 7 22 20 39 29 l31 16 19
-34 c21 -40 50 -49 38 -12 -9 30 -43 77 -56 77 -6 0 -25 -9 -43 -20 l-32 -19
1 21 c1 27 -22 34 -49 14z"/>
<path d="M4764 11105 c-3 -8 -15 -17 -26 -21 -10 -3 -28 -20 -39 -37 -44 -72
-7 -129 67 -105 40 14 84 65 84 100 0 21 -51 78 -70 78 -6 0 -13 -7 -16 -15z
m44 -68 c4 -34 -9 -52 -47 -65 -37 -13 -55 -1 -47 32 15 62 88 88 94 33z"/>
<path d="M5124 11070 c-8 -50 -8 -54 4 -58 11 -3 16 9 27 66 5 25 3 32 -9 32
-11 0 -18 -13 -22 -40z"/>
<path d="M8421 11075 c-17 -20 -31 -44 -31 -54 0 -28 37 -54 76 -55 l36 -1 -5
-63 c-2 -34 -7 -65 -10 -68 -2 -3 -22 2 -42 10 -54 23 -74 20 -86 -11 -15 -39
-5 -136 18 -175 26 -45 66 -50 86 -11 15 29 31 77 41 126 4 16 13 27 24 27 15
1 15 2 2 13 -11 8 -14 21 -9 42 11 48 10 145 -1 166 -14 26 -44 26 -37 -1 6
-22 -17 -48 -28 -30 -3 6 -10 8 -15 5 -5 -3 -12 4 -15 16 -10 30 32 70 73 71
34 1 42 12 16 22 -35 14 -63 5 -93 -29z m50 -272 c15 -15 -30 -153 -50 -153
-16 0 -31 53 -31 110 l0 60 37 -5 c20 -2 40 -8 44 -12z"/>
<path d="M8934 11091 c-37 -23 -59 -74 -43 -103 9 -16 17 -18 53 -13 32 5 45
3 55 -9 8 -9 23 -16 34 -16 20 0 20 0 -1 23 -12 13 -22 29 -22 36 0 9 -12 10
-46 5 -44 -6 -46 -6 -35 14 15 29 28 35 35 17 11 -30 27 -15 24 22 -4 44 -14
49 -54 24z"/>
<path d="M8229 11063 c-47 -57 -48 -103 -3 -103 33 0 91 27 98 46 9 24 -11 51
-45 63 -39 13 -33 14 -50 -6z m51 -55 c-28 -23 -62 -24 -53 -2 7 19 42 34 62
26 11 -4 9 -10 -9 -24z"/>
<path d="M1960 11006 c0 -9 7 -16 16 -16 9 0 14 5 12 12 -6 18 -28 21 -28 4z"/>
<path d="M16932 10910 c-28 -82 -91 -191 -113 -197 -11 -3 -19 -8 -19 -12 0
-3 -29 -6 -64 -6 -62 0 -87 -7 -72 -22 4 -4 16 -2 26 5 14 8 20 9 20 1 0 -7
18 -10 50 -7 28 1 50 2 50 2 0 -1 -20 -32 -45 -68 -47 -71 -53 -86 -32 -86 6
1 35 35 62 77 42 63 57 79 85 86 37 9 76 42 61 52 -5 3 -17 -2 -26 -12 -10 -9
-25 -17 -35 -18 -14 -1 -11 8 16 54 39 66 87 188 79 202 -13 19 -23 7 -43 -51z"/>
<path d="M3253 10916 c-4 -7 -26 -23 -48 -34 -152 -77 -282 -291 -273 -449 5
-72 29 -106 88 -124 65 -20 199 22 252 78 29 31 18 38 -23 14 -19 -11 -67 -29
-108 -41 -120 -37 -171 -9 -171 94 0 93 54 205 151 315 85 96 102 106 94 53
-13 -81 -11 -97 11 -100 16 -2 28 7 45 35 29 47 34 86 18 135 -13 40 -23 47
-36 24z m1 -131 c-24 -37 -26 -26 -7 36 16 51 18 52 21 22 2 -18 -4 -43 -14
-58z"/>
<path d="M12335 10878 c-40 -90 -105 -250 -105 -260 0 -7 -19 -9 -61 -4 -60 6
-89 -5 -89 -33 0 -14 17 -14 22 0 2 7 22 8 55 4 l51 -7 -31 -67 c-17 -36 -35
-69 -41 -73 -6 -4 -8 -10 -4 -13 14 -14 48 23 79 86 28 59 36 68 62 71 35 3
47 23 16 25 -12 1 -23 4 -26 6 -2 3 21 66 51 140 31 75 56 141 56 146 0 23
-21 10 -35 -21z"/>
<path d="M6904 10875 c-4 -9 -7 -39 -8 -68 -1 -37 3 -52 12 -52 10 0 15 20 18
68 3 44 1 67 -6 67 -6 0 -13 -7 -16 -15z"/>
<path d="M12973 10848 c-27 -71 -193 -392 -209 -404 -16 -13 -8 -47 10 -41 6
2 24 28 39 58 16 30 31 54 35 54 26 -1 73 -19 83 -31 7 -8 15 -32 18 -52 8
-46 25 -45 29 2 4 41 -30 85 -77 101 -17 5 -31 13 -31 18 0 4 29 68 65 141 36
74 68 149 71 165 10 47 -13 38 -33 -11z"/>
<path d="M8930 10844 c-74 -32 -133 -106 -171 -214 -26 -73 -27 -75 -67 -83
-40 -8 -71 -31 -58 -44 3 -3 14 1 24 10 10 10 30 17 44 17 26 0 26 -1 16 -37
-19 -70 -67 -153 -101 -173 -36 -22 -77 -26 -95 -8 -9 9 -12 9 -12 -1 0 -19
31 -40 58 -41 72 -1 134 74 178 213 19 61 22 63 84 48 20 -4 46 -4 59 1 37 13
44 -1 16 -34 -14 -16 -25 -35 -25 -43 0 -23 29 -38 62 -31 62 12 72 40 38 103
-11 21 -20 44 -20 51 0 16 -39 6 -55 -14 -14 -17 -31 -19 -88 -10 -45 7 -47 8
-41 34 22 87 99 203 149 222 46 17 65 21 64 13 -3 -20 2 -25 16 -13 11 9 12
17 4 31 -12 23 -32 23 -79 3z m38 -359 c4 -20 -13 -35 -41 -35 -17 0 -17 1 0
30 19 32 36 35 41 5z"/>
<path d="M14575 10813 c-10 -27 -21 -59 -26 -73 -5 -14 -15 -53 -23 -87 -18
-81 -74 -152 -138 -176 -32 -11 -20 19 28 72 47 52 53 72 16 52 -29 -15 -92
-92 -92 -111 0 -9 6 -25 14 -35 13 -19 15 -19 54 -1 81 36 143 127 167 241 8
42 22 93 30 112 19 44 19 53 1 53 -8 0 -22 -21 -31 -47z"/>
<path d="M17025 10790 c-27 -38 -65 -91 -84 -117 -42 -56 -83 -155 -71 -167 5
-5 23 3 42 18 19 14 51 33 73 42 l38 16 -17 -27 c-19 -29 -18 -66 2 -73 7 -2
12 6 12 20 0 13 9 34 20 48 47 61 1 80 -83 36 -38 -21 -45 -22 -40 -8 8 21
138 209 164 238 22 23 25 44 7 44 -7 0 -35 -32 -63 -70z"/>
<path d="M7505 10833 c-5 -10 -7 -61 -6 -115 3 -108 -10 -150 -61 -193 -36
-30 -58 -32 -58 -4 0 36 19 61 42 53 15 -4 19 -2 16 7 -3 8 -14 15 -26 17 -40
6 -73 -101 -35 -115 9 -4 36 4 62 18 70 37 91 86 91 216 0 57 4 105 10 108 17
10 11 25 -9 25 -10 0 -22 -8 -26 -17z"/>
<path d="M15254 10832 c-6 -4 -23 -53 -39 -109 -15 -56 -31 -106 -34 -112 -4
-5 -22 -13 -41 -16 -51 -9 -97 -34 -125 -67 -44 -53 -25 -93 46 -93 74 0 146
105 194 283 27 97 27 132 -1 114z m-94 -267 c0 -30 -69 -105 -96 -105 -30 0
-45 15 -38 35 6 14 117 95 131 95 1 0 3 -11 3 -25z"/>
<path d="M10691 10764 c-6 -36 -21 -90 -32 -120 -24 -62 -97 -157 -139 -179
-39 -20 -62 -19 -58 2 4 23 68 65 86 58 15 -5 44 24 36 37 -7 11 -56 -2 -99
-25 -67 -37 -74 -108 -11 -115 37 -5 95 35 147 100 50 63 71 110 93 205 19 87
20 103 3 103 -9 0 -18 -24 -26 -66z"/>
<path d="M13088 10757 c-79 -56 -182 -147 -196 -173 -13 -25 -8 -49 6 -28 13
19 186 167 220 187 17 10 32 23 32 27 0 21 -20 17 -62 -13z"/>
<path d="M15630 10714 c0 -8 7 -22 15 -30 13 -14 15 -12 15 15 0 21 -5 31 -15
31 -8 0 -15 -7 -15 -16z"/>
<path d="M11070 10672 c0 -11 22 -32 32 -32 5 0 4 9 -2 20 -11 20 -30 28 -30
12z"/>
<path d="M17262 10653 c-38 -18 -82 -77 -82 -109 0 -32 32 -54 88 -61 82 -9
99 7 22 24 -99 21 -104 39 -18 63 48 14 70 36 66 69 -4 32 -30 37 -76 14z m46
-25 c-3 -7 -20 -18 -39 -25 l-34 -14 28 26 c30 27 51 33 45 13z"/>
<path d="M5422 10630 c-16 -10 -39 -32 -51 -48 -26 -37 -53 -111 -45 -123 11
-18 24 -8 33 29 17 61 48 101 96 124 25 12 45 25 45 29 0 13 -49 6 -78 -11z"/>
<path d="M12655 10642 c-28 -6 -55 -32 -55 -52 0 -10 9 -29 20 -43 11 -14 20
-29 20 -34 0 -12 -45 -33 -70 -33 -12 0 -20 -7 -20 -16 0 -13 7 -15 36 -11 48
8 84 33 84 58 0 11 -10 33 -22 49 -26 36 -15 53 32 53 16 0 30 4 30 8 0 13
-33 26 -55 21z"/>
<path d="M14199 10602 c-24 -21 -50 -37 -56 -35 -17 6 -38 -41 -29 -63 6 -15
15 -10 57 32 49 47 50 47 34 16 -17 -34 -15 -62 5 -62 5 0 10 7 10 15 0 9 12
34 26 56 25 41 28 69 8 76 -6 2 -30 -14 -55 -35z"/>
<path d="M17643 10599 l-63 -39 6 29 c8 39 -10 47 -52 22 -19 -12 -41 -21 -49
-21 -7 0 -28 -18 -46 -41 -23 -29 -29 -43 -21 -51 8 -8 25 1 61 35 28 26 55
47 60 47 6 0 7 -15 4 -35 -7 -44 2 -44 72 0 l55 36 -2 -42 c-1 -33 4 -46 21
-61 28 -22 51 -23 51 -3 0 8 7 15 15 15 8 0 15 5 15 10 0 6 -11 10 -25 10 -14
0 -25 -5 -25 -11 0 -5 -4 -7 -10 -4 -14 8 -13 68 2 100 20 45 -3 47 -69 4z"/>
<path d="M13152 10614 c-29 -20 -28 -45 3 -82 31 -37 31 -50 1 -64 -34 -15
-59 -4 -51 22 10 31 -14 24 -26 -7 -9 -24 -7 -30 11 -45 29 -23 57 -23 98 2
28 17 31 24 26 47 -4 16 -16 43 -26 61 -13 24 -15 34 -6 36 46 14 64 13 89 -5
l27 -19 -5 22 c-3 13 -13 29 -21 36 -22 17 -93 15 -120 -4z"/>
<path d="M15342 10599 c-86 -63 -97 -149 -19 -149 18 0 39 11 58 30 27 27 30
35 27 86 -2 32 -8 59 -13 61 -6 2 -30 -11 -53 -28z m18 -101 c-24 -20 -60 -24
-60 -7 0 19 22 54 49 76 l26 21 3 -36 c3 -28 -2 -41 -18 -54z"/>
<path d="M5573 10591 c-67 -48 -86 -116 -45 -163 19 -22 85 -24 105 -3 9 8 17
11 19 5 2 -6 9 -5 18 1 11 8 12 12 3 16 -17 6 2 43 22 43 8 0 15 5 15 11 0 7
-9 9 -22 5 -13 -3 -26 -6 -30 -6 -5 0 -8 -11 -8 -24 0 -25 -21 -36 -73 -36
-19 0 -30 7 -36 23 -10 25 9 47 41 47 26 0 94 36 101 53 8 22 -21 57 -47 57
-13 0 -41 -13 -63 -29z m81 -9 c10 -16 -12 -33 -58 -47 -41 -13 -46 -13 -38 1
10 18 62 54 79 54 6 0 14 -4 17 -8z"/>
<path d="M13921 10594 c-41 -34 -41 -68 0 -90 25 -13 37 -14 57 -5 20 10 27 9
37 -5 10 -15 14 -13 33 18 26 42 27 56 6 86 -23 33 -92 31 -133 -4z m111 -19
c3 -13 -79 -58 -92 -50 -18 11 -10 34 18 50 29 16 71 16 74 0z"/>
<path d="M4013 10583 c-16 -15 -37 -33 -48 -38 -11 -6 -21 -19 -23 -30 -8 -54
-13 -65 -32 -65 -21 0 -27 15 -10 25 6 4 8 11 4 16 -8 14 -47 -39 -40 -56 3
-8 16 -17 30 -21 28 -7 26 -16 -18 -128 -28 -68 -32 -96 -16 -96 15 0 63 100
48 100 -8 0 -7 4 4 10 9 6 22 32 29 60 12 45 17 51 55 66 55 21 97 65 98 103
1 16 4 27 9 24 4 -2 7 1 7 6 0 6 -4 11 -9 11 -5 0 -8 8 -7 18 2 30 -49 28 -81
-5z m60 -27 c-3 -39 -24 -68 -66 -91 -45 -24 -53 -17 -32 27 47 91 103 128 98
64z"/>
<path d="M5139 10595 c-30 -16 -63 -73 -58 -99 7 -35 35 -43 68 -18 l30 22 7
-23 c10 -32 24 -47 39 -40 12 4 11 9 -2 30 -14 21 -15 30 -5 57 10 26 9 35 -6
56 -23 30 -39 34 -73 15z m49 -27 c9 -9 5 -17 -16 -35 -63 -56 -87 -45 -36 16
28 34 35 36 52 19z"/>
<path d="M9172 10594 c-23 -19 -56 -119 -46 -136 9 -14 34 12 34 34 0 10 7 34
14 53 16 38 43 45 91 23 31 -14 45 -3 23 18 -25 25 -89 29 -116 8z"/>
<path d="M15736 10595 c-62 -21 -136 -105 -93 -105 6 0 23 13 37 30 30 35 100
68 100 47 0 -7 -7 -22 -15 -33 -16 -21 -20 -64 -6 -64 12 0 51 76 51 100 0 30
-29 40 -74 25z"/>
<path d="M6652 10547 c-23 -23 -42 -50 -42 -58 0 -39 49 -50 100 -24 l30 16 0
-76 c0 -41 -2 -75 -4 -75 -2 0 -31 7 -65 15 -53 14 -64 14 -95 1 -36 -15 -40
-24 -49 -96 -6 -47 18 -105 49 -119 19 -8 32 -8 57 3 38 15 117 98 117 122 0
12 7 15 30 12 35 -5 39 6 9 22 -19 10 -20 20 -18 121 1 71 -3 115 -10 122 -6
6 -11 21 -11 34 0 40 -49 30 -98 -20z m51 -52 c-21 -16 -53 -20 -53 -6 0 5 15
21 33 35 31 25 32 25 35 5 2 -11 -5 -27 -15 -34z m-5 -186 c17 -6 32 -15 32
-20 0 -35 -84 -129 -115 -129 -21 0 -45 29 -52 61 -7 35 -7 33 0 68 9 42 46
47 135 20z"/>
<path d="M10793 10576 c4 -9 -3 -16 -18 -20 -42 -11 -72 -95 -43 -124 7 -7 20
-12 29 -12 23 0 76 45 84 72 9 26 -23 98 -43 98 -8 0 -12 -6 -9 -14z m25 -62
c3 -20 -38 -64 -59 -64 -15 0 -10 39 7 66 20 29 48 28 52 -2z"/>
<path d="M7154 10563 c4 -10 -1 -23 -14 -35 -36 -34 -21 -88 25 -88 28 0 68
38 61 57 -3 8 -6 24 -6 36 0 14 -10 27 -27 35 -36 16 -46 15 -39 -5z m40 -60
c7 -17 -9 -33 -31 -33 -16 0 -17 22 -1 38 16 16 25 15 32 -5z"/>
<path d="M15946 10542 c-14 -21 -26 -46 -26 -55 0 -25 34 -39 65 -27 40 15 45
13 39 -22 -11 -56 -31 -80 -63 -73 -59 13 -131 -40 -171 -125 -22 -47 -22 -50
-6 -75 25 -38 64 -33 120 16 26 23 61 62 78 88 17 25 32 47 33 49 1 1 21 -5
45 -13 24 -8 53 -12 64 -9 18 6 16 9 -19 25 -22 10 -48 18 -58 18 -13 1 -17 6
-13 19 22 73 38 163 32 179 -7 16 -9 16 -29 -9 -24 -30 -73 -53 -82 -38 -3 5
8 24 25 43 35 40 37 47 11 47 -10 0 -30 -17 -45 -38z m19 -212 c15 -25 -101
-150 -139 -150 -24 0 -19 40 10 83 39 58 111 95 129 67z"/>
<path d="M3430 10555 c0 -8 -9 -15 -20 -15 -37 0 -66 -99 -41 -139 14 -22 68
-17 96 9 46 43 28 160 -23 160 -7 0 -12 -7 -12 -15z m30 -74 c0 -40 -12 -57
-45 -63 -33 -5 -33 55 -1 87 32 32 46 25 46 -24z"/>
<path d="M6954 10555 c-31 -21 -48 -68 -34 -94 15 -29 35 -26 76 12 l36 33
-16 32 c-18 35 -31 39 -62 17z m41 -34 c5 -9 -44 -55 -52 -47 -2 2 2 15 8 30
12 26 33 34 44 17z"/>
<path d="M11137 10550 c-15 -12 -25 -26 -21 -31 3 -5 2 -8 -3 -7 -13 5 -54
-42 -47 -53 4 -7 27 9 56 37 48 49 49 49 37 16 -11 -33 -7 -62 10 -62 9 0 20
42 24 90 3 32 -22 37 -56 10z"/>
<path d="M11350 10548 c-49 -34 -59 -54 -37 -75 16 -17 20 -17 62 -2 l45 17
-1 -27 c0 -14 -8 -51 -17 -81 l-18 -55 -53 -7 c-108 -16 -191 -70 -191 -124 0
-45 71 -68 137 -43 36 13 98 74 113 110 10 23 17 27 46 26 19 -1 34 -5 34 -9
0 -5 9 -8 20 -8 33 0 22 16 -21 30 -22 8 -42 17 -45 21 -2 4 3 37 11 74 9 37
15 74 13 84 -1 9 1 22 5 29 5 7 2 19 -7 28 -9 8 -16 20 -16 25 0 17 -47 9 -80
-13z m65 -14 c12 -5 6 -11 -25 -25 -57 -26 -71 -23 -37 6 30 27 36 29 62 19z
m-59 -271 c-36 -70 -128 -114 -175 -84 -45 29 70 107 162 110 27 1 27 0 13
-26z"/>
<path d="M15534 10553 c-3 -10 -12 -30 -20 -45 -17 -31 -17 -38 -4 -38 9 0 50
80 50 96 0 12 -21 1 -26 -13z"/>
<path d="M3792 10547 c-12 -7 -20 -16 -17 -20 3 -4 2 -5 -2 -2 -3 3 -12 0 -19
-6 -9 -8 -11 -5 -7 10 8 30 -31 28 -73 -4 -22 -17 -32 -20 -28 -10 9 23 -12
18 -33 -9 -23 -29 -49 -103 -39 -113 3 -4 36 22 73 58 36 35 63 56 59 46 -28
-82 -16 -86 53 -17 28 28 54 50 60 50 5 0 7 -17 4 -39 -4 -28 -1 -44 9 -55 14
-13 16 -8 22 46 3 33 3 64 0 69 -7 13 -35 11 -62 -4z"/>
<path d="M12317 10532 c-47 -49 -9 -82 53 -47 33 19 54 19 46 0 -3 -8 -1 -15
4 -15 6 0 10 -9 10 -20 0 -11 7 -20 15 -20 8 0 15 5 15 10 0 6 -4 10 -9 10
-11 0 -5 44 10 72 15 29 2 40 -29 24 -15 -8 -44 -21 -66 -30 -32 -13 -36 -13
-26 -1 6 8 20 17 31 20 26 9 24 25 -4 25 -13 0 -35 -13 -50 -28z"/>
<path d="M4293 10534 c-38 -19 -39 -23 -16 -87 16 -43 16 -51 2 -75 -21 -38
-63 -51 -89 -27 -25 23 -25 29 1 54 13 12 17 21 10 25 -6 4 -22 -4 -36 -18
-20 -20 -24 -32 -19 -53 10 -43 23 -53 65 -53 29 0 46 8 73 34 40 38 45 65 21
124 -15 34 -15 38 1 49 10 7 26 13 35 13 25 0 49 11 49 21 0 15 -62 10 -97 -7z"/>
<path d="M10960 10490 c-25 -50 -10 -53 19 -4 24 40 25 44 11 44 -5 0 -19 -18
-30 -40z"/>
<path d="M3233 10268 c-5 -7 -14 -29 -20 -49 -9 -32 -8 -36 7 -32 9 3 22 21
28 41 12 38 3 63 -15 40z"/>
<path d="M3495 10268 c-2 -7 -11 -47 -20 -88 -10 -41 -26 -103 -37 -137 -20
-63 -21 -114 -3 -114 6 0 13 20 17 43 3 24 11 55 16 70 15 36 52 195 52 219 0
21 -18 26 -25 7z"/>
<path d="M3220 10172 c0 -6 -6 -9 -14 -6 -15 6 -31 -39 -21 -56 4 -6 1 -10 -4
-10 -6 0 -11 -7 -11 -15 0 -9 -6 -18 -14 -21 -18 -7 -21 -107 -3 -102 6 3 13
17 15 31 7 61 68 3 64 -60 -3 -42 18 -41 29 2 9 31 -1 57 -37 95 l-23 25 54
40 c30 22 55 43 55 47 0 20 -49 0 -88 -35 l-23 -21 16 44 c8 24 13 45 10 48
-3 3 -5 0 -5 -6z"/>
<path d="M2740 10121 c0 -9 41 -23 48 -16 2 2 1 8 -3 14 -8 13 -45 15 -45 2z"/>
<path d="M2288 10083 c-26 -25 -28 -26 -46 -10 -39 36 -97 5 -90 -49 5 -47 30
-52 86 -17 l49 31 -22 -107 c-28 -131 -69 -258 -106 -333 -32 -64 -35 -78 -16
-78 16 0 172 159 164 167 -4 3 -13 -2 -22 -11 -10 -9 -30 -23 -45 -31 l-29
-15 9 28 c49 155 61 198 75 272 9 47 23 103 30 125 20 61 6 72 -37 28z m-60
-32 c11 -6 11 -10 0 -18 -27 -21 -48 -23 -48 -4 0 30 21 40 48 22z"/>
<path d="M3642 10042 c-60 -87 -62 -89 -72 -72 -5 8 -10 27 -10 43 0 15 -5 27
-10 27 -19 0 -23 -30 -11 -71 l12 -40 -77 -92 c-74 -88 -87 -110 -100 -162 -5
-19 -2 -25 10 -25 9 0 16 6 16 14 0 14 37 66 125 173 121 150 178 230 170 243
-11 17 -19 11 -53 -38z"/>
<path d="M2869 10049 c-48 -51 -36 -109 24 -109 38 0 127 30 127 42 0 6 -10 7
-22 4 -13 -4 -47 -10 -75 -13 -49 -5 -53 -4 -53 16 0 25 33 61 56 61 8 0 24
-5 36 -11 27 -15 35 -3 13 21 -27 30 -72 26 -106 -11z"/>
<path d="M2410 10041 c-28 -68 12 -136 64 -109 65 33 99 100 57 111 -26 6 -34
-3 -19 -21 10 -12 6 -20 -20 -43 -55 -49 -75 -19 -47 69 11 34 -20 28 -35 -7z"/>
<path d="M2630 9991 c-14 -27 -13 -51 4 -51 8 0 17 11 20 25 4 14 11 25 16 25
6 0 10 5 10 10 0 18 -39 11 -50 -9z"/>
<path d="M14606 9942 c-9 -17 -16 -38 -16 -46 0 -9 -30 -74 -66 -146 -64 -127
-67 -130 -99 -130 -53 0 -93 -11 -100 -28 -8 -22 -2 -24 42 -8 54 19 72 7 46
-30 -11 -16 -31 -49 -43 -74 -12 -25 -27 -48 -33 -51 -12 -8 -2 -39 13 -39 6
0 15 12 21 27 5 15 31 62 56 105 44 73 49 78 82 79 20 1 39 1 44 0 4 0 7 4 7
11 0 9 3 9 12 0 7 -7 30 -12 52 -12 66 0 29 19 -52 26 -39 4 -72 9 -72 11 0 2
20 41 45 87 54 99 99 226 86 239 -6 6 -15 -3 -25 -21z"/>
<path d="M17320 9865 c-9 -11 -9 -15 -1 -15 7 0 9 -5 6 -11 -4 -6 -13 -8 -20
-5 -8 3 -31 -28 -61 -79 -52 -89 -59 -94 -121 -76 -21 6 -35 5 -42 -2 -22 -22
-10 -26 52 -22 34 3 57 1 52 -3 -16 -11 -73 -142 -80 -184 -6 -30 -4 -38 8
-38 9 0 17 14 22 36 3 20 21 65 38 100 l31 64 74 0 c83 0 89 14 11 23 -28 4
-54 8 -56 11 -7 7 25 65 73 133 24 34 44 66 44 72 0 16 -15 13 -30 -4z"/>
<path d="M3786 9862 c-3 -3 -6 -9 -6 -14 0 -12 40 -6 43 6 2 10 -29 17 -37 8z"/>
<path d="M4501 9803 c-120 -136 -334 -421 -325 -434 7 -12 34 -11 34 1 0 5 19
37 43 70 44 62 48 64 150 76 l59 7 -6 -39 c-16 -113 -18 -144 -8 -144 5 0 15
24 22 53 18 79 33 121 48 130 7 5 10 13 6 18 -3 5 6 70 21 144 36 180 29 200
-44 118z m-1 -144 c-12 -52 -24 -97 -28 -101 -4 -3 -38 -10 -77 -14 -80 -8
-80 -17 4 86 56 69 114 131 118 126 2 -2 -6 -46 -17 -97z"/>
<path d="M13103 9757 l-42 -92 -52 -10 c-69 -13 -82 -41 -15 -32 25 4 46 5 46
3 0 -2 -7 -22 -15 -45 -17 -50 -24 -140 -10 -141 5 -1 13 14 18 32 5 18 18 59
29 91 l21 57 51 1 c49 2 77 4 104 7 6 1 12 7 12 12 0 6 -33 10 -80 10 -44 0
-80 2 -80 4 0 3 16 39 35 82 34 73 43 114 28 114 -5 0 -27 -42 -50 -93z"/>
<path d="M14976 9815 c-8 -8 -38 -61 -66 -118 -29 -56 -67 -127 -85 -157 -18
-30 -36 -67 -40 -83 -4 -15 -11 -30 -16 -32 -9 -6 -1 -35 11 -35 4 0 13 15 21
33 20 51 51 76 100 82 62 8 78 -4 61 -47 -22 -54 -25 -68 -13 -68 18 0 44 49
45 88 1 32 -3 38 -31 52 l-33 15 45 25 c49 27 57 40 25 40 -22 0 -91 -40 -128
-73 -15 -14 -1 21 44 109 37 71 73 139 81 151 17 26 1 40 -21 18z"/>
<path d="M4707 9783 c-4 -25 -15 -62 -72 -258 -30 -100 -30 -175 0 -175 9 0
13 12 12 38 -1 20 20 118 46 217 26 99 47 185 47 192 0 25 -28 13 -33 -14z"/>
<path d="M16230 9765 c-5 -14 -10 -32 -10 -39 0 -23 -52 -210 -66 -238 -18
-34 -43 -48 -86 -48 l-33 1 34 30 c25 23 39 29 57 25 28 -7 33 14 9 34 -12 10
-23 7 -58 -13 -88 -52 -86 -113 5 -105 59 6 72 17 110 92 25 50 76 216 81 266
3 27 -32 23 -43 -5z"/>
<path d="M5777 9763 c-2 -10 -5 -32 -6 -50 -1 -17 -10 -61 -21 -96 l-20 -65
-45 6 c-30 3 -45 1 -45 -7 0 -6 15 -11 34 -11 19 0 38 -4 41 -10 3 -5 -1 -31
-10 -56 -9 -26 -13 -54 -11 -61 3 -8 2 -12 -3 -9 -10 6 -24 -35 -15 -43 7 -8
43 41 44 58 0 7 8 35 17 62 12 34 23 49 35 49 10 0 18 5 18 10 0 6 -7 10 -16
10 -11 0 -14 5 -9 18 19 48 41 156 37 182 -5 33 -18 40 -25 13z"/>
<path d="M5951 9767 c-6 -8 -12 -22 -14 -33 -2 -10 -11 -35 -19 -54 -38 -87
-89 -243 -84 -257 5 -12 16 -4 47 31 35 39 84 76 102 76 3 0 -2 -23 -10 -50
-12 -40 -12 -54 -3 -65 14 -16 33 -10 27 8 -2 7 2 33 8 58 22 83 -17 100 -92
43 l-32 -24 13 37 c8 21 30 81 50 133 20 52 36 98 36 103 0 12 -17 8 -29 -6z"/>
<path d="M15120 9698 c0 -7 -25 -26 -56 -42 -35 -19 -52 -32 -45 -39 5 -5 15
-6 23 -1 7 5 18 9 24 10 19 3 104 55 104 64 0 8 -24 20 -41 20 -5 0 -9 -6 -9
-12z"/>
<path d="M10157 9674 c-3 -4 -2 -16 4 -26 13 -24 35 -9 26 16 -7 17 -19 21
-30 10z"/>
<path d="M5597 9663 c-13 -12 -7 -23 13 -23 11 0 20 7 20 15 0 15 -21 21 -33
8z"/>
<path d="M8420 9650 c0 -10 39 -34 46 -27 3 2 2 12 -2 21 -7 17 -44 23 -44 6z"/>
<path d="M6570 9616 c0 -9 7 -16 16 -16 9 0 14 5 12 12 -6 18 -28 21 -28 4z"/>
<path d="M11542 9610 c-44 -27 -74 -92 -60 -130 9 -29 36 -44 96 -54 46 -8 40
11 -9 25 -72 22 -82 64 -27 120 33 33 86 40 112 14 18 -19 26 -19 26 -2 0 45
-82 61 -138 27z"/>
<path d="M13246 9587 c-72 -69 -54 -124 45 -133 47 -5 56 -3 67 15 11 19 10
21 -10 17 -13 -3 -33 -5 -46 -5 -13 -1 -20 -5 -17 -11 3 -5 1 -10 -4 -10 -6 0
-11 6 -11 14 0 7 -9 16 -21 19 -34 9 -16 32 27 35 46 4 64 17 64 46 0 54 -44
60 -94 13z m64 -12 c0 -10 -10 -15 -27 -15 -26 0 -26 1 -7 15 25 19 34 19 34
0z"/>
<path d="M7844 9562 c-29 -40 -142 -132 -162 -132 -7 0 -12 -4 -12 -10 0 -20
32 -9 77 25 34 26 49 32 59 24 9 -7 24 -4 53 11 l41 20 0 -39 c0 -25 5 -41 15
-45 12 -4 15 3 15 31 0 20 5 51 12 70 19 54 6 55 -66 7 -39 -26 -39 -21 1 32
21 28 22 44 2 44 -4 0 -20 -17 -35 -38z"/>
<path d="M9834 9590 c-47 -19 -40 -51 18 -81 22 -11 38 -25 36 -32 -3 -7 -26
-23 -52 -37 -36 -19 -50 -22 -53 -12 -4 10 -8 10 -19 1 -11 -9 -11 -15 -3 -25
16 -19 43 -17 87 5 82 42 93 93 27 124 -41 19 -39 32 5 42 17 4 30 11 30 16 0
11 -48 11 -76 -1z"/>
<path d="M13498 9573 c-37 -41 -58 -75 -58 -95 0 -30 17 -20 43 25 36 60 42
65 107 76 3 1 -2 6 -10 11 -26 17 -56 11 -82 -17z"/>
<path d="M13743 9593 c-27 -5 -35 -26 -22 -60 14 -37 5 -53 -31 -53 -31 0 -39
17 -18 38 9 9 9 12 -3 12 -20 0 -49 -31 -49 -52 0 -18 41 -38 78 -38 46 1 67
25 65 75 -1 35 1 43 14 38 11 -4 14 0 11 17 -3 25 -11 29 -45 23z"/>
<path d="M7428 9563 c-8 -16 -26 -49 -41 -75 -44 -74 -15 -73 57 3 48 50 62
60 64 45 2 -10 -1 -23 -7 -29 -15 -15 -14 -37 3 -37 7 0 44 20 81 45 37 25 69
44 71 42 3 -2 -2 -17 -11 -33 -19 -36 -19 -54 -1 -54 14 0 46 72 46 103 0 26
-36 21 -92 -13 -57 -36 -58 -36 -58 -10 0 26 -25 36 -56 22 -19 -10 -24 -9
-24 3 0 24 -17 17 -32 -12z"/>
<path d="M8146 9580 c-29 -9 -76 -47 -76 -61 0 -4 17 -24 37 -43 48 -45 37
-63 -31 -48 -49 10 -66 2 -47 -22 19 -23 68 -27 106 -9 45 21 45 46 3 91 -32
32 -32 34 -14 48 11 7 34 17 53 20 18 3 33 12 33 20 0 16 -20 17 -64 4z"/>
<path d="M9544 9548 c-16 -24 -32 -45 -37 -46 -4 -2 -4 -9 -1 -14 4 -6 2 -8
-4 -4 -6 3 -19 -5 -30 -19 -11 -14 -24 -25 -28 -25 -16 -1 -79 -58 -72 -65 6
-6 62 30 96 63 18 16 29 15 36 -3 7 -18 33 -19 66 -1 23 13 25 13 35 -17 10
-33 35 -43 43 -18 3 8 0 11 -7 7 -7 -5 -11 1 -12 16 -2 30 -2 30 6 51 5 13 2
17 -13 17 -12 0 -23 -4 -26 -9 -3 -5 -19 -14 -36 -19 -41 -15 -40 3 5 59 19
24 35 50 35 57 0 26 -28 10 -56 -30z"/>
<path d="M12445 9578 c-11 -6 -31 -22 -45 -36 -25 -24 -25 -24 -28 -3 -2 11
-6 21 -10 21 -9 0 -42 -58 -42 -75 0 -7 -22 -59 -50 -116 -49 -103 -60 -139
-39 -139 9 0 46 72 82 162 12 29 19 35 36 31 46 -12 93 8 148 62 41 40 54 59
51 77 -2 19 -10 23 -43 25 -22 2 -49 -2 -60 -9z m65 -37 c-25 -47 -130 -98
-150 -73 -6 7 -7 10 -4 7 4 -2 15 7 26 21 24 29 84 63 116 64 19 0 21 -3 12
-19z"/>
<path d="M12674 9565 c-9 -14 -43 -41 -75 -61 -86 -52 -77 -78 10 -29 23 14
44 25 46 25 1 0 5 -9 8 -20 7 -25 34 -25 72 0 l29 19 13 -30 c16 -38 34 -29
27 14 -10 59 -10 59 -58 35 -28 -13 -42 -26 -39 -35 3 -7 1 -13 -4 -13 -14 0
-13 30 3 73 17 46 17 47 -1 47 -8 0 -22 -11 -31 -25z"/>
<path d="M16420 9564 c-6 -14 -10 -30 -10 -35 0 -15 -81 -99 -96 -99 -11 0
-13 12 -8 56 6 46 4 56 -7 52 -20 -7 -34 -104 -19 -123 19 -23 49 -18 90 15
40 32 80 101 80 138 0 30 -18 28 -30 -4z"/>
<path d="M6662 9539 c-66 -39 -86 -67 -73 -101 13 -33 56 -50 122 -46 47 3 54
6 57 26 2 12 10 22 18 22 8 0 14 5 14 10 0 11 -11 13 -34 4 -9 -3 -16 -13 -16
-21 0 -11 -9 -13 -47 -7 -27 3 -57 11 -68 17 -18 9 -16 13 29 53 26 24 56 44
67 44 10 0 19 7 19 15 0 23 -30 18 -88 -16z"/>
<path d="M8568 9556 c-69 -18 -98 -41 -98 -76 0 -30 29 -70 53 -71 6 0 32 -2
57 -5 51 -6 110 3 110 15 0 5 -21 9 -47 9 -115 1 -176 55 -99 87 19 8 47 15
61 15 15 0 25 6 25 14 0 23 -11 25 -62 12z"/>
<path d="M10233 9550 c-31 -18 -83 -88 -83 -110 0 -17 17 -11 33 13 28 41 79
87 98 87 15 0 19 -7 19 -31 0 -17 -5 -39 -10 -49 -14 -26 9 -39 27 -15 21 29
17 102 -6 115 -28 14 -42 13 -78 -10z"/>
<path d="M12035 9545 c-20 -15 -39 -24 -42 -21 -8 8 -75 -73 -68 -84 7 -11 34
6 89 54 16 14 30 26 31 26 1 0 0 -11 -3 -25 -2 -14 -1 -25 3 -25 15 0 73 41
79 55 7 20 36 8 36 -16 0 -13 5 -16 16 -12 11 4 14 13 9 32 -9 35 -10 36 -49
24 -28 -9 -36 -8 -40 3 -8 20 -18 18 -61 -11z"/>
<path d="M11743 9534 c-18 -14 -33 -34 -33 -45 0 -30 44 -69 79 -69 60 0 82
62 35 99 -15 12 -22 21 -15 21 6 0 11 5 11 10 0 19 -45 10 -77 -16z m52 -30
c41 -27 28 -62 -19 -50 -28 7 -41 33 -25 52 14 17 14 17 44 -2z"/>
<path d="M16538 9533 c-21 -14 -38 -34 -38 -43 0 -18 22 -42 36 -39 32 5 53
-3 56 -23 4 -30 28 -36 28 -6 0 13 7 33 15 44 14 19 20 54 9 54 -3 0 -17 -9
-31 -20 -14 -11 -40 -20 -57 -20 l-31 1 30 24 c17 14 38 25 48 25 9 0 17 7 17
15 0 23 -40 17 -82 -12z"/>
<path d="M16850 9538 c-25 -11 -50 -22 -56 -22 -16 -1 -64 -61 -64 -80 0 -19
16 -21 27 -3 11 17 113 84 141 92 28 8 28 -4 1 -49 -18 -30 -19 -36 -5 -36 16
0 66 66 66 88 0 11 -39 32 -58 32 -4 0 -27 -10 -52 -22z"/>
<path d="M17545 9548 c-57 -11 -75 -23 -75 -49 0 -22 15 -25 23 -5 3 7 34 18
69 25 113 21 118 22 118 32 0 11 -68 10 -135 -3z"/>
<path d="M4861 9534 c-31 -22 -81 -102 -81 -131 0 -35 25 -38 74 -9 l44 26 4
-28 c6 -39 -22 -183 -34 -176 -17 11 -65 -17 -97 -57 -72 -88 -103 -192 -68
-226 14 -14 19 -14 51 7 43 26 112 119 128 172 6 21 17 38 25 38 10 0 11 5 5
16 -5 9 -3 42 4 82 19 96 18 242 0 242 -8 0 -17 -9 -21 -20 -6 -19 -72 -66
-81 -58 -11 11 62 103 84 106 13 2 21 9 19 15 -6 19 -30 19 -56 1z m6 -359
c14 -38 -109 -223 -140 -212 -30 10 21 130 79 190 40 41 52 45 61 22z"/>
<path d="M6100 9487 c-17 -35 -30 -69 -30 -75 0 -21 19 -13 37 16 20 30 38 50
67 72 18 14 19 13 12 -22 -4 -20 -2 -39 3 -42 5 -3 33 10 63 30 l53 36 5 -48
c3 -33 10 -50 20 -52 14 -2 15 8 12 65 -2 37 -6 70 -9 73 -2 2 -26 -8 -53 -23
-59 -33 -60 -33 -60 -2 0 19 -5 25 -22 25 -12 0 -29 -7 -39 -16 -16 -15 -17
-14 -12 5 12 45 -19 18 -47 -42z"/>
<path d="M10484 9540 c-27 -11 -64 -57 -64 -81 0 -10 10 -25 23 -33 18 -12 31
-13 67 -4 25 6 51 15 57 21 10 7 12 3 8 -19 -2 -16 -7 -50 -10 -75 l-6 -45
-57 4 c-68 5 -103 -17 -133 -82 -59 -129 32 -223 123 -128 36 36 78 117 78
149 0 12 7 14 34 9 46 -9 58 11 16 27 -30 11 -31 14 -26 50 15 92 18 184 7
191 -6 4 -15 -2 -20 -16 -5 -13 -16 -30 -25 -37 -19 -16 -96 -27 -96 -14 0 19
47 54 63 47 12 -4 17 -1 17 10 0 21 -31 35 -56 26z m60 -268 c8 -14 -42 -124
-71 -154 -54 -56 -105 -18 -89 67 11 58 54 95 110 95 24 0 47 -4 50 -8z"/>
<path d="M5318 9513 c-41 -45 -68 -90 -68 -112 0 -33 16 -25 40 22 29 55 49
77 72 77 21 0 23 11 6 28 -17 17 -21 16 -50 -15z"/>
<path d="M6516 9533 c-3 -3 -6 -13 -6 -22 0 -9 -7 -29 -15 -45 -20 -38 -3 -58
19 -24 20 31 31 84 18 92 -5 3 -12 3 -16 -1z"/>
<path d="M14556 9519 c-29 -23 -34 -54 -10 -67 20 -11 64 -3 64 11 0 6 3 7 8
3 4 -4 7 -19 7 -33 0 -15 5 -28 10 -29 11 -3 60 94 52 102 -3 3 -18 -1 -34 -9
-66 -33 -121 -27 -68 7 14 9 25 21 25 26 0 16 -26 11 -54 -11z"/>
<path d="M15179 9521 c-14 -11 -38 -38 -53 -60 -46 -66 -19 -111 67 -111 42 0
77 10 77 21 0 13 -34 11 -49 -3 -11 -10 -13 -10 -7 0 5 8 -2 12 -26 12 -31 0
-58 14 -58 31 0 10 60 83 77 92 11 7 14 4 11 -15 -2 -12 -9 -24 -15 -24 -30
-3 -33 -4 -33 -14 0 -17 26 -11 54 11 20 15 26 29 24 48 -4 33 -35 39 -69 12z"/>
<path d="M15820 9503 c-55 -49 -52 -77 8 -81 29 -2 42 0 37 7 -12 20 4 11 30
-16 14 -15 25 -26 26 -23 5 40 6 77 3 82 -3 4 -21 1 -41 -7 -19 -8 -45 -15
-57 -15 -19 1 -18 4 13 31 28 26 39 30 67 24 38 -7 46 8 15 25 -34 18 -60 11
-101 -27z"/>
<path d="M5122 9485 c-19 -19 -30 -39 -27 -45 4 -6 1 -9 -7 -8 -19 4 -23 -58
-5 -65 19 -7 57 2 57 14 0 5 7 9 15 9 22 0 39 43 30 77 -5 15 -7 34 -6 41 4
23 -25 12 -57 -23z m38 -47 c0 -10 -13 -24 -30 -33 -37 -19 -40 -6 -9 44 16
27 23 31 30 20 5 -8 9 -22 9 -31z"/>
<path d="M8291 9472 c-33 -52 -38 -72 -18 -72 15 0 49 58 41 71 -3 5 0 8 8 7
7 -2 14 7 16 20 6 36 -14 25 -47 -26z"/>
<path d="M10044 9475 c-14 -35 -12 -55 6 -55 8 0 30 61 30 83 0 21 -23 3 -36
-28z"/>
<path d="M5470 9450 c-22 -30 -24 -60 -5 -67 6 -2 15 12 21 29 6 18 14 41 19
51 12 28 -12 20 -35 -13z"/>
<path d="M11293 9368 c-11 -13 -46 -66 -79 -118 -32 -52 -63 -99 -68 -105 -4
-5 -30 -8 -56 -7 -40 3 -50 0 -59 -15 -9 -18 -7 -19 44 -15 l54 4 -32 -61
c-26 -48 -30 -64 -21 -78 14 -23 103 -31 115 -11 5 7 9 8 9 3 0 -7 15 -9 35
-7 67 8 35 22 -50 22 -51 0 -85 4 -85 10 0 13 59 118 70 125 5 3 36 6 69 6 65
1 86 19 24 20 -76 1 -77 5 -15 106 32 50 65 100 75 110 9 11 14 23 10 26 -11
11 -18 8 -40 -15z"/>
<path d="M3681 9324 c-35 -29 -103 -157 -125 -237 -12 -43 -23 -61 -41 -69
-31 -14 -35 -42 -5 -33 18 6 20 3 16 -17 -3 -13 -8 -49 -11 -80 -5 -45 -3 -58
7 -58 9 0 20 29 32 89 l18 89 74 11 c63 11 95 24 83 35 -2 2 -33 0 -69 -5 -36
-4 -67 -5 -70 -3 -9 9 42 138 74 188 44 68 61 82 81 66 21 -18 29 -6 14 18
-20 31 -46 33 -78 6z"/>
<path d="M5626 9268 c-19 -40 -40 -90 -47 -110 -7 -21 -21 -40 -31 -44 -19 -6
-24 -19 -9 -28 5 -3 -2 -40 -15 -81 -24 -77 -31 -145 -15 -145 11 0 21 25 21
50 0 16 48 170 55 178 2 2 22 6 45 8 32 4 41 2 38 -8 -58 -156 -70 -200 -60
-210 10 -10 58 34 119 111 l20 24 -5 -55 c-3 -42 -1 -56 11 -61 11 -4 16 7 20
56 4 34 8 71 9 81 6 39 -26 27 -80 -30 -30 -33 -52 -50 -47 -39 4 11 31 87 61
169 29 82 58 154 64 160 14 14 12 26 -4 26 -20 0 -40 -35 -66 -115 -12 -38
-24 -71 -25 -73 -3 -4 -85 -12 -85 -9 0 9 45 118 65 157 23 45 23 60 3 60 -5
0 -24 -33 -42 -72z"/>
<path d="M8382 9273 c-8 -28 -53 -146 -78 -201 0 -1 -19 -4 -42 -6 -22 -2 -45
-7 -51 -11 -24 -14 -8 -22 38 -17 l50 4 -14 -43 c-7 -24 -18 -57 -24 -72 -6
-16 -11 -36 -11 -45 0 -34 33 15 56 85 l23 68 45 3 c57 4 60 17 5 26 -46 7
-46 6 1 116 37 87 46 130 27 130 -8 0 -19 -16 -25 -37z"/>
<path d="M7990 9274 c-6 -14 -10 -27 -10 -30 0 -4 -71 -171 -114 -267 -25 -55
-35 -127 -18 -127 5 0 16 24 24 53 9 28 46 120 82 202 63 145 77 195 56 195
-6 0 -15 -12 -20 -26z"/>
<path d="M13433 9258 c-21 -78 -63 -158 -83 -158 -30 0 -50 -11 -50 -27 0 -11
7 -13 26 -9 23 6 25 4 19 -11 -27 -63 -55 -146 -51 -151 7 -7 36 18 36 31 0 6
14 42 32 80 31 66 33 69 62 64 17 -3 39 -8 49 -12 11 -5 17 -2 17 7 0 15 -40
38 -65 38 -19 0 -20 -4 15 78 17 39 30 80 30 91 0 37 -26 22 -37 -21z"/>
<path d="M7506 9228 c-10 -29 -45 -107 -77 -173 -32 -66 -59 -126 -59 -133 0
-15 22 -16 38 0 9 9 12 7 12 -9 0 -12 10 -29 22 -37 48 -34 88 -12 113 61 26
72 -25 98 -102 53 l-32 -19 38 77 c52 105 93 210 86 222 -12 19 -20 9 -39 -42z
m26 -268 c-6 -41 -31 -72 -55 -68 -31 4 -35 50 -7 78 29 29 66 23 62 -10z"/>
<path d="M14534 9189 c-58 -72 -69 -79 -128 -79 -25 0 -46 -4 -46 -10 0 -5 23
-10 50 -10 l50 0 -26 -50 c-17 -34 -23 -56 -19 -72 18 -57 56 -70 135 -46 60
19 48 29 -24 22 -59 -6 -65 -5 -76 16 -10 18 -7 30 16 76 15 30 33 54 41 54 7
0 13 5 13 10 0 6 5 10 11 10 5 0 7 -5 3 -11 -8 -13 55 -2 70 12 16 15 -2 23
-26 12 -13 -6 -31 -7 -41 -4 -15 6 -11 14 28 60 25 29 45 57 45 62 0 25 -32 3
-76 -52z"/>
<path d="M8126 9151 c-8 -12 3 -41 15 -41 12 0 12 37 0 45 -5 3 -12 1 -15 -4z"/>
<path d="M5970 9135 c0 -8 7 -15 15 -15 8 0 15 7 15 15 0 8 -7 15 -15 15 -8 0
-15 -7 -15 -15z"/>
<path d="M7775 9140 c-3 -5 -2 -17 3 -27 9 -15 11 -14 20 4 15 27 -7 49 -23
23z"/>
<path d="M1037 9123 c-15 -14 -5 -32 21 -37 84 -19 149 -16 136 5 -3 5 -10 7
-15 3 -6 -3 -37 -3 -69 1 -45 5 -57 10 -53 21 5 14 -8 19 -20 7z"/>
<path d="M5450 9101 c0 -5 7 -12 16 -15 28 -11 54 -6 54 9 0 10 -11 15 -35 15
-19 0 -35 -4 -35 -9z"/>
<path d="M11395 9093 c-68 -76 -77 -99 -49 -128 33 -32 117 10 122 61 2 22 -5
37 -27 58 -28 27 -30 27 -46 9z m45 -63 c0 -25 -57 -57 -73 -41 -12 12 18 51
40 51 7 0 13 5 13 11 0 5 5 7 10 4 6 -3 10 -15 10 -25z"/>
<path d="M14741 9063 c-78 -46 -90 -137 -21 -162 35 -12 159 14 167 35 3 8 9
11 14 8 5 -3 9 0 9 5 0 14 7 14 -85 -9 -71 -18 -81 -19 -102 -5 -35 23 -29 42
17 50 51 9 102 50 98 79 -4 30 -44 30 -97 -1z m45 -28 c-11 -8 -27 -15 -35
-15 -10 1 -7 6 9 15 33 19 50 18 26 0z"/>
<path d="M12593 9048 c-40 -42 -48 -71 -28 -92 22 -21 64 -20 119 4 37 15 46
16 46 5 0 -18 29 -47 41 -40 5 4 4 14 -3 24 -9 15 -7 26 10 55 12 21 22 44 22
52 0 21 -23 17 -38 -7 -13 -20 -13 -20 -43 5 -44 37 -87 35 -126 -6z m110 -17
l28 -18 -50 -22 c-86 -37 -119 -24 -75 28 30 35 57 39 97 12z"/>
<path d="M8555 8985 c-33 -46 -63 -81 -68 -76 -4 4 -10 31 -14 59 -4 37 -10
52 -21 52 -12 0 -14 -10 -8 -56 3 -31 11 -64 16 -74 10 -19 -11 -49 -135 -195
-70 -81 -85 -105 -85 -133 0 -33 10 -26 66 45 27 34 87 108 133 164 176 215
229 299 188 299 -7 0 -39 -38 -72 -85z"/>
<path d="M12990 9035 c-19 -19 -63 -51 -97 -71 -35 -20 -63 -41 -63 -46 0 -12
49 1 88 24 28 17 32 17 32 4 0 -24 27 -19 86 14 l53 30 -6 -30 c-6 -34 11 -62
33 -53 11 4 12 9 3 19 -7 9 -8 27 -1 59 12 57 2 64 -46 33 -93 -61 -93 -61
-87 -46 3 8 19 25 35 37 30 22 41 61 18 60 -7 0 -29 -15 -48 -34z"/>
<path d="M15847 9056 c-66 -24 -109 -75 -86 -103 13 -15 72 -14 127 2 16 6 22
3 22 -8 0 -38 93 -44 168 -11 39 18 43 36 5 24 -16 -4 -52 -11 -81 -14 -60 -6
-75 8 -48 46 20 27 20 38 3 38 -8 0 -22 9 -32 20 -21 23 -27 24 -78 6z m61
-40 c4 -20 -52 -46 -99 -46 -28 0 -30 2 -18 17 16 19 89 54 104 49 6 -1 11
-10 13 -20z"/>
<path d="M1952 9035 c-17 -14 -34 -36 -38 -48 -4 -12 -12 -26 -18 -30 -8 -6
-8 -10 2 -14 6 -2 12 -11 12 -18 0 -7 13 -27 29 -44 41 -43 99 -43 164 0 26
17 47 35 47 40 0 12 2 13 -54 -16 -63 -32 -119 -33 -140 -3 -24 34 -20 44 30
68 41 20 45 25 42 54 -4 41 -35 46 -76 11z m39 -39 c-14 -16 -51 -28 -51 -16
0 15 54 52 58 40 2 -6 -1 -17 -7 -24z"/>
<path d="M7296 9045 c-13 -10 -24 -11 -37 -5 -23 13 -85 13 -110 0 -22 -12
-49 -61 -49 -89 0 -11 9 -25 21 -32 17 -9 30 -6 69 14 l48 25 6 -38 c3 -22 13
-41 22 -44 14 -5 16 -1 10 24 -7 39 13 87 48 118 40 34 14 59 -28 27z m-48
-36 c-5 -15 -95 -65 -103 -57 -11 10 15 48 38 58 31 12 69 12 65 -1z"/>
<path d="M13764 9052 c4 -7 2 -12 -3 -12 -6 0 -11 -5 -11 -12 0 -7 -19 -31
-41 -54 -55 -56 -43 -76 19 -31 66 48 93 62 86 43 -8 -22 13 -28 38 -12 13 8
40 22 61 31 l39 16 -6 -28 c-8 -36 6 -58 30 -49 14 5 15 9 6 15 -8 5 -11 17
-7 33 10 39 -16 60 -58 46 -17 -6 -38 -16 -46 -22 -12 -9 -13 -8 -8 7 11 28
-18 31 -59 6 -36 -22 -36 -22 -30 -1 4 12 2 23 -5 28 -8 4 -9 3 -5 -4z"/>
<path d="M6081 9037 c-45 -16 -48 -28 -13 -69 16 -18 32 -41 35 -52 7 -16 4
-18 -25 -12 -18 3 -41 15 -50 27 -23 27 -38 17 -29 -19 5 -20 17 -30 46 -40
22 -7 49 -11 61 -8 42 11 36 83 -9 118 -28 21 -19 29 38 35 46 6 58 16 29 27
-22 8 -44 7 -83 -7z"/>
<path d="M13498 9020 c-14 -10 -32 -34 -41 -52 -30 -61 15 -88 81 -48 37 23
44 63 13 82 -10 6 -17 18 -14 25 7 19 -10 16 -39 -7z m42 -56 c0 -12 -37 -34
-56 -34 -9 0 -3 22 12 46 13 19 20 22 30 13 8 -6 14 -18 14 -25z"/>
<path d="M3303 8985 c-47 -49 -56 -90 -27 -119 42 -43 161 21 145 79 -1 5 -3
22 -3 38 -1 29 -22 47 -54 47 -10 0 -37 -20 -61 -45z m87 -42 c0 -46 -90 -84
-98 -41 -5 24 37 81 54 74 7 -3 16 0 20 6 9 14 24 -10 24 -39z"/>
<path d="M14125 9010 c-135 -66 -84 -143 56 -86 11 5 18 1 22 -13 3 -12 11
-21 19 -21 9 0 14 17 15 60 1 33 -2 60 -6 60 -4 0 -17 -13 -28 -28 -22 -29
-106 -62 -121 -48 -11 11 35 44 79 57 21 7 39 18 39 26 0 18 -28 16 -75 -7z"/>
<path d="M1372 9008 c-5 -7 -19 -32 -31 -56 -16 -31 -19 -47 -12 -61 20 -36
50 -36 103 1 35 24 38 23 38 -10 0 -16 9 -37 20 -47 23 -21 39 -13 21 9 -7 9
-11 37 -10 67 2 33 -1 54 -8 56 -7 3 -29 -11 -50 -30 -44 -39 -65 -48 -83 -37
-10 6 -7 17 11 50 22 38 26 41 56 37 35 -6 41 1 21 21 -16 16 -63 15 -76 0z"/>
<path d="M1777 9013 c-4 -3 -7 -19 -7 -35 0 -24 -7 -32 -42 -48 -48 -21 -62
-15 -53 23 6 23 11 25 36 20 36 -7 39 13 5 28 -34 16 -62 -3 -71 -47 -5 -30
-2 -41 14 -57 19 -20 22 -20 62 -4 l42 17 -7 -77 c-3 -42 -6 -86 -6 -99 0 -21
-3 -22 -26 -14 -43 17 -102 12 -124 -10 -38 -38 -38 -114 1 -164 27 -35 60
-33 103 5 49 43 72 112 80 244 4 61 12 127 17 148 14 52 -1 94 -24 70z m-59
-319 c27 -8 28 -24 2 -74 -20 -39 -54 -70 -77 -70 -16 0 -43 52 -43 82 0 56
47 81 118 62z"/>
<path d="M5873 9008 c-12 -16 -43 -100 -43 -116 0 -20 20 -13 30 11 15 36 44
101 48 110 6 12 -25 8 -35 -5z"/>
<path d="M7691 8969 c-23 -57 -26 -79 -11 -79 13 0 50 83 50 111 0 34 -17 20
-39 -32z"/>
<path d="M8019 8967 c-14 -29 -19 -51 -14 -63 6 -16 12 -9 32 34 18 38 22 57
15 64 -8 8 -17 -3 -33 -35z"/>
<path d="M9553 8915 c-29 -13 -53 -29 -53 -35 0 -5 -6 -10 -14 -10 -24 0 -90
-60 -141 -128 -119 -158 -173 -370 -120 -472 28 -53 109 -104 184 -116 58 -9
51 9 -11 30 -151 52 -190 129 -148 290 26 104 59 173 113 244 73 94 138 146
220 177 41 15 50 16 57 4 12 -19 23 -5 15 20 -8 28 -37 27 -102 -4z"/>
<path d="M4904 8843 c-19 -21 -59 -86 -89 -144 -43 -84 -60 -108 -80 -113 -14
-4 -25 -14 -25 -22 0 -10 6 -14 15 -10 19 7 19 3 -5 -44 -11 -22 -20 -53 -20
-70 0 -43 26 -90 50 -90 25 0 25 5 0 30 -27 27 -25 42 11 122 l32 68 51 0 c44
1 86 16 86 32 0 2 -27 2 -61 0 l-60 -5 44 89 c25 49 61 107 81 129 31 36 35
38 36 18 0 -25 15 -31 23 -10 8 22 -12 57 -33 57 -12 0 -37 -17 -56 -37z"/>
<path d="M12300 8845 c0 -3 4 -13 9 -23 16 -30 60 -195 66 -247 16 -133 -41
-291 -140 -384 -72 -68 -230 -146 -281 -138 -32 5 -33 4 -23 -15 10 -18 17
-20 62 -14 66 8 199 73 259 125 102 90 160 219 162 361 1 74 -4 100 -38 200
-21 63 -43 121 -48 128 -10 12 -28 17 -28 7z"/>
<path d="M6315 8774 c-8 -20 -15 -38 -15 -41 0 -2 -17 -42 -37 -89 -31 -72
-42 -88 -70 -99 -38 -16 -45 -40 -10 -33 l23 5 -17 -76 c-10 -41 -16 -77 -13
-80 11 -11 33 32 44 83 16 76 16 76 96 69 l70 -6 -22 -44 c-23 -45 -23 -73 2
-73 9 0 14 11 14 29 0 20 11 42 35 67 30 31 39 36 65 31 22 -5 30 -3 30 8 0
22 -45 29 -78 13 -19 -10 -36 -12 -53 -6 -13 5 -35 8 -49 8 -25 -2 -70 9 -70
16 0 2 18 46 40 98 22 51 43 107 46 125 9 43 -12 40 -31 -5z"/>
<path d="M17087 8772 c-24 -5 -61 -73 -87 -162 -20 -69 -26 -77 -68 -105 -56
-36 -82 -77 -66 -102 17 -27 39 -27 75 -1 39 29 58 66 98 195 22 70 42 113 62
134 16 17 29 32 29 34 0 6 -26 11 -43 7z m-133 -294 c-21 -36 -46 -68 -55 -68
-17 0 -9 18 22 49 32 32 45 40 33 19z"/>
<path d="M7320 8657 c-49 -98 -59 -112 -88 -121 -37 -10 -44 -31 -7 -22 l25 6
-35 -67 c-34 -67 -43 -103 -26 -103 5 0 28 38 51 85 35 71 46 85 61 80 11 -4
19 -2 19 3 0 6 -6 12 -12 14 -9 3 4 40 40 115 57 120 58 123 40 123 -7 -1 -38
-51 -68 -113z"/>
<path d="M11379 8743 c-5 -15 -19 -57 -31 -93 -12 -36 -37 -99 -56 -140 -51
-112 -63 -151 -57 -182 9 -38 21 -28 29 23 4 23 23 76 42 118 40 84 104 262
104 286 0 25 -20 17 -31 -12z"/>
<path d="M13164 8740 c-45 -22 -68 -62 -79 -135 -15 -99 -14 -97 -51 -90 -42
7 -46 -11 -4 -20 35 -8 36 -14 14 -58 -34 -65 -111 -137 -148 -137 -20 0 -21
-19 -1 -26 43 -17 163 98 187 178 7 25 17 38 29 38 24 0 49 10 49 20 0 14 -33
21 -41 8 -16 -26 -18 0 -4 76 15 90 38 121 98 131 33 7 37 5 37 -14 0 -11 5
-21 11 -21 6 0 9 14 7 33 -3 28 -7 32 -33 35 -16 1 -49 -7 -71 -18z"/>
<path d="M15943 8708 c-13 -19 -80 -147 -114 -218 -18 -36 -36 -73 -40 -82
-13 -26 -12 -28 16 -28 17 0 25 6 25 18 0 9 20 53 45 97 83 147 112 225 86
225 -6 0 -13 -5 -18 -12z"/>
<path d="M3430 8700 c0 -5 5 -10 10 -10 6 0 10 5 10 10 0 6 -4 10 -10 10 -5 0
-10 -4 -10 -10z"/>
<path d="M15232 8648 c5 -32 28 -35 28 -4 0 17 -5 26 -16 26 -10 0 -14 -7 -12
-22z"/>
<path d="M2683 8610 c-41 -24 -43 -56 -8 -98 36 -43 44 -72 31 -112 -12 -38
-53 -67 -81 -57 -13 6 -16 16 -13 42 4 39 -6 46 -22 16 -16 -31 -12 -69 9 -81
47 -24 99 -3 127 52 25 49 20 91 -17 142 -31 45 -32 46 -14 66 20 22 51 26 58
8 4 -10 7 -10 17 -1 11 10 11 15 0 28 -17 21 -48 19 -87 -5z"/>
<path d="M7554 8619 c-7 -12 15 -31 28 -23 9 6 -1 34 -12 34 -5 0 -12 -5 -16
-11z"/>
<path d="M3769 8599 c-20 -20 -20 -22 -3 -47 9 -15 26 -37 37 -50 19 -21 20
-24 5 -39 -21 -20 -68 -10 -75 18 -7 25 -27 19 -31 -8 -4 -24 40 -63 70 -63
22 0 60 18 70 34 16 23 7 56 -23 90 -17 20 -28 40 -24 46 3 5 24 10 46 10 40
0 52 13 23 24 -32 12 -74 6 -95 -15z"/>
<path d="M3524 8600 c-30 -12 -71 -65 -79 -101 -11 -51 47 -111 78 -80 7 7 3
13 -15 20 -33 13 -41 26 -34 57 5 20 12 24 45 24 60 0 96 56 52 80 -22 11 -19
11 -47 0z m21 -47 c-11 -7 -26 -13 -34 -13 -12 1 -10 6 8 20 12 11 28 17 34
13 6 -4 3 -11 -8 -20z"/>
<path d="M5508 8605 c-8 -9 3 -45 13 -45 5 0 9 7 9 15 0 8 0 18 1 22 1 10 -16
15 -23 8z"/>
<path d="M14891 8582 c-52 -26 -59 -44 -36 -89 11 -21 21 -41 23 -45 2 -5 -15
-8 -37 -8 -23 0 -41 4 -41 9 0 5 -9 7 -20 4 -24 -6 -27 -38 -4 -47 30 -11 105
-6 120 8 19 20 18 39 -8 82 -21 36 -21 37 -2 51 10 8 29 16 42 20 23 5 31 33
10 33 -7 0 -28 -8 -47 -18z"/>
<path d="M14960 8593 c0 -4 7 -17 15 -27 17 -23 34 -13 19 11 -12 19 -34 29
-34 16z"/>
<path d="M16430 8562 c-57 -28 -79 -45 -94 -73 -39 -73 6 -118 106 -105 48 7
67 18 68 39 0 7 -46 -1 -65 -12 -16 -9 -69 0 -84 14 -9 9 -11 23 -7 41 5 19
10 24 15 15 7 -10 23 -8 77 12 102 37 123 48 129 68 17 51 -44 52 -145 1z
m105 0 c-15 -13 -127 -53 -133 -47 -4 4 40 25 98 48 24 9 45 8 35 -1z"/>
<path d="M2932 8570 c-37 -23 -64 -71 -60 -107 2 -14 15 -35 31 -47 25 -18 31
-19 74 -7 53 14 56 16 52 30 -3 7 -13 6 -30 -3 -38 -19 -93 0 -97 35 -3 29 37
79 65 79 16 -1 16 -2 -3 -18 -12 -9 -29 -21 -38 -27 -11 -7 -13 -15 -7 -24 7
-10 12 -11 22 -3 8 6 27 22 43 35 32 26 31 48 -2 66 -14 7 -26 5 -50 -9z"/>
<path d="M14344 8561 c-33 -23 -41 -25 -40 -12 2 26 -35 24 -87 -4 -44 -23
-48 -24 -42 -6 3 11 2 22 -2 24 -11 7 -53 -28 -53 -43 0 -7 -14 -30 -31 -52
-24 -30 -29 -42 -20 -51 8 -8 14 -9 19 -1 9 13 110 88 140 104 35 18 39 3 8
-29 -29 -30 -28 -55 2 -44 9 4 39 24 66 45 27 21 50 37 52 35 2 -2 -3 -23 -10
-47 -7 -25 -11 -53 -8 -63 5 -23 27 -16 28 9 1 10 8 44 18 76 17 61 20 88 9
88 -5 0 -27 -13 -49 -29z"/>
<path d="M3171 8571 c-8 -5 -20 -7 -28 -4 -8 3 -13 -3 -13 -18 0 -13 -9 -44
-20 -68 -23 -50 -25 -71 -7 -71 6 0 20 20 30 45 30 72 53 95 95 95 35 1 36 2
18 15 -22 17 -54 19 -75 6z"/>
<path d="M14589 8534 c-24 -25 -57 -52 -72 -60 -15 -8 -25 -19 -22 -24 3 -6 0
-7 -8 -4 -8 3 -18 0 -22 -6 -12 -19 0 -21 39 -5 33 14 39 14 60 0 22 -15 27
-15 55 -1 29 16 30 16 33 -11 2 -17 10 -29 21 -31 15 -3 17 1 11 22 -4 18 1
35 16 56 16 23 19 35 11 43 -8 8 -15 6 -28 -5 -10 -9 -38 -26 -62 -38 l-45
-22 18 28 c10 16 27 38 37 50 11 11 19 25 19 32 0 26 -19 18 -61 -24z"/>
<path d="M15318 8551 c-49 -31 -78 -65 -78 -92 0 -27 48 -59 87 -59 41 0 41
23 0 28 -30 4 -50 24 -42 44 9 23 87 69 107 62 21 -6 25 15 6 34 -18 18 -29
15 -80 -17z"/>
<path d="M5955 8565 c-5 -2 -22 -6 -37 -9 -36 -8 -37 -40 -4 -85 32 -43 43
-90 25 -102 -35 -22 -73 -2 -75 38 0 15 -5 27 -10 25 -13 -4 -8 -81 7 -98 6
-8 28 -14 49 -14 74 0 91 80 34 162 -15 21 -24 41 -20 45 4 4 31 7 61 7 32 1
53 5 51 11 -2 6 -11 9 -20 9 -9 -1 -16 2 -16 7 0 9 -25 11 -45 4z"/>
<path d="M17193 8548 c-35 -17 -30 -60 12 -107 19 -21 35 -41 35 -44 0 -9 -62
-27 -96 -27 -28 0 -34 -4 -34 -21 0 -20 4 -21 54 -17 105 9 134 57 71 118 -19
19 -35 38 -35 43 0 22 32 37 80 37 37 0 50 4 48 13 -6 16 -105 20 -135 5z"/>
<path d="M16649 8508 c-53 -57 -85 -116 -69 -132 7 -7 13 -7 18 -1 8 11 89 77
110 89 11 7 12 4 3 -12 -13 -24 -15 -62 -3 -62 11 0 62 111 56 121 -10 17 -33
9 -81 -27 l-48 -36 43 44 c23 24 42 47 42 51 0 20 -35 2 -71 -35z"/>
<path d="M8271 8530 c-18 -4 -40 -15 -49 -24 -15 -14 -14 -18 1 -48 9 -18 24
-46 34 -61 16 -24 16 -29 3 -37 -43 -27 -106 3 -97 47 7 38 -30 30 -38 -9 -6
-28 -3 -36 24 -60 36 -32 85 -37 132 -12 36 18 34 41 -8 105 -28 43 -25 52 20
63 20 5 29 2 33 -9 9 -23 24 -18 24 10 0 20 -27 49 -42 44 -2 -1 -18 -5 -37
-9z"/>
<path d="M9793 8525 c-50 -22 -76 -52 -63 -75 11 -21 44 -26 82 -11 22 8 23 7
20 -23 -2 -21 2 -37 12 -45 19 -16 43 -4 27 12 -15 15 -14 37 4 70 16 32 7 70
-20 81 -22 8 -24 8 -62 -9z m67 -32 c0 -7 -68 -33 -85 -33 -24 0 -7 20 28 35
28 11 57 11 57 -2z"/>
<path d="M5454 8505 c-24 -37 -63 -137 -64 -162 0 -14 6 -23 15 -23 9 0 15 9
15 23 0 12 16 55 35 96 19 40 35 77 35 82 0 17 -20 9 -36 -16z"/>
<path d="M5664 8519 c-57 -16 -149 -149 -122 -174 7 -7 12 -7 14 0 18 45 71
119 97 135 46 29 60 26 55 -10 -4 -24 -1 -30 11 -28 20 4 27 54 10 74 -13 16
-20 16 -65 3z"/>
<path d="M6660 8520 c0 -19 -61 -78 -115 -111 -52 -31 -68 -49 -45 -49 6 0 29
14 52 30 48 35 58 37 51 10 -9 -33 23 -35 70 -4 71 49 70 48 62 25 -6 -21 9
-61 25 -61 5 0 9 18 8 39 0 21 8 53 18 70 18 31 15 48 -8 38 -7 -4 -41 -27
-76 -53 l-63 -46 25 51 c30 58 32 71 11 71 -8 0 -15 -4 -15 -10z"/>
<path d="M6950 8507 c-43 -28 -74 -80 -65 -107 10 -32 46 -43 109 -36 72 9 72
25 0 25 -51 0 -84 12 -84 31 0 4 16 25 35 46 19 21 35 35 35 31 0 -3 14 -1 30
4 28 10 41 29 20 29 -5 0 -10 -5 -10 -12 0 -9 -3 -9 -12 0 -16 16 -20 15 -58
-11z"/>
<path d="M7335 8520 c-4 -6 13 -10 44 -10 28 0 51 5 51 10 0 6 -20 10 -44 10
-25 0 -48 -4 -51 -10z"/>
<path d="M7950 8522 c-8 -3 -27 -13 -42 -23 -14 -11 -33 -19 -42 -19 -9 0 -16
-4 -16 -10 0 -5 -16 -28 -36 -50 -32 -35 -34 -41 -18 -47 13 -5 26 3 48 28 17
19 48 48 70 64 l39 29 -22 -41 c-25 -49 -27 -95 -6 -113 13 -11 15 -7 15 26 0
23 11 59 25 86 14 26 25 51 25 56 0 13 -21 20 -40 14z"/>
<path d="M11000 8510 c-40 -40 -39 -92 3 -124 27 -20 30 -20 72 -5 25 9 45 13
45 8 0 -19 17 -8 29 18 14 30 1 53 -21 35 -10 -8 -13 -5 -14 14 -1 13 -9 35
-18 49 -20 31 -67 34 -96 5z m83 -45 c22 -45 22 -44 -9 -56 -54 -20 -76 7 -54
65 14 37 43 33 63 -9z"/>
<path d="M13418 8511 c-35 -28 -80 -107 -76 -134 4 -30 21 -23 33 13 13 39 73
110 93 110 8 0 24 -7 34 -17 24 -21 30 -14 15 17 -17 33 -64 38 -99 11z"/>
<path d="M15549 8507 c-38 -26 -52 -67 -22 -67 10 0 32 4 48 9 l30 8 0 -46 c0
-40 3 -46 23 -49 21 -3 22 -2 10 17 -10 16 -10 29 0 66 22 81 -19 109 -89 62z
m56 -17 c-28 -12 -37 -12 -30 0 3 6 16 10 28 9 21 0 21 -1 2 -9z"/>
<path d="M3295 8494 c-28 -30 -33 -64 -10 -64 8 0 15 6 15 13 0 6 9 23 20 37
36 46 15 57 -25 14z"/>
<path d="M9982 8458 c-29 -80 -16 -93 37 -36 l41 43 -2 -43 c-1 -23 1 -45 5
-48 14 -14 23 8 22 58 0 43 -3 53 -18 56 -11 2 -30 -7 -44 -19 l-24 -24 10 28
c13 34 14 47 3 47 -4 0 -18 -28 -30 -62z"/>
<path d="M13198 8483 c-51 -53 -55 -93 -10 -93 42 0 72 37 72 88 0 53 -14 54
-62 5z m18 -51 c-23 -23 -33 -6 -10 19 12 13 20 16 22 9 3 -7 -3 -19 -12 -28z"/>
<path d="M15127 8506 c-22 -22 -57 -90 -57 -111 0 -30 19 -14 50 42 34 64 38
99 7 69z"/>
<path d="M11465 8494 c-44 -23 -56 -43 -44 -67 9 -15 18 -18 45 -14 19 3 34 4
34 2 0 -10 -30 -114 -45 -157 l-16 -46 -48 24 c-37 19 -53 23 -72 16 -37 -15
-60 -46 -66 -89 -12 -89 79 -99 168 -19 28 26 43 33 65 30 28 -4 28 -4 7 7
-13 7 -23 17 -23 24 0 15 65 207 80 234 9 18 8 27 -5 47 -18 28 -38 30 -80 8z
m60 -23 c3 -5 -4 -12 -15 -15 -11 -3 -30 -9 -41 -12 -28 -8 -16 14 15 26 28
12 34 12 41 1z m-137 -268 c34 -8 35 -19 1 -47 -20 -17 -43 -26 -65 -26 -30 0
-34 3 -34 25 0 32 36 69 58 59 9 -3 27 -9 40 -11z"/>
<path d="M4496 8474 c-47 -32 -57 -71 -26 -96 28 -23 52 -23 81 1 21 17 22 20
9 51 -11 26 -11 35 -2 38 18 6 14 19 -7 25 -11 3 -35 -6 -55 -19z m33 -53 c12
-21 -7 -35 -34 -25 -17 7 -17 7 -9 28 8 22 31 20 43 -3z"/>
<path d="M7650 8473 c-51 -40 -60 -54 -57 -88 2 -28 4 -30 44 -29 62 1 83 24
80 88 -3 61 -17 68 -67 29z m38 -51 c2 -15 -5 -25 -26 -36 -46 -24 -60 7 -20
44 26 24 42 21 46 -8z"/>
<path d="M7420 8418 c-34 -69 -36 -78 -16 -78 11 0 33 40 74 133 2 4 -3 7 -12
7 -10 0 -28 -24 -46 -62z"/>
<path d="M3585 8441 c-3 -6 -12 -8 -19 -5 -8 3 -17 1 -21 -5 -4 -7 3 -11 17
-11 29 0 54 15 40 24 -6 3 -13 2 -17 -3z"/>
<path d="M11723 8442 c-30 -5 -84 -90 -76 -120 8 -32 49 -39 92 -16 44 24 59
61 42 102 -14 33 -25 40 -58 34z m27 -42 c16 -29 4 -56 -31 -70 -47 -20 -56
-1 -24 49 31 46 40 50 55 21z"/>
<path d="M5680 8388 c-30 -68 -4 -65 30 3 18 34 18 39 5 39 -9 0 -24 -19 -35
-42z"/>
<path d="M8521 8376 c-14 -17 -4 -26 32 -26 33 0 33 19 0 31 -14 5 -25 3 -32
-5z"/>
<path d="M17413 8280 c6 -47 11 -55 26 -45 20 12 13 63 -10 76 -21 11 -22 10
-16 -31z"/>
</g>
</svg>
