<?xml version="1.0" standalone="no"?>
<!DOCTYPE svg PUBLIC "-//W3C//DTD SVG 20010904//EN"
 "http://www.w3.org/TR/2001/REC-SVG-20010904/DTD/svg10.dtd">
<svg version="1.0" xmlns="http://www.w3.org/2000/svg"
 width="1872.000000pt" height="1404.000000pt" viewBox="0 0 1872.000000 1404.000000"
 preserveAspectRatio="xMidYMid meet">

<g transform="translate(0.000000,1404.000000) scale(0.100000,-0.100000)"
fill="#000000" stroke="none">
<path d="M15124 13376 c-33 -57 -39 -63 -56 -53 -15 10 -25 8 -49 -6 -24 -13
-35 -15 -45 -6 -19 16 -30 3 -14 -16 8 -9 10 -27 6 -50 -5 -25 -2 -44 10 -64
16 -28 16 -30 -15 -83 -39 -69 -62 -134 -55 -153 8 -20 23 -19 30 3 3 9 26 58
50 107 43 86 47 90 80 93 106 7 167 114 87 152 l-31 15 34 58 c39 66 39 67 20
67 -8 0 -31 -29 -52 -64z m-78 -134 c-8 -16 -22 -34 -30 -41 -13 -11 -17 -10
-22 4 -11 28 12 65 41 65 25 0 25 -1 11 -28z m108 6 c14 -24 -14 -53 -65 -66
-21 -5 -39 -8 -39 -6 0 2 10 24 22 49 19 38 27 45 47 43 13 -2 29 -11 35 -20z"/>
<path d="M17502 13367 c-20 -23 -82 -161 -88 -195 -4 -18 -2 -38 3 -43 7 -7
18 14 33 61 12 39 37 95 55 125 30 49 34 65 15 65 -4 0 -12 -6 -18 -13z"/>
<path d="M16875 13353 c-36 -19 -80 -61 -73 -69 3 -3 28 9 56 25 47 30 122 43
122 22 0 -19 -138 -123 -180 -136 -14 -4 -38 -16 -53 -27 -22 -16 -25 -23 -16
-34 10 -12 18 -10 57 11 61 34 75 33 67 -5 -5 -25 -3 -31 18 -41 18 -8 32 -7
60 5 39 16 52 42 17 32 -11 -3 -29 -8 -39 -11 -16 -5 -19 1 -23 37 -4 37 0 46
21 63 78 60 102 89 99 114 -3 24 -7 26 -53 28 -31 2 -61 -3 -80 -14z"/>
<path d="M17268 13342 c-13 -15 -31 -26 -40 -24 -28 5 -74 -34 -92 -78 -20
-50 -20 -74 -2 -89 13 -11 10 -19 -15 -59 -27 -42 -39 -102 -21 -102 4 0 18
25 30 54 28 63 43 79 94 95 50 16 98 62 98 94 0 14 -11 38 -24 54 -24 28 -24
29 -5 41 19 12 27 42 10 42 -5 0 -20 -12 -33 -28z m-67 -114 c-36 -64 -57 -76
-47 -27 7 36 41 79 64 79 10 0 5 -15 -17 -52z m86 26 c8 -23 -11 -57 -41 -73
-35 -19 -41 -10 -20 31 30 60 49 73 61 42z"/>
<path d="M17659 13335 c-46 -30 -83 -87 -74 -115 3 -11 11 -20 17 -20 6 0 -9
-13 -34 -30 -24 -16 -53 -46 -64 -65 -17 -32 -18 -38 -4 -63 19 -34 65 -40
124 -18 42 16 106 67 106 84 0 16 -41 62 -56 62 -8 0 -14 7 -14 15 0 8 7 15
16 15 8 0 29 13 45 29 38 39 40 91 4 115 -29 19 -22 20 -66 -9z m56 -26 c4 -5
4 -21 1 -35 -11 -42 -106 -72 -106 -33 0 16 68 79 85 79 8 0 17 -5 20 -11z
m-66 -171 c37 -20 40 -23 28 -42 -31 -46 -147 -78 -147 -40 0 30 51 99 77 104
0 0 20 -10 42 -22z"/>
<path d="M16027 13333 c-4 -3 -7 -12 -7 -20 0 -7 -18 -54 -41 -104 -23 -50
-38 -97 -34 -106 3 -10 9 -13 14 -7 15 16 91 202 91 223 0 21 -11 27 -23 14z"/>
<path d="M16206 13319 c-27 -21 -66 -87 -66 -112 0 -7 11 -24 25 -37 l25 -23
-30 -18 c-64 -40 -74 -110 -16 -125 81 -20 162 68 126 136 -8 15 -5 24 15 44
14 14 25 36 25 49 0 29 -37 70 -57 63 -8 -3 -17 -6 -19 -6 -2 0 -4 -7 -4 -16
0 -10 6 -14 14 -11 20 8 39 -18 31 -42 -3 -11 -22 -25 -42 -31 -30 -10 -38
-10 -51 4 -15 15 -15 19 2 51 10 18 29 44 42 56 42 40 26 54 -20 18z m34 -212
c0 -37 -27 -67 -61 -67 -40 0 -39 31 4 64 40 32 57 33 57 3z"/>
<path d="M15511 13316 c-39 -7 -66 -17 -69 -25 -4 -12 6 -13 54 -8 92 10 154
37 96 42 -9 1 -46 -3 -81 -9z"/>
<path d="M15395 13301 c-3 -5 -1 -12 5 -16 12 -7 30 2 30 16 0 12 -27 12 -35
0z"/>
<path d="M15358 13273 c-28 -33 -28 -40 3 -82 36 -51 35 -75 -6 -79 -32 -4
-58 20 -48 45 4 11 1 14 -8 11 -21 -7 -23 -57 -4 -78 30 -33 94 -31 117 4 15
22 7 64 -18 102 -20 29 -24 42 -16 54 16 26 -1 45 -20 23z"/>
<path d="M15600 13100 c0 -5 7 -10 15 -10 8 0 15 5 15 10 0 6 -7 10 -15 10 -8
0 -15 -4 -15 -10z"/>
<path d="M16406 13043 c-12 -12 -5 -23 14 -23 11 0 20 4 20 9 0 11 -26 22 -34
14z"/>
<path d="M6001 12531 c-41 -41 -100 -152 -122 -231 -7 -25 -16 -47 -19 -50 -3
-3 -6 -16 -6 -30 -1 -14 -8 -60 -17 -104 -9 -43 -14 -83 -11 -87 12 -21 22 -5
33 54 23 117 31 137 57 147 13 5 24 14 24 19 0 6 -7 8 -16 4 -14 -5 -16 -2
-10 21 16 62 50 140 87 194 33 51 42 59 64 54 22 -4 25 -1 25 22 0 41 -41 35
-89 -13z"/>
<path d="M9572 12478 c3 -18 -104 -300 -149 -390 -43 -88 -26 -103 39 -32 36
39 84 74 103 74 12 0 3 -47 -15 -75 -23 -35 -26 -55 -7 -55 16 0 57 82 57 115
0 17 -8 29 -25 37 -21 9 -31 7 -66 -17 -35 -22 -41 -24 -34 -9 44 102 105 275
105 301 0 17 5 33 12 35 6 2 8 10 4 16 -10 16 -28 15 -24 0z"/>
<path d="M3258 12465 c-42 -7 -111 -23 -155 -35 -75 -21 -172 -28 -213 -15
-14 4 -20 2 -20 -9 0 -20 29 -28 109 -28 70 -1 129 10 240 43 35 10 74 19 88
19 22 0 24 -3 19 -22 -4 -13 -15 -63 -26 -111 -11 -48 -31 -124 -45 -168 -42
-135 -36 -139 68 -33 49 50 79 74 87 69 9 -6 11 -29 7 -86 -4 -50 -3 -81 4
-85 16 -10 19 -2 26 83 6 87 -4 123 -37 123 -11 0 -28 -8 -38 -17 -11 -10 -38
-36 -60 -57 l-41 -39 18 49 c10 27 24 76 31 109 32 164 43 198 61 202 31 8 21
23 -13 22 -18 -1 -67 -7 -110 -14z"/>
<path d="M7537 12403 c-3 -16 -10 -50 -16 -77 -11 -47 -7 -71 8 -61 12 7 43
143 36 155 -11 18 -23 11 -28 -17z"/>
<path d="M15029 12333 c-23 -49 -64 -135 -91 -193 -44 -93 -47 -112 -21 -111
3 0 14 19 23 43 10 29 25 48 44 57 28 13 118 17 137 6 13 -9 11 -37 -5 -76
-14 -35 -11 -63 5 -53 15 9 39 74 39 104 0 38 -22 53 -89 61 -43 5 -60 3 -73
-9 -10 -8 -18 -12 -18 -8 0 4 25 60 55 123 30 64 55 122 55 129 0 35 -24 6
-61 -73z"/>
<path d="M1917 12385 c-10 -9 -14 -22 -10 -28 4 -7 10 -37 13 -67 l5 -55 47 3
c42 3 51 0 79 -28 29 -28 31 -35 25 -77 -3 -25 -11 -52 -17 -59 -26 -31 -101
-8 -120 37 -7 18 -19 29 -30 29 -28 0 -15 -47 22 -82 62 -59 158 -43 178 29
15 53 14 89 -4 123 -17 33 -80 70 -119 70 -21 0 -24 5 -28 40 l-4 40 78 -6
c57 -5 78 -4 78 5 0 16 -40 29 -113 37 -52 5 -66 3 -80 -11z"/>
<path d="M10925 12348 c-26 -57 -109 -268 -120 -307 -12 -40 15 -45 52 -9 41
40 46 69 8 44 l-26 -17 17 38 c9 21 31 77 49 124 18 47 40 100 49 117 9 17 16
38 16 47 0 31 -21 14 -45 -37z"/>
<path d="M6914 12293 c-10 -54 -19 -105 -19 -113 -1 -8 -3 -20 -7 -25 -3 -6
-9 -25 -13 -42 -5 -24 -3 -33 7 -33 11 0 11 -2 0 -9 -16 -10 -12 -53 6 -59 8
-2 12 8 12 31 0 18 13 98 29 176 28 131 30 171 12 171 -4 0 -16 -44 -27 -97z"/>
<path d="M3094 12354 c3 -9 6 -18 6 -20 0 -2 7 -4 15 -4 8 0 15 9 15 20 0 14
-7 20 -21 20 -15 0 -19 -4 -15 -16z"/>
<path d="M12030 12345 c-7 -8 -24 -56 -39 -107 -25 -89 -27 -92 -59 -99 -41
-8 -92 -55 -92 -84 0 -48 71 -73 102 -37 25 28 54 92 77 168 40 135 44 199 11
159z m-80 -245 c0 -26 -32 -70 -51 -70 -33 0 -36 30 -5 57 28 24 56 30 56 13z"/>
<path d="M3094 12293 c-3 -16 -14 -62 -24 -103 -27 -111 -29 -160 -6 -160 9 0
14 13 15 38 0 20 12 82 25 137 13 55 22 103 20 107 -10 16 -24 7 -30 -19z"/>
<path d="M13510 12300 c0 -5 5 -10 10 -10 6 0 10 5 10 10 0 6 -4 10 -10 10 -5
0 -10 -4 -10 -10z"/>
<path d="M15170 12272 c-110 -64 -130 -77 -130 -84 0 -16 23 -7 81 33 33 22
76 47 95 55 18 8 34 19 34 24 0 16 -11 12 -80 -28z"/>
<path d="M15410 12265 c0 -8 5 -15 10 -15 6 0 10 7 10 15 0 8 -4 15 -10 15 -5
0 -10 -7 -10 -15z"/>
<path d="M7493 12227 c-8 -30 -12 -32 -61 -35 -64 -4 -70 -22 -7 -22 25 0 45
-3 45 -7 0 -5 -9 -32 -21 -62 -20 -54 -23 -117 -4 -114 6 1 13 20 17 44 18
103 53 154 99 142 16 -5 16 -6 1 -24 -18 -20 -52 -119 -46 -131 2 -3 13 -4 24
-1 14 4 18 11 14 32 -3 16 3 38 16 59 18 30 24 33 55 28 19 -3 35 -3 35 2 0
11 -94 52 -120 52 -19 0 -21 4 -15 29 9 42 -20 50 -32 8z"/>
<path d="M8255 12231 c-7 -12 12 -24 25 -16 11 7 4 25 -10 25 -5 0 -11 -4 -15
-9z"/>
<path d="M10685 12205 c-27 -26 -31 -61 -11 -106 5 -13 0 -18 -25 -23 -17 -3
-37 -2 -44 4 -13 11 -25 3 -25 -16 0 -20 35 -26 79 -14 51 13 56 23 41 71 -11
33 -11 42 4 64 9 14 23 25 31 25 8 0 15 5 15 10 0 19 -37 10 -65 -15z"/>
<path d="M6634 12210 c-12 -5 -31 -24 -44 -44 -12 -20 -26 -36 -32 -36 -17 0
1 -74 24 -92 20 -18 59 -24 71 -12 3 4 1 16 -4 27 -8 13 -13 16 -18 8 -8 -12
-41 -5 -41 10 0 4 19 17 43 27 23 10 48 26 55 35 30 36 -10 94 -54 77z m36
-45 c0 -8 -13 -21 -30 -30 -38 -20 -43 -19 -30 4 24 47 60 62 60 26z"/>
<path d="M4503 12160 c-52 -63 -131 -135 -160 -144 -23 -7 -32 -26 -13 -26 16
0 64 23 97 48 l31 23 4 -23 c6 -42 35 -32 103 37 66 67 79 70 49 13 -28 -54
-34 -86 -18 -99 11 -9 20 -8 39 5 14 9 25 21 25 26 0 14 -13 13 -28 -2 -20
-20 -15 12 8 55 24 45 26 90 4 108 -17 14 -12 18 -77 -64 -16 -19 -39 -43 -52
-51 -24 -16 -24 -16 -15 9 5 14 21 42 35 63 25 36 33 72 17 72 -5 0 -27 -22
-49 -50z"/>
<path d="M4831 12184 c-37 -31 -37 -37 -9 -90 15 -28 19 -49 14 -68 -8 -33
-39 -32 -44 2 -5 30 -22 17 -22 -17 0 -55 46 -68 79 -22 27 37 27 77 0 120
l-21 35 24 18 c12 9 26 18 31 18 4 0 7 7 7 15 0 23 -25 18 -59 -11z"/>
<path d="M9973 12179 c-51 -36 -54 -57 -12 -98 42 -43 33 -61 -31 -61 -52 0
-67 -13 -27 -24 65 -17 117 3 117 44 0 11 -14 35 -31 55 -31 34 -31 36 -13 50
11 8 15 15 9 15 -5 1 5 6 24 13 19 7 36 18 39 25 7 22 -32 12 -75 -19z"/>
<path d="M12684 12170 c-53 -44 -64 -48 -64 -25 0 24 -27 29 -55 11 -15 -10
-26 -12 -30 -6 -10 16 -25 11 -25 -9 0 -10 -13 -43 -29 -73 -28 -51 -30 -68
-10 -68 4 0 30 32 59 70 49 68 78 83 66 35 -11 -43 15 -38 76 16 l61 53 -8
-54 c-12 -84 -11 -103 5 -108 8 -3 12 -2 9 2 -4 4 0 28 7 53 18 59 18 117 0
132 -10 9 -24 3 -62 -29z"/>
<path d="M13240 12174 c-22 -20 -40 -40 -40 -44 0 -5 12 -22 26 -39 l26 -31
-42 0 c-34 0 -41 -3 -38 -17 7 -37 108 -22 108 16 0 8 -10 25 -22 38 -28 30
-18 51 40 78 49 23 54 35 12 35 -20 0 -43 -12 -70 -36z"/>
<path d="M11414 12158 c-43 -48 -181 -319 -170 -337 11 -18 24 -13 32 12 17
56 92 196 98 182 10 -26 54 -17 96 21 45 41 59 88 40 134 -18 43 -48 39 -96
-12z m74 -21 c4 -37 -18 -71 -58 -87 -62 -26 -65 17 -5 88 33 39 59 38 63 -1z"/>
<path d="M8643 12183 c-35 -7 -39 -40 -9 -72 31 -33 32 -42 5 -59 -18 -12 -24
-11 -44 8 -13 12 -21 28 -18 36 3 8 -1 14 -10 14 -8 0 -17 -12 -20 -27 -5 -22
0 -34 24 -55 36 -34 63 -35 94 -3 31 30 32 62 4 91 -30 32 -16 47 37 41 48 -5
59 0 43 20 -11 12 -58 15 -106 6z"/>
<path d="M17048 12165 c-42 -29 -54 -55 -38 -85 15 -28 73 -52 105 -44 31 8
33 24 3 24 -13 0 -33 3 -46 6 -22 6 -22 8 -6 25 9 11 23 19 30 19 17 0 43 37
40 58 -4 27 -47 25 -88 -3z m62 -13 c0 -5 -18 -20 -40 -35 -46 -30 -53 -20
-13 18 27 25 53 33 53 17z"/>
<path d="M3531 12145 c-37 -42 -40 -81 -9 -120 19 -24 26 -27 64 -22 47 5 98
32 89 47 -3 4 -29 0 -58 -10 -52 -19 -52 -19 -69 1 -25 30 -23 34 28 58 39 19
45 25 42 49 -5 43 -47 42 -87 -3z m64 -5 c3 -6 -6 -15 -20 -20 -37 -14 -40
-13 -20 10 20 22 31 25 40 10z"/>
<path d="M8339 12165 c-30 -16 -79 -77 -79 -98 0 -38 70 -63 145 -52 63 10 56
25 -12 25 -35 1 -66 6 -77 15 -18 13 -18 17 -6 41 20 36 63 56 105 48 41 -7
47 7 10 24 -33 15 -54 15 -86 -3z"/>
<path d="M17309 12172 c-42 -18 -82 -64 -83 -95 -1 -39 15 -48 31 -16 24 47
63 79 97 79 18 0 37 -5 44 -12 20 -20 26 0 8 27 -17 25 -59 33 -97 17z"/>
<path d="M4996 12151 c-16 -11 -35 -30 -42 -43 -28 -49 -9 -124 34 -135 34 -8
95 12 126 43 44 45 30 55 -25 18 -57 -38 -93 -43 -109 -15 -13 25 -13 54 0 46
16 -10 79 14 89 34 12 21 -7 65 -29 68 -8 2 -28 -6 -44 -16z m42 -46 c-2 -2
-17 -6 -33 -10 l-30 -6 30 27 c26 24 30 25 33 10 2 -10 2 -19 0 -21z"/>
<path d="M5690 12162 c0 -5 -13 -15 -29 -21 -56 -24 -68 -104 -17 -117 32 -8
84 21 96 52 15 38 -1 88 -28 92 -12 2 -22 -1 -22 -6z m25 -72 c-9 -28 -51 -48
-68 -31 -15 15 0 41 34 58 29 15 44 3 34 -27z"/>
<path d="M7020 12157 c-26 -20 -50 -60 -50 -82 0 -25 35 -60 68 -68 19 -4 21
-3 11 9 -6 8 -8 14 -3 14 5 0 -2 6 -16 13 -14 7 -26 20 -28 30 -3 13 4 17 27
17 37 0 57 29 41 60 -12 23 -28 25 -50 7z m30 -26 c0 -5 -7 -12 -16 -15 -14
-5 -15 -4 -4 9 14 17 20 19 20 6z"/>
<path d="M11635 12139 c-49 -43 -59 -71 -41 -113 16 -38 54 -52 106 -41 46 10
43 20 -6 22 -41 1 -74 15 -74 33 0 4 18 14 40 23 27 10 43 25 50 43 25 66 -17
84 -75 33z m65 -8 c0 -16 -34 -49 -57 -56 -32 -9 -28 9 8 39 31 27 49 33 49
17z"/>
<path d="M14228 12093 c-63 -103 -49 -115 41 -35 38 34 72 62 75 62 10 0 7
-38 -4 -45 -5 -3 -10 -10 -10 -16 0 -17 27 -9 68 21 l42 30 -2 -38 c-1 -44 7
-62 28 -62 9 0 12 5 8 11 -4 7 -6 38 -5 70 2 66 -9 74 -49 39 -13 -11 -26 -20
-30 -20 -4 0 -10 9 -13 20 -7 28 -39 25 -78 -7 l-32 -27 17 32 c19 37 20 42 4
42 -7 0 -34 -35 -60 -77z"/>
<path d="M7207 12130 c-45 -39 -51 -64 -23 -97 17 -19 34 -27 73 -30 64 -7 80
12 18 21 -24 4 -54 15 -67 25 l-22 18 30 30 c16 16 36 32 43 34 15 5 7 29 -9
29 -5 0 -25 -14 -43 -30z"/>
<path d="M12948 12111 c-14 -34 -35 -60 -65 -81 -68 -49 -51 -72 19 -25 20 14
48 25 62 25 14 0 28 4 31 10 3 5 14 14 23 19 16 8 17 5 14 -25 -5 -37 14 -52
46 -39 16 8 16 8 0 12 -22 5 -22 25 -2 82 24 69 4 75 -56 16 -55 -54 -57 -54
-35 -1 15 36 13 56 -6 56 -5 0 -19 -22 -31 -49z"/>
<path d="M13539 12131 c-36 -36 -36 -45 -1 -80 33 -34 101 -50 117 -29 5 8 18
19 29 25 30 16 3 24 -29 7 -22 -11 -35 -12 -61 -4 -60 20 -52 80 11 80 24 0
35 5 35 15 0 28 -68 19 -101 -14z"/>
<path d="M10928 12133 c-32 -38 -34 -49 -5 -30 34 22 34 22 42 -15 11 -55 16
-68 26 -68 11 0 10 41 -3 93 -10 41 -34 49 -60 20z"/>
<path d="M11178 12141 c-20 -7 -68 -69 -68 -87 0 -25 29 -38 65 -27 31 10 34
9 37 -11 2 -11 10 -22 18 -24 12 -2 15 9 17 48 1 27 -1 50 -5 50 -3 0 -25 -10
-49 -21 -24 -12 -46 -19 -49 -16 -10 10 47 66 61 60 8 -3 15 -1 15 5 0 16 -24
30 -42 23z"/>
<path d="M13376 12092 c-10 -32 -17 -66 -15 -76 7 -29 24 -21 30 15 3 19 11
47 18 62 15 37 14 57 -2 57 -8 0 -21 -25 -31 -58z"/>
<path d="M14608 12110 l-41 -41 20 -21 c20 -20 23 -20 67 -5 l46 16 0 -30 c0
-18 5 -29 14 -29 16 0 27 88 13 97 -5 3 -31 -5 -59 -17 -27 -12 -52 -19 -55
-16 -11 10 46 56 62 49 13 -4 16 -1 13 13 -6 33 -37 27 -80 -16z"/>
<path d="M9675 12109 c-68 -60 -27 -116 50 -70 l35 20 0 -28 c0 -16 7 -31 15
-34 16 -7 30 8 16 17 -5 3 -4 23 2 45 10 36 9 41 -14 60 -34 29 -63 26 -104
-10z m79 -7 c6 -10 -73 -57 -81 -48 -4 3 4 17 17 31 23 25 54 33 64 17z"/>
<path d="M15505 12128 c-57 -31 -116 -111 -97 -130 7 -7 19 3 35 30 29 44 75
85 91 79 12 -4 13 -23 3 -79 -6 -41 1 -49 19 -20 22 35 27 98 9 116 -19 19
-32 20 -60 4z"/>
<path d="M16575 12128 c-65 -36 -86 -96 -45 -133 37 -33 136 9 141 60 6 72
-38 106 -96 73z m65 -73 c-13 -38 -85 -60 -97 -30 -7 20 23 54 62 71 26 11 31
10 36 -4 4 -9 3 -26 -1 -37z"/>
<path d="M7741 12110 c-8 -4 -11 -13 -7 -19 4 -6 1 -23 -7 -38 -26 -51 -3 -67
53 -38 45 23 38 68 -15 98 -6 3 -17 2 -24 -3z m28 -71 c-19 -12 -24 -2 -8 17
9 11 14 13 17 4 3 -7 -2 -16 -9 -21z"/>
<path d="M7975 12110 c-3 -5 -15 -10 -25 -10 -24 0 -77 -67 -64 -80 6 -6 28 6
59 31 48 40 67 40 46 0 -11 -20 -5 -51 9 -51 11 0 33 87 27 105 -7 17 -42 20
-52 5z"/>
<path d="M15738 12099 c-91 -47 -54 -115 46 -85 42 13 45 13 50 -8 9 -34 7
-83 -6 -111 -13 -29 -13 -29 -68 -10 -50 18 -100 19 -133 4 -81 -37 -48 -229
38 -229 28 0 91 52 126 102 18 27 34 48 35 48 2 0 19 -8 39 -17 49 -23 55 -9
12 28 -35 30 -36 32 -22 60 29 56 9 161 -43 222 -19 21 -28 21 -74 -4z m57
-34 c0 -13 -10 -21 -32 -26 -49 -10 -60 5 -21 29 38 25 53 24 53 -3z m-42
-221 l47 -16 -30 -43 c-35 -51 -75 -85 -101 -85 -38 0 -67 118 -37 148 17 17
66 15 121 -4z"/>
<path d="M16860 12061 l-43 -60 -17 22 c-10 12 -21 19 -24 16 -8 -8 23 -69 35
-69 22 0 124 132 112 144 -12 12 -20 5 -63 -53z"/>
<path d="M15268 12068 c-35 -39 -51 -88 -28 -88 6 0 10 4 10 9 0 4 18 31 40
59 22 27 40 53 40 56 0 17 -27 1 -62 -36z"/>
<path d="M8156 12085 c-21 -21 -30 -55 -18 -67 7 -7 17 3 31 30 12 23 21 44
21 47 0 10 -19 5 -34 -10z"/>
<path d="M2210 12056 c0 -22 17 -28 40 -16 29 16 25 30 -10 30 -19 0 -30 -5
-30 -14z"/>
<path d="M7073 12013 c7 -8 21 -11 30 -7 27 10 19 23 -14 22 -26 -1 -28 -3
-16 -15z"/>
<path d="M2477 11888 c-8 -29 -23 -83 -32 -120 -12 -49 -22 -68 -34 -69 -73
-3 -133 -17 -125 -30 5 -9 107 -4 124 6 4 3 1 -21 -6 -53 -17 -70 -19 -191 -4
-176 6 6 20 56 31 110 22 108 33 124 86 124 18 0 33 5 33 10 0 6 -18 10 -40
10 -22 0 -40 1 -40 3 0 1 11 47 25 102 29 115 30 135 11 135 -7 0 -20 -22 -29
-52z"/>
<path d="M16326 11867 c-17 -28 -50 -73 -74 -100 -39 -41 -49 -47 -81 -45 -20
2 -37 -1 -37 -7 -1 -5 3 -9 8 -7 6 2 17 1 24 -2 10 -4 4 -21 -22 -63 -19 -31
-33 -62 -31 -68 10 -30 99 -45 153 -25 40 15 22 24 -45 21 -32 -1 -61 2 -64 6
-9 15 67 108 91 111 12 2 20 7 17 12 -3 5 24 54 60 109 36 55 65 103 65 106 0
3 -8 5 -17 5 -11 0 -29 -20 -47 -53z"/>
<path d="M2601 11861 c-6 -11 -11 -29 -11 -40 0 -11 -16 -83 -36 -161 -28
-109 -33 -144 -24 -153 12 -13 18 -7 103 93 l38 45 -6 -52 c-7 -57 0 -93 18
-93 8 0 12 26 12 83 0 76 -1 82 -21 85 -16 2 -34 -12 -70 -55 -26 -32 -45 -51
-42 -42 11 28 56 223 62 261 5 42 -8 59 -23 29z"/>
<path d="M4724 11843 c-3 -10 -10 -26 -15 -37 -7 -13 -7 -16 0 -11 6 3 11 2
11 -3 0 -6 -6 -12 -13 -15 -7 -3 -22 -30 -32 -61 -19 -55 -20 -56 -56 -56 -21
0 -44 -3 -53 -6 -31 -12 -16 -24 30 -24 l45 0 -6 -54 c-7 -51 -5 -57 20 -82
24 -24 32 -26 73 -20 68 9 77 26 15 26 -70 0 -87 18 -78 79 9 60 9 61 58 62
57 2 100 12 104 24 2 7 -22 9 -68 7 -67 -4 -72 -3 -64 14 4 11 13 38 20 60 8
23 21 56 29 72 20 38 20 42 1 42 -9 0 -18 -8 -21 -17z"/>
<path d="M6371 11851 c-7 -5 -10 -14 -7 -20 4 -6 1 -11 -7 -11 -7 0 -24 -11
-37 -25 -13 -14 -31 -25 -41 -25 -48 0 -109 -92 -91 -139 6 -16 0 -38 -19 -79
-41 -86 -44 -102 -20 -102 12 0 21 6 21 16 0 12 39 114 44 114 0 0 18 -6 38
-13 54 -19 107 -10 118 19 11 27 4 76 -16 115 -7 15 -10 29 -7 32 3 4 1 13 -6
20 -9 12 -3 22 29 51 23 20 38 41 35 46 -8 12 -16 12 -34 1z m-107 -139 c-27
-47 -54 -78 -54 -64 0 27 44 92 62 92 5 0 2 -13 -8 -28z m63 11 c1 -10 6 -40
12 -68 5 -27 7 -53 5 -57 -7 -11 -76 -10 -93 1 -16 10 -16 10 29 83 38 62 45
68 47 41z"/>
<path d="M6087 11818 c-14 -18 -30 -43 -36 -55 -8 -17 -21 -23 -44 -23 -18 0
-39 -5 -47 -10 -10 -6 -22 -4 -37 6 -21 13 -23 13 -23 -6 0 -14 4 -19 12 -14
8 5 9 2 4 -12 -5 -10 -10 -37 -13 -59 -4 -34 -1 -44 21 -67 26 -26 26 -26 10
-61 -10 -21 -14 -43 -10 -54 6 -14 13 -7 37 40 19 36 36 57 47 57 27 0 81 38
94 65 10 22 8 30 -10 55 -12 16 -22 35 -22 42 0 17 38 80 57 95 15 11 10 33
-7 33 -5 0 -20 -15 -33 -32z m-67 -113 c0 -14 -50 -115 -57 -115 -27 0 -44 58
-25 86 15 23 82 47 82 29z m54 -69 c-3 -9 -19 -23 -35 -32 -27 -13 -29 -13
-26 3 2 10 9 28 15 41 7 12 10 22 7 22 -4 0 -3 5 1 11 10 17 46 -24 38 -45z"/>
<path d="M12189 11843 c-3 -29 -12 -58 -38 -115 l-29 -65 -61 -7 c-34 -4 -61
-11 -61 -16 0 -11 18 -14 73 -10 34 2 38 -1 33 -17 -16 -52 -33 -154 -26 -158
5 -3 16 16 25 42 52 144 48 139 133 145 51 4 37 18 -18 18 -27 0 -50 2 -50 5
0 3 14 39 31 80 26 61 29 77 19 90 -13 16 -30 20 -31 8z"/>
<path d="M17098 11837 c-62 -28 -128 -117 -128 -171 0 -14 -8 -30 -17 -35 -10
-6 -12 -11 -5 -11 17 0 15 -65 -3 -101 -11 -19 -26 -32 -45 -36 -34 -6 -39
-18 -11 -26 45 -11 101 52 101 116 0 24 4 27 31 27 36 0 36 23 0 28 -52 8 -1
128 73 173 37 23 76 25 76 4 0 -8 5 -15 11 -15 6 0 9 12 7 28 -2 22 -8 27 -33
29 -16 1 -42 -4 -57 -10z"/>
<path d="M17899 11794 c-30 -31 -69 -71 -88 -90 -18 -19 -31 -37 -28 -40 3 -3
-3 -25 -14 -49 -23 -51 -18 -69 22 -86 24 -9 41 -9 85 1 69 17 70 32 1 24 -33
-4 -62 -2 -75 5 l-22 11 22 45 22 45 97 0 c54 0 100 4 103 9 7 11 -52 21 -121
21 -29 0 -53 4 -53 8 0 5 29 37 64 72 58 57 71 80 47 80 -4 0 -32 -25 -62 -56z"/>
<path d="M8951 11803 c-73 -38 -147 -113 -112 -113 5 0 18 10 28 23 21 26 149
95 158 85 9 -9 -16 -54 -69 -121 -64 -83 -89 -125 -82 -142 4 -12 16 -8 57 21
57 42 68 37 62 -26 -3 -30 1 -44 17 -60 27 -27 33 -26 76 12 45 40 64 82 64
146 0 27 5 63 11 81 13 38 5 51 -17 29 -10 -9 -18 -40 -20 -79 -7 -93 -11
-105 -45 -144 -49 -56 -69 -44 -69 41 0 52 -17 65 -55 40 -37 -24 -31 -10 29
69 65 84 80 118 66 146 -14 26 -36 24 -99 -8z"/>
<path d="M9357 11823 c-4 -3 -7 -20 -7 -37 0 -17 -13 -59 -30 -93 -16 -35 -27
-63 -25 -63 2 0 -13 -35 -35 -77 -25 -49 -36 -81 -30 -87 14 -14 50 22 43 42
-3 12 -2 13 4 5 7 -9 16 -7 38 7 50 33 63 27 57 -25 -4 -37 -2 -45 12 -45 9 0
15 3 14 8 -1 4 1 24 6 45 5 25 3 43 -5 53 -15 18 -59 18 -83 -1 -23 -17 -50
-20 -41 -4 4 6 10 8 13 5 4 -5 59 110 66 139 1 6 7 20 14 32 7 12 12 40 12 62
0 38 -8 50 -23 34z"/>
<path d="M5777 11786 c-14 -15 -37 -50 -52 -79 -23 -42 -27 -60 -21 -90 7 -36
39 -67 51 -48 3 5 1 12 -5 16 -22 14 -9 72 31 139 28 47 38 71 31 78 -7 7 -18
2 -35 -16z"/>
<path d="M12336 11668 c-66 -140 -82 -186 -68 -200 7 -7 26 2 59 31 27 22 52
41 56 41 3 0 1 -14 -5 -31 -16 -46 5 -59 25 -16 39 81 13 111 -52 62 -19 -13
-36 -23 -38 -21 -2 1 4 19 12 39 12 29 12 37 3 37 -7 0 -3 8 8 18 22 17 39 46
67 115 14 33 14 37 1 37 -10 0 -35 -42 -68 -112z"/>
<path d="M13742 11734 c1 -9 9 -19 16 -22 9 -3 13 2 10 14 -1 9 -9 19 -16 22
-9 3 -13 -2 -10 -14z"/>
<path d="M10494 11694 c-43 -20 -90 -39 -103 -43 -14 -4 -26 -12 -29 -19 -6
-18 67 -2 131 30 31 15 57 25 57 22 0 -3 -20 -37 -45 -74 -24 -37 -47 -74 -51
-83 -10 -27 19 -30 77 -8 30 12 55 21 57 21 1 0 7 -11 12 -25 24 -62 94 -3
104 88 3 31 3 57 -2 57 -19 0 -32 -27 -32 -65 0 -29 -6 -47 -20 -60 -19 -17
-20 -17 -29 9 -8 18 -18 26 -35 26 -14 0 -27 -4 -30 -9 -6 -8 -56 -22 -56 -14
0 5 24 47 31 53 14 12 59 91 59 104 0 27 -16 25 -96 -10z"/>
<path d="M4419 11710 c-42 -12 -69 -30 -69 -46 0 -8 13 -35 30 -59 32 -46 31
-68 -2 -86 -15 -8 -24 -7 -37 5 -24 22 -33 20 -29 -6 5 -35 51 -47 85 -22 46
34 49 66 13 119 l-31 45 35 15 c19 8 47 15 61 15 25 0 37 19 13 21 -7 0 -20 2
-28 3 -8 2 -27 0 -41 -4z"/>
<path d="M7012 11700 c-10 -11 -29 -43 -42 -70 -24 -51 -40 -64 -40 -31 0 32
-22 81 -36 81 -8 0 -14 -2 -14 -5 0 -8 28 -110 35 -127 4 -11 -13 -58 -50
-132 -55 -110 -65 -154 -37 -164 7 -2 12 5 12 20 0 40 100 236 124 242 16 5
18 8 8 14 -17 11 40 134 74 161 13 11 24 22 24 25 0 14 -41 4 -58 -14z"/>
<path d="M13431 11698 c-45 -12 -88 -45 -114 -88 -12 -19 -26 -39 -32 -45 -7
-5 -22 -50 -34 -99 -12 -49 -35 -119 -51 -157 -35 -78 -35 -79 -14 -79 20 0
69 108 91 199 16 67 17 69 37 55 28 -19 60 -18 104 5 87 45 134 132 99 184
-19 30 -42 36 -86 25z m53 -34 c23 -23 19 -58 -10 -94 -29 -34 -92 -70 -123
-70 -23 0 -40 26 -38 55 3 35 88 104 154 124 1 1 9 -6 17 -15z"/>
<path d="M14922 11670 c-36 -36 -70 -126 -53 -143 7 -7 13 -2 21 19 25 68 33
83 55 104 13 12 35 23 49 23 29 0 34 12 10 21 -31 12 -53 6 -82 -24z"/>
<path d="M15163 11685 c-46 -20 -43 -48 7 -80 45 -28 49 -39 21 -55 -23 -12
-72 -14 -70 -2 3 19 -3 22 -21 12 -64 -34 35 -80 105 -48 50 23 42 82 -17 118
-29 17 -29 19 -10 29 11 6 33 11 47 11 17 0 25 5 23 13 -6 18 -48 19 -85 2z"/>
<path d="M17212 11691 c4 -13 18 -16 19 -4 0 4 -5 9 -11 12 -7 2 -11 -2 -8 -8z"/>
<path d="M7192 11672 c-34 -26 -49 -63 -45 -112 4 -59 32 -84 86 -77 37 5 93
34 84 43 -3 3 -24 0 -47 -6 -51 -14 -86 -7 -92 17 -5 23 1 55 10 49 14 -8 97
40 100 57 9 44 -52 62 -96 29z m68 -20 c0 -5 -18 -16 -40 -25 -46 -18 -49 -16
-18 13 22 20 58 27 58 12z"/>
<path d="M7895 11681 c-44 -11 -75 -30 -75 -46 0 -8 19 -27 43 -43 49 -35 83
-70 74 -78 -10 -10 -80 -6 -112 6 -23 9 -26 13 -15 20 12 7 11 10 -4 16 -22 8
-49 -17 -41 -38 9 -23 66 -48 113 -50 42 -1 92 23 92 45 0 27 -42 78 -82 98
l-43 23 40 12 c22 7 50 13 62 13 16 1 21 6 17 16 -7 16 -21 17 -69 6z"/>
<path d="M14695 11675 c-110 -39 -111 -154 -1 -170 47 -7 106 1 106 15 0 4
-22 8 -50 8 -76 1 -111 31 -95 81 6 19 82 57 93 47 7 -8 -18 -36 -33 -36 -16
0 -40 -28 -31 -37 3 -4 27 3 51 15 47 23 59 54 33 80 -15 15 -23 15 -73 -3z"/>
<path d="M3883 11634 c-24 -26 -43 -52 -43 -57 0 -6 -6 -2 -14 9 -12 16 -15
16 -19 4 -17 -56 -70 -279 -71 -299 -2 -42 22 -35 34 11 6 24 23 78 38 120 26
73 28 76 54 71 32 -6 88 24 112 62 32 49 13 125 -32 125 -8 0 -35 -21 -59 -46z
m77 -20 c0 -34 -25 -70 -61 -84 -37 -16 -42 -11 -24 24 8 16 15 34 15 41 0 17
49 57 61 49 5 -3 9 -16 9 -30z"/>
<path d="M7391 11654 c-24 -20 -31 -34 -29 -53 3 -24 6 -26 56 -26 44 1 52 -2
52 -18 0 -30 19 -57 40 -57 24 0 26 13 5 30 -10 8 -15 30 -15 62 0 35 -4 48
-12 46 -7 -3 -17 5 -23 16 -15 30 -38 30 -74 0z m62 -23 c5 -21 -10 -31 -44
-31 -25 0 -24 15 3 34 29 21 35 20 41 -3z"/>
<path d="M7658 11663 c-8 -10 -21 -29 -30 -43 -18 -30 -32 -120 -18 -120 6 0
13 0 18 0 4 0 7 6 8 13 3 76 35 141 65 132 25 -8 25 11 0 25 -25 13 -25 13
-43 -7z"/>
<path d="M14414 11666 c-65 -28 -95 -104 -56 -140 22 -19 93 -26 99 -10 2 6
-15 15 -39 20 -57 12 -64 39 -11 47 68 11 103 53 71 85 -15 15 -25 15 -64 -2z
m46 -30 c0 -18 -6 -22 -50 -31 -32 -7 -34 -6 -20 10 13 16 44 33 63 34 4 1 7
-5 7 -13z"/>
<path d="M4170 11663 c-54 -17 -100 -67 -100 -106 0 -32 36 -39 81 -17 23 12
39 18 36 13 -10 -16 13 -53 33 -53 24 0 27 15 4 24 -9 3 -13 13 -10 23 23 80
16 91 -30 48 -41 -38 -106 -48 -76 -12 7 8 10 17 7 20 -3 4 -2 5 1 2 4 -2 20
7 36 20 16 14 40 25 54 25 13 0 24 5 24 10 0 10 -33 12 -60 3z"/>
<path d="M11102 11647 c-12 -12 -23 -33 -25 -45 -2 -12 -6 -25 -10 -28 -10
-10 -9 -54 1 -54 10 0 32 44 32 63 0 7 7 23 16 35 12 18 19 20 29 12 9 -8 20
-8 30 -2 16 8 16 10 0 25 -23 23 -48 21 -73 -6z"/>
<path d="M16378 11649 c-59 -43 -22 -99 65 -99 90 0 113 38 56 91 -37 35 -81
38 -121 8z m83 -30 c41 -29 36 -39 -21 -39 -57 0 -78 22 -45 46 25 18 32 18
66 -7z"/>
<path d="M17552 11658 c-49 -13 -50 -34 -6 -73 50 -43 38 -59 -41 -56 -54 1
-74 -12 -36 -24 44 -14 100 -9 120 9 29 27 26 50 -10 81 -35 29 -35 31 4 40
17 5 27 3 27 -4 0 -6 5 -11 11 -11 18 0 5 32 -16 40 -11 4 -35 3 -53 -2z"/>
<path d="M11334 11638 c-45 -35 -83 -92 -70 -105 2 -3 39 8 81 24 53 19 80 35
88 50 23 50 -46 72 -99 31z m61 -28 c-11 -10 -38 -26 -60 -36 l-40 -16 34 36
c22 23 44 36 60 36 25 0 25 0 6 -20z"/>
<path d="M17309 11626 c-44 -32 -79 -86 -79 -120 0 -9 5 -16 10 -16 6 0 10 7
10 15 0 9 24 40 54 71 47 48 57 54 81 48 25 -6 26 -5 16 15 -16 29 -38 26 -92
-13z"/>
<path d="M2838 11610 c-35 -35 -40 -44 -34 -72 3 -17 11 -37 17 -44 16 -20 83
-36 116 -28 56 12 63 16 63 30 0 14 -13 14 -73 -3 -28 -7 -85 16 -93 39 -7 23
9 38 41 38 61 1 96 40 59 67 -30 22 -54 15 -96 -27z m58 -5 c-25 -19 -37 -19
-30 0 4 8 16 15 28 15 21 -1 21 -1 2 -15z"/>
<path d="M14070 11630 c0 -10 -13 -35 -30 -53 -54 -62 -30 -65 41 -6 41 34 50
38 55 24 4 -9 2 -34 -5 -54 -23 -78 -1 -100 25 -26 18 51 18 86 0 110 -12 17
-18 18 -40 7 -22 -10 -26 -9 -26 3 0 8 -4 15 -10 15 -5 0 -10 -9 -10 -20z"/>
<path d="M10885 11621 c-79 -49 -98 -112 -41 -139 32 -16 136 -8 136 10 0 7
-13 8 -35 5 -44 -7 -105 9 -105 28 0 11 12 15 43 15 33 0 49 6 67 25 22 23 22
25 6 50 -20 30 -31 31 -71 6z m45 -25 c0 -17 -5 -21 -45 -30 l-30 -7 30 25
c35 29 45 32 45 12z"/>
<path d="M13831 11611 c-14 -4 -25 -15 -27 -26 -1 -11 -5 -30 -9 -42 -5 -16
-1 -24 15 -33 28 -15 104 -5 121 16 11 13 6 22 -29 55 -24 21 -44 39 -45 38
-1 -1 -13 -4 -26 -8z m58 -61 c11 -6 4 -11 -24 -19 -46 -12 -59 -7 -44 20 10
20 30 19 68 -1z"/>
<path d="M12606 11595 c-51 -18 -78 -46 -78 -80 0 -36 21 -56 68 -61 44 -6
125 15 132 34 3 9 -3 10 -23 2 -34 -13 -101 -13 -126 0 -29 16 -23 37 14 43
56 9 87 25 87 46 0 14 -21 34 -33 31 -1 -1 -20 -7 -41 -15z m54 -14 c0 -9 -52
-31 -72 -31 -15 0 3 21 26 30 28 12 46 12 46 1z"/>
<path d="M13650 11564 c-17 -33 -20 -48 -11 -57 6 -6 12 -9 13 -6 12 19 48 96
48 102 0 4 -6 7 -14 7 -8 0 -24 -21 -36 -46z"/>
<path d="M17105 11567 c-19 -35 -14 -94 6 -81 6 3 8 8 5 11 -3 3 1 21 9 40 28
66 12 88 -20 30z"/>
<path d="M9558 11565 c-6 -13 -14 -22 -18 -20 -5 3 -10 -2 -14 -10 -8 -23 22
-18 36 5 16 25 30 25 51 2 24 -26 21 -55 -7 -81 -34 -32 -61 -24 -61 17 0 24
-4 32 -17 32 -28 0 -24 -64 4 -84 33 -23 53 -20 93 15 43 38 46 74 9 118 -31
37 -60 40 -76 6z"/>
<path d="M8044 11515 c-12 -30 16 -45 46 -25 13 9 12 12 -4 25 -25 19 -35 19
-42 0z"/>
<path d="M11282 11518 c-9 -9 -8 -16 5 -30 12 -13 31 -18 72 -18 114 0 140 26
29 28 -52 1 -76 5 -84 16 -8 12 -14 12 -22 4z"/>
<path d="M4871 11293 c-11 -32 -26 -80 -32 -106 -7 -27 -17 -50 -23 -52 -6 -2
-23 -6 -38 -9 -37 -8 -36 -26 2 -26 36 0 38 -16 10 -79 -11 -23 -17 -47 -14
-52 14 -23 31 -3 53 65 21 67 26 75 53 80 16 3 27 10 24 15 -3 5 -15 7 -27 4
-19 -5 -20 -3 -13 33 4 22 17 69 30 105 28 78 28 79 10 79 -7 0 -23 -25 -35
-57z"/>
<path d="M7145 11338 c-2 -7 -12 -53 -23 -103 l-18 -90 -48 -2 c-58 -3 -107
-36 -136 -93 -31 -61 -22 -100 22 -100 26 0 78 28 78 41 0 11 -6 10 -69 -7
-22 -7 -23 -5 -17 21 11 44 44 83 86 105 38 19 70 26 70 15 0 -12 -33 -71 -51
-90 -11 -12 -15 -25 -10 -33 6 -10 15 -5 35 19 42 49 65 102 82 187 9 42 22
87 29 98 10 16 11 24 2 33 -14 14 -27 14 -32 -1z"/>
<path d="M4215 11293 c-40 -83 -78 -234 -68 -271 9 -37 20 -24 28 32 3 30 22
103 41 161 38 118 37 115 26 115 -5 0 -16 -17 -27 -37z"/>
<path d="M9454 11299 c-41 -11 -120 -82 -143 -128 -10 -20 -24 -55 -31 -78
-11 -37 -17 -42 -49 -47 -70 -10 -101 -18 -101 -27 0 -11 18 -11 84 0 l48 8
-6 -41 c-4 -23 -18 -64 -31 -92 -29 -59 -119 -149 -141 -140 -8 3 -14 -1 -14
-10 0 -49 81 -7 143 75 36 46 77 144 77 182 0 27 22 34 89 31 l61 -4 -26 -33
c-14 -19 -24 -42 -22 -52 7 -36 78 -28 104 12 13 20 14 30 5 58 -7 19 -20 42
-30 52 -18 16 -19 15 -23 -1 -2 -12 -13 -17 -36 -18 -17 -1 -32 2 -32 7 0 4
-18 7 -39 7 -39 0 -39 1 -32 28 12 41 46 104 72 131 32 34 106 64 140 57 37
-7 48 12 12 20 -15 3 -32 7 -38 8 -5 2 -24 -1 -41 -5z m26 -309 c0 -14 -30
-40 -46 -40 -12 0 -10 7 8 29 21 26 38 31 38 11z"/>
<path d="M12210 11296 c-19 -7 -36 -20 -38 -29 -4 -20 9 -22 26 -4 15 14 205
18 218 4 15 -15 -12 -42 -112 -110 -129 -88 -178 -139 -169 -175 8 -33 23 -52
41 -52 19 0 5 30 -15 31 -9 0 -11 3 -4 5 7 3 10 11 7 18 -8 22 34 63 146 140
114 79 140 106 140 143 0 17 -8 24 -37 32 -51 14 -160 12 -203 -3z"/>
<path d="M7806 11221 c-6 -10 22 -37 29 -29 8 7 -5 38 -15 38 -5 0 -11 -4 -14
-9z"/>
<path d="M11560 11213 c1 -14 27 -43 33 -37 8 9 -11 44 -23 44 -6 0 -10 -3
-10 -7z"/>
<path d="M5666 11183 c-11 -11 -6 -23 9 -23 8 0 15 4 15 9 0 13 -16 22 -24 14z"/>
<path d="M4371 11159 c-60 -37 -82 -125 -37 -154 18 -12 29 -13 43 -6 10 5 26
12 36 15 9 3 17 10 17 17 0 7 -7 8 -17 4 -42 -18 -63 -17 -70 1 -4 12 -1 21
12 28 40 24 85 69 85 86 0 26 -34 30 -69 9z m29 -35 c-8 -8 -22 -20 -32 -25
-17 -9 -18 -8 -9 9 10 19 25 29 45 31 5 1 3 -6 -4 -15z"/>
<path d="M2305 11140 c-23 -44 -153 -170 -175 -170 -21 0 -27 -15 -10 -25 12
-7 70 26 115 64 16 14 27 22 23 17 -10 -11 9 -46 25 -46 7 0 28 14 47 30 l35
30 3 -31 c4 -33 26 -49 45 -30 8 8 8 11 -1 11 -7 0 -12 9 -12 20 0 11 -5 20
-11 20 -6 0 -3 7 5 16 19 18 21 64 4 64 -7 0 -36 -24 -66 -52 l-53 -53 14 40
c8 22 24 56 36 75 25 41 26 50 6 50 -8 0 -21 -13 -30 -30z"/>
<path d="M4640 11161 c-8 -6 -18 -8 -22 -5 -12 8 -58 -27 -72 -55 -26 -50 12
-91 84 -91 35 0 60 9 60 21 0 6 -10 9 -22 8 -47 -4 -77 2 -94 18 -15 16 -14
19 21 51 31 29 42 33 71 29 38 -6 43 -1 17 19 -22 16 -24 16 -43 5z"/>
<path d="M7304 11159 c-49 -14 -123 -125 -108 -163 14 -38 122 -41 131 -4 3
10 9 18 14 18 5 0 9 5 9 10 0 19 -32 10 -37 -10 -6 -22 -41 -27 -73 -10 -28
15 -14 45 30 65 21 10 51 30 66 46 24 25 26 31 14 43 -11 9 -24 11 -46 5z m32
-28 c-3 -5 -23 -19 -43 -31 -31 -18 -35 -19 -22 -3 8 10 21 23 29 30 17 14 44
17 36 4z"/>
<path d="M2546 11139 c-27 -21 -35 -49 -13 -49 9 0 9 -2 0 -8 -8 -5 -9 -13 -3
-22 30 -48 -14 -95 -66 -71 -22 10 -25 9 -22 -6 5 -28 54 -40 86 -22 37 20 49
60 33 106 -12 33 -12 38 5 50 11 8 31 17 47 20 38 8 34 23 -7 23 -19 0 -45 -9
-60 -21z"/>
<path d="M3891 11132 c-11 -16 -23 -40 -26 -55 -6 -21 -12 -26 -26 -22 -11 4
-19 2 -19 -4 0 -6 4 -11 9 -11 6 0 23 -12 38 -26 25 -24 28 -24 31 -8 2 11 11
24 19 31 18 14 7 37 -13 29 -18 -7 -18 -2 1 34 9 18 24 30 35 30 25 0 25 -8
-1 -36 -17 -19 -18 -22 -4 -27 19 -8 55 26 55 51 0 49 -67 58 -99 14z"/>
<path d="M5030 11129 c-33 -34 -70 -98 -70 -124 0 -29 20 -15 40 29 12 24 32
54 45 66 20 19 27 21 40 10 23 -19 29 -5 10 24 -22 33 -27 33 -65 -5z"/>
<path d="M10509 11130 c-28 -19 -51 -27 -63 -24 -15 5 -18 3 -13 -11 4 -10 -3
-29 -18 -49 -14 -18 -25 -38 -25 -44 0 -22 27 -12 41 15 14 27 103 103 120
103 6 0 -2 -16 -16 -35 -41 -54 -21 -57 52 -9 95 62 115 59 93 -15 -5 -19 -7
-38 -4 -43 11 -17 32 13 39 52 13 77 -14 102 -77 72 -37 -19 -38 -19 -38 -1 0
29 -40 24 -91 -11z"/>
<path d="M8204 11116 c-108 -73 -89 -156 36 -156 25 0 52 5 60 10 8 5 13 10
10 10 -3 1 -26 3 -51 5 -107 10 -132 45 -46 65 68 16 87 27 87 49 0 15 -28 51
-41 51 -2 0 -27 -15 -55 -34z m66 -16 c0 -11 -62 -40 -70 -33 -7 6 42 43 58
43 6 0 12 -4 12 -10z"/>
<path d="M8449 11134 c-11 -13 -10 -23 5 -62 16 -44 16 -47 -1 -59 -20 -15
-83 -17 -83 -3 0 6 -4 10 -10 10 -12 0 -13 -30 -1 -48 20 -33 122 -5 136 37 4
15 -3 52 -20 93 -5 12 1 18 24 23 17 4 31 11 31 16 0 15 -67 10 -81 -7z"/>
<path d="M11234 11135 c-3 -8 4 -26 15 -41 12 -15 21 -37 21 -50 0 -18 -7 -24
-34 -30 -43 -7 -62 2 -45 22 9 11 7 14 -15 14 -25 0 -31 -8 -26 -40 6 -41 81
-53 124 -19 30 24 35 71 11 106 -14 19 -13 21 14 26 15 3 38 3 50 0 24 -6 29
12 5 21 -32 12 -114 6 -120 -9z"/>
<path d="M2747 11120 c-45 -36 -55 -121 -19 -162 27 -32 102 -18 162 31 35 28
21 34 -25 11 -47 -24 -104 -36 -114 -24 -5 5 -11 21 -15 37 -5 20 -3 27 8 27
52 0 111 58 91 89 -10 18 -61 12 -88 -9z m48 -26 c-11 -9 -28 -20 -39 -26 -14
-8 -17 -7 -11 4 18 29 28 38 49 38 21 -1 21 -1 1 -16z"/>
<path d="M5235 11088 c0 -42 -3 -53 -17 -56 -14 -3 -18 3 -18 22 0 16 6 26 15
26 20 0 19 19 -1 27 -37 14 -60 -70 -28 -101 21 -22 31 -20 59 9 34 33 34 125
1 125 -8 0 -12 -18 -11 -52z"/>
<path d="M5438 11127 c-66 -29 -128 -117 -83 -117 8 0 15 6 15 14 0 15 64 76
80 76 14 0 12 -14 -6 -60 -9 -23 -14 -44 -10 -47 12 -12 37 -12 33 0 -2 7 4
36 14 64 16 47 16 54 3 68 -9 8 -16 15 -17 15 -1 -1 -14 -6 -29 -13z"/>
<path d="M7616 11117 c-3 -13 -26 -46 -52 -73 -46 -49 -46 -49 -55 -25 -5 13
-8 40 -7 59 2 19 -2 37 -8 39 -12 4 -19 -96 -8 -129 5 -16 11 -18 32 -13 15 4
36 14 46 23 35 31 76 95 76 119 0 30 -16 30 -24 0z"/>
<path d="M10875 11095 c-26 -44 -67 -75 -100 -75 -8 0 -15 -4 -15 -10 0 -12
25 -13 67 -1 20 6 35 6 38 0 10 -15 58 -10 92 11 32 19 32 19 38 0 7 -21 49
-28 60 -10 3 6 -1 10 -9 10 -21 0 -29 17 -16 39 17 33 -3 32 -68 -2 -61 -32
-89 -32 -59 0 19 22 26 74 10 80 -6 2 -24 -17 -38 -42z"/>
<path d="M7913 11119 c-38 -11 -83 -62 -83 -94 0 -32 29 -46 98 -48 78 -3 77
16 0 26 -34 4 -64 10 -67 12 -12 13 23 57 56 72 49 22 48 22 37 32 -5 4 -23 4
-41 0z"/>
<path d="M11666 11090 c-41 -45 -47 -87 -17 -114 19 -17 40 -21 101 -18 47 3
60 13 53 40 -6 24 -23 30 -23 8 0 -17 -77 -28 -102 -15 -10 5 -18 18 -18 28 0
25 37 70 66 81 31 12 31 30 0 30 -15 0 -37 -15 -60 -40z"/>
<path d="M5762 11090 c-54 -39 -65 -60 -51 -98 13 -38 55 -56 114 -50 42 5
102 34 92 44 -2 3 -26 0 -53 -6 -74 -17 -128 6 -117 50 7 25 66 62 87 54 12
-4 16 0 16 15 0 31 -39 27 -88 -9z"/>
<path d="M9655 11111 c-40 -17 -83 -90 -85 -143 0 -36 26 -16 38 28 7 25 23
56 37 70 22 21 31 24 68 19 37 -6 40 -5 27 9 -20 19 -60 27 -85 17z"/>
<path d="M7702 11073 c-19 -49 -22 -68 -13 -81 6 -10 10 -10 21 3 7 8 10 15 7
15 -5 0 4 38 18 73 5 12 2 17 -8 17 -8 0 -19 -12 -25 -27z"/>
<path d="M11450 11058 c-30 -41 -38 -68 -20 -68 11 0 70 84 70 99 0 22 -21 10
-50 -31z"/>
<path d="M5586 11041 c-19 -60 -20 -84 -3 -79 6 3 13 19 15 36 2 18 7 32 13
32 5 0 9 14 9 30 0 45 -16 36 -34 -19z"/>
<path d="M3910 10993 c0 -12 9 -14 41 -10 63 8 70 25 10 25 -39 0 -51 -4 -51
-15z"/>
<path d="M12128 10753 c-21 -5 -24 -33 -5 -33 14 0 37 20 37 32 0 8 -4 9 -32
1z"/>
<path d="M7573 8963 c-23 -104 -64 -245 -89 -307 l-26 -65 -56 -12 c-58 -12
-92 -28 -92 -43 0 -5 15 -5 33 -1 17 4 48 10 68 14 l36 8 -28 -81 c-15 -44
-25 -84 -22 -89 9 -14 38 40 63 115 l23 68 48 6 c60 8 65 24 8 24 -35 0 -40 3
-36 18 3 9 17 51 31 92 31 95 76 260 76 283 0 37 -27 15 -37 -30z"/>
<path d="M11491 8963 c-56 -28 -132 -124 -208 -265 -61 -113 -75 -133 -97
-136 -30 -4 -35 -22 -7 -22 18 0 16 -8 -20 -85 -22 -47 -39 -93 -37 -102 4
-24 28 -28 28 -6 0 11 20 61 45 111 l44 92 41 1 c22 1 45 3 50 4 6 1 15 3 20
4 6 0 10 5 10 9 0 5 -25 7 -56 4 l-57 -5 58 111 c62 120 143 226 194 255 l32
19 -7 -27 c-6 -25 -5 -26 15 -13 51 31 8 78 -48 51z"/>
<path d="M7770 8936 c-5 -14 -23 -71 -41 -127 -31 -102 -59 -170 -105 -262
-27 -54 -29 -61 -14 -52 6 3 10 -1 10 -9 0 -9 -8 -16 -19 -16 -13 0 -27 -16
-45 -51 -24 -49 -26 -69 -7 -69 5 0 20 18 35 40 25 39 108 121 128 129 7 2 8
-9 4 -30 -17 -94 -18 -109 -8 -109 15 0 44 105 40 143 -4 45 -29 45 -78 1 -41
-38 -44 -29 -9 30 10 16 15 35 12 42 -3 8 -1 14 4 14 13 0 35 49 28 61 -4 5
-2 9 4 9 8 0 35 68 46 116 2 10 13 46 24 78 12 33 21 65 21 73 0 22 -20 15
-30 -11z"/>
<path d="M4797 8853 c-2 -5 -8 -26 -11 -47 -8 -41 -76 -211 -147 -364 -31 -67
-40 -95 -32 -103 8 -8 26 4 65 46 55 60 105 92 118 78 5 -4 2 -28 -7 -51 -8
-24 -12 -47 -8 -50 10 -10 33 22 44 62 24 91 -41 103 -128 22 l-33 -31 25 51
c69 137 154 374 139 389 -8 7 -20 6 -25 -2z"/>
<path d="M15260 8778 c-79 -210 -113 -278 -157 -318 -47 -44 -63 -49 -63 -21
0 26 48 71 76 71 13 0 24 5 24 10 0 18 -29 23 -61 10 -84 -35 -95 -156 -12
-136 61 16 169 181 218 336 10 30 23 66 30 80 14 28 10 50 -10 50 -8 0 -27
-36 -45 -82z"/>
<path d="M3387 8730 c-15 -50 -25 -96 -21 -102 4 -6 3 -8 -3 -5 -7 4 -19 -26
-32 -78 -33 -133 -26 -158 24 -84 16 22 36 44 46 50 16 8 17 6 8 -23 -13 -46
-11 -78 4 -78 16 0 36 104 24 125 -11 20 -23 19 -57 -5 l-29 -21 19 70 c11 39
31 100 45 137 28 73 31 104 13 104 -7 0 -25 -40 -41 -90z"/>
<path d="M3879 8818 c0 -2 -3 -16 -5 -33 -3 -16 -18 -74 -35 -127 l-30 -97
-45 -7 c-60 -9 -53 -30 9 -26 29 1 47 -2 47 -8 0 -6 -4 -9 -9 -5 -10 6 -11 5
-40 -102 -11 -40 -16 -73 -12 -73 13 0 30 25 35 51 3 13 5 25 7 27 2 2 1 0 19
65 10 39 16 47 36 47 13 0 24 5 24 11 0 6 9 8 20 4 11 -3 28 -2 37 4 21 12 15
13 -51 11 -41 -1 -48 1 -43 14 4 9 2 16 -3 16 -6 0 -10 5 -10 10 0 6 5 9 12 8
6 -2 21 28 34 67 24 73 31 145 14 145 -5 0 -10 -1 -11 -2z"/>
<path d="M6002 8803 c-5 -10 -22 -67 -36 -128 -31 -125 -92 -275 -112 -275
-16 0 -29 -43 -19 -61 5 -8 24 -9 59 -5 88 10 171 89 136 130 -15 19 -53 21
-82 5 -16 -9 -19 -8 -15 3 3 7 20 58 37 113 64 209 70 235 50 235 -5 0 -13 -8
-18 -17z m8 -363 c0 -18 -50 -58 -87 -71 -42 -13 -47 -10 -27 20 30 43 114 80
114 51z"/>
<path d="M10284 8793 c-32 -49 -63 -116 -58 -125 3 -4 -1 -8 -9 -8 -7 0 -21
-16 -30 -35 -13 -26 -23 -35 -42 -35 -14 0 -25 -4 -25 -10 0 -5 9 -10 19 -10
24 0 36 -16 17 -23 -13 -5 -36 -78 -36 -116 0 -35 38 -61 92 -61 61 0 62 14 1
26 -64 13 -72 29 -47 106 l20 63 72 3 c87 3 97 22 12 22 -33 0 -60 3 -60 8 0
4 15 32 33 62 55 92 91 208 41 133z"/>
<path d="M12816 8799 c-3 -8 -12 -43 -20 -79 -18 -81 -79 -227 -120 -288 -33
-50 -112 -100 -129 -83 -12 12 36 96 67 116 13 9 31 12 41 9 13 -5 16 -2 13
12 -10 54 -98 2 -138 -82 -21 -42 -21 -46 -6 -69 20 -31 25 -31 91 1 43 20 61
36 90 82 70 112 151 360 126 385 -7 7 -12 6 -15 -4z"/>
<path d="M2945 8722 c-58 -39 -135 -113 -135 -129 0 -20 15 -15 29 10 12 22
139 113 147 105 2 -3 -21 -56 -51 -118 -30 -63 -55 -123 -55 -133 0 -27 24
-30 68 -8 l41 21 18 -38 c21 -42 56 -64 87 -53 29 11 72 92 84 160 25 135 25
141 4 141 -22 0 -27 -19 -37 -127 -4 -47 -43 -145 -62 -156 -22 -13 -54 15
-65 58 -13 49 -28 56 -66 29 -12 -8 -26 -14 -31 -12 -5 2 15 54 45 117 76 160
70 196 -21 133z"/>
<path d="M1888 8688 c-32 -31 -39 -43 -27 -45 9 -2 31 10 49 27 25 23 40 30
57 25 25 -6 30 4 11 23 -21 21 -46 13 -90 -30z"/>
<path d="M15477 8713 c-11 -10 -8 -43 3 -43 12 0 31 35 23 44 -8 8 -18 8 -26
-1z"/>
<path d="M8970 8681 c0 -6 5 -13 10 -16 6 -3 10 1 10 9 0 9 -4 16 -10 16 -5 0
-10 -4 -10 -9z"/>
<path d="M13066 8642 c-7 -12 5 -52 15 -52 5 0 9 14 9 30 0 28 -13 40 -24 22z"/>
<path d="M1819 8586 c-24 -54 -41 -140 -32 -163 10 -30 35 -53 56 -53 32 0
117 51 117 71 0 23 -37 49 -70 49 -36 0 -65 -23 -57 -44 8 -19 44 -17 40 2 -3
13 25 16 44 4 16 -10 -27 -46 -60 -50 -38 -4 -50 24 -36 90 6 29 19 70 29 90
10 20 15 39 12 42 -13 14 -24 3 -43 -38z"/>
<path d="M14085 8618 c-28 -15 -105 -91 -105 -103 0 -6 -15 -35 -34 -65 -32
-51 -37 -70 -16 -70 5 0 39 45 75 100 65 101 89 121 133 114 30 -6 28 10 -3
24 -30 14 -25 14 -50 0z"/>
<path d="M15585 8601 c-50 -23 -165 -118 -165 -137 0 -26 22 -14 85 45 64 59
113 86 100 53 -4 -9 -10 -25 -12 -34 -3 -10 -13 -18 -23 -18 -10 0 -20 -9 -23
-20 -5 -20 7 -28 18 -10 3 5 12 7 20 4 10 -4 23 12 42 50 24 49 25 58 13 71
-13 12 -20 12 -55 -4z"/>
<path d="M7950 8565 c-51 -38 -100 -104 -100 -135 0 -38 32 -64 67 -56 51 12
83 28 83 42 0 8 8 14 18 15 10 0 12 3 5 6 -7 2 -26 -2 -43 -10 -52 -26 -89
-31 -96 -12 -10 25 12 64 41 71 14 3 26 10 26 15 3 20 5 24 12 37 5 6 13 12
19 12 6 0 6 -6 -2 -15 -17 -20 -4 -32 18 -19 22 14 23 68 2 72 -9 1 -31 -9
-50 -23z"/>
<path d="M14892 8565 c-34 -29 -87 -128 -77 -144 11 -19 21 -12 44 30 34 60
80 109 103 109 28 0 17 24 -14 28 -16 2 -37 -7 -56 -23z"/>
<path d="M5239 8565 c-15 -8 -30 -22 -33 -31 -7 -19 17 -62 40 -71 8 -3 14
-13 14 -22 0 -39 -49 -54 -80 -26 -15 14 -19 14 -31 -1 -12 -14 -10 -19 10
-35 29 -24 69 -24 97 -1 49 41 48 84 -1 116 -22 15 -24 20 -14 33 7 8 23 19
36 24 13 5 23 13 23 19 0 14 -30 12 -61 -5z"/>
<path d="M14176 8540 c-24 -22 -46 -48 -48 -58 -14 -51 40 -98 98 -87 42 7 40
14 -6 20 -64 8 -81 45 -21 45 58 0 95 52 75 104 -11 28 -52 18 -98 -24z m74
-5 c0 -23 -37 -55 -65 -55 -22 0 -24 2 -14 19 12 18 57 50 72 51 4 0 7 -7 7
-15z"/>
<path d="M14517 8563 c-35 -6 -117 -82 -117 -111 0 -29 28 -54 59 -50 14 1 31
0 36 -3 6 -3 21 0 35 7 26 14 22 17 -20 15 -36 -3 -80 16 -80 33 0 22 68 73
107 81 19 3 33 11 31 17 -5 14 -15 16 -51 11z"/>
<path d="M15310 8509 c-25 -49 -29 -63 -19 -70 10 -6 19 3 32 29 9 20 22 41
27 46 12 12 13 56 1 56 -5 0 -23 -28 -41 -61z"/>
<path d="M15804 8551 c-34 -21 -64 -57 -64 -78 0 -7 9 -22 20 -33 15 -15 27
-18 52 -13 18 3 39 10 45 16 17 13 9 -31 -26 -143 l-27 -85 -94 -1 c-52 -1
-107 -6 -121 -12 -62 -25 -86 -100 -54 -162 21 -41 40 -48 93 -38 56 10 105
47 152 115 l35 50 59 -5 c53 -5 59 -3 53 12 -4 10 -7 23 -7 29 0 9 -2 9 -8 1
-9 -15 -72 -6 -72 10 0 7 11 50 25 97 30 99 47 228 32 247 -14 18 -57 15 -93
-7z m64 -38 c-6 -16 -16 -33 -22 -39 -16 -16 -64 -26 -71 -14 -15 24 44 79 87
80 15 0 16 -4 6 -27z m-126 -339 l37 -6 -30 -44 c-36 -53 -94 -94 -131 -94
-47 0 -76 72 -45 113 20 27 101 42 169 31z"/>
<path d="M9384 8486 c-50 -51 -74 -87 -112 -168 -63 -134 -76 -167 -69 -175
15 -14 36 11 81 98 46 90 50 94 82 95 63 1 128 90 122 167 -5 65 -28 61 -104
-17z m79 10 c13 -34 -68 -140 -102 -134 -26 5 -20 30 21 82 21 27 38 52 38 55
0 12 38 10 43 -3z"/>
<path d="M14672 8524 c-63 -50 -75 -110 -25 -133 19 -9 32 -8 59 5 44 21 58
47 51 97 -8 62 -34 71 -85 31z m58 -43 c0 -43 -57 -83 -80 -56 -9 11 -3 22 25
54 40 44 55 45 55 2z"/>
<path d="M6403 8529 c-27 -10 -64 -62 -68 -98 -6 -50 42 -74 77 -39 24 24 15
37 -13 20 -16 -10 -24 -10 -35 -1 -15 12 -9 33 7 23 6 -3 28 6 50 20 61 41 47
99 -18 75z m7 -44 c-7 -9 -15 -13 -17 -11 -7 7 7 26 19 26 6 0 6 -6 -2 -15z"/>
<path d="M9184 8519 c-10 -12 -32 -30 -48 -42 l-28 -20 11 21 c30 56 -3 69
-59 22 -19 -17 -39 -30 -45 -30 -12 0 -65 -75 -65 -91 0 -16 16 -10 41 17 13
14 41 39 62 56 l37 30 -10 -27 c-5 -14 -10 -28 -10 -31 0 -13 26 1 81 41 34
25 64 44 66 41 2 -2 -3 -21 -11 -41 -21 -49 -21 -95 -1 -95 9 0 15 9 15 21 0
12 8 43 17 68 9 26 14 55 10 64 -9 23 -40 21 -63 -4z"/>
<path d="M6215 8518 c-39 -21 -95 -83 -106 -117 -10 -30 -9 -36 7 -48 10 -7
27 -13 38 -13 33 0 104 24 104 35 0 6 -5 8 -11 6 -7 -2 -36 -6 -66 -9 -48 -4
-53 -3 -48 12 4 10 7 21 7 25 0 4 16 7 35 8 38 1 105 44 105 68 0 14 -26 45
-38 45 -4 0 -16 -6 -27 -12z m35 -38 c0 -16 -60 -52 -77 -46 -12 5 -8 13 23
35 36 28 54 31 54 11z"/>
<path d="M13120 8518 c0 -7 -15 -23 -33 -36 -39 -26 -62 -64 -54 -86 23 -58
167 -21 167 42 0 27 -22 69 -44 84 -17 12 -36 9 -36 -4z m50 -79 c0 -20 -71
-52 -95 -43 -23 9 -19 18 27 59 39 36 42 37 55 20 7 -11 13 -26 13 -36z"/>
<path d="M3539 8489 c-39 -42 -39 -69 1 -69 19 0 34 -7 42 -20 13 -21 38 -27
38 -10 0 22 -33 60 -51 60 -17 0 -18 3 -7 21 10 16 20 19 46 14 33 -6 41 2 20
23 -21 21 -59 13 -89 -19z"/>
<path d="M4925 8489 c-53 -47 -44 -113 13 -92 9 4 22 13 28 21 9 12 12 9 17
-17 10 -48 33 -40 32 12 -1 23 -3 46 -3 50 -1 4 -22 -4 -47 -19 -35 -20 -45
-23 -45 -11 0 18 46 57 66 57 8 0 14 7 14 15 0 25 -37 17 -75 -16z"/>
<path d="M6602 8495 c-28 -23 -30 -23 -25 -5 10 39 -12 18 -38 -36 -29 -61
-19 -85 15 -40 74 97 104 106 71 21 -18 -47 -17 -86 1 -92 7 -2 14 10 16 29 3
18 11 55 19 81 12 42 11 49 -1 57 -21 14 -25 13 -58 -15z"/>
<path d="M9888 8500 c-69 -37 -100 -107 -63 -143 19 -20 89 -31 111 -19 19 11
14 13 -54 27 -66 13 -50 74 28 108 47 21 60 39 29 44 -8 1 -30 -6 -51 -17z"/>
<path d="M12007 8510 c-65 -20 -127 -89 -105 -117 16 -20 50 -16 104 12 27 14
50 25 51 25 1 0 3 -10 5 -22 2 -13 11 -24 21 -26 14 -3 17 1 12 21 -4 15 0 37
9 55 16 32 9 46 -17 36 -8 -3 -17 2 -20 10 -7 18 -18 19 -60 6z m45 -35 c0
-14 -109 -72 -118 -63 -11 11 13 34 59 57 43 21 58 23 59 6z"/>
<path d="M12331 8480 c-17 -22 -53 -51 -79 -66 -89 -51 -95 -55 -84 -66 7 -7
28 -1 66 20 34 18 56 25 56 18 0 -30 22 -34 80 -14 65 21 90 42 73 59 -8 8
-19 5 -40 -10 -15 -11 -41 -23 -57 -27 -27 -6 -28 -6 -16 17 7 13 24 41 37 61
27 44 28 48 10 48 -8 0 -28 -18 -46 -40z"/>
<path d="M12942 8473 c-21 -27 -44 -58 -51 -70 -16 -31 -14 -54 4 -47 8 4 15
11 15 18 0 6 20 36 45 66 47 57 51 65 36 74 -5 3 -27 -15 -49 -41z"/>
<path d="M16767 8509 c-10 -6 -24 -8 -31 -6 -20 8 -70 -48 -62 -69 6 -16 8
-15 29 3 24 23 80 53 97 53 5 0 10 -11 10 -24 0 -47 65 -77 78 -36 3 8 1 12
-3 8 -4 -4 -16 -3 -27 3 -14 8 -19 19 -16 42 3 29 0 32 -27 34 -16 2 -38 -2
-48 -8z"/>
<path d="M8860 8463 c-26 -58 -11 -82 19 -32 22 35 28 79 11 79 -5 0 -18 -21
-30 -47z"/>
<path d="M16500 8498 c0 -7 -15 -20 -33 -28 -55 -26 -44 -80 17 -80 52 0 80
21 87 63 7 42 7 42 -38 52 -24 5 -33 3 -33 -7z m40 -52 c0 -16 -21 -26 -56
-26 -30 0 -31 14 -1 28 31 15 57 14 57 -2z"/>
<path d="M9612 8484 c-12 -8 -29 -28 -37 -43 -12 -24 -12 -31 -1 -47 12 -16
19 -17 50 -7 32 10 36 9 36 -6 0 -18 18 -41 32 -41 5 0 6 11 2 24 -3 14 1 37
11 55 16 31 13 57 -6 46 -5 -4 -9 0 -9 8 0 28 -44 35 -78 11z m61 -29 c2 -11
-64 -47 -72 -40 -2 3 6 16 19 30 24 25 49 30 53 10z"/>
<path d="M10959 8462 c-64 -65 -66 -122 -3 -122 39 0 44 23 6 28 -29 4 -28 24
4 61 29 34 71 42 81 14 4 -11 -4 -25 -27 -45 -25 -20 -31 -31 -23 -39 14 -14
83 46 83 72 0 24 -43 69 -66 69 -9 0 -34 -17 -55 -38z"/>
<path d="M13407 8493 c-29 -3 -37 -8 -35 -21 2 -11 11 -16 23 -14 11 2 53 5
94 8 71 4 90 8 79 19 -7 7 -118 13 -161 8z"/>
<path d="M2033 8388 c2 -7 10 -13 17 -13 7 0 15 6 18 13 2 7 -5 12 -18 12 -13
0 -20 -5 -17 -12z"/>
<path d="M6040 8187 c0 -7 17 -19 38 -26 42 -15 72 -38 72 -56 0 -17 -45 -56
-131 -113 -77 -51 -119 -93 -119 -118 0 -19 50 -75 78 -85 39 -15 37 -4 -5 35
-45 42 -42 52 32 106 152 111 183 146 171 194 -5 20 -20 33 -59 52 -59 27 -77
30 -77 11z"/>
<path d="M4762 8081 c-76 -175 -95 -242 -71 -256 15 -10 20 -2 24 36 7 69 20
87 69 94 52 8 93 0 119 -22 21 -20 21 -38 2 -92 -17 -49 -3 -54 25 -8 24 39
25 75 4 105 -19 27 -65 52 -96 52 -21 0 -20 2 11 28 19 15 62 43 94 62 70 41
87 64 34 48 -47 -14 -173 -101 -169 -117 1 -7 -2 -9 -8 -6 -6 4 -20 -1 -31
-11 -20 -18 -20 -18 -10 9 6 14 20 45 32 69 31 61 40 96 25 101 -8 3 -28 -31
-54 -92z"/>
<path d="M5205 8120 c-7 -12 2 -30 16 -30 5 0 9 9 9 20 0 21 -15 27 -25 10z"/>
<path d="M3096 8093 c-11 -11 -7 -22 13 -32 14 -8 20 -7 25 4 5 15 -26 39 -38
28z"/>
<path d="M2162 8030 c-32 -23 -42 -26 -42 -14 0 47 -42 -29 -77 -138 -10 -32
24 -20 40 15 19 40 104 127 124 127 17 0 10 -51 -13 -88 -13 -19 -13 -23 -1
-28 9 -3 34 16 64 46 l49 52 -1 -58 c0 -44 4 -59 15 -61 12 -3 15 12 17 77 2
91 -5 97 -56 54 -29 -24 -31 -25 -31 -6 0 20 -24 52 -39 52 -4 0 -27 -14 -49
-30z"/>
<path d="M2530 7984 c-22 -37 -48 -66 -81 -87 -27 -18 -49 -38 -49 -44 0 -18
7 -16 56 12 23 14 49 22 57 19 19 -7 67 23 67 42 0 8 6 11 15 8 8 -4 15 -14
15 -24 0 -34 12 -50 37 -50 23 0 23 1 8 17 -14 13 -16 28 -11 70 3 29 2 53 -3
53 -4 0 -29 -18 -55 -41 -25 -22 -46 -38 -46 -36 0 3 11 27 24 53 23 46 25 64
6 64 -5 0 -23 -25 -40 -56z"/>
<path d="M2823 8025 c-41 -18 -43 -50 -7 -112 14 -24 22 -48 19 -53 -9 -14
-58 -13 -73 2 -9 9 -13 7 -18 -5 -17 -44 68 -65 106 -27 26 26 25 48 -5 92
-40 58 -34 76 25 84 28 4 50 10 50 15 0 5 -3 9 -7 10 -5 0 -19 2 -33 4 -14 3
-40 -2 -57 -10z"/>
<path d="M4148 8020 c-31 -24 -38 -25 -38 -5 0 8 -7 15 -16 15 -10 0 -14 -7
-13 -22 2 -13 0 -29 -4 -35 -5 -7 -5 -13 -2 -13 4 0 -5 -14 -19 -31 -26 -30
-35 -79 -16 -79 5 0 18 17 29 38 18 34 101 125 101 110 0 -4 -5 -19 -10 -34
-6 -15 -8 -34 -5 -43 5 -12 9 -11 28 7 12 12 36 33 54 48 l32 25 5 -23 c3 -13
7 -34 8 -47 5 -43 28 -37 28 8 0 54 -15 91 -38 91 -21 0 -52 -30 -52 -50 0
-25 -13 0 -14 27 -1 35 -24 40 -58 13z"/>
<path d="M5314 8000 c-12 -5 -30 -20 -42 -34 -13 -17 -26 -24 -36 -20 -11 4
-19 -2 -25 -19 -5 -14 -15 -28 -20 -32 -6 -3 -16 -15 -21 -26 -17 -32 12 -23
35 10 10 16 23 27 27 25 5 -3 11 2 14 10 6 15 64 56 79 56 8 0 0 -65 -11 -94
-3 -9 -1 -16 5 -16 18 0 42 68 39 108 -3 39 -12 45 -44 32z"/>
<path d="M4449 7969 c-21 -22 -29 -40 -27 -58 3 -24 7 -26 49 -25 37 0 48 -4
55 -20 5 -12 20 -23 34 -25 l25 -3 -20 22 c-19 21 -19 23 -2 52 21 36 21 48 2
48 -8 0 -15 -4 -15 -8 0 -10 -65 -42 -85 -42 -21 0 -19 12 5 38 12 12 32 22
46 22 34 0 26 24 -10 28 -20 3 -35 -5 -57 -29z"/>
<path d="M3209 7970 c-47 -25 -74 -75 -60 -112 12 -33 43 -42 112 -36 77 8 87
28 13 28 -36 0 -68 6 -80 14 -19 14 -19 15 2 43 11 15 37 36 57 46 20 10 37
23 37 28 0 15 -43 9 -81 -11z"/>
<path d="M5138 7963 c-24 -28 -58 -95 -52 -105 10 -16 25 -8 34 18 6 15 19 39
30 54 32 44 21 71 -12 33z"/>
<path d="M5576 7940 c-6 -31 -40 -53 -116 -75 -25 -8 -25 -8 -6 14 10 11 34
26 52 33 36 13 46 38 16 38 -23 0 -89 -45 -103 -71 -9 -17 -8 -25 5 -37 14
-15 21 -14 76 6 71 25 70 28 44 -91 l-17 -74 -60 -6 c-79 -7 -108 -29 -125
-94 -15 -63 -1 -116 40 -146 24 -18 30 -18 58 -7 36 15 72 71 95 151 l16 56
42 -8 c57 -11 57 -11 57 5 0 8 -17 20 -37 26 -21 7 -41 15 -45 19 -7 6 2 61
34 217 10 49 6 74 -11 74 -5 0 -11 -14 -15 -30z m-64 -324 c-5 -42 -45 -128
-70 -150 -27 -24 -49 -15 -67 26 -13 32 -8 98 9 126 9 16 64 31 101 29 27 -2
30 -5 27 -31z"/>
<path d="M2998 7914 c-10 -19 -18 -41 -18 -49 0 -27 20 -15 35 21 28 67 13 90
-17 28z"/>
<path d="M5995 7580 c-8 -13 4 -32 16 -25 12 8 12 35 0 35 -6 0 -13 -4 -16
-10z"/>
<path d="M9349 4842 c-52 -34 -140 -152 -194 -262 -37 -75 -38 -76 -72 -72
-27 3 -34 1 -31 -9 3 -8 15 -15 27 -17 17 -3 21 -8 16 -20 -60 -145 -92 -292
-63 -292 12 0 38 63 38 94 0 19 25 95 53 159 l20 49 46 -3 c66 -3 91 0 91 11
0 6 -15 11 -32 11 -18 1 -45 4 -60 8 l-27 6 36 70 c72 144 171 252 238 259 33
4 43 15 25 26 -27 17 -65 11 -111 -18z"/>
<path d="M15717 4824 c-4 -4 -7 -18 -7 -31 0 -13 -39 -100 -87 -193 l-87 -170
-83 7 c-73 5 -83 4 -83 -11 0 -12 10 -16 44 -16 24 0 57 -3 74 -6 l30 -6 -33
-72 c-42 -91 -51 -126 -30 -126 8 0 15 5 15 11 0 6 19 51 41 100 l42 89 68 0
c55 0 69 3 69 15 0 12 -13 15 -60 15 l-61 0 80 153 c79 152 102 220 84 238 -5
5 -12 6 -16 3z"/>
<path d="M10036 4703 c-3 -3 -6 -17 -6 -29 0 -24 -54 -195 -84 -270 -17 -42
-18 -42 -84 -50 -79 -11 -84 -29 -8 -28 l54 1 -19 -41 c-10 -23 -19 -48 -19
-56 0 -8 -6 -27 -14 -42 -12 -22 -12 -30 -1 -44 11 -16 14 -13 25 22 26 80 79
174 99 174 22 0 69 35 59 45 -3 4 -16 1 -28 -5 -31 -17 -35 -7 -15 42 32 79
61 183 64 229 2 44 -8 67 -23 52z"/>
<path d="M3566 4693 c-3 -3 -6 -20 -6 -36 0 -26 -55 -236 -64 -245 -2 -2 -33
-8 -70 -14 -43 -7 -66 -16 -66 -24 0 -16 16 -17 78 -5 38 8 42 7 36 -8 -34
-76 -45 -128 -37 -165 13 -62 30 -55 36 16 3 37 16 86 32 121 24 52 29 57 58
57 42 0 77 10 77 21 0 5 -22 9 -49 9 l-48 0 18 68 c33 117 36 236 5 205z"/>
<path d="M7096 4688 c-2 -7 -20 -58 -39 -113 -56 -159 -117 -349 -117 -362 0
-7 7 -13 15 -13 8 0 15 5 15 12 0 6 7 4 18 -5 42 -39 111 -7 169 77 24 35 33
59 31 80 -3 29 -5 31 -45 30 -35 -1 -52 -8 -93 -43 l-50 -42 30 83 c46 125 98
297 92 303 -9 9 -23 5 -26 -7z m64 -334 c0 -43 -88 -124 -135 -124 -35 0 0 67
57 109 46 34 78 40 78 15z"/>
<path d="M13454 4673 c-9 -35 -66 -151 -112 -225 -34 -57 -36 -58 -81 -58 -49
0 -77 -12 -67 -28 3 -5 22 -6 46 -2 21 4 42 5 45 2 2 -3 -13 -38 -34 -78 -22
-41 -36 -76 -32 -79 12 -7 34 22 71 93 33 63 37 66 78 62 30 -2 28 16 -3 24
l-25 6 36 55 c45 72 114 214 114 237 0 28 -29 21 -36 -9z"/>
<path d="M5880 4668 c-1 -13 -7 -39 -15 -58 -32 -82 -83 -201 -89 -207 -3 -3
-25 -6 -49 -5 -24 1 -52 -4 -63 -12 -22 -17 -13 -32 13 -21 17 7 74 7 81 0 6
-5 -60 -159 -77 -178 -13 -16 -13 -19 -1 -27 11 -7 20 -3 32 13 10 12 18 25
18 29 0 3 16 45 36 92 31 73 39 86 59 86 13 0 36 5 51 10 15 6 28 9 30 7 2 -1
-11 -40 -28 -85 -43 -111 -31 -124 49 -53 87 78 91 79 86 23 -3 -42 9 -84 20
-72 3 3 7 37 8 75 4 64 2 70 -16 73 -12 2 -41 -13 -68 -34 -26 -20 -50 -35
-53 -32 -2 3 14 41 36 84 48 91 122 266 115 272 -14 14 -34 -16 -63 -89 -50
-133 -59 -143 -121 -147 -51 -3 -52 -2 -46 20 12 38 56 142 66 154 5 6 12 32
15 58 6 38 4 46 -10 46 -10 0 -16 -9 -16 -22z"/>
<path d="M2986 4662 c-3 -5 -14 -54 -26 -110 -11 -56 -40 -158 -65 -228 -25
-69 -45 -130 -45 -135 0 -20 26 -7 47 24 27 39 118 128 110 107 -26 -69 -30
-91 -19 -102 6 -6 13 -10 15 -7 6 8 47 146 47 157 0 26 -37 9 -87 -40 l-52
-51 21 64 c34 106 57 189 63 228 3 20 7 51 10 69 4 29 -7 44 -19 24z"/>
<path d="M10170 4564 c-27 -60 -72 -152 -100 -206 -49 -94 -60 -128 -41 -128
6 0 16 8 23 18 20 26 109 92 126 92 9 0 12 -6 8 -17 -29 -76 -38 -115 -28
-125 15 -15 14 -17 41 70 18 58 20 76 11 88 -17 19 -39 18 -79 -7 -27 -16 -31
-23 -20 -30 9 -5 10 -9 2 -9 -25 0 -22 21 11 87 71 139 117 256 107 266 -7 7
-26 -24 -61 -99z"/>
<path d="M14605 4658 c-2 -7 -6 -29 -9 -49 -4 -20 -27 -86 -53 -145 -73 -174
-88 -221 -73 -239 18 -21 30 -19 30 8 0 12 12 49 26 82 109 259 136 355 99
355 -9 0 -17 -6 -20 -12z"/>
<path d="M16301 4593 c-18 -38 -57 -108 -87 -158 -58 -97 -77 -155 -52 -155 9
0 38 18 67 41 28 22 55 39 60 37 5 -2 3 -20 -4 -42 -7 -21 -11 -45 -8 -53 11
-27 27 -6 40 52 12 51 11 61 -1 73 -13 13 -20 11 -60 -12 l-46 -27 28 48 c15
26 43 82 61 123 19 41 41 85 49 97 13 21 10 43 -7 43 -4 0 -22 -30 -40 -67z"/>
<path d="M2510 4619 c-56 -25 -169 -110 -170 -126 0 -22 19 -14 72 28 29 22
73 52 100 65 44 22 48 23 48 6 0 -23 -58 -142 -105 -216 -56 -88 -79 -144 -65
-161 15 -18 33 -10 105 45 80 62 84 64 78 41 -14 -53 45 -149 84 -137 30 10
80 60 102 104 17 34 21 60 21 144 0 70 5 112 14 131 13 24 13 27 -2 27 -42 -1
-47 -15 -52 -142 -4 -100 -9 -131 -27 -163 -26 -49 -58 -79 -73 -70 -23 14
-42 76 -35 116 11 63 -13 60 -105 -10 -44 -33 -80 -58 -80 -53 0 4 32 61 70
127 81 138 103 190 98 231 -4 36 -21 39 -78 13z"/>
<path d="M1532 4533 c4 -22 101 -51 175 -52 l52 -1 -52 -70 -52 -70 -57 0
c-45 0 -58 -3 -58 -15 0 -11 12 -15 48 -15 l48 0 -33 -67 c-33 -69 -41 -103
-23 -103 5 0 18 15 27 34 59 114 77 137 102 135 58 -3 72 12 25 28 l-26 9 51
67 c28 38 51 75 51 83 0 11 -16 14 -72 14 -70 1 -159 18 -174 33 -14 14 -35 7
-32 -10z"/>
<path d="M7912 4528 c3 -7 13 -15 24 -17 16 -3 17 -1 5 13 -16 19 -34 21 -29
4z"/>
<path d="M16830 4479 c0 -24 23 -21 28 4 2 10 -3 17 -12 17 -10 0 -16 -9 -16
-21z"/>
<path d="M13084 4466 c-8 -22 3 -33 18 -18 9 9 9 15 0 24 -9 9 -13 7 -18 -6z"/>
<path d="M13572 4458 c6 -18 28 -21 28 -4 0 9 -7 16 -16 16 -9 0 -14 -5 -12
-12z"/>
<path d="M4280 4397 c-24 -12 -48 -32 -54 -42 -6 -11 -12 -22 -14 -25 -2 -2
-7 2 -12 10 -7 12 -10 12 -16 -3 -12 -33 5 -30 73 11 37 23 69 39 71 37 2 -2
-17 -42 -42 -88 -42 -78 -56 -117 -40 -117 4 0 33 25 66 55 66 62 77 61 100
-1 6 -19 18 -34 24 -34 14 0 84 125 84 148 0 24 -29 -6 -54 -56 l-23 -45 -18
31 c-22 37 -41 43 -78 25 l-28 -14 26 50 c14 28 25 57 25 66 0 22 -40 19 -90
-8z"/>
<path d="M8040 4392 c-67 -33 -72 -54 -30 -106 16 -22 30 -40 30 -42 0 -2 -14
-11 -30 -19 -34 -18 -50 -13 -50 16 0 23 -15 25 -24 3 -30 -79 80 -100 120
-23 13 26 13 32 0 58 -9 16 -23 31 -32 35 -22 8 -4 31 48 57 21 11 38 24 38
29 0 6 5 10 11 10 5 0 7 -4 4 -10 -3 -5 -1 -10 5 -10 19 0 5 25 -16 27 -10 1
-44 -10 -74 -25z"/>
<path d="M4988 4396 c-61 -18 -65 -29 -29 -73 17 -20 31 -42 31 -48 0 -6 -13
-24 -30 -40 -29 -28 -30 -28 -50 -10 -20 18 -20 18 -20 -13 0 -60 72 -53 110
11 26 42 25 57 -4 100 l-24 36 30 10 c17 6 39 11 49 11 11 0 19 5 19 10 0 6
-4 10 -9 10 -5 0 -15 2 -23 4 -7 2 -30 -1 -50 -8z"/>
<path d="M7574 4388 c-34 -27 -30 -45 17 -88 47 -42 45 -60 -7 -60 -27 0 -34
4 -34 20 0 26 -26 16 -34 -13 -8 -31 11 -47 58 -47 48 0 90 19 94 42 2 10 -16
38 -39 63 -23 25 -40 47 -38 49 18 15 54 26 88 26 23 0 41 5 41 11 0 5 -4 7
-10 4 -5 -3 -10 -1 -10 5 0 18 -99 9 -126 -12z"/>
<path d="M17468 4395 c-88 -30 -142 -112 -103 -155 34 -38 160 -55 185 -25 11
13 5 15 -44 15 -105 0 -168 51 -91 73 86 25 120 43 123 64 5 32 -25 44 -70 28z
m33 -39 c-13 -15 -69 -32 -78 -23 -7 8 48 36 71 37 15 0 16 -3 7 -14z"/>
<path d="M15742 4383 c-19 -9 -49 -36 -68 -61 -51 -67 -44 -121 19 -141 22 -8
42 -8 58 -2 17 6 20 10 9 14 -8 2 -28 8 -45 13 -21 7 -31 16 -33 34 -3 22 3
27 43 39 25 7 45 17 45 21 0 4 9 10 20 13 25 6 27 48 4 71 -8 9 -16 16 -17 16
-1 0 -17 -8 -35 -17z m19 -53 c-30 -26 -49 -26 -26 0 10 11 25 20 34 20 12 -1
10 -5 -8 -20z"/>
<path d="M4650 4364 c-17 -15 -38 -40 -46 -56 -14 -27 -14 -32 -1 -45 13 -13
21 -13 53 -3 22 7 45 17 52 23 15 12 15 8 1 -32 -9 -25 -8 -36 5 -56 14 -22
19 -23 41 -13 29 13 34 33 6 25 -31 -8 -33 20 -6 74 14 27 23 54 20 58 -3 5
-36 -7 -75 -27 -38 -19 -72 -33 -75 -30 -3 3 10 22 29 42 31 34 38 37 70 30
43 -7 50 11 10 26 -38 15 -49 13 -84 -16z"/>
<path d="M6224 4371 c-57 -26 -84 -64 -84 -117 0 -36 5 -46 27 -61 45 -30 193
-15 193 19 0 15 -29 8 -39 -9 -7 -12 -10 -13 -11 -4 0 10 -10 12 -44 7 -58 -9
-96 8 -96 44 0 22 6 27 45 38 43 11 56 24 36 36 -5 4 -21 2 -36 -4 -39 -15
-20 9 21 26 42 18 49 18 34 -1 -20 -24 -2 -37 26 -19 28 19 30 27 8 48 -20 20
-30 20 -80 -3z"/>
<path d="M7292 4355 c-28 -20 -59 -47 -68 -60 -35 -53 12 -72 88 -35 l41 19
-6 -34 c-4 -24 -1 -35 10 -39 27 -11 33 -6 27 23 -4 17 1 41 11 61 15 29 15
34 0 66 -20 43 -37 43 -103 -1z m78 -10 c0 -16 -31 -39 -68 -50 -21 -6 -22 -5
-11 13 12 19 56 51 72 52 4 0 7 -7 7 -15z"/>
<path d="M12803 4380 c-28 -12 -29 -38 -3 -83 23 -38 17 -50 -31 -62 -20 -5
-28 -2 -33 11 -6 16 -8 15 -22 -5 -21 -30 -11 -51 25 -51 43 0 78 16 96 44 15
23 15 27 -5 67 -24 45 -16 62 25 56 12 -1 20 4 20 13 0 18 -40 23 -72 10z"/>
<path d="M17252 4370 c-12 -29 -79 -96 -88 -88 -3 3 -1 23 5 44 15 54 -4 69
-24 20 -23 -54 -17 -90 15 -94 19 -2 37 10 74 47 44 44 48 53 39 73 l-11 23
-10 -25z"/>
<path d="M11280 4373 c-39 -7 -90 -52 -111 -97 -25 -55 -24 -72 7 -99 23 -20
84 -41 93 -31 8 8 -22 34 -40 34 -33 0 -42 35 -21 83 26 58 52 78 101 79 23 0
41 4 41 9 0 8 -35 31 -42 28 -2 -1 -14 -4 -28 -6z"/>
<path d="M12275 4368 c-11 -6 -36 -26 -57 -45 -20 -20 -47 -41 -60 -47 -15 -8
-22 -20 -21 -35 2 -12 -4 -35 -12 -50 -8 -16 -11 -32 -7 -35 3 -4 1 -10 -5
-14 -15 -9 -97 -231 -89 -239 13 -13 36 24 89 147 30 69 57 133 60 143 5 13
17 17 52 17 105 0 178 88 120 146 -27 26 -40 29 -70 12z m59 -44 c9 -22 -10
-52 -44 -69 -33 -17 -90 -20 -90 -5 0 6 3 10 8 10 4 0 13 13 20 28 12 29 68
63 89 55 6 -3 14 -11 17 -19z"/>
<path d="M14153 4361 c-40 -25 -65 -63 -61 -93 2 -19 10 -24 41 -26 20 -2 51
3 67 12 29 14 30 14 36 -10 10 -37 32 -30 32 11 0 20 7 46 16 60 36 54 3 63
-41 10 -21 -26 -38 -36 -71 -41 -34 -5 -41 -4 -37 8 8 20 56 47 80 45 14 -1
20 4 20 18 0 28 -42 31 -82 6z"/>
<path d="M16499 4362 c-13 -10 -42 -32 -64 -48 l-39 -29 22 38 c25 43 26 47
13 47 -16 0 -73 -112 -63 -122 10 -10 79 30 114 65 21 22 58 39 58 28 0 -6 -8
-26 -17 -46 -13 -27 -14 -38 -5 -47 8 -8 16 1 32 37 12 27 20 58 18 69 -4 28
-38 32 -69 8z"/>
<path d="M10370 4358 c-31 -11 -91 -74 -85 -91 2 -6 6 -24 9 -38 9 -40 70 -60
134 -43 38 11 24 24 -24 24 -98 0 -114 44 -29 79 39 16 55 28 55 42 0 25 -29
39 -60 27z m13 -39 c-11 -12 -27 -19 -34 -17 -9 3 -3 11 16 21 40 22 43 21 18
-4z"/>
<path d="M11872 4330 l-63 -39 3 27 c3 24 0 27 -27 25 -16 -2 -37 -4 -47 -5
-22 -4 -101 -105 -93 -118 8 -13 102 70 97 85 -2 6 0 7 4 3 4 -4 14 -2 22 5
14 10 15 9 8 -8 -16 -38 -19 -65 -6 -65 6 0 45 20 86 45 40 25 76 45 78 45 3
0 -2 -16 -10 -36 -17 -40 -11 -74 13 -74 11 0 14 6 10 21 -3 11 3 40 14 65 34
76 7 83 -89 24z"/>
<path d="M13943 4355 c-14 -10 -24 -12 -28 -5 -10 16 -21 12 -33 -14 -6 -14
-28 -43 -48 -65 -29 -33 -33 -42 -20 -47 9 -4 33 9 63 34 26 22 58 45 70 51
18 9 20 8 16 -7 -6 -25 10 -83 22 -82 6 0 10 24 11 53 0 98 -9 113 -53 82z"/>
<path d="M15968 4347 c-44 -38 -61 -72 -48 -98 11 -20 17 -21 76 -16 94 9 100
21 15 27 l-74 5 27 33 c15 17 34 32 42 32 8 0 14 6 14 14 0 24 -26 25 -52 3z"/>
<path d="M12573 4352 c-27 -4 -73 -79 -73 -120 0 -46 57 -58 104 -21 42 33 48
52 28 98 -18 44 -25 49 -59 43z m25 -54 c19 -19 14 -45 -10 -62 -52 -37 -78
-4 -37 48 23 29 30 31 47 14z"/>
<path d="M13674 4348 c-4 -6 2 -19 14 -29 30 -23 28 -63 -3 -83 -55 -36 -82
-5 -41 48 31 42 17 58 -19 22 -64 -64 -20 -145 58 -105 69 36 88 96 44 137
-26 25 -42 28 -53 10z"/>
<path d="M16862 4342 c-73 -36 -9 -82 70 -49 l34 15 -16 -52 c-20 -61 -97
-215 -134 -269 -48 -71 -29 -76 48 -13 29 24 74 51 100 61 25 10 46 22 46 26
0 15 -43 10 -87 -11 l-43 -19 43 87 c72 144 99 271 50 231 -13 -11 -17 -11
-20 -1 -6 17 -51 14 -91 -6z m58 -22 c-8 -5 -24 -10 -35 -10 -17 0 -17 2 -5
10 8 5 24 10 35 10 17 0 17 -2 5 -10z"/>
<path d="M3141 4324 c-41 -52 -19 -100 35 -76 21 10 24 9 24 -9 0 -27 26 -75
45 -82 19 -8 19 6 -1 45 -11 21 -14 43 -10 70 7 45 -6 50 -48 17 -31 -25 -43
-20 -26 10 6 13 21 21 36 21 33 0 26 24 -8 28 -18 2 -32 -5 -47 -24z"/>
<path d="M11490 4331 c0 -6 -16 -11 -37 -13 -70 -6 -97 -87 -39 -118 21 -11
33 -11 71 0 52 14 72 42 61 84 -9 38 -56 77 -56 47z m30 -61 c0 -22 -17 -36
-56 -44 -66 -14 -68 47 -2 70 37 13 58 3 58 -26z"/>
<path d="M13454 4301 c-14 -22 -23 -45 -19 -50 9 -15 25 -14 25 2 0 6 9 23 20
37 11 14 20 31 20 38 0 24 -20 12 -46 -27z"/>
<path d="M16685 4309 c-12 -54 17 -51 30 4 6 20 4 27 -8 27 -9 0 -18 -13 -22
-31z"/>
<path d="M7754 4260 c-13 -42 -18 -73 -12 -76 13 -8 16 -4 39 61 19 54 20 85
2 85 -4 0 -18 -32 -29 -70z"/>
<path d="M12939 4265 c-18 -33 -21 -47 -12 -56 9 -9 16 -1 32 29 11 22 25 43
31 47 16 10 11 25 -9 25 -11 0 -27 -16 -42 -45z"/>
<path d="M8795 4258 c-49 -40 -55 -47 -55 -74 0 -45 64 -70 105 -41 14 11 18
28 19 78 1 77 -11 84 -69 37z m39 -44 c8 -30 -8 -54 -36 -54 -29 0 -33 28 -8
56 30 30 36 30 44 -2z"/>
<path d="M1750 4190 c0 -11 6 -20 13 -20 19 0 27 10 20 26 -8 21 -33 17 -33
-6z"/>
<path d="M11280 4160 c0 -5 5 -10 10 -10 6 0 10 5 10 10 0 6 -4 10 -10 10 -5
0 -10 -4 -10 -10z"/>
<path d="M2123 4103 c-12 -4 -45 -103 -90 -263 -8 -30 -19 -67 -25 -81 -12
-35 -6 -121 10 -127 7 -2 12 7 13 25 0 15 6 54 13 87 16 78 42 100 109 93 56
-5 70 -19 61 -62 -7 -33 -6 -86 1 -94 13 -12 27 22 32 75 7 74 -12 101 -76
112 l-43 7 76 64 c42 35 76 67 76 72 0 32 -43 3 -164 -110 -36 -34 -47 -41
-42 -24 4 11 16 54 27 95 11 40 27 84 36 97 15 24 8 42 -14 34z"/>
<path d="M9603 4084 c-8 -21 34 -104 53 -104 20 0 17 24 -6 70 -24 47 -38 57
-47 34z"/>
<path d="M10770 4052 c-15 -12 -21 -25 -17 -35 8 -21 27 -22 27 -3 0 8 7 17
16 20 28 11 91 6 103 -8 17 -20 -17 -57 -120 -127 -118 -81 -132 -106 -78
-135 20 -10 41 -13 58 -9 l26 7 -35 13 c-19 6 -35 16 -34 21 0 5 41 38 92 74
87 62 142 119 142 147 0 48 -132 74 -180 35z"/>
<path d="M10038 3980 l-37 -80 -41 0 c-47 0 -53 -16 -9 -25 23 -5 29 -11 24
-23 -25 -64 -12 -131 30 -150 25 -12 42 -1 30 18 -3 6 -1 10 4 10 6 0 11 5 11
10 0 6 -12 9 -27 8 -25 -3 -28 1 -31 29 -2 17 4 46 13 62 14 28 20 31 65 31
60 0 66 15 10 24 -22 3 -40 8 -40 10 0 2 13 33 30 68 33 69 37 88 18 88 -7 -1
-30 -37 -50 -80z"/>
<path d="M6725 4001 c-9 -15 8 -35 24 -30 8 3 7 10 -2 23 -10 14 -16 16 -22 7z"/>
<path d="M4505 3923 c-93 -28 -97 -49 -23 -114 l53 -47 -27 -13 c-24 -10 -34
-9 -68 6 -40 18 -67 12 -52 -11 11 -17 68 -44 94 -44 32 0 88 36 88 56 0 9
-22 37 -50 62 -27 25 -50 48 -50 52 0 9 44 26 88 35 19 4 31 12 29 18 -6 18
-26 18 -82 0z"/>
<path d="M6488 3913 c-63 -7 -71 -50 -19 -97 30 -28 26 -51 -13 -70 -42 -20
-47 -20 -40 -1 8 21 -9 19 -29 -3 -18 -19 -12 -35 16 -45 26 -10 102 26 123
57 16 26 16 28 -15 71 l-32 45 28 10 c15 6 34 13 41 15 16 6 6 26 -11 23 -7
-1 -29 -3 -49 -5z"/>
<path d="M5628 3870 c-38 -27 -55 -45 -52 -55 4 -9 0 -15 -9 -15 -10 0 -13 8
-9 26 3 16 1 25 -6 23 -12 -5 -94 -160 -87 -167 10 -10 36 9 62 45 32 45 138
143 154 143 14 0 2 -35 -28 -84 -19 -29 -22 -41 -13 -50 8 -8 28 7 80 62 60
64 100 89 100 63 0 -5 -11 -39 -25 -76 -20 -52 -23 -70 -14 -81 14 -17 28 -10
26 14 0 10 9 43 22 74 12 31 21 67 19 80 -5 34 -50 36 -93 4 l-34 -26 -3 27
c-4 40 -27 39 -90 -7z"/>
<path d="M6076 3824 c-38 -42 -85 -83 -103 -91 -37 -15 -52 -38 -35 -55 10
-10 15 -7 88 55 l33 28 3 -23 c4 -28 45 -36 86 -16 26 14 27 13 27 -10 0 -14
6 -27 13 -29 7 -3 12 4 12 16 0 12 10 42 21 66 12 25 19 48 16 51 -3 3 -29
-13 -57 -35 -56 -45 -80 -51 -80 -22 0 20 44 89 68 107 16 12 9 34 -11 34 -7
0 -44 -34 -81 -76z"/>
<path d="M8374 3885 c-41 -17 -94 -83 -94 -117 0 -47 48 -78 121 -78 50 0 51
17 2 25 -64 11 -73 16 -79 41 -5 19 0 32 22 56 44 45 60 51 89 32 14 -9 28
-14 31 -12 9 10 -7 34 -34 50 -23 14 -32 14 -58 3z"/>
<path d="M4126 3868 c-21 -18 -29 -36 -33 -70 -5 -46 -5 -48 30 -64 29 -14 41
-15 68 -5 30 10 36 10 51 -9 9 -11 21 -20 27 -20 15 0 3 80 -15 99 -11 12 -17
10 -44 -13 -17 -14 -35 -26 -40 -26 -41 0 -54 44 -22 73 22 20 45 22 72 5 27
-17 38 -1 14 22 -32 32 -76 36 -108 8z"/>
<path d="M6846 3860 c-40 -35 -48 -75 -18 -84 10 -4 38 0 61 9 l42 15 -6 -58
c-13 -123 -42 -212 -92 -285 -19 -27 -23 -41 -15 -49 8 -8 23 0 56 29 51 45
104 63 154 52 50 -10 48 7 -4 27 -37 14 -54 16 -85 7 -21 -6 -39 -10 -39 -9 0
1 9 24 20 52 10 29 24 87 29 130 6 44 13 94 17 112 8 39 -3 41 -71 11 -56 -25
-71 -17 -31 18 22 19 36 23 58 19 24 -5 29 -3 26 12 -6 32 -61 27 -102 -8z"/>
<path d="M9086 3875 c-35 -18 -55 -43 -56 -68 0 -31 29 -76 61 -93 36 -18 116
-21 132 -5 8 8 3 11 -18 11 -45 1 -113 35 -127 65 -10 22 -8 29 13 51 18 20
30 24 52 20 23 -5 28 -3 25 12 -4 23 -45 26 -82 7z"/>
<path d="M9358 3870 c-51 -39 -64 -122 -20 -128 22 -3 31 13 11 20 -8 3 -7 13
4 34 24 47 43 59 72 46 22 -10 25 -9 25 8 0 13 -10 24 -26 30 -34 13 -38 13
-66 -10z"/>
<path d="M2440 3873 c-8 -3 -28 -17 -43 -30 -16 -13 -33 -21 -38 -17 -5 3 -12
-3 -16 -13 -3 -10 -15 -29 -25 -42 -12 -16 -15 -28 -8 -35 6 -6 31 11 75 54
78 74 95 72 74 -9 -12 -49 -8 -75 10 -55 4 5 14 30 21 56 11 42 10 51 -4 73
-17 26 -21 27 -46 18z"/>
<path d="M2837 3874 c-21 -21 10 -29 41 -11 19 13 15 2 -28 -64 -45 -70 -46
-72 -25 -89 11 -9 24 -6 65 16 28 15 56 34 62 42 10 12 14 9 23 -19 22 -64 58
-64 103 1 26 38 27 105 2 105 -10 0 -17 -15 -20 -48 -6 -45 -32 -88 -46 -74
-4 4 -10 24 -13 44 -8 44 -25 46 -75 8 -17 -12 -42 -28 -56 -35 l-24 -13 18
28 c40 62 57 95 52 103 -6 10 -70 15 -79 6z"/>
<path d="M3194 3815 c-13 -31 -24 -64 -24 -75 0 -24 22 -26 40 -5 7 9 34 34
61 55 l47 40 -13 -42 c-8 -28 -9 -51 -3 -67 12 -33 22 -19 43 62 28 105 -3
114 -95 30 l-42 -37 16 38 c19 45 20 56 5 56 -5 0 -21 -25 -35 -55z"/>
<path d="M7110 3844 c-15 -39 -12 -79 8 -97 26 -24 47 -21 83 11 27 24 31 33
25 56 -8 31 -33 30 -28 -2 3 -24 -40 -58 -59 -47 -11 7 -8 56 6 88 5 12 3 17
-9 17 -9 0 -21 -12 -26 -26z"/>
<path d="M7378 3847 c-34 -29 -46 -56 -39 -87 9 -35 66 -70 113 -70 49 0 108
24 108 45 0 14 -4 14 -36 0 -47 -19 -104 -19 -132 1 -30 21 -28 44 3 44 14 0
41 7 60 14 27 12 33 19 28 33 -17 49 -61 58 -105 20z m72 -16 c0 -11 -25 -21
-53 -21 -22 1 -22 1 -3 15 22 17 56 20 56 6z"/>
<path d="M9592 3842 c-67 -36 -94 -120 -51 -163 19 -19 30 -21 108 -17 82 5
146 22 136 38 -3 4 -24 4 -47 -1 -65 -12 -162 -11 -176 3 -7 7 -12 21 -12 33
0 15 7 20 28 22 45 3 104 27 116 46 9 15 7 22 -13 38 -28 23 -46 23 -89 1z
m65 -20 c9 -5 -2 -15 -32 -30 -25 -12 -51 -22 -57 -22 -15 0 22 40 47 51 26
10 28 10 42 1z"/>
<path d="M2595 3826 c-26 -39 -31 -93 -10 -116 22 -24 72 -26 103 -4 29 20 30
82 2 115 l-21 24 7 -57 c6 -55 5 -57 -20 -64 -57 -14 -73 23 -36 84 24 39 24
42 5 42 -8 0 -22 -11 -30 -24z"/>
<path d="M10306 3831 c-56 -38 -80 -97 -55 -143 22 -41 124 -63 162 -34 26 20
21 25 -22 19 -69 -9 -121 16 -121 58 0 15 7 19 39 19 24 0 48 8 62 19 23 19
23 21 9 48 -20 35 -37 38 -74 14z m54 -31 c0 -5 -12 -13 -27 -16 -16 -4 -35
-11 -43 -17 -8 -5 0 5 18 22 30 29 52 33 52 11z"/>
<path d="M8590 3833 c-56 -10 -77 -64 -44 -111 20 -29 91 -31 125 -3 21 17 22
20 9 51 -13 31 -48 71 -59 69 -3 -1 -17 -4 -31 -6z m70 -83 c0 -15 -51 -24
-69 -13 -26 16 -26 52 1 62 19 8 27 5 46 -15 12 -14 22 -29 22 -34z"/>
<path d="M8836 3819 c-21 -17 -26 -18 -26 -5 0 29 -20 17 -36 -21 -9 -21 -21
-46 -26 -57 -17 -32 7 -41 30 -11 28 35 91 85 108 85 19 0 18 -50 -2 -78 -15
-22 -15 -24 2 -37 23 -17 31 -6 40 52 10 65 -1 93 -35 93 -15 0 -40 -9 -55
-21z"/>
<path d="M6632 3805 c-31 -39 -47 -84 -34 -97 7 -7 18 4 36 40 14 28 30 53 36
57 15 9 12 25 -4 25 -8 0 -23 -11 -34 -25z"/>
<path d="M10720 3540 c0 -5 7 -10 16 -10 8 0 12 5 9 10 -3 6 -10 10 -16 10 -5
0 -9 -4 -9 -10z"/>
</g>
</svg>
