<?xml version="1.0" standalone="no"?>
<!DOCTYPE svg PUBLIC "-//W3C//DTD SVG 20010904//EN"
 "http://www.w3.org/TR/2001/REC-SVG-20010904/DTD/svg10.dtd">
<svg version="1.0" xmlns="http://www.w3.org/2000/svg"
 width="1872.000000pt" height="1404.000000pt" viewBox="0 0 1872.000000 1404.000000"
 preserveAspectRatio="xMidYMid meet">

<g transform="translate(0.000000,1404.000000) scale(0.100000,-0.100000)"
fill="#000000" stroke="none">
<path d="M4756 13576 c-38 -12 -71 -27 -74 -34 -4 -14 37 -8 111 15 26 8 59
12 72 9 18 -5 23 -2 21 11 -4 25 -48 25 -130 -1z"/>
<path d="M4895 13532 c0 -61 -38 -136 -83 -164 l-33 -21 6 36 c12 61 11 71 -6
75 -13 2 -20 -11 -31 -55 l-14 -58 -44 -5 c-58 -7 -66 -30 -10 -30 l42 0 -8
-42 c-5 -24 -9 -65 -9 -93 0 -39 4 -50 18 -53 14 -3 17 4 18 45 0 26 6 70 12
97 12 47 13 48 29 29 10 -10 30 -59 46 -108 20 -59 35 -91 46 -93 20 -4 20 5
0 82 -8 33 -29 81 -47 105 -24 35 -28 46 -16 49 7 3 30 22 50 42 57 59 90 200
49 208 -12 2 -15 -8 -15 -46z"/>
<path d="M6305 13557 c-2 -6 -11 -50 -19 -97 -9 -47 -30 -120 -46 -162 -33
-85 -51 -198 -31 -198 6 0 11 3 12 8 9 85 19 99 79 104 79 8 88 28 12 28 l-62
0 26 68 c14 37 31 101 39 142 7 41 16 82 20 91 4 10 0 19 -10 23 -9 3 -18 0
-20 -7z"/>
<path d="M3413 13548 c-12 -6 -29 -27 -38 -47 -9 -20 -36 -75 -61 -122 -24
-48 -44 -93 -44 -102 0 -8 -29 -34 -65 -58 -35 -24 -65 -50 -65 -56 0 -21 20
-15 71 22 l49 35 0 -31 c0 -63 45 -109 108 -109 34 0 47 9 56 38 6 16 3 22 -9
22 -8 0 -18 -7 -21 -15 -9 -23 -58 -18 -82 8 -15 16 -22 36 -22 64 0 36 7 48
58 100 62 64 150 219 139 247 -7 18 -41 20 -74 4z m7 -96 c-22 -44 -54 -92
-71 -108 -29 -28 -29 -26 18 73 43 91 55 107 86 112 4 0 -10 -34 -33 -77z"/>
<path d="M3967 13523 c-8 -21 -18 -54 -21 -73 -4 -19 -14 -58 -22 -87 -12 -44
-18 -52 -41 -55 -35 -4 -43 -28 -9 -28 30 0 30 -1 16 -68 -11 -50 -1 -99 23
-114 21 -14 94 -9 107 7 14 17 13 17 -52 15 -43 -1 -46 0 -52 27 -3 15 0 55 7
88 l13 60 44 8 c25 5 55 11 68 13 12 2 22 9 22 16 0 7 -19 9 -60 5 -33 -3 -60
-4 -60 -2 0 16 40 167 49 183 15 28 14 42 -3 42 -8 0 -21 -17 -29 -37z"/>
<path d="M15413 13498 c-7 -24 -23 -69 -38 -102 l-26 -58 -37 5 c-21 4 -47 1
-62 -6 -67 -33 -95 -153 -47 -201 l23 -23 -33 -69 c-33 -70 -40 -94 -25 -94
14 0 37 31 72 97 28 54 38 64 69 73 62 17 130 104 114 147 -3 10 -15 28 -25
39 -19 22 -19 23 10 90 38 87 50 144 30 144 -8 0 -19 -18 -25 -42z m-119 -250
c-14 -27 -29 -61 -35 -75 -8 -21 -12 -23 -24 -13 -35 29 -9 122 39 139 41 16
47 2 20 -51z m84 20 c5 -7 6 -22 2 -33 -10 -24 -68 -81 -75 -73 -7 7 46 118
56 118 4 0 11 -6 17 -12z"/>
<path d="M5861 13488 c1 -13 -3 -36 -9 -51 -7 -16 -12 -38 -12 -50 0 -12 -13
-50 -30 -84 -22 -44 -37 -62 -55 -67 -29 -7 -34 -26 -6 -26 17 0 18 -3 6 -36
-16 -49 -14 -95 7 -108 22 -13 35 -1 18 18 -9 12 -8 24 6 62 23 61 38 74 84
74 44 0 70 8 70 21 0 5 -25 9 -55 9 -30 0 -55 2 -55 5 0 2 7 22 15 42 18 46
42 171 37 196 -5 25 -24 21 -21 -5z"/>
<path d="M2481 13435 c-17 -19 -35 -35 -41 -35 -5 0 -10 -4 -10 -10 0 -19 25
-10 64 22 l39 32 20 -25 c16 -19 18 -34 14 -76 -7 -63 -50 -163 -83 -192 -26
-23 -33 -71 -10 -71 7 0 21 10 30 23 14 20 16 21 29 5 19 -24 64 -39 95 -32
47 12 82 34 82 53 0 17 -3 17 -47 -5 -58 -30 -65 -30 -102 2 -30 25 -30 26
-15 56 58 112 69 209 28 257 -33 40 -55 39 -93 -4z"/>
<path d="M2204 13433 c-16 -51 -57 -126 -99 -177 -25 -31 -43 -61 -40 -66 10
-16 43 -12 85 10 l40 20 0 -55 c0 -42 3 -55 15 -55 12 0 15 13 15 59 0 52 2
59 23 65 20 6 21 7 4 17 -16 9 -18 23 -16 102 1 61 -2 92 -10 95 -6 2 -14 -5
-17 -15z m-4 -140 c0 -35 -4 -39 -40 -55 l-40 -16 38 53 c20 30 38 54 40 55 1
0 2 -17 2 -37z"/>
<path d="M1701 13388 c-60 -62 -54 -81 8 -28 19 16 38 27 43 24 16 -10 7 -58
-17 -90 -30 -39 -32 -58 -5 -51 31 8 54 -16 54 -56 0 -61 -57 -97 -104 -67
-12 8 -12 10 -1 10 8 0 12 2 9 5 -10 10 -58 -7 -58 -20 0 -57 139 -47 171 12
22 41 16 103 -13 128 -24 21 -24 21 -7 60 17 39 13 71 -13 102 -16 19 -22 17
-67 -29z"/>
<path d="M17301 13369 c-36 -93 -37 -94 -74 -91 -66 6 -117 -50 -117 -127 0
-30 6 -44 23 -58 l24 -17 -29 -45 c-31 -49 -37 -91 -13 -91 8 0 15 6 15 14 0
8 17 39 37 68 29 42 49 59 99 82 82 37 108 64 95 98 -5 14 -22 35 -37 47 l-28
22 18 51 c12 35 14 54 7 61 -7 7 -13 3 -20 -14z m-61 -154 c-11 -28 -37 -72
-58 -97 -32 -39 -58 34 -31 85 16 30 28 37 66 37 31 0 32 -2 23 -25z m80 -15
c10 -19 -13 -46 -58 -70 -35 -17 -36 -8 -8 49 27 52 46 58 66 21z"/>
<path d="M6090 13351 c-7 -14 -7 -22 1 -27 12 -7 29 12 29 34 0 19 -18 14 -30
-7z"/>
<path d="M16134 13355 c-37 -16 -78 -60 -69 -74 9 -15 32 -14 42 2 4 8 20 22
36 32 33 21 35 9 8 -50 -29 -63 -77 -122 -113 -140 -50 -24 -81 -53 -74 -70 8
-21 28 -19 68 8 l34 24 17 -24 c19 -25 64 -31 98 -13 33 18 21 30 -25 24 -37
-6 -46 -3 -55 13 -8 16 -3 29 31 74 56 74 91 154 78 178 -13 25 -41 31 -76 16z"/>
<path d="M6504 13349 c-8 -14 11 -33 25 -25 6 4 11 11 11 16 0 13 -29 20 -36
9z"/>
<path d="M16352 13325 c-52 -45 -65 -95 -34 -128 20 -22 20 -22 2 -57 -31 -57
-22 -110 18 -110 22 0 94 48 116 78 26 34 25 82 -2 100 l-22 14 20 25 c37 48
18 113 -34 113 -12 0 -41 -16 -64 -35z m78 -20 c0 -29 -24 -64 -53 -79 -17 -8
-35 -12 -39 -10 -13 8 -9 38 8 62 25 36 84 55 84 27z m3 -131 c11 -12 -34 -80
-65 -98 -34 -21 -43 -16 -34 16 12 46 45 88 69 88 13 0 27 -3 30 -6z"/>
<path d="M15666 13331 c-26 -18 -31 -18 -41 -4 -10 13 -15 13 -46 0 -40 -16
-79 -60 -79 -88 0 -10 14 -34 31 -53 l31 -35 -28 -26 c-22 -20 -34 -24 -58
-20 -17 4 -26 3 -20 -2 6 -4 13 -16 17 -25 10 -27 42 -22 81 13 50 44 53 63
17 105 -37 42 -37 45 -8 72 15 14 30 19 44 16 17 -5 103 18 122 33 5 3 -20 33
-28 33 -3 0 -19 -9 -35 -19z"/>
<path d="M3592 13331 c4 -13 18 -16 19 -4 0 4 -5 9 -11 12 -7 2 -11 -2 -8 -8z"/>
<path d="M16888 13312 c-16 -9 -28 -25 -28 -34 0 -23 6 -23 37 2 37 29 53 26
53 -11 0 -44 -27 -94 -66 -127 -92 -74 -104 -85 -104 -93 0 -24 34 -19 70 10
21 17 41 31 43 31 3 0 7 -18 11 -40 8 -50 35 -67 77 -50 40 17 37 34 -5 27
-37 -6 -46 4 -46 47 0 12 -5 27 -10 32 -7 7 0 24 22 53 35 48 50 130 28 156
-16 20 -48 19 -82 -3z"/>
<path d="M17693 13313 c-4 -10 -19 -34 -33 -53 -32 -41 -54 -94 -47 -112 2 -7
-11 -30 -29 -50 -46 -51 -54 -86 -24 -110 28 -23 54 -23 105 1 51 23 66 41 72
91 4 30 1 45 -11 59 -16 17 -15 20 19 54 37 37 44 67 23 112 -14 30 -65 36
-75 8z m46 -80 c-7 -14 -33 -36 -56 -50 l-43 -25 14 34 c24 55 43 88 48 83 3
-3 11 2 19 11 12 15 14 14 23 -6 7 -16 6 -29 -5 -47z m-39 -147 c-1 -46 -72
-96 -114 -80 -25 9 -19 30 19 72 29 32 39 38 65 34 23 -3 30 -9 30 -26z"/>
<path d="M17465 13227 c-78 -166 -87 -198 -65 -212 10 -6 75 124 87 174 9 39
42 101 53 101 19 0 10 18 -11 23 -18 5 -26 -7 -64 -86z"/>
<path d="M5313 13264 c-15 -25 -37 -57 -49 -72 l-21 -26 5 32 c2 19 0 32 -6
32 -6 0 -13 -26 -16 -57 -4 -32 -11 -88 -16 -125 -6 -37 -10 -74 -10 -82 0
-19 19 -21 24 -3 2 6 14 44 27 83 22 71 24 72 74 93 56 23 79 52 77 100 -2 80
-47 93 -89 25z m60 -4 c9 -36 -4 -56 -48 -78 -51 -25 -51 -18 -6 55 28 47 46
54 54 23z"/>
<path d="M6898 13265 c-28 -20 -48 -30 -50 -23 -2 6 -8 9 -14 6 -16 -11 -69
-117 -61 -124 4 -4 33 17 65 47 64 62 105 95 86 69 -20 -27 -35 -87 -28 -115
3 -14 17 -33 30 -41 20 -13 29 -14 61 -3 48 15 84 39 78 49 -3 5 -21 2 -40 -6
-48 -20 -82 -18 -90 4 -3 11 4 48 15 83 32 103 25 111 -52 54z"/>
<path d="M3686 13259 c-34 -27 -33 -50 4 -82 17 -15 30 -32 30 -37 0 -17 -27
-22 -49 -10 -18 9 -21 8 -21 -9 0 -22 27 -41 59 -41 13 0 23 11 31 35 13 39 3
68 -30 85 -27 14 -25 21 10 45 16 11 30 23 30 28 0 14 -38 7 -64 -14z"/>
<path d="M5023 13258 c-47 -53 -57 -114 -23 -148 20 -20 63 -26 94 -14 22 9
10 23 -14 17 -26 -7 -70 22 -70 47 0 13 8 20 27 22 14 2 35 15 46 30 20 27 20
28 2 48 -23 26 -37 25 -62 -2z m33 -36 c-8 -9 -19 -13 -22 -9 -10 9 16 38 28
31 6 -4 4 -13 -6 -22z"/>
<path d="M5545 13251 c-17 -10 -43 -33 -59 -51 -33 -40 -30 -80 8 -118 28 -28
117 -40 135 -18 9 11 0 14 -45 18 -44 4 -62 10 -76 28 -28 34 -19 51 35 67 35
10 53 22 67 45 10 17 17 35 14 40 -9 14 -48 9 -79 -11z m25 -31 c-8 -5 -19
-10 -25 -10 -5 0 -3 5 5 10 8 5 20 10 25 10 6 0 3 -5 -5 -10z"/>
<path d="M6576 13188 c-26 -59 -22 -91 13 -96 28 -4 101 42 102 66 4 49 -10
67 -59 77 -32 6 -33 5 -56 -47z m75 2 c22 0 7 -41 -21 -55 -36 -19 -40 -19
-40 0 0 28 23 66 38 60 7 -3 18 -5 23 -5z"/>
<path d="M6011 13207 c-15 -38 -17 -90 -4 -94 9 -3 33 73 33 107 0 19 -21 10
-29 -13z"/>
<path d="M3524 13206 c-9 -24 0 -89 14 -94 8 -3 12 12 12 52 0 53 -14 74 -26
42z"/>
<path d="M6420 13195 c-15 -18 -26 -95 -14 -95 5 0 14 17 21 38 6 20 15 45 18
55 9 21 -8 23 -25 2z"/>
<path d="M2337 13143 c-12 -11 -8 -23 8 -23 8 0 15 7 15 15 0 16 -12 20 -23 8z"/>
<path d="M1896 13121 c-3 -5 1 -14 8 -20 16 -13 32 2 21 19 -8 12 -22 13 -29
1z"/>
<path d="M15685 13110 c-8 -13 3 -30 20 -30 14 0 27 24 18 34 -10 9 -31 7 -38
-4z"/>
<path d="M2195 13090 c4 -6 11 -8 16 -5 14 9 11 15 -7 15 -8 0 -12 -5 -9 -10z"/>
<path d="M16590 13060 c0 -15 5 -20 18 -18 9 2 17 10 17 18 0 8 -8 16 -17 18
-13 2 -18 -3 -18 -18z"/>
<path d="M12045 13031 c-55 -33 -104 -99 -160 -215 -47 -99 -59 -116 -82 -121
-67 -15 -113 -30 -113 -38 0 -9 107 0 123 10 11 7 10 3 -32 -120 -51 -145 -80
-192 -114 -181 -14 5 -18 2 -15 -12 8 -45 71 -15 104 49 8 15 31 73 50 129 48
138 56 148 111 148 55 0 55 22 0 30 l-36 5 50 103 c51 106 117 186 145 175 20
-7 30 26 13 43 -12 12 -19 11 -44 -5z"/>
<path d="M13735 13010 c-3 -5 -3 -15 0 -21 4 -5 -19 -75 -50 -154 -56 -141
-58 -144 -93 -152 -46 -11 -58 -38 -13 -31 17 2 31 4 31 4 0 -1 -11 -32 -25
-70 -24 -67 -25 -90 -5 -70 5 5 22 41 38 79 28 69 29 70 75 80 55 12 59 31 6
28 l-36 -1 55 133 c39 96 53 141 48 160 -7 26 -20 33 -31 15z"/>
<path d="M14117 13003 c-12 -11 -8 -23 7 -23 19 0 11 -26 -51 -166 -32 -73
-51 -105 -69 -113 -25 -11 -32 -27 -14 -33 6 -2 1 -25 -12 -56 -16 -37 -19
-55 -11 -63 8 -8 22 11 49 68 38 77 40 78 76 78 47 0 53 17 12 29 l-32 10 35
80 c45 104 64 163 57 181 -6 15 -35 20 -47 8z"/>
<path d="M10295 12969 c-75 -56 -107 -94 -141 -164 -19 -38 -34 -77 -34 -87 0
-17 -79 -82 -152 -127 -38 -22 -46 -35 -30 -45 9 -5 79 38 145 88 l34 26 13
-30 c7 -17 21 -35 31 -40 20 -11 69 -13 93 -4 24 9 19 25 -6 23 -63 -6 -98 13
-98 53 0 11 31 53 71 96 70 75 163 217 153 234 -10 15 -39 7 -79 -23z m-27
-99 c-13 -22 -40 -59 -61 -83 l-38 -42 30 61 c25 51 70 104 88 104 2 0 -7 -18
-19 -40z"/>
<path d="M10906 12968 c-8 -18 -27 -73 -43 -123 -27 -88 -29 -90 -62 -95 -42
-6 -55 -30 -16 -30 18 0 25 -4 22 -12 -3 -7 -16 -36 -28 -64 -12 -29 -19 -59
-16 -68 8 -20 27 -12 27 11 0 8 14 44 31 79 31 62 33 64 71 64 39 0 78 14 78
28 0 4 -22 5 -50 4 -52 -4 -56 -2 -40 27 5 10 19 54 31 97 12 43 24 87 26 97
9 30 -17 18 -31 -15z"/>
<path d="M9216 12959 c-3 -8 -21 -64 -41 -126 -20 -62 -41 -116 -48 -120 -6
-4 -26 -9 -45 -12 -40 -7 -38 -26 3 -26 l30 0 -18 -54 c-13 -37 -15 -57 -8
-64 10 -10 25 16 48 88 7 22 17 31 38 35 34 6 46 30 15 30 -24 0 -26 -9 23
142 24 75 28 101 19 110 -9 9 -12 8 -16 -3z"/>
<path d="M9364 12944 c8 -22 -25 -132 -79 -256 -26 -61 -41 -106 -35 -112 5
-5 35 15 72 48 l63 58 3 -57 c4 -78 26 -68 30 13 2 51 0 63 -14 69 -9 3 -22 2
-29 -3 -7 -5 -27 -19 -44 -32 l-30 -23 24 54 c35 81 78 225 71 242 -3 8 -13
15 -22 15 -11 0 -14 -5 -10 -16z"/>
<path d="M5360 12923 c0 -10 -3 -39 -6 -65 -5 -43 -4 -48 13 -48 16 0 19 6 15
29 -2 15 3 42 12 58 16 33 13 43 -15 43 -10 0 -18 -8 -19 -17z"/>
<path d="M7291 12898 c-11 -24 -27 -61 -34 -83 -12 -36 -18 -40 -51 -43 -43
-4 -45 -25 -2 -30 20 -3 26 -8 22 -20 -3 -9 -10 -35 -17 -58 -19 -68 22 -108
85 -84 37 14 32 31 -9 28 -53 -3 -59 9 -38 81 16 53 21 61 42 61 30 0 91 21
91 32 0 4 -22 4 -50 1 -57 -7 -58 -4 -30 61 10 25 16 46 12 46 -4 0 1 5 11 11
20 12 23 39 3 39 -8 0 -23 -19 -35 -42z"/>
<path d="M3254 12913 c4 -9 0 -39 -8 -67 -8 -28 -19 -70 -26 -93 -10 -40 -12
-42 -40 -36 -37 7 -41 -13 -6 -27 23 -8 24 -10 11 -47 -7 -21 -16 -53 -20 -70
-6 -28 -4 -33 13 -33 15 0 23 14 37 65 19 70 33 85 85 85 35 0 70 15 70 30 0
6 -22 8 -56 4 l-57 -7 8 39 c4 21 9 50 11 64 1 14 6 44 10 68 6 39 5 42 -16
42 -16 0 -21 -4 -16 -17z"/>
<path d="M3420 12920 c-12 -8 -13 -12 -2 -19 18 -11 -2 -91 -53 -217 -37 -93
-41 -109 -26 -119 6 -3 19 14 29 37 11 24 33 56 50 71 29 28 30 28 37 8 3 -11
1 -39 -6 -63 -19 -72 -20 -88 -6 -88 7 0 20 27 30 64 21 80 21 89 -1 116 -15
19 -22 21 -39 12 -19 -11 -19 -9 4 71 32 109 25 155 -17 127z"/>
<path d="M4467 12861 c-19 -54 -21 -71 -9 -71 5 0 16 24 25 53 19 61 20 67 9
67 -4 0 -15 -22 -25 -49z"/>
<path d="M4563 12881 c-38 -49 -54 -115 -22 -95 5 3 7 9 4 14 -3 4 2 13 10 20
8 7 15 17 15 22 0 5 7 16 15 24 16 16 21 44 8 43 -5 0 -18 -13 -30 -28z"/>
<path d="M5455 12880 c-16 -32 -20 -80 -6 -80 7 0 41 86 41 104 0 17 -21 2
-35 -24z"/>
<path d="M8967 12834 c-9 -10 2 -24 19 -24 8 0 14 7 14 15 0 15 -21 21 -33 9z"/>
<path d="M10504 12829 c-10 -17 13 -36 27 -22 12 12 4 33 -11 33 -5 0 -12 -5
-16 -11z"/>
<path d="M5003 12818 c-5 -7 -16 -28 -23 -46 l-13 -33 -28 33 c-21 26 -30 30
-40 21 -9 -9 -8 -15 5 -28 28 -29 39 -55 22 -55 -8 0 -18 5 -21 10 -8 13 -55
13 -55 1 0 -5 16 -15 35 -21 19 -6 37 -15 40 -20 3 -5 -4 -28 -15 -50 -19 -38
-20 -60 -1 -60 4 0 17 21 30 47 21 43 24 45 33 28 15 -27 15 -28 27 -21 7 5 7
15 1 31 -9 23 -7 25 23 25 30 1 72 22 62 32 -3 2 -27 2 -53 -2 l-49 -6 23 53
c13 30 24 58 24 63 0 14 -16 12 -27 -2z"/>
<path d="M14354 12811 c3 -5 -3 -11 -14 -14 -11 -3 -20 -10 -20 -16 0 -14 36
-14 62 0 21 11 21 12 3 25 -21 16 -39 19 -31 5z"/>
<path d="M13842 12768 c6 -18 58 -22 58 -3 0 10 -10 15 -31 15 -19 0 -29 -4
-27 -12z"/>
<path d="M13194 12756 c-17 -8 -43 -29 -58 -47 -19 -24 -26 -28 -24 -15 6 39
-18 24 -44 -27 -37 -69 -118 -276 -118 -299 0 -37 29 -16 55 39 14 32 29 60
33 63 4 3 14 18 23 34 13 22 29 33 63 41 55 14 101 54 127 110 24 51 24 78 1
98 -22 20 -19 20 -58 3z m46 -41 c0 -30 -31 -76 -72 -105 -49 -35 -74 -40 -58
-11 15 28 12 44 -6 37 -8 -3 -12 -2 -9 4 3 6 15 10 26 10 10 0 19 4 19 9 0 5
13 23 29 40 31 33 71 42 71 16z"/>
<path d="M2273 12740 c-44 -26 -43 -58 2 -99 39 -35 41 -39 21 -66 -14 -20
-32 -16 -78 17 -22 16 -32 6 -23 -22 9 -27 65 -55 97 -47 24 6 58 53 58 81 0
9 -16 34 -36 56 l-36 40 46 21 c25 11 46 24 46 29 0 17 -64 11 -97 -10z"/>
<path d="M12748 12739 c-21 -10 -47 -32 -59 -48 -12 -16 -27 -27 -34 -25 -8 3
-14 -8 -18 -28 -4 -18 -9 -43 -13 -55 -9 -34 24 -30 36 3 21 53 73 113 117
134 24 11 41 25 38 30 -9 14 -25 12 -67 -11z"/>
<path d="M2489 12723 c-81 -68 -66 -163 25 -163 25 0 51 8 66 20 30 23 22 34
-14 20 -44 -16 -84 -12 -96 9 -12 24 -3 52 16 44 17 -6 80 32 88 53 8 21 -11
44 -34 44 -10 0 -33 -12 -51 -27z m41 -28 c-13 -14 -30 -25 -38 -25 -12 0 -9
7 8 25 13 14 30 25 38 25 12 0 9 -7 -8 -25z"/>
<path d="M6320 12731 c-19 -11 -52 -36 -72 -57 -20 -22 -44 -45 -53 -52 -8 -7
-15 -24 -15 -38 0 -14 -7 -39 -16 -55 -8 -17 -13 -33 -10 -36 2 -3 -4 -15 -15
-26 -20 -22 -35 -64 -27 -73 12 -11 34 9 52 46 10 21 19 42 18 47 0 4 7 17 14
28 8 11 14 29 15 40 0 14 2 16 6 5 18 -46 64 -39 117 16 49 49 74 121 55 156
-12 22 -25 22 -69 -1z m40 -63 c-10 -34 -69 -98 -90 -98 -6 0 -19 5 -29 12
-18 11 -18 13 12 51 37 46 98 90 109 79 4 -4 3 -24 -2 -44z"/>
<path d="M10590 12738 c-35 -13 -70 -48 -63 -63 2 -8 18 -17 34 -20 34 -8 46
-22 30 -38 -7 -7 -20 -7 -45 0 -44 14 -58 -9 -21 -33 32 -21 64 -15 88 18 19
25 19 28 4 52 -9 13 -27 26 -39 29 -20 3 -19 5 15 20 52 24 50 55 -3 35z"/>
<path d="M6513 12718 c-48 -55 -63 -86 -54 -110 5 -13 16 -30 24 -37 19 -15
89 -11 95 7 3 9 -3 11 -21 7 -14 -4 -35 -1 -48 5 l-22 12 29 13 c40 17 74 52
74 75 0 17 -34 50 -50 50 -4 0 -16 -10 -27 -22z m47 -27 c0 -11 -51 -53 -57
-47 -3 2 3 16 12 30 17 25 45 36 45 17z"/>
<path d="M8582 12716 c-29 -12 -58 -28 -64 -34 -21 -21 2 -26 40 -8 45 22 92
37 92 29 0 -3 -18 -34 -40 -69 -59 -93 -54 -121 13 -73 48 34 51 35 77 9 15
-15 28 -19 48 -14 47 11 62 32 62 87 0 44 -2 48 -16 37 -8 -7 -14 -23 -13 -34
3 -38 -1 -45 -27 -63 -26 -17 -27 -17 -50 12 -22 28 -23 28 -49 11 -15 -10
-28 -16 -30 -14 -3 2 9 24 25 48 33 50 38 85 14 94 -22 8 -22 8 -82 -18z"/>
<path d="M11024 12728 c-12 -5 -28 -21 -35 -34 -11 -22 -10 -27 19 -57 l32
-33 -31 -18 c-29 -17 -66 -15 -55 3 3 5 -3 7 -14 4 -26 -7 -26 -39 1 -54 34
-17 95 4 114 41 14 27 13 30 -12 61 -26 31 -26 32 -7 46 10 8 31 19 47 25 15
5 27 14 27 19 0 12 -60 10 -86 -3z"/>
<path d="M1983 12668 c-64 -81 -111 -128 -129 -128 -8 0 -14 -4 -14 -10 0 -25
47 -3 101 47 l26 24 -1 -38 c-1 -33 2 -38 24 -41 18 -2 37 9 68 38 l42 41 0
-41 c0 -29 4 -40 15 -40 23 0 22 128 -1 137 -10 4 -20 -1 -27 -12 -15 -28 -78
-95 -89 -95 -13 0 -3 42 28 109 36 79 16 83 -43 9z"/>
<path d="M3614 12716 c-37 -17 -95 -87 -76 -94 7 -2 12 -20 12 -43 0 -38 26
-79 50 -79 20 0 75 28 105 53 24 20 28 28 18 38 -10 10 -18 8 -40 -13 -31 -29
-80 -51 -94 -42 -5 3 -9 22 -9 43 0 37 2 39 45 50 34 9 48 18 61 42 23 46 -15
69 -72 45z m44 -28 c-5 -16 -55 -41 -70 -36 -6 2 4 14 23 26 39 25 52 28 47
10z"/>
<path d="M6727 12697 c-27 -28 -62 -105 -53 -115 8 -7 36 12 36 25 0 25 39 81
61 88 13 4 28 0 41 -11 19 -18 20 -18 16 11 -3 26 -8 30 -36 33 -27 3 -39 -3
-65 -31z"/>
<path d="M12854 12688 c-102 -99 -43 -175 92 -118 57 25 51 37 -9 21 -56 -16
-101 -11 -105 11 -2 12 2 15 17 11 14 -3 23 0 27 11 3 9 14 16 23 16 16 0 61
34 61 46 0 3 -5 14 -10 25 -17 30 -47 23 -96 -23z m68 0 c-6 -7 -25 -21 -44
-31 l-33 -19 33 31 c32 31 66 45 44 19z"/>
<path d="M10374 12683 c-20 -47 -24 -114 -6 -120 8 -3 12 6 12 25 0 16 7 46
15 65 8 20 15 43 15 52 0 28 -19 16 -36 -22z"/>
<path d="M13352 12698 c-24 -11 -49 -33 -58 -49 -8 -17 -23 -29 -34 -29 -26 0
-26 -17 1 -25 12 -4 30 -16 41 -27 14 -14 31 -19 61 -17 80 5 94 23 20 27 -45
2 -74 14 -56 25 4 2 24 10 44 16 48 16 83 53 74 80 -8 27 -37 26 -93 -1z m58
-23 c-20 -19 -94 -50 -85 -35 10 16 67 50 85 50 13 0 13 -2 0 -15z"/>
<path d="M6930 12693 c-37 -26 -50 -45 -47 -73 3 -31 40 -39 67 -15 17 15 19
15 24 -3 4 -11 16 -22 28 -26 23 -6 41 4 21 11 -7 2 -17 20 -23 39 -13 40 -18
41 -54 13 -15 -12 -30 -18 -33 -15 -10 10 37 55 61 58 11 2 21 8 21 13 0 17
-39 16 -65 -2z"/>
<path d="M7530 12700 c0 -5 -6 -10 -14 -10 -23 0 -65 -57 -59 -80 12 -47 78
-64 123 -33 34 23 41 35 34 58 -13 42 -84 98 -84 65z m40 -92 c-25 -20 -65
-24 -76 -7 -9 15 15 57 35 62 9 2 26 -6 39 -17 l23 -21 -21 -17z"/>
<path d="M12022 12697 c-7 -8 -7 -18 -2 -27 6 -8 10 -20 10 -27 0 -15 -49 -73
-61 -73 -21 0 -21 33 1 62 24 32 20 49 -8 32 -28 -18 -46 -64 -36 -93 19 -53
93 -31 120 36 22 52 3 123 -24 90z"/>
<path d="M12115 12675 c-33 -42 -46 -115 -21 -115 9 0 16 7 16 16 0 8 10 33
23 55 17 32 27 39 45 36 30 -6 40 12 17 30 -30 21 -52 15 -80 -22z"/>
<path d="M14706 12675 c-67 -40 -68 -41 -64 -18 2 10 -4 19 -14 21 -12 2 -18
-3 -18 -15 0 -10 -9 -35 -20 -56 -11 -20 -20 -41 -20 -47 0 -15 27 -12 33 3 5
13 131 102 162 113 14 6 13 -2 -9 -39 -22 -37 -25 -50 -16 -66 12 -24 46 -27
85 -9 40 18 29 30 -21 22 l-47 -7 28 50 c49 87 17 106 -79 48z"/>
<path d="M7713 12678 c-24 -26 -45 -92 -36 -114 11 -30 30 -13 35 31 3 25 11
52 18 60 15 18 51 20 67 4 20 -20 36 1 17 22 -24 26 -75 25 -101 -3z"/>
<path d="M6024 12678 c-33 -11 -68 -73 -62 -112 7 -52 158 4 158 59 0 27 -32
66 -52 64 -7 -1 -27 -5 -44 -11z m64 -45 c2 -16 -8 -26 -43 -43 -25 -12 -49
-19 -53 -16 -11 11 21 60 48 73 31 16 44 12 48 -14z"/>
<path d="M8898 12638 c-22 -66 -8 -86 21 -30 24 46 27 82 9 82 -7 0 -21 -24
-30 -52z"/>
<path d="M14433 12656 c-42 -40 -54 -90 -25 -105 24 -13 45 -7 90 26 37 28 46
79 15 89 -10 3 -25 9 -33 13 -10 5 -25 -2 -47 -23z m67 -31 c0 -15 -68 -60
-77 -51 -11 11 16 56 39 65 26 10 38 6 38 -14z"/>
<path d="M14225 12620 c-22 -47 -26 -63 -17 -72 9 -9 12 -8 12 7 0 10 12 38
26 63 16 26 22 48 17 53 -6 6 -21 -15 -38 -51z"/>
<path d="M6190 12650 c0 -5 5 -10 10 -10 6 0 10 5 10 10 0 6 -4 10 -10 10 -5
0 -10 -4 -10 -10z"/>
<path d="M13761 12609 c-14 -40 -14 -59 -1 -59 13 0 38 61 32 78 -7 21 -20 13
-31 -19z"/>
<path d="M2610 12620 c0 -5 5 -10 10 -10 6 0 10 5 10 10 0 6 -4 10 -10 10 -5
0 -10 -4 -10 -10z"/>
<path d="M9773 12489 c-42 -27 -119 -129 -150 -199 -14 -30 -28 -57 -32 -60
-5 -3 -8 -12 -8 -20 0 -8 -8 -40 -17 -71 -19 -60 -18 -110 2 -117 8 -2 12 8
12 32 0 20 12 63 27 95 l27 59 58 12 c71 14 77 32 8 25 -60 -6 -62 0 -19 74
43 75 130 161 163 161 16 0 26 6 26 15 0 22 -59 19 -97 -6z"/>
<path d="M2535 12437 c-80 -55 -167 -143 -194 -194 -11 -23 -26 -73 -33 -112
-15 -88 -2 -140 45 -175 33 -25 127 -49 162 -42 11 3 26 5 33 5 28 2 -1 21
-31 21 -56 0 -110 21 -145 56 -34 34 -35 35 -28 102 4 47 17 89 42 139 36 74
70 109 188 191 26 18 44 37 41 42 -9 15 -15 13 -80 -33z"/>
<path d="M15438 12408 c-33 -34 -74 -82 -91 -107 -31 -45 -76 -161 -77 -196 0
-13 -25 -39 -70 -74 -77 -58 -84 -66 -75 -81 4 -6 34 11 72 41 51 41 67 49 74
38 5 -8 9 -20 9 -27 0 -18 60 -52 93 -52 17 0 26 4 22 11 -4 5 -14 9 -23 7
-21 -4 -72 49 -72 74 0 10 33 51 73 91 78 79 138 172 164 253 32 104 -11 113
-99 22z m33 -73 c-51 -103 -166 -240 -145 -172 17 56 60 129 111 186 30 34 58
60 61 57 3 -3 -9 -35 -27 -71z"/>
<path d="M14836 12417 c-23 -25 -61 -81 -86 -125 -43 -77 -47 -81 -86 -87 -23
-3 -53 -3 -67 0 -14 4 -28 2 -32 -4 -10 -17 45 -33 88 -27 20 4 37 5 37 3 0
-2 -13 -41 -30 -87 -34 -97 -34 -100 -17 -100 12 1 35 44 78 148 12 28 27 52
33 52 6 0 22 10 36 21 l25 21 -27 -6 c-16 -4 -28 -4 -28 0 0 11 70 123 97 155
26 31 72 62 58 39 -5 -8 -3 -11 6 -8 8 3 14 13 14 24 0 13 -8 20 -29 22 -23 3
-36 -5 -70 -41z"/>
<path d="M8345 12378 c-54 -115 -116 -289 -113 -315 7 -61 107 -27 170 59 35
46 40 65 22 83 -18 17 -41 14 -91 -16 -18 -10 -33 -15 -33 -10 0 14 49 139 70
181 11 22 20 46 20 55 0 31 -21 14 -45 -37z m36 -235 c-20 -29 -101 -80 -101
-65 0 18 52 78 83 95 38 21 46 8 18 -30z"/>
<path d="M10442 12388 c-16 -24 -46 -75 -66 -115 -32 -65 -39 -73 -71 -79 -38
-7 -43 -30 -6 -28 26 1 26 -6 1 -56 -25 -49 -25 -72 -1 -94 21 -19 87 -24 103
-8 9 9 6 12 -14 12 -37 0 -78 17 -78 32 0 7 12 36 27 64 l27 52 79 7 c79 7
104 22 78 48 -6 6 -11 7 -11 1 0 -5 -27 -10 -60 -11 l-60 -2 30 57 c16 31 42
77 59 101 16 25 28 48 25 53 -12 18 -35 6 -62 -34z"/>
<path d="M11950 12421 c0 -6 4 -11 9 -11 12 0 85 -116 99 -159 44 -127 -23
-273 -161 -354 -39 -23 -51 -26 -63 -17 -19 17 -20 -6 0 -25 10 -11 22 -12 45
-5 84 24 160 99 196 193 45 121 27 232 -56 332 -40 48 -69 68 -69 46z"/>
<path d="M17667 12383 c-9 -21 -21 -51 -27 -68 -6 -16 -23 -53 -37 -82 -26
-50 -28 -52 -72 -55 -33 -2 -47 -8 -49 -20 -3 -14 3 -15 38 -11 l42 6 -39 -64
c-47 -76 -67 -129 -54 -142 5 -5 21 16 40 54 54 112 87 157 117 161 33 4 45
28 15 28 -26 0 -26 2 -2 48 11 21 27 64 36 97 10 33 20 66 22 73 3 6 1 12 -4
12 -5 0 -17 -17 -26 -37z"/>
<path d="M5613 12390 c-48 -29 -130 -118 -152 -165 -11 -24 -25 -63 -30 -87
-6 -23 -20 -50 -33 -60 -36 -29 -92 -56 -105 -51 -7 3 -13 0 -13 -6 0 -17 30
-12 89 13 47 20 57 22 69 10 18 -18 51 -18 96 1 50 21 45 34 -9 23 -81 -17
-81 -5 4 80 132 134 193 308 84 242z m11 -57 c-9 -21 -17 -46 -18 -55 0 -9 -3
-15 -7 -13 -6 4 -47 -46 -45 -55 2 -9 -84 -83 -89 -78 -3 2 3 27 12 54 12 34
36 69 83 116 36 38 69 68 73 68 4 0 0 -17 -9 -37z"/>
<path d="M13457 12403 c-3 -4 -21 -49 -40 -98 -19 -50 -51 -123 -71 -163 -20
-40 -34 -77 -31 -83 9 -14 20 -4 39 35 18 39 97 96 132 96 14 0 28 -9 35 -21
9 -18 6 -32 -20 -82 -32 -61 -38 -87 -22 -87 11 0 66 96 75 132 8 36 -11 75
-42 86 l-25 8 29 21 c16 11 53 33 82 48 28 15 52 31 52 35 0 11 -39 20 -45 10
-3 -5 -29 -22 -59 -39 -29 -17 -74 -50 -101 -73 l-48 -42 18 34 c30 59 66 173
56 183 -5 5 -11 5 -14 0z"/>
<path d="M4320 12387 c0 -20 -90 -231 -104 -242 -7 -5 -13 -19 -14 -30 -1 -11
-5 -41 -8 -66 -5 -38 -3 -47 12 -53 18 -7 124 40 124 56 0 10 3 11 -58 -11
-51 -19 -52 -19 -52 -1 0 11 5 31 12 45 10 22 17 25 60 25 60 0 64 18 3 22
l-44 3 49 117 c45 107 53 148 29 148 -5 0 -9 -6 -9 -13z"/>
<path d="M17427 12393 c-3 -5 -8 -24 -12 -43 -4 -19 -29 -80 -57 -136 -49
-100 -72 -184 -50 -184 6 0 16 18 22 40 6 22 22 57 36 77 13 20 27 48 31 62 3
14 14 42 23 61 23 44 37 130 22 130 -6 0 -13 -3 -15 -7z"/>
<path d="M14143 12379 c-28 -10 -40 -34 -74 -139 -26 -81 -29 -86 -72 -108
-79 -41 -89 -107 -16 -107 28 0 38 7 60 40 14 22 41 85 58 140 18 55 43 117
57 137 25 40 22 51 -13 37z m-123 -300 c-12 -21 -37 -35 -46 -26 -7 7 33 47
46 47 7 0 7 -7 0 -21z"/>
<path d="M3562 12363 c0 -23 -57 -209 -89 -291 -23 -55 -25 -110 -4 -86 21 24
134 372 125 386 -9 15 -33 8 -32 -9z"/>
<path d="M6120 12353 c0 -9 -12 -53 -26 -97 l-26 -81 -45 4 c-35 2 -44 0 -41
-10 3 -8 13 -15 24 -17 43 -7 44 -9 28 -57 -16 -45 -14 -75 6 -75 5 0 10 9 10
20 0 30 27 91 52 117 12 13 17 23 11 23 -7 0 -2 29 13 78 28 90 30 112 9 112
-8 0 -15 -8 -15 -17z"/>
<path d="M2849 12308 c-6 -24 -13 -56 -15 -73 -2 -16 -11 -46 -19 -65 -15 -33
-19 -35 -54 -32 -34 3 -42 0 -70 -35 -38 -46 -40 -96 -4 -101 27 -4 104 64
138 122 27 47 77 205 69 218 -13 21 -34 5 -45 -34z m-104 -238 c-41 -42 -55
-49 -55 -26 0 26 41 66 68 66 26 0 26 0 -13 -40z"/>
<path d="M15995 12342 c-5 -4 -10 -12 -10 -18 0 -6 -31 -40 -70 -74 -38 -35
-78 -71 -88 -81 -16 -17 -77 -54 -77 -47 0 2 9 32 20 66 22 69 26 127 10 137
-6 3 -12 0 -14 -7 -2 -7 -14 -47 -26 -88 -12 -41 -30 -102 -40 -135 -10 -33
-21 -78 -25 -100 l-6 -40 20 24 c12 13 21 30 21 38 0 8 7 28 16 45 12 24 18
28 25 17 6 -11 12 -9 29 9 21 22 64 29 87 14 9 -6 7 -18 -7 -49 -22 -49 -29
-105 -15 -109 13 -5 67 122 63 149 -2 13 -16 28 -33 37 l-31 14 80 73 c44 40
84 73 88 73 5 0 8 9 8 20 0 11 -5 20 -11 20 -5 0 -7 5 -4 10 7 12 4 13 -10 2z"/>
<path d="M4572 12289 c2 -6 7 -10 11 -10 4 1 14 1 23 1 8 0 12 5 9 10 -8 13
-48 13 -43 -1z"/>
<path d="M13780 12290 c0 -5 5 -10 10 -10 6 0 10 5 10 10 0 6 -4 10 -10 10 -5
0 -10 -4 -10 -10z"/>
<path d="M17829 12259 c-16 -31 5 -50 26 -23 18 24 18 31 0 38 -9 3 -19 -3
-26 -15z"/>
<path d="M10680 12255 c0 -9 5 -15 11 -13 6 2 11 8 11 13 0 5 -5 11 -11 13 -6
2 -11 -4 -11 -13z"/>
<path d="M3682 12248 c6 -18 28 -21 28 -4 0 9 -7 16 -16 16 -9 0 -14 -5 -12
-12z"/>
<path d="M5713 12228 c2 -7 10 -13 17 -13 7 0 15 6 18 13 2 7 -5 12 -18 12
-13 0 -20 -5 -17 -12z"/>
<path d="M8567 12209 c-48 -40 -70 -82 -62 -120 12 -55 64 -72 132 -44 41 17
38 32 -4 18 -31 -11 -82 -1 -94 19 -18 28 -10 48 19 48 15 0 42 9 60 20 29 18
33 25 27 48 -6 24 -21 41 -35 42 -3 0 -22 -14 -43 -31z m63 -15 c0 -5 -68 -44
-76 -44 -15 1 46 47 62 47 8 0 14 -1 14 -3z"/>
<path d="M8829 12198 c-48 -59 -77 -111 -72 -125 7 -18 33 -16 33 3 0 8 18 42
40 75 32 46 46 59 66 59 33 0 27 24 -8 28 -19 2 -33 -7 -59 -40z"/>
<path d="M3310 12207 c-9 -7 -33 -34 -53 -61 -20 -27 -37 -45 -37 -39 0 5 5
14 10 19 11 11 4 44 -9 44 -9 0 -109 -281 -112 -315 0 -5 4 -11 10 -13 13 -4
51 70 51 101 0 30 15 43 61 51 46 8 113 77 128 132 13 48 14 57 1 49 -6 -4 -7
1 -3 10 3 10 0 21 -8 26 -18 11 -21 11 -39 -4z m24 -59 c-10 -48 -32 -77 -75
-99 -21 -10 -41 -19 -44 -19 -10 0 27 64 62 108 43 52 68 57 57 10z"/>
<path d="M7409 12183 c-24 -20 -53 -44 -64 -52 -19 -16 -20 -15 -2 5 21 25 22
44 2 44 -8 0 -32 -31 -55 -68 -43 -73 -46 -82 -29 -82 19 0 109 81 109 98 0
13 2 14 9 4 6 -10 10 -10 21 3 7 9 22 21 32 26 18 10 18 8 -2 -31 -19 -38 -20
-60 -1 -60 10 0 61 112 61 134 0 27 -34 18 -81 -21z"/>
<path d="M12630 12203 c-29 -11 -130 -84 -130 -94 0 -23 30 -17 80 16 l54 36
11 -37 c12 -44 33 -59 69 -50 26 6 67 69 53 82 -9 10 -27 -6 -37 -32 -12 -31
-48 -32 -55 -1 -2 12 -6 35 -7 51 -3 31 -13 38 -38 29z"/>
<path d="M15622 12188 c2 -13 8 -23 13 -23 6 0 11 10 13 23 2 15 -2 22 -13 22
-11 0 -15 -7 -13 -22z"/>
<path d="M2943 12124 c-39 -41 -83 -78 -97 -84 -14 -5 -26 -14 -26 -20 0 -20
40 -9 82 23 l44 34 -4 -29 c-6 -41 21 -37 86 12 l52 40 -6 -28 c-4 -15 -11
-28 -15 -30 -10 -4 8 -42 20 -42 9 0 31 89 31 126 0 34 -15 30 -73 -21 -29
-25 -53 -41 -55 -36 -2 5 9 33 23 61 15 29 23 56 18 60 -4 4 -40 -26 -80 -66z"/>
<path d="M7872 12109 c-24 -49 -40 -94 -36 -101 5 -8 10 -7 18 3 6 8 28 27 49
42 35 26 37 27 37 8 0 -30 18 -26 56 14 18 19 35 35 38 35 3 0 6 -17 8 -37 3
-35 6 -38 36 -41 31 -3 62 11 62 27 0 4 -16 5 -37 3 -35 -4 -36 -4 -30 24 3
16 9 37 12 47 11 28 -32 21 -75 -13 l-37 -29 5 24 c5 26 -11 34 -25 13 -10
-16 -53 -41 -53 -31 0 5 9 22 20 38 22 34 26 65 8 64 -7 0 -32 -41 -56 -90z"/>
<path d="M11463 12190 c-46 -11 -85 -38 -81 -58 2 -9 24 -28 51 -42 56 -30 60
-47 12 -56 -47 -8 -72 1 -55 21 10 12 10 15 -3 15 -23 0 -29 -15 -17 -44 8
-22 16 -26 47 -26 57 0 88 20 88 55 0 25 -7 33 -43 52 l-44 22 40 20 c29 15
42 17 50 9 16 -16 28 -1 16 19 -13 21 -21 23 -61 13z"/>
<path d="M5870 12182 c0 -4 -23 -8 -51 -9 -65 -2 -80 -15 -52 -45 56 -63 21
-119 -45 -72 -29 20 -49 8 -26 -17 21 -24 76 -34 102 -20 29 16 35 44 18 85
l-15 35 37 11 c20 5 43 10 50 10 17 0 15 17 -3 24 -8 3 -15 2 -15 -2z"/>
<path d="M9392 12165 c-16 -13 -35 -38 -42 -55 -11 -26 -10 -33 5 -50 25 -28
49 -25 90 11 56 49 82 109 48 109 -11 0 -29 -20 -46 -51 -29 -51 -47 -66 -66
-54 -17 10 15 63 49 80 17 9 28 20 25 25 -10 17 -32 11 -63 -15z"/>
<path d="M10785 12153 c-67 -48 -105 -84 -105 -100 0 -23 31 -14 58 18 30 34
112 95 112 82 0 -4 -11 -26 -25 -48 -39 -64 -49 -85 -42 -91 8 -8 106 66 149
114 21 23 42 42 48 42 13 0 13 3 -10 -65 -19 -54 -19 -75 -1 -75 13 0 43 111
37 136 -4 14 -14 24 -24 24 -19 0 -116 -92 -107 -101 3 -3 -1 -6 -9 -6 -11 0
-10 7 2 38 29 76 -5 89 -83 32z"/>
<path d="M6624 12160 c-22 -8 -55 -50 -67 -82 -11 -30 22 -39 65 -17 20 10 40
19 43 19 3 0 5 -16 5 -35 0 -28 5 -38 25 -47 31 -14 45 -3 20 16 -18 13 -18
51 0 112 6 18 1 24 -26 33 -37 13 -37 13 -65 1z m46 -29 c0 -11 -69 -55 -76
-49 -2 3 7 17 20 31 24 26 56 36 56 18z"/>
<path d="M7639 12135 c-13 -20 -43 -47 -66 -61 -24 -14 -43 -29 -43 -34 0 -6
-6 -10 -13 -10 -19 0 -53 -27 -45 -36 8 -8 68 15 68 26 0 15 39 18 51 4 9 -11
17 -11 47 1 21 9 47 26 59 40 29 32 45 33 33 1 -9 -26 -3 -66 11 -66 5 0 9 9
9 20 0 11 9 43 20 72 11 29 20 56 20 61 0 17 -25 5 -68 -34 -79 -69 -141 -90
-72 -24 29 28 39 58 21 69 -5 3 -19 -10 -32 -29z"/>
<path d="M13687 12139 c-29 -33 -36 -69 -14 -69 7 0 23 17 35 39 37 66 25 83
-21 30z"/>
<path d="M3765 12141 c-38 -23 -65 -62 -65 -96 0 -35 42 -75 79 -75 43 0 47
17 6 24 -64 12 -72 76 -15 116 17 12 37 19 45 16 19 -7 31 14 14 25 -20 13
-30 11 -64 -10z"/>
<path d="M11157 12127 c-19 -19 -37 -47 -41 -61 -17 -68 61 -105 128 -60 16
11 11 12 -32 11 -71 -3 -86 15 -36 41 55 28 81 59 68 80 -19 30 -50 25 -87
-11z m53 -13 c-8 -8 -23 -20 -34 -26 -19 -10 -18 -8 3 16 26 27 53 37 31 10z"/>
<path d="M13792 12145 c-38 -28 -80 -115 -54 -115 4 0 18 18 32 40 26 42 50
59 50 36 0 -8 -5 -16 -12 -18 -16 -6 -2 -38 16 -38 14 0 26 29 26 67 0 31 -31
46 -58 28z"/>
<path d="M17079 12119 c-18 -23 -54 -55 -81 -71 -26 -16 -48 -34 -48 -39 0
-15 40 -10 46 6 4 8 12 15 20 15 8 0 14 -7 14 -15 0 -25 39 -17 80 15 21 17
40 30 42 30 2 0 4 -12 3 -27 0 -14 6 -28 13 -30 7 -3 12 4 12 19 0 13 4 28 9
34 5 5 12 19 16 32 10 34 -19 28 -87 -19 -39 -26 -56 -34 -49 -21 5 10 17 25
26 32 21 18 46 66 38 74 -12 12 -22 6 -54 -35z"/>
<path d="M16871 12139 c-13 -5 -36 -18 -52 -29 -23 -17 -31 -19 -48 -8 -15 9
-25 9 -45 0 -18 -8 -26 -8 -28 0 -3 7 -12 9 -22 5 -11 -4 -16 -13 -13 -22 4
-8 -11 -38 -33 -67 -27 -35 -36 -56 -30 -62 7 -7 30 12 71 57 60 67 94 89 63
42 -24 -36 -7 -52 25 -22 14 13 53 39 85 57 l60 34 -23 -37 c-43 -71 -54 -98
-42 -110 6 -6 12 -9 13 -6 3 4 35 64 65 122 12 22 12 31 3 42 -14 17 -16 17
-49 4z"/>
<path d="M17972 12134 c-22 -15 -30 -44 -13 -44 5 0 14 7 22 16 8 10 26 14 53
12 23 -1 40 1 39 5 -2 4 -3 12 -3 17 0 16 -73 12 -98 -6z"/>
<path d="M4465 12090 c-28 -56 -32 -90 -10 -90 8 0 15 6 15 14 0 8 9 33 20 57
22 49 25 69 10 69 -5 0 -21 -22 -35 -50z"/>
<path d="M4600 12094 c-28 -26 -50 -55 -50 -65 0 -11 2 -19 5 -19 3 0 27 23
55 52 27 28 52 49 55 47 2 -3 -1 -21 -7 -41 -6 -20 -8 -43 -5 -52 7 -19 31
-22 24 -3 -2 6 2 29 9 51 21 59 18 76 -11 76 -17 0 -43 -16 -75 -46z"/>
<path d="M10575 12088 c-22 -48 -24 -68 -6 -68 10 0 61 107 54 114 -14 14 -25
3 -48 -46z"/>
<path d="M14530 12128 c-75 -28 -129 -138 -68 -138 28 0 74 26 92 52 16 23 22
83 9 91 -5 3 -19 0 -33 -5z m1 -62 c-14 -26 -61 -53 -61 -35 0 15 60 73 67 65
4 -3 1 -17 -6 -30z"/>
<path d="M3951 12105 c-17 -15 -31 -33 -31 -41 0 -23 30 -28 60 -11 27 16 28
16 28 -9 0 -33 12 -45 40 -38 26 7 29 21 5 26 -12 2 -17 14 -17 48 -1 41 -3
45 -27 48 -17 2 -37 -6 -58 -23z"/>
<path d="M16070 12118 c-53 -14 -80 -45 -80 -89 0 -50 21 -69 73 -68 62 1 89
12 98 37 9 24 0 29 -18 11 -15 -15 -115 -17 -120 -3 -2 6 16 17 41 24 53 15
80 41 72 68 -9 26 -24 31 -66 20z m26 -43 c-11 -8 -25 -15 -32 -15 -7 0 -21
-3 -31 -6 -14 -4 -13 -1 6 15 13 12 35 21 50 21 25 -1 25 -1 7 -15z"/>
<path d="M4800 12082 c-43 -41 -49 -62 -25 -82 12 -10 23 -8 57 8 24 11 45 18
47 17 3 -3 -1 -24 -30 -145 -8 -33 -12 -35 -47 -36 -89 -3 -150 -77 -139 -172
7 -61 26 -79 67 -62 35 14 63 49 105 128 27 49 30 52 67 52 45 0 50 16 8 25
-32 7 -35 16 -21 61 18 55 22 159 8 178 -13 18 -15 18 -41 1 -38 -25 -44 -11
-7 16 24 17 28 26 20 36 -17 19 -24 17 -69 -25z m14 -281 c7 -10 -38 -96 -67
-128 -31 -34 -47 -29 -47 15 0 51 19 84 60 104 40 20 47 22 54 9z"/>
<path d="M5633 12108 c-19 -25 -24 -51 -11 -59 8 -5 17 2 25 23 7 17 13 34 13
39 0 13 -16 11 -27 -3z"/>
<path d="M3574 12085 c-19 -19 -24 -34 -22 -58 3 -36 20 -44 23 -10 2 25 31
73 45 73 6 0 10 5 10 10 0 19 -31 10 -56 -15z"/>
<path d="M17706 12056 c-14 -25 -26 -52 -26 -60 0 -28 19 -17 40 23 11 22 24
42 30 46 15 9 12 35 -4 35 -8 0 -26 -20 -40 -44z"/>
<path d="M15536 12068 c-34 -54 -31 -110 4 -101 22 6 26 19 9 25 -8 3 -6 16 5
42 9 21 16 42 16 47 0 17 -20 9 -34 -13z"/>
<path d="M7389 12056 c-9 -20 -10 -29 -1 -38 8 -8 14 -4 23 16 9 20 10 29 1
38 -8 8 -14 4 -23 -16z"/>
<path d="M2000 11848 c0 -23 -11 -89 -25 -146 -26 -107 -32 -182 -15 -182 5 0
11 10 14 23 11 63 28 144 32 162 27 98 29 175 7 183 -9 2 -13 -9 -13 -40z"/>
<path d="M3913 11834 c-59 -64 -102 -131 -114 -179 -11 -42 -53 -85 -96 -99
-25 -8 -38 -35 -24 -49 6 -6 27 3 59 26 l48 36 13 -35 c15 -41 67 -70 108 -59
30 7 21 25 -13 25 -34 0 -74 42 -74 77 0 22 15 43 61 88 64 62 109 140 109
188 0 41 -27 34 -77 -19z m27 -48 c-13 -24 -43 -64 -68 -88 l-44 -43 17 35
c23 44 105 153 112 146 3 -2 -5 -25 -17 -50z"/>
<path d="M4475 11836 c-8 -18 -22 -63 -31 -101 -15 -60 -20 -69 -51 -81 -39
-17 -43 -34 -7 -34 19 0 25 -4 21 -15 -16 -39 -29 -134 -23 -151 8 -18 8 -18
16 1 5 11 12 46 15 78 4 31 12 60 16 63 5 3 9 13 9 23 0 14 12 22 45 30 54 13
62 35 10 25 -40 -7 -40 -7 -20 61 10 32 12 51 5 53 -5 2 -10 8 -10 13 0 6 5 7
10 4 9 -6 30 33 30 56 0 22 -22 6 -35 -25z"/>
<path d="M7941 11828 c-5 -13 -6 -87 -3 -164 l5 -141 88 -2 c48 0 91 3 94 9 6
10 -53 28 -108 32 l-37 3 0 70 c0 39 -3 94 -7 123 l-6 54 68 -4 c43 -2 70 1
72 8 6 17 -44 34 -103 34 -47 0 -56 -3 -63 -22z"/>
<path d="M8667 11843 c-38 -10 -10 -28 38 -24 36 2 46 0 40 -10 -19 -30 -23
-97 -9 -162 28 -135 23 -142 -93 -142 -79 0 -88 -2 -88 -18 0 -16 11 -19 89
-22 87 -3 90 -2 118 25 30 31 30 29 3 160 -14 64 -11 101 13 161 6 15 8 30 5
33 -7 7 -89 6 -116 -1z"/>
<path d="M10148 11791 c-33 -49 -33 -49 -95 -53 -35 -2 -67 -8 -73 -14 -5 -5
-13 -31 -16 -57 -6 -40 -3 -53 15 -77 11 -16 21 -31 21 -33 0 -2 -14 -22 -31
-43 -45 -55 -62 -100 -49 -124 15 -29 44 -27 36 3 -8 32 78 157 109 157 31 0
87 40 103 73 12 24 11 33 -5 65 l-19 37 29 52 c37 68 18 79 -25 14z m-72 -113
c-9 -13 -24 -38 -33 -55 -19 -38 -28 -41 -43 -14 -25 48 3 91 58 91 34 0 34 0
18 -22z m63 -12 c9 -11 9 -20 2 -34 -11 -21 -60 -56 -67 -49 -6 6 38 97 47 97
3 0 12 -6 18 -14z"/>
<path d="M8390 11750 c-14 -33 -40 -39 -60 -15 -7 8 -19 15 -27 15 -23 0 -63
-47 -63 -75 0 -36 26 -82 49 -90 18 -6 17 -10 -16 -65 -34 -58 -36 -80 -7 -80
12 0 19 14 12 23 -1 1 11 25 27 54 20 35 38 54 55 58 14 4 40 16 58 27 41 25
44 67 7 96 -22 17 -23 21 -10 38 18 24 19 44 1 44 -7 0 -19 -13 -26 -30z m-44
-79 c-3 -4 -10 -21 -16 -36 -10 -27 -11 -27 -30 -10 -35 31 -23 50 33 54 10 0
16 -3 13 -8z m64 -14 c0 -7 -14 -21 -31 -31 l-31 -18 16 31 c16 31 46 43 46
18z"/>
<path d="M9317 11740 c-14 -16 -28 -35 -31 -42 -4 -9 -8 -10 -11 -2 -14 29
-33 46 -43 40 -9 -5 -8 -15 3 -37 15 -29 15 -29 -15 -30 -16 -1 -34 -3 -40 -4
-5 -1 -14 -3 -20 -4 -5 0 -10 -5 -10 -9 0 -5 23 -10 52 -11 28 -1 53 -3 55 -5
2 -2 -5 -30 -16 -61 -11 -32 -18 -62 -15 -66 12 -20 24 -6 40 49 22 71 20 69
43 48 22 -20 40 -4 21 19 -9 11 -7 14 14 12 37 -3 36 16 -1 28 l-32 11 24 39
c13 22 25 43 25 48 0 16 -19 6 -43 -23z"/>
<path d="M2274 11739 c-10 -17 13 -36 27 -22 12 12 4 33 -11 33 -5 0 -12 -5
-16 -11z"/>
<path d="M7166 11735 c-6 -16 34 -50 92 -80 l34 -16 -106 -70 c-58 -39 -106
-74 -106 -80 0 -5 7 -12 15 -15 18 -7 245 144 245 163 0 7 -21 27 -47 43 -27
16 -53 33 -59 38 -12 11 -51 32 -57 32 -3 0 -7 -7 -11 -15z"/>
<path d="M9826 11728 c-19 -29 -47 -153 -39 -174 3 -8 12 -14 20 -14 9 0 13 6
10 14 -9 23 22 140 40 154 16 11 16 14 1 28 -15 15 -17 14 -32 -8z"/>
<path d="M1835 11729 c-11 -6 -33 -28 -49 -50 -17 -21 -36 -39 -43 -39 -7 0
-14 -8 -14 -17 -4 -57 -21 -114 -70 -240 -26 -66 -29 -103 -9 -103 13 0 86
177 77 186 -12 12 18 32 30 22 17 -14 55 11 81 54 23 39 57 172 47 187 -8 13
-23 13 -50 0z m6 -90 c-10 -37 -28 -81 -40 -98 -21 -29 -24 -30 -36 -15 -19
27 2 89 48 140 22 24 41 43 43 41 1 -1 -5 -32 -15 -68z"/>
<path d="M3167 11719 c-33 -25 -63 -115 -46 -136 16 -19 22 -17 70 23 l44 36
6 -31 c8 -41 22 -56 53 -59 33 -2 33 11 1 26 -21 10 -25 18 -25 56 0 35 -6 50
-29 75 -34 37 -40 37 -74 10z m57 -37 c2 -4 -11 -20 -30 -35 -36 -29 -42 -25
-22 18 11 24 41 34 52 17z"/>
<path d="M4080 11696 c0 -18 31 -29 44 -16 8 8 7 14 -4 20 -22 14 -40 12 -40
-4z"/>
<path d="M1507 11691 c-54 -9 -51 -25 5 -29 39 -3 47 0 42 12 -3 9 2 16 13 19
16 4 15 5 -2 4 -11 0 -37 -3 -58 -6z"/>
<path d="M5733 11692 c-25 -4 -83 -65 -83 -87 0 -7 -7 -21 -16 -30 -15 -15
-15 -17 0 -34 9 -10 16 -24 16 -32 0 -8 5 -20 12 -27 24 -24 169 -8 154 17 -3
5 -34 6 -69 4 -63 -5 -64 -5 -69 21 -4 20 0 29 16 38 87 44 117 143 39 130z
m17 -40 c0 -9 -36 -44 -57 -56 -20 -11 -15 8 8 38 19 25 49 36 49 18z"/>
<path d="M2412 11643 c-39 -50 -72 -105 -72 -120 0 -27 28 -11 44 25 22 48 76
112 76 90 0 -8 -7 -34 -14 -56 -10 -27 -11 -44 -5 -48 13 -8 14 -7 33 40 19
46 20 78 4 94 -20 20 -35 14 -66 -25z"/>
<path d="M2654 11640 c-9 -22 -29 -49 -44 -60 -37 -26 -42 -25 -29 4 7 14 17
22 25 19 17 -6 20 52 4 62 -26 16 -86 -80 -76 -121 8 -32 34 -30 84 6 23 17
42 27 42 22 0 -30 -23 -183 -31 -209 -10 -30 -11 -31 -46 -21 -79 22 -143 -17
-143 -87 0 -23 5 -56 11 -74 11 -30 52 -61 82 -61 15 0 77 64 77 80 0 4 10 30
22 57 12 26 20 52 19 56 -1 5 4 27 10 50 13 48 37 286 31 305 -8 23 -22 12
-38 -28z m-51 -339 c11 -11 -29 -114 -52 -136 -40 -35 -81 8 -81 85 0 52 29
74 85 65 22 -3 44 -10 48 -14z"/>
<path d="M2008 11645 c-5 -6 3 -38 24 -93 4 -13 17 -26 28 -29 20 -5 28 -38
12 -45 -11 -4 -72 -136 -72 -154 0 -8 7 -14 15 -14 8 0 15 4 15 10 0 5 18 49
39 97 22 49 41 95 43 103 2 8 5 17 8 20 12 12 50 103 46 108 -10 10 -39 -23
-57 -64 -14 -34 -38 -65 -39 -52 0 2 -9 28 -19 57 -17 52 -30 69 -43 56z"/>
<path d="M6112 11604 c-68 -58 -52 -122 24 -94 16 6 37 19 46 27 17 15 18 11
18 -83 0 -118 -5 -128 -47 -113 -17 6 -46 9 -65 7 l-33 -3 0 -56 c0 -43 6 -65
25 -93 46 -68 94 -56 125 33 21 58 33 342 16 384 -15 40 -56 36 -109 -9z m71
-15 c-6 -20 -62 -63 -71 -54 -3 2 7 20 22 40 30 39 57 47 49 14z m-30 -280
c36 -10 38 -12 31 -42 -9 -46 -33 -89 -46 -85 -23 8 -50 55 -55 96 -6 48 1 51
70 31z"/>
<path d="M4197 11602 c-15 -15 -27 -31 -27 -35 0 -3 12 -18 27 -32 23 -20 26
-28 17 -43 -15 -23 -45 -28 -60 -8 -11 15 -12 15 -18 0 -11 -29 17 -48 58 -40
60 11 73 62 29 108 -25 26 -25 28 -7 34 31 12 46 44 21 44 -7 0 -25 -13 -40
-28z"/>
<path d="M2230 11579 c0 -11 -4 -28 -10 -38 -14 -26 -22 -81 -12 -81 13 0 30
42 37 94 5 31 4 46 -4 46 -6 0 -11 -9 -11 -21z"/>
<path d="M3991 11531 c-11 -15 -18 -31 -14 -35 11 -11 43 -6 43 7 0 6 3 22 6
35 9 31 -11 28 -35 -7z"/>
<path d="M6394 11518 c-4 -6 1 -17 11 -25 32 -23 43 -15 29 21 -7 19 -30 21
-40 4z"/>
<path d="M5924 11485 c-8 -21 3 -48 19 -43 19 7 22 58 2 58 -8 0 -18 -7 -21
-15z"/>
<path d="M4725 11460 c-10 -17 12 -37 25 -24 8 8 6 15 -4 23 -10 9 -16 9 -21
1z"/>
<path d="M12304 11398 c-4 -6 2 -18 12 -25 15 -12 40 -14 115 -9 l95 6 -4 -88
c-2 -48 1 -119 7 -157 8 -53 8 -71 -2 -77 -7 -4 -57 -8 -113 -8 -64 0 -106 -4
-117 -12 -35 -27 -4 -34 126 -28 113 5 131 8 144 25 10 14 12 29 7 50 -4 17
-8 98 -9 180 l-1 150 -24 3 c-14 2 -65 -1 -113 -6 -49 -4 -90 -4 -93 0 -7 12
-22 10 -30 -4z"/>
<path d="M10293 11338 c-5 -7 -18 -30 -28 -51 -17 -32 -24 -37 -44 -32 -38 10
-73 -11 -113 -67 -41 -55 -50 -106 -23 -128 13 -11 13 -16 -6 -46 -13 -21 -18
-41 -14 -54 7 -23 25 -17 25 8 1 29 36 62 67 63 31 0 97 25 129 49 50 37 50
89 0 126 l-25 19 35 58 c18 32 34 60 34 62 0 10 -28 4 -37 -7z m-87 -143 c-11
-30 -88 -125 -97 -119 -34 20 32 134 77 134 19 0 25 -4 20 -15z m80 -30 c16
-25 16 -27 -5 -49 -23 -24 -103 -60 -120 -54 -13 4 80 128 96 128 7 0 20 -11
29 -25z"/>
<path d="M9525 11240 c-32 -32 -46 -40 -70 -38 -20 2 -29 -1 -27 -10 1 -7 -6
-15 -15 -19 -33 -11 -53 -36 -53 -64 0 -15 5 -31 10 -34 19 -12 10 -37 -36
-95 -30 -38 -44 -65 -40 -75 8 -21 28 -15 32 9 1 10 13 30 27 45 13 14 34 41
46 59 20 29 27 32 55 26 26 -4 39 0 64 21 37 31 41 60 11 92 l-22 22 37 45
c20 24 36 47 36 50 0 15 -19 3 -55 -34z m-92 -119 c-30 -41 -43 -44 -43 -10 0
15 59 61 69 53 2 -2 -10 -21 -26 -43z m90 -11 c3 -11 0 -18 -7 -17 -6 1 -10
-4 -8 -11 1 -8 -2 -11 -7 -8 -5 4 -22 1 -37 -4 -15 -6 -28 -9 -30 -7 -2 2 10
22 27 46 32 43 51 44 62 1z"/>
<path d="M8346 11241 c-18 -34 -38 -43 -69 -32 -29 11 -59 -1 -86 -35 -31 -39
-28 -87 8 -117 l29 -24 -29 -44 c-28 -42 -39 -99 -20 -99 5 0 13 10 17 23 10
34 68 126 79 127 18 0 89 41 103 58 17 22 15 77 -3 92 -13 10 -13 16 0 40 14
26 11 40 -6 40 -5 0 -15 -13 -23 -29z m-29 -76 c0 -8 -2 -13 -5 -10 -3 2 -18
-16 -33 -40 -16 -25 -35 -45 -43 -45 -22 0 -38 26 -34 57 3 25 8 29 58 40 30
6 55 12 56 12 0 1 1 -6 1 -14z m43 -17 c0 -13 -4 -28 -8 -34 -9 -14 -56 -39
-50 -27 37 81 58 103 58 61z"/>
<path d="M9020 11240 c-21 -22 -37 -30 -62 -30 -63 0 -117 -94 -84 -144 13
-21 13 -28 -1 -68 -18 -48 -13 -81 11 -72 8 3 12 12 9 20 -3 8 2 32 11 52 14
32 22 37 53 40 98 7 156 98 98 156 -19 19 -19 30 0 46 8 7 15 16 15 21 0 18
-23 8 -50 -21z m30 -105 c0 -25 -35 -56 -73 -65 l-38 -8 21 31 c12 18 29 47
38 65 l16 34 18 -22 c10 -12 18 -28 18 -35z m-88 13 c-9 -18 -21 -36 -26 -39
-5 -4 -6 -11 -3 -16 3 -5 -3 -9 -13 -10 -28 -2 -33 12 -16 51 9 22 23 36 38
39 12 2 26 5 30 6 4 0 -1 -14 -10 -31z"/>
<path d="M7734 11225 c-3 -8 -3 -19 1 -24 3 -6 -4 -63 -16 -127 -16 -85 -20
-125 -13 -151 12 -47 36 -63 61 -40 10 9 42 21 71 27 29 7 52 15 52 20 0 17
-82 21 -112 5 -17 -8 -33 -15 -35 -15 -16 0 31 260 50 272 7 4 26 8 44 8 29 0
52 15 40 26 -2 2 -34 7 -71 9 -52 3 -68 1 -72 -10z"/>
<path d="M6925 11119 c-49 -38 -91 -76 -93 -84 -4 -19 28 -31 108 -39 36 -4
80 -12 97 -17 39 -12 53 -6 46 20 -4 15 -21 21 -94 31 -49 6 -87 16 -84 21 4
5 35 29 69 54 55 39 76 61 76 81 0 18 -49 -8 -125 -67z"/>
<path d="M10805 11180 c-18 -30 43 -42 66 -13 12 14 12 16 -1 11 -8 -3 -25 -1
-37 3 -13 5 -25 4 -28 -1z"/>
<path d="M11861 11174 c-32 -23 -13 -38 27 -21 18 7 29 17 25 21 -4 4 0 4 10
0 10 -3 17 -1 17 5 0 17 -52 13 -79 -5z"/>
<path d="M11340 11160 c-8 -5 -12 -11 -10 -14 8 -7 60 6 60 15 0 12 -31 11
-50 -1z"/>
<path d="M11666 11155 c-7 -19 17 -30 42 -20 16 6 16 7 -2 21 -25 18 -32 18
-40 -1z"/>
<path d="M11095 11150 c-3 -6 1 -13 10 -16 19 -8 30 0 20 15 -8 14 -22 14 -30
1z"/>
<path d="M9819 11068 c-1 -2 -2 -19 -4 -38 -3 -37 -39 -75 -62 -65 -10 3 -13
-1 -11 -12 5 -28 32 -26 67 2 25 22 31 34 31 65 0 21 -4 42 -10 45 -5 3 -10 5
-11 3z"/>
<path d="M10445 11039 c8 -42 8 -42 6 -62 0 -9 -12 -23 -26 -29 -27 -12 -34
-38 -11 -38 22 0 63 38 70 64 6 26 -18 96 -34 96 -6 0 -8 -13 -5 -31z"/>
<path d="M8517 10981 c-6 -29 -27 -56 -49 -63 -20 -7 1 -26 22 -21 24 6 60 62
60 92 0 31 -27 25 -33 -8z"/>
<path d="M5005 10780 c-14 -22 -57 -66 -95 -97 -39 -32 -70 -63 -70 -69 0 -9
21 -11 76 -7 l76 6 -7 -41 c-9 -53 1 -82 27 -82 16 0 19 5 14 24 -9 37 5 116
20 116 8 0 14 5 14 10 0 6 -7 10 -16 10 -13 0 -15 10 -11 63 2 34 8 72 12 85
12 37 -12 26 -40 -18z m-19 -126 c-3 -9 -20 -14 -42 -14 l-37 0 39 34 c35 31
39 32 42 14 2 -11 1 -26 -2 -34z"/>
<path d="M3802 10798 c6 -18 39 -22 49 -6 6 10 9 10 9 1 0 -9 18 -13 56 -13
50 0 55 -2 49 -17 -5 -10 -9 -82 -9 -160 -1 -78 -4 -145 -8 -148 -8 -9 -39 -9
-70 0 -22 5 -28 4 -28 -8 0 -34 60 -53 102 -31 32 16 31 13 32 179 1 66 5 141
10 168 l8 47 -102 0 c-77 0 -101 -3 -98 -12z"/>
<path d="M2405 10790 c-16 -4 -41 -10 -55 -14 l-26 -5 4 -128 c2 -70 8 -140
14 -155 10 -26 12 -27 99 -27 71 0 89 3 89 15 0 20 -15 24 -91 27 l-64 2 -5
118 -5 117 50 10 c28 5 59 11 70 13 11 1 21 10 23 20 3 14 -4 17 -35 16 -21 0
-51 -4 -68 -9z"/>
<path d="M1665 10771 c-9 -15 33 -48 92 -73 29 -12 53 -25 53 -28 0 -4 -33
-25 -74 -49 -80 -46 -112 -74 -101 -90 8 -14 35 -14 35 -1 0 6 7 10 15 10 8 0
15 3 15 8 0 4 36 27 80 52 109 62 106 80 -21 143 -85 41 -85 41 -94 28z"/>
<path d="M4465 10758 c-2 -7 -6 -30 -10 -51 -5 -34 -8 -37 -33 -31 -15 4 -33
11 -40 17 -7 5 -16 7 -19 3 -13 -13 13 -40 45 -48 l32 -9 -22 -29 c-27 -37
-16 -51 16 -21 l25 23 3 -43 c4 -54 22 -58 26 -6 3 34 5 36 23 26 11 -6 27 -8
36 -5 12 5 9 11 -13 28 -16 12 -31 23 -34 26 -3 2 14 21 38 42 23 21 42 41 42
45 0 13 -46 -8 -72 -33 l-27 -25 6 51 c4 37 2 52 -6 52 -6 0 -13 -6 -16 -12z"/>
<path d="M3443 10739 c-22 -14 -33 -29 -33 -45 0 -28 18 -32 27 -6 9 22 34 41
56 42 43 0 -12 -149 -80 -215 -32 -31 -42 -58 -24 -69 5 -3 14 1 21 9 11 14
15 13 32 -5 10 -11 30 -23 43 -26 29 -7 103 2 125 16 12 8 11 12 -7 30 -26 23
-37 26 -30 6 4 -9 -3 -16 -16 -20 -39 -10 -64 -6 -91 15 l-26 21 20 28 c37 52
80 155 80 191 0 54 -40 65 -97 28z"/>
<path d="M2777 10704 c-7 -39 9 -120 24 -130 17 -10 21 26 13 93 -10 75 -28
93 -37 37z"/>
<path d="M3006 10487 c6 -41 4 -46 -25 -66 -17 -12 -31 -29 -31 -37 0 -26 38
-14 70 22 26 30 31 43 26 67 -13 65 -48 77 -40 14z"/>
<path d="M8667 10218 c-4 -117 -11 -237 -17 -267 -5 -30 -16 -203 -24 -385
-25 -538 -25 -741 -2 -733 6 3 10 8 10 13 -1 5 -4 46 -8 90 -6 76 -5 82 14 87
18 5 19 11 14 103 -6 90 13 543 36 884 15 215 13 420 -4 420 -10 0 -14 -44
-19 -212z"/>
<path d="M8493 10302 c-3 -137 -19 -324 -43 -527 -37 -302 -75 -811 -68 -925
2 -41 7 -56 19 -58 15 -3 17 21 23 225 7 254 27 517 56 758 21 169 37 357 44
515 4 87 -2 120 -23 120 -3 0 -7 -48 -8 -108z"/>
<path d="M16122 10398 c-7 -7 -12 -19 -12 -27 0 -8 -14 -61 -31 -118 -29 -92
-34 -102 -57 -105 -14 -2 -28 -9 -30 -17 -3 -10 2 -13 22 -9 14 3 26 5 26 4 0
-1 -5 -17 -10 -36 -6 -19 -13 -61 -16 -94 -9 -90 16 -67 45 42 26 99 21 93
101 107 40 6 68 21 58 30 -3 4 -33 3 -65 -2 l-58 -9 31 110 c35 122 34 162 -4
124z"/>
<path d="M11822 10353 c-6 -21 -16 -65 -21 -98 -6 -33 -17 -91 -25 -130 -20
-91 -24 -157 -10 -162 6 -2 17 32 27 84 32 174 57 298 63 321 4 15 2 22 -8 22
-8 0 -20 -16 -26 -37z"/>
<path d="M14137 10333 c-4 -8 -9 -27 -52 -178 -14 -49 -34 -114 -45 -143 -22
-58 -26 -92 -9 -92 5 0 32 24 59 53 l49 52 -2 -44 c-2 -55 18 -66 27 -14 3 21
9 53 12 71 5 26 3 32 -12 32 -10 0 -33 -14 -50 -31 l-33 -32 29 90 c25 78 50
191 50 231 0 13 -16 17 -23 5z"/>
<path d="M1950 10273 c-21 -27 -73 -73 -197 -174 -90 -73 -89 -74 56 -114 66
-19 88 -21 107 -13 28 13 33 32 5 23 -16 -5 -160 28 -184 42 -4 3 5 14 20 26
69 53 190 161 212 189 16 19 20 33 14 39 -7 7 -18 1 -33 -18z"/>
<path d="M13956 10248 c-8 -29 -20 -72 -26 -94 -9 -38 -13 -42 -50 -48 -49 -8
-53 -26 -6 -26 l34 0 -22 -69 c-15 -50 -27 -72 -41 -76 -16 -5 -17 -8 -5 -12
8 -3 18 -11 23 -17 12 -17 31 15 62 101 27 75 48 105 70 97 13 -6 52 22 43 31
-3 4 -22 2 -41 -3 l-34 -10 20 73 c19 71 18 105 -2 105 -6 0 -17 -24 -25 -52z"/>
<path d="M8035 10278 c-55 -5 -102 -11 -104 -14 -3 -2 0 -9 5 -14 7 -7 46 -8
113 -2 89 7 101 6 95 -8 -4 -8 -9 -91 -11 -185 -5 -224 -3 -215 -60 -215 -53
0 -115 -19 -110 -34 4 -13 168 -8 185 6 9 8 12 57 12 182 0 113 5 190 14 224
12 49 12 54 -5 62 -10 6 -21 9 -26 9 -4 -1 -53 -6 -108 -11z"/>
<path d="M2505 10254 c-22 -8 -45 -20 -51 -27 -13 -13 -26 -247 -15 -265 12
-20 64 -33 103 -27 68 12 58 40 -14 40 -26 0 -49 3 -51 5 -3 3 -2 54 2 114 l6
108 48 18 c27 10 56 16 64 13 11 -4 14 -1 11 13 -4 25 -49 28 -103 8z"/>
<path d="M3498 10235 c-21 -19 -38 -40 -38 -45 0 -15 6 -12 42 20 18 17 39 30
46 30 19 0 6 -54 -24 -101 -19 -31 -21 -38 -8 -43 16 -6 47 37 65 91 27 83
-19 109 -83 48z"/>
<path d="M5531 10218 c-7 -21 -19 -99 -24 -168 -3 -37 25 -32 30 5 2 17 8 57
12 90 6 42 5 62 -3 67 -8 6 -7 8 2 8 6 0 12 5 12 10 0 19 -20 10 -29 -12z"/>
<path d="M13127 10234 c-8 -8 1 -24 14 -24 5 0 9 7 9 15 0 15 -12 20 -23 9z"/>
<path d="M6248 10210 c-20 -11 -40 -25 -43 -31 -14 -21 4 -19 39 5 37 25 66
25 66 1 0 -46 -69 -136 -98 -128 -10 2 -25 -4 -33 -14 -37 -43 -28 -78 14 -50
20 13 22 12 37 -17 17 -34 57 -50 107 -41 40 7 51 22 27 39 -9 7 -14 18 -10
24 5 8 2 10 -8 6 -9 -3 -16 -15 -16 -26 0 -16 -5 -19 -22 -14 -13 3 -28 6 -34
6 -6 0 -16 12 -23 26 -10 24 -8 30 24 65 20 22 43 55 52 73 13 29 14 37 2 62
-18 36 -34 39 -81 14z"/>
<path d="M4708 10189 c-10 -5 -18 -21 -18 -34 0 -30 11 -32 28 -5 19 31 86 24
75 -8 -9 -25 -72 -90 -121 -124 -32 -22 -41 -33 -33 -41 8 -8 19 -6 41 6 29
18 30 18 30 -1 0 -20 24 -45 54 -56 25 -9 96 12 103 30 9 23 -1 25 -42 8 -47
-19 -79 -8 -89 32 -6 23 -1 34 32 68 52 54 66 81 53 105 -17 31 -76 42 -113
20z"/>
<path d="M9410 10129 c-19 -39 -42 -82 -52 -97 l-17 -26 -15 34 c-8 19 -17 56
-21 83 -5 30 -12 47 -21 47 -8 0 -14 -7 -14 -15 0 -29 23 -121 37 -149 13 -26
13 -30 -5 -50 -35 -38 -101 -153 -107 -189 -8 -44 11 -59 25 -21 13 33 101
181 146 244 28 40 104 189 104 204 0 3 -6 6 -13 6 -7 0 -29 -32 -47 -71z"/>
<path d="M4118 10175 c0 -6 -2 -14 -3 -20 0 -5 -11 -32 -23 -60 -25 -53 -25
-78 -2 -83 10 -2 15 6 16 25 1 16 10 49 20 75 15 38 16 50 6 60 -6 6 -13 8
-14 3z"/>
<path d="M11933 10165 c-13 -9 -20 -22 -17 -30 5 -11 12 -10 40 8 18 12 34 25
34 30 0 12 -35 8 -57 -8z"/>
<path d="M7508 10152 c-28 -16 -38 -42 -18 -42 6 0 22 7 35 16 70 46 100 -22
43 -97 -19 -24 -42 -46 -53 -48 -21 -4 -54 -40 -55 -60 0 -9 7 -11 21 -8 16 4
23 -1 31 -23 12 -35 48 -49 101 -40 38 7 76 34 65 46 -4 3 -16 1 -28 -6 -11
-6 -40 -10 -63 -8 -35 3 -43 7 -51 31 -9 24 -6 32 26 65 51 54 68 83 68 117 0
68 -60 96 -122 57z"/>
<path d="M13300 10161 c0 -5 4 -12 9 -16 9 -5 -68 -85 -81 -85 -3 0 -8 9 -11
20 -6 24 -27 27 -27 4 0 -8 5 -25 11 -36 9 -17 6 -26 -25 -57 -32 -33 -48 -71
-29 -71 3 0 22 18 41 41 l35 40 41 -40 c41 -41 66 -52 66 -29 0 6 -18 28 -40
48 -22 20 -40 41 -40 45 0 4 26 32 58 61 37 34 54 56 47 62 -16 15 -55 25 -55
13z"/>
<path d="M15148 10143 c-32 -34 -79 -108 -94 -148 -100 -257 -105 -275 -70
-246 27 22 104 155 115 199 7 24 18 42 26 42 43 0 107 63 90 90 -3 5 -2 10 3
10 5 0 8 10 7 23 -1 12 -3 30 -4 40 -2 27 -44 21 -73 -10z m49 -39 c-8 -45
-33 -74 -64 -74 -21 0 -23 2 -12 23 20 38 59 87 71 87 7 0 8 -13 5 -36z"/>
<path d="M2866 10107 c-21 -61 -19 -90 7 -95 14 -3 17 1 12 20 -3 13 1 43 9
67 15 41 14 61 -3 61 -4 0 -15 -24 -25 -53z"/>
<path d="M9773 10148 c-5 -7 -13 -22 -17 -32 -11 -32 -89 -123 -116 -137 -20
-10 -22 -13 -8 -16 9 -2 29 4 44 14 20 13 29 14 32 5 8 -24 40 -11 93 37 l54
50 3 -44 c4 -50 34 -87 55 -66 9 10 8 14 -5 22 -20 11 -24 64 -8 118 15 52 2
57 -41 15 -21 -20 -35 -42 -32 -47 4 -6 1 -7 -6 -2 -8 4 -26 -6 -48 -26 l-35
-34 33 67 c23 48 30 71 23 78 -8 8 -14 7 -21 -2z"/>
<path d="M10465 10119 c-40 -44 -42 -76 -7 -111 25 -25 112 -34 137 -14 19 15
18 15 -21 16 -44 0 -91 18 -99 38 -7 18 3 34 35 60 24 19 33 21 51 12 28 -16
36 -5 14 20 -30 33 -68 26 -110 -21z"/>
<path d="M11004 10144 c-16 -8 -38 -27 -50 -41 -18 -22 -22 -24 -27 -10 -9 24
-26 21 -24 -3 1 -11 6 -20 12 -20 7 0 7 -3 -1 -8 -16 -11 -44 -55 -44 -69 0
-25 25 -12 54 27 79 106 130 128 116 48 -8 -44 4 -88 20 -72 8 8 13 77 11 126
-2 29 -34 39 -67 22z"/>
<path d="M12090 10150 c0 -6 -18 -39 -40 -72 -46 -72 -51 -104 -16 -119 20
-10 32 -7 67 12 57 32 83 69 81 115 -1 21 -7 43 -14 50 -17 17 -78 28 -78 14z
m60 -72 c0 -30 -17 -54 -54 -77 -46 -29 -60 -27 -51 6 5 23 19 44 66 101 14
17 39 -2 39 -30z"/>
<path d="M6963 10082 c-32 -83 -36 -108 -23 -131 14 -27 29 -19 23 12 -3 13 7
52 21 87 29 71 32 90 14 90 -7 0 -23 -26 -35 -58z"/>
<path d="M11872 10128 c-19 -19 -15 -31 25 -65 32 -27 36 -34 23 -43 -8 -6
-34 -9 -58 -7 -48 5 -65 -9 -36 -30 31 -22 94 -13 117 18 16 23 17 30 6 50 -7
13 -19 29 -28 36 -9 6 -16 19 -16 29 0 22 -17 28 -33 12z"/>
<path d="M15565 10130 c-13 -5 -31 -33 -48 -75 -28 -72 -27 -97 4 -69 10 9 17
19 15 23 -2 3 6 26 17 51 22 44 23 45 65 42 45 -4 58 12 18 22 -13 3 -30 8
-38 10 -7 3 -22 1 -33 -4z"/>
<path d="M16655 10121 c-71 -32 -77 -52 -33 -113 10 -15 9 -20 -7 -33 -12 -9
-31 -13 -47 -10 -34 5 -47 -13 -23 -32 31 -22 65 -15 101 21 19 19 34 38 34
44 0 5 -12 22 -26 37 l-27 29 44 21 c24 12 50 19 58 17 8 -3 12 2 9 14 -4 25
-34 27 -83 5z"/>
<path d="M9526 10121 c-3 -4 3 -16 14 -26 12 -11 20 -31 20 -52 0 -27 -6 -37
-32 -53 -17 -10 -35 -17 -40 -14 -12 8 2 56 23 80 24 25 24 34 1 34 -22 0 -54
-52 -46 -74 3 -9 1 -16 -5 -16 -17 0 -13 -25 8 -44 17 -15 22 -16 54 -3 66 28
87 98 46 151 -21 27 -34 32 -43 17z"/>
<path d="M11461 10101 c-34 -32 -40 -61 -15 -81 13 -11 23 -10 60 8 24 12 46
22 49 22 2 0 5 -12 7 -27 2 -16 10 -29 19 -31 13 -2 15 6 11 55 -6 71 -14 83
-62 83 -28 0 -46 -8 -69 -29z m99 -6 c0 -7 -81 -47 -86 -42 -8 8 48 47 67 47
11 0 19 -2 19 -5z"/>
<path d="M12717 10080 l-45 -50 5 40 c5 32 2 40 -10 40 -9 0 -15 -8 -14 -18 0
-10 -10 -50 -22 -90 -13 -40 -21 -76 -17 -80 4 -3 19 9 34 28 78 100 124 150
134 144 10 -7 6 -66 -8 -111 -10 -34 18 -29 39 6 9 15 15 30 12 32 -2 2 7 9
21 16 24 11 24 10 24 -37 0 -30 5 -52 15 -60 14 -11 19 -7 16 13 -1 4 -2 39
-2 77 -1 76 -9 84 -50 51 l-24 -19 -11 31 c-17 50 -44 46 -97 -13z"/>
<path d="M14319 10100 c-13 -17 -33 -42 -45 -55 -17 -18 -20 -31 -15 -62 5
-32 12 -41 44 -57 31 -15 44 -16 63 -7 29 13 32 31 4 24 -11 -3 -34 0 -50 7
-39 16 -42 57 -6 66 38 9 68 47 64 80 -4 40 -31 41 -59 4z m17 -38 c-18 -16
-18 -16 -6 6 6 13 14 21 18 18 3 -4 -2 -14 -12 -24z"/>
<path d="M10700 10084 c-32 -37 -39 -74 -17 -93 10 -8 24 -5 53 10 l39 20 14
-21 c7 -11 20 -20 27 -20 17 0 18 12 3 27 -8 8 -7 21 2 47 17 46 6 56 -25 24
-26 -29 -86 -63 -86 -50 0 17 41 52 61 52 29 0 18 22 -14 31 -22 6 -31 2 -57
-27z"/>
<path d="M15345 10111 c-28 -12 -50 -40 -64 -80 -9 -29 -8 -37 6 -54 31 -34
81 -50 114 -36 31 12 41 36 12 24 -25 -9 -25 -9 -55 -1 -34 10 -59 36 -33 36
18 0 85 61 85 78 0 12 -28 42 -38 41 -4 0 -16 -4 -27 -8z m35 -29 c0 -9 -36
-44 -57 -56 -22 -12 -14 14 12 39 24 25 45 32 45 17z"/>
<path d="M15724 10082 c-17 -15 -37 -37 -43 -50 -26 -50 14 -69 63 -31 26 20
26 20 26 0 0 -18 17 -38 24 -30 2 2 6 23 9 47 6 48 -7 54 -51 24 -52 -36 -57
-34 -17 7 46 48 38 75 -11 33z"/>
<path d="M16413 10100 c-31 -13 -92 -100 -93 -131 0 -15 6 -29 14 -32 18 -7
26 1 26 27 0 28 75 114 102 118 12 2 23 9 26 16 4 14 -41 16 -75 2z"/>
<path d="M3445 10064 c-40 -23 -56 -62 -24 -56 10 1 21 -9 29 -28 14 -35 37
-44 74 -31 27 11 33 25 16 36 -5 3 -6 13 -3 21 5 14 3 15 -16 4 -13 -7 -20
-17 -17 -26 7 -17 -6 -18 -22 -2 -20 20 -14 56 13 74 24 16 25 35 2 33 -7 0
-30 -12 -52 -25z"/>
<path d="M13026 10066 c-3 -14 -3 -32 0 -40 3 -9 1 -16 -5 -16 -13 0 -14 -39
-1 -60 15 -24 24 -2 28 70 3 68 -10 95 -22 46z"/>
<path d="M17325 10055 c-34 -28 -47 -32 -39 -10 4 8 2 15 -4 15 -12 0 -24 -29
-16 -41 3 -5 -1 -9 -8 -9 -19 -1 -51 -48 -44 -66 8 -21 25 -17 37 9 5 12 25
32 43 44 l34 22 -11 -30 c-8 -21 -9 -34 -1 -47 13 -20 65 -23 72 -4 2 7 -6 12
-22 12 -32 0 -33 16 -5 69 19 36 19 62 1 61 -4 -1 -20 -12 -37 -25z"/>
<path d="M14878 10054 c-47 -25 -73 -95 -46 -122 19 -19 73 -14 102 9 31 24
33 52 7 78 -18 18 -18 20 -3 26 14 5 14 7 2 15 -20 13 -30 12 -62 -6z m27 -54
c24 -27 13 -50 -25 -50 -33 0 -39 16 -18 50 16 25 20 25 43 0z"/>
<path d="M17080 10034 c-43 -39 -51 -72 -24 -99 30 -30 97 8 121 68 19 48 12
67 -27 67 -20 0 -43 -11 -70 -36z m66 -20 c-3 -9 -6 -19 -6 -24 0 -10 -50 -23
-58 -15 -7 6 47 54 62 55 4 0 5 -7 2 -16z"/>
<path d="M16173 10030 c-54 -33 -58 -100 -6 -100 34 0 93 34 93 54 0 27 -23
66 -39 66 -9 0 -31 -9 -48 -20z m51 -50 c-5 -5 -21 -12 -36 -15 -36 -9 -36 7
-1 35 24 19 28 19 36 4 5 -9 5 -20 1 -24z"/>
<path d="M5760 9984 c0 -43 -14 -72 -48 -101 -30 -25 -25 -38 11 -29 34 8 71
86 63 132 -9 45 -26 44 -26 -2z"/>
<path d="M5136 9969 c-9 -55 -30 -94 -66 -121 -34 -25 -38 -38 -11 -38 23 0
88 70 97 104 10 43 9 89 -2 93 -7 2 -14 -14 -18 -38z"/>
<path d="M7170 9979 c0 -26 -16 -57 -48 -92 -18 -19 -23 -30 -15 -38 13 -13
69 49 90 99 12 29 12 36 1 43 -21 14 -28 11 -28 -12z"/>
<path d="M3065 9956 c6 -28 3 -36 -16 -50 -23 -15 -25 -15 -42 6 l-18 23 7
-30 c4 -16 10 -34 14 -39 10 -10 60 13 73 35 12 19 1 89 -14 89 -6 0 -7 -14
-4 -34z"/>
<path d="M3757 9940 c6 -48 4 -52 -31 -84 -41 -39 -44 -46 -18 -46 22 0 67 46
76 77 8 25 -10 103 -24 103 -5 0 -6 -22 -3 -50z"/>
<path d="M4280 9938 c-17 -29 -36 -61 -42 -70 -16 -22 -3 -35 18 -17 19 16 74
109 74 127 0 26 -20 10 -50 -40z"/>
<path d="M6590 9842 c0 -39 -23 -72 -49 -72 -15 0 -10 -22 6 -27 17 -6 70 44
75 70 5 28 -7 67 -22 67 -5 0 -10 -17 -10 -38z"/>
<path d="M14518 9863 c-43 -52 -80 -152 -92 -253 -13 -104 -32 -139 -84 -155
-23 -7 -23 -6 -8 23 9 17 26 38 38 47 20 13 21 17 8 25 -25 16 -90 -64 -90
-111 0 -20 4 -21 41 -16 76 10 105 54 139 211 26 117 41 155 80 199 16 19 27
37 23 41 -12 12 -40 6 -55 -11z"/>
<path d="M15285 9799 c-69 -46 -99 -81 -142 -159 -61 -110 -81 -208 -58 -288
25 -84 121 -168 183 -160 25 3 23 5 -24 30 -58 31 -109 92 -125 152 -14 50 7
142 51 233 51 104 164 212 205 197 13 -5 16 -2 13 12 -6 32 -40 26 -103 -17z"/>
<path d="M2203 9809 c-56 -28 -96 -75 -88 -103 36 -127 37 -134 19 -198 -37
-135 -27 -172 44 -166 49 4 55 28 8 28 -45 0 -54 18 -37 74 27 89 32 133 21
178 -6 23 -14 53 -17 66 -11 48 66 102 146 102 46 0 72 12 53 24 -4 3 -30 8
-58 11 -39 5 -58 2 -91 -16z"/>
<path d="M9414 9768 c-52 -55 -113 -140 -139 -192 -18 -36 -48 -63 -135 -116
-13 -8 -13 -11 -1 -19 10 -7 27 -1 57 20 50 34 54 35 54 11 0 -10 11 -29 25
-42 20 -18 31 -22 61 -17 55 9 65 26 15 25 -48 0 -71 15 -71 49 0 17 26 49 90
112 59 57 97 104 111 135 37 85 -1 104 -67 34z m37 -26 c-22 -42 -108 -142
-123 -142 -9 0 65 103 110 153 34 36 36 34 13 -11z"/>
<path d="M4036 9770 c-62 -6 -75 -30 -17 -30 40 0 41 -1 35 -27 -4 -16 -19
-59 -33 -98 -22 -61 -26 -86 -26 -187 0 -64 -2 -119 -5 -121 -3 -3 -32 1 -65
9 -82 19 -107 18 -103 -3 2 -12 25 -21 83 -34 44 -10 88 -15 97 -13 25 7 31
37 33 174 2 111 6 136 35 224 17 54 28 101 23 105 -4 3 -30 4 -57 1z"/>
<path d="M10119 9743 c-7 -21 -24 -65 -39 -99 -27 -60 -28 -60 -65 -56 -29 3
-36 1 -33 -9 3 -8 17 -15 31 -17 15 -2 27 -5 27 -6 0 -2 -8 -27 -18 -57 -25
-72 -15 -98 35 -99 24 0 50 35 34 44 -5 4 -11 1 -13 -6 -2 -6 -11 -9 -20 -5
-15 5 -14 11 4 61 19 51 24 56 57 62 54 9 71 14 71 24 0 4 -20 7 -45 6 -25 -1
-45 -1 -45 -1 0 1 16 40 35 88 41 101 42 107 16 107 -14 0 -23 -11 -32 -37z"/>
<path d="M16030 9774 c0 -3 32 -36 71 -72 85 -78 113 -127 103 -180 -8 -45
-88 -208 -117 -239 -11 -13 -26 -23 -34 -23 -20 0 -15 -18 7 -25 37 -12 68 21
126 138 68 138 74 186 31 259 -37 63 -187 177 -187 142z"/>
<path d="M2365 9724 c-18 -39 -14 -64 10 -64 9 0 13 5 10 10 -4 6 1 24 9 42
20 38 20 48 2 48 -7 0 -21 -16 -31 -36z"/>
<path d="M2466 9727 c-26 -34 -34 -67 -17 -67 8 0 61 81 61 94 0 16 -22 2 -44
-27z"/>
<path d="M3675 9688 c-23 -57 -23 -88 1 -88 9 0 14 6 11 13 -2 6 2 29 9 51 17
46 17 56 3 56 -5 0 -16 -15 -24 -32z"/>
<path d="M12791 9688 c-5 -13 -16 -41 -24 -63 -14 -38 -17 -40 -73 -50 -61
-10 -84 -20 -84 -35 0 -10 71 -1 83 10 8 7 47 2 47 -6 0 -3 -7 -21 -15 -41
-21 -51 -20 -105 2 -101 12 2 20 17 24 43 4 22 14 56 23 76 12 30 22 38 51 43
20 4 50 4 66 1 22 -5 29 -3 29 9 0 20 -40 30 -85 22 -19 -4 -35 -5 -35 -3 0 3
7 24 15 47 8 23 15 49 15 56 0 23 -30 16 -39 -8z"/>
<path d="M15630 9668 c-11 -24 -20 -50 -20 -58 0 -8 -15 0 -38 23 -21 20 -43
37 -50 37 -24 0 -11 -24 33 -64 25 -23 45 -50 45 -60 0 -16 -6 -18 -57 -13
-32 4 -73 9 -90 13 -18 3 -33 2 -33 -3 0 -10 86 -43 113 -43 16 0 16 -2 -5
-20 -12 -11 -36 -29 -51 -41 -18 -14 -25 -25 -19 -31 6 -6 30 3 66 26 31 20
58 36 59 36 1 0 3 -18 3 -40 2 -76 28 -66 39 15 8 64 29 74 57 25 9 -17 24
-30 33 -30 19 0 19 5 -1 36 -9 13 -15 26 -13 29 3 2 33 8 68 14 36 6 68 14 73
19 16 16 -24 19 -94 7 l-67 -11 56 51 c31 27 65 56 75 63 10 7 18 17 18 23 0
18 -30 8 -65 -22 -41 -36 -118 -89 -123 -85 -2 2 6 31 18 65 11 34 18 66 15
72 -12 19 -26 8 -45 -33z"/>
<path d="M1845 9654 c11 -59 37 -102 87 -140 l26 -21 -88 -37 c-92 -39 -120
-60 -104 -76 11 -11 84 6 84 19 0 5 43 25 95 46 103 40 117 60 60 78 -53 17
-86 48 -113 105 -33 69 -58 83 -47 26z"/>
<path d="M3762 9677 c-35 -42 -32 -97 4 -82 13 5 15 9 7 12 -10 4 -9 11 2 33
8 16 15 34 15 40 0 14 -15 13 -28 -3z"/>
<path d="M4524 9682 c-6 -4 -19 -23 -29 -42 -28 -55 -35 -62 -51 -45 -8 7 -14
18 -14 24 0 6 -7 11 -14 11 -13 0 -13 -5 0 -36 8 -20 13 -38 11 -40 -2 -2 -31
-7 -65 -10 -46 -5 -62 -11 -62 -22 0 -12 10 -14 59 -9 l60 7 -34 -52 c-19 -28
-31 -56 -28 -61 6 -10 27 12 66 67 22 32 33 33 40 5 3 -12 11 -19 19 -16 14 5
14 10 2 41 -6 16 -2 18 46 15 33 -3 55 0 57 7 4 13 -28 24 -75 24 l-32 0 35
64 c19 35 35 67 35 70 0 8 -13 7 -26 -2z"/>
<path d="M5020 9671 c0 -13 26 -20 79 -20 24 0 45 -2 47 -4 2 -2 -18 -18 -46
-35 -58 -36 -63 -55 -19 -68 39 -11 73 -53 63 -77 -10 -26 -59 -48 -120 -54
-46 -5 -54 -3 -54 11 0 21 -39 21 -47 -1 -9 -24 32 -53 76 -53 148 0 226 99
138 176 l-37 31 60 39 c33 21 59 43 57 49 -5 13 -197 19 -197 6z"/>
<path d="M9582 9639 c2 -7 10 -15 17 -17 8 -3 12 1 9 9 -2 7 -10 15 -17 17 -8
3 -12 -1 -9 -9z"/>
<path d="M9712 9590 c-23 -17 -42 -37 -42 -46 0 -8 14 -29 31 -46 35 -36 33
-53 -10 -61 -43 -9 -63 1 -55 25 4 15 2 19 -7 16 -8 -3 -15 -19 -17 -36 -3
-27 1 -34 23 -42 33 -12 105 2 121 25 15 20 2 74 -21 91 -24 17 -18 33 20 55
38 23 47 49 17 49 -11 0 -38 -14 -60 -30z"/>
<path d="M2487 9545 c-20 -14 -37 -29 -37 -34 0 -13 35 -41 51 -41 8 0 28 -11
44 -25 l30 -25 -24 -20 c-33 -28 -118 -25 -113 3 2 14 -2 18 -15 15 -20 -4
-21 -41 -2 -65 20 -23 91 -16 137 14 68 44 66 69 -11 113 l-50 28 31 16 c17 9
42 16 57 16 16 0 25 6 25 15 0 26 -79 19 -123 -10z"/>
<path d="M3054 9552 c-32 -26 -57 -70 -50 -88 5 -13 16 -15 51 -12 33 4 45 2
45 -8 0 -7 7 -20 16 -29 12 -12 19 -13 30 -4 19 16 18 33 -2 25 -13 -5 -15 -2
-10 16 24 86 17 97 -36 53 -16 -14 -39 -25 -51 -25 -19 0 -19 2 8 30 20 21 35
28 48 24 14 -5 18 -2 15 13 -4 24 -38 27 -64 5z"/>
<path d="M11133 9535 c-15 -19 -33 -35 -40 -35 -21 0 -24 -19 -6 -38 10 -10
23 -27 29 -37 19 -34 114 -46 114 -14 0 6 -4 8 -8 5 -13 -8 -82 13 -82 24 0 5
13 16 28 24 34 18 56 57 47 85 -10 33 -49 27 -82 -14z m57 -3 c0 -12 -39 -46
-45 -41 -6 7 24 49 36 49 5 0 9 -4 9 -8z"/>
<path d="M2799 9521 c-23 -23 -43 -41 -44 -41 -2 0 -5 9 -8 21 -3 12 -11 19
-19 16 -7 -2 -11 -11 -9 -18 13 -53 11 -94 -9 -160 -20 -68 -21 -119 0 -119
15 0 29 33 42 104 9 49 17 66 28 64 32 -4 60 15 90 60 65 98 13 152 -71 73z
m71 -1 c0 -21 -30 -70 -49 -80 -51 -27 -55 4 -7 54 33 36 56 46 56 26z"/>
<path d="M3312 9520 c-41 -32 -53 -37 -52 -23 4 31 0 43 -11 43 -6 0 -9 -6 -7
-12 3 -7 -1 -33 -9 -57 -17 -58 -3 -74 30 -35 14 16 45 44 71 62 l46 33 -6
-45 c-4 -26 -3 -46 1 -46 4 0 22 9 40 20 l33 20 6 -25 c9 -36 50 -50 81 -27
35 25 31 32 -16 26 l-42 -6 7 46 c7 43 -3 62 -19 36 -3 -6 -19 -17 -35 -25
l-30 -15 10 26 c22 58 -25 59 -98 4z"/>
<path d="M9517 9543 c-19 -31 -11 -121 9 -101 10 11 15 108 5 108 -6 0 -12 -3
-14 -7z"/>
<path d="M13894 9540 c-28 -11 -84 -77 -84 -98 0 -42 42 -53 104 -27 36 15 36
15 36 -9 0 -13 7 -29 15 -36 13 -11 15 -8 15 17 0 16 9 46 20 68 34 66 23 86
-21 39 -26 -28 -93 -63 -121 -64 -29 0 -21 25 17 59 40 35 53 38 61 16 9 -22
24 -18 24 5 0 10 -9 24 -19 30 -22 11 -19 11 -47 0z"/>
<path d="M14140 9519 c-39 -24 -100 -79 -100 -91 0 -16 23 -7 56 22 19 16 47
36 64 45 l29 15 -16 -46 c-11 -33 -12 -49 -5 -56 8 -8 13 -7 17 3 22 63 35
104 35 115 0 21 -40 17 -80 -7z"/>
<path d="M11513 9504 c-39 -30 -42 -50 -9 -65 19 -9 29 -8 47 5 40 27 49 21
49 -34 l0 -50 -34 0 c-72 0 -134 -93 -107 -159 7 -16 21 -37 32 -47 18 -16 21
-16 57 22 48 52 80 149 85 267 4 66 2 87 -8 87 -7 0 -15 -7 -18 -15 -4 -8 -25
-24 -49 -36 l-43 -22 19 22 c11 11 26 21 33 21 18 0 11 24 -8 28 -8 1 -29 -10
-46 -24z m71 -196 c-12 -41 -32 -83 -48 -103 -16 -20 -16 -20 -31 -1 -36 47 0
126 56 126 27 0 30 -3 23 -22z"/>
<path d="M11317 9463 c-13 -12 -7 -43 7 -43 19 0 28 14 20 34 -7 17 -16 20
-27 9z"/>
<path d="M6446 9396 c-28 -48 -31 -62 -17 -70 10 -7 61 78 61 100 0 26 -18 14
-44 -30z"/>
<path d="M10488 9408 c-56 -104 -62 -128 -32 -128 17 0 50 63 59 113 8 42 -7
50 -27 15z"/>
<path d="M11796 9415 c-9 -9 -14 -21 -11 -25 8 -12 56 11 52 24 -6 17 -24 18
-41 1z"/>
<path d="M13338 9352 c-18 -21 -41 -41 -50 -45 -23 -8 -23 -37 -1 -37 18 0
103 88 103 107 0 23 -18 14 -52 -25z"/>
<path d="M5935 9339 c-6 -27 -1 -49 9 -38 10 11 17 69 8 69 -6 0 -13 -14 -17
-31z"/>
<path d="M7970 9361 c-31 -4 -45 -11 -45 -21 0 -11 13 -15 55 -16 30 -1 60 -2
65 -3 16 -2 6 -173 -21 -337 -13 -83 -25 -166 -27 -185 l-3 -34 -72 -1 c-78
-1 -88 -5 -79 -29 5 -12 24 -15 91 -15 72 0 85 3 90 18 15 54 65 413 70 504
l5 107 -37 11 c-20 5 -39 9 -42 8 -3 0 -25 -4 -50 -7z"/>
<path d="M4410 9268 c-24 -39 -22 -61 4 -66 13 -3 17 0 13 11 -3 8 1 23 8 34
17 21 19 53 5 53 -6 0 -19 -15 -30 -32z"/>
<path d="M2163 9255 c-17 -12 -23 -26 -23 -54 0 -21 -7 -99 -16 -174 -21 -183
-18 -216 22 -239 26 -15 40 -17 74 -9 52 12 58 18 35 35 -14 10 -26 11 -47 4
-49 -17 -62 3 -54 92 12 155 30 305 36 312 3 5 21 10 38 12 60 7 57 25 -5 33
-26 3 -45 -1 -60 -12z"/>
<path d="M7808 9253 c-2 -4 -5 -23 -7 -40 -2 -25 2 -33 13 -33 10 0 17 10 18
25 0 14 1 30 2 37 1 13 -20 23 -26 11z"/>
<path d="M2336 9195 c-17 -44 -15 -76 6 -102 19 -23 23 -14 24 48 1 45 5 65
17 74 19 13 12 25 -13 25 -11 0 -23 -16 -34 -45z"/>
<path d="M1858 9082 c-71 -42 -128 -82 -128 -88 0 -6 12 -14 28 -17 16 -3 34
-18 44 -35 22 -38 94 -102 113 -102 24 0 17 16 -19 43 -18 15 -49 48 -69 75
l-35 50 114 67 c101 60 128 85 91 85 -7 0 -69 -35 -139 -78z"/>
<path d="M4680 9121 c-33 -9 -38 -46 -11 -82 28 -38 26 -63 -4 -77 -32 -15
-31 -15 -49 4 -15 14 -17 14 -23 -2 -4 -11 0 -22 12 -30 26 -19 44 -17 83 6
39 24 43 66 10 110 -12 16 -19 33 -15 36 3 4 26 9 52 11 46 6 58 16 29 27 -19
7 -51 6 -84 -3z"/>
<path d="M6640 9117 c-26 -13 -28 -27 -14 -96 5 -27 3 -37 -12 -48 -25 -18
-35 -16 -27 5 6 15 4 15 -15 -2 -12 -11 -22 -27 -22 -38 0 -25 50 -24 84 3 29
23 35 69 14 114 -15 33 -6 40 48 38 49 -2 58 12 18 27 -33 13 -44 12 -74 -3z"/>
<path d="M7510 9075 c-31 -32 -36 -34 -46 -20 -14 19 -20 11 -23 -34 -1 -19
-10 -54 -20 -77 -18 -40 -18 -54 0 -54 4 0 24 31 45 70 37 72 75 120 94 120
13 0 13 -14 -5 -80 -18 -68 -18 -70 -1 -70 7 0 41 30 75 67 68 73 84 73 70 0
-13 -65 -11 -85 10 -96 15 -9 22 -6 36 15 19 30 13 43 -11 23 -15 -12 -16 -10
-10 29 3 24 8 48 12 53 3 6 0 23 -6 40 -17 41 -46 37 -98 -13 l-44 -43 7 32
c16 78 -28 97 -85 38z"/>
<path d="M4965 9074 c-14 -15 -22 -31 -18 -37 4 -6 -3 -8 -20 -3 -24 6 -27 3
-32 -31 -4 -21 -17 -78 -31 -126 -28 -102 -28 -107 -11 -107 7 0 25 36 40 84
25 76 30 84 56 89 33 7 97 59 106 86 3 10 1 30 -4 45 -14 35 -54 35 -86 0z
m62 -20 c5 -16 -42 -70 -67 -77 -11 -3 -20 -1 -20 3 0 16 20 60 32 74 15 16
50 16 55 0z"/>
<path d="M5216 9059 c-45 -53 -27 -116 26 -88 16 9 23 7 34 -10 9 -12 21 -18
30 -14 11 4 12 9 5 16 -6 6 -11 21 -11 34 0 27 -25 31 -58 7 -20 -14 -22 -14
-22 4 0 10 8 27 19 36 17 15 20 15 34 1 21 -20 27 -19 27 5 0 18 -26 40 -48
40 -6 0 -22 -14 -36 -31z"/>
<path d="M6931 9083 c-20 -8 -47 -38 -65 -70 -14 -26 -15 -26 -16 -5 0 12 -4
22 -10 22 -5 0 -9 -17 -8 -38 1 -37 -34 -156 -54 -179 -6 -7 -7 -13 -4 -13 4
0 0 -7 -8 -16 -18 -17 -21 -44 -7 -44 16 0 69 62 87 100 10 19 18 58 19 87 3
56 27 107 62 130 20 14 24 13 48 -13 31 -33 32 -57 3 -84 -24 -22 -64 -27 -70
-8 -2 6 -10 8 -16 4 -20 -12 5 -46 34 -46 37 0 84 28 94 56 11 29 -6 70 -42
104 -23 21 -25 22 -47 13z"/>
<path d="M5501 9045 c-17 -15 -31 -22 -31 -16 0 6 -4 11 -10 11 -5 0 -10 -9
-10 -21 0 -11 -9 -32 -20 -46 -11 -14 -20 -32 -20 -39 0 -28 26 -12 70 43 43
54 44 55 51 30 13 -48 18 -49 75 -17 48 28 54 29 54 13 0 -10 4 -23 8 -30 10
-16 82 -28 82 -14 0 6 -11 11 -25 11 -26 0 -40 28 -33 66 5 30 -26 28 -79 -5
l-48 -30 -5 31 c-7 41 -21 44 -59 13z"/>
<path d="M7166 9026 c-66 -62 -34 -126 47 -93 31 13 37 14 48 1 19 -23 25 -16
24 31 -1 52 -9 65 -24 37 -6 -11 -29 -27 -51 -36 -50 -20 -50 -20 -50 -1 0 27
51 67 77 60 25 -6 30 4 11 23 -20 20 -45 14 -82 -22z"/>
<path d="M2599 9016 c-34 -17 -33 -27 11 -86 22 -29 40 -57 40 -62 0 -5 -12
-14 -26 -20 -23 -11 -29 -10 -45 11 l-19 23 0 -35 c0 -36 12 -47 53 -47 77 1
84 93 13 159 -32 30 -20 41 35 31 34 -6 60 2 47 15 -13 14 -89 21 -109 11z"/>
<path d="M3090 8994 c-39 -33 -38 -67 3 -74 16 -3 33 -15 40 -30 7 -14 23 -26
35 -28 27 -4 28 2 1 29 -12 12 -19 29 -16 39 8 30 -7 44 -33 30 -27 -14 -36
-8 -14 11 9 7 29 12 45 11 33 -3 38 12 10 28 -28 15 -36 13 -71 -16z"/>
<path d="M2940 8999 c0 -5 -5 -7 -11 -3 -11 6 -59 -40 -59 -57 0 -5 -6 -6 -14
-3 -11 4 -15 -11 -21 -67 -8 -75 -26 -131 -51 -156 -18 -19 -19 -73 0 -73 17
0 52 81 61 143 6 41 10 47 31 47 39 0 70 20 93 60 23 42 26 71 11 101 -11 20
-40 26 -40 8z m17 -55 c-7 -45 -42 -84 -74 -84 -27 0 -27 -2 -7 46 21 50 42
74 67 74 17 0 19 -5 14 -36z"/>
<path d="M3365 8970 c-45 -35 -48 -36 -40 -10 3 11 2 20 -3 20 -5 0 -19 -26
-31 -59 -22 -62 -26 -81 -13 -81 8 0 67 72 67 82 0 4 10 14 22 23 20 14 22 14
25 -7 5 -36 38 -35 68 3 32 38 55 35 65 -11 6 -28 29 -50 40 -38 6 6 -19 73
-34 92 -22 26 -51 19 -89 -21 l-34 -37 6 31 c10 44 -5 48 -49 13z"/>
<path d="M6005 8864 c0 -43 -4 -50 -48 -89 -40 -35 -45 -44 -34 -54 12 -9 22
-6 48 16 44 36 47 40 60 87 8 30 8 45 -2 63 -18 34 -24 29 -24 -23z"/>
<path d="M3977 8870 c-6 -24 8 -36 17 -14 8 22 7 34 -3 34 -5 0 -11 -9 -14
-20z"/>
<path d="M9918 8869 c-10 -5 -18 -21 -18 -34 0 -14 -9 -57 -19 -97 -10 -40
-24 -106 -31 -146 -9 -53 -26 -100 -62 -168 -34 -65 -47 -101 -43 -115 6 -19
12 -20 83 -14 85 8 87 9 77 26 -6 8 -27 10 -72 5 l-64 -7 50 98 c35 69 53 119
61 168 14 91 50 236 63 253 6 8 28 12 56 11 53 -2 111 9 111 21 0 12 -171 11
-192 -1z"/>
<path d="M8925 8849 c-16 -5 -48 -13 -69 -17 -48 -9 -61 -32 -18 -32 16 0 43
5 61 11 18 6 34 9 36 7 2 -2 -2 -26 -11 -53 -18 -60 -94 -434 -94 -463 0 -19
-5 -20 -97 -19 -82 2 -98 -1 -101 -14 -2 -13 13 -17 99 -22 114 -7 129 -2 129
44 0 53 81 433 105 494 19 45 21 61 12 67 -14 9 -13 9 -52 -3z"/>
<path d="M3932 8820 c-12 -11 -28 -20 -37 -20 -16 0 -32 -26 -22 -37 10 -9 92
42 95 60 5 23 -9 22 -36 -3z"/>
<path d="M5628 8835 c-16 -17 6 -25 65 -25 85 0 92 -6 67 -58 -11 -23 -27 -79
-36 -124 -8 -46 -26 -127 -40 -180 -13 -53 -24 -110 -24 -127 0 -16 -4 -32 -9
-35 -5 -3 -44 1 -87 10 -61 13 -85 14 -107 5 -36 -14 -30 -37 9 -34 16 2 61
-4 101 -12 40 -8 77 -15 82 -15 21 0 41 33 41 70 0 49 51 265 92 393 30 92 31
99 15 115 -18 17 -155 31 -169 17z"/>
<path d="M11718 8835 c-16 -16 5 -25 58 -25 l54 0 -15 -37 c-27 -63 -104 -348
-111 -407 -8 -64 -8 -64 -99 -41 -62 17 -85 14 -85 -8 0 -17 93 -41 159 -41
l46 -1 6 65 c8 76 45 221 96 373 20 59 33 110 29 114 -10 10 -130 16 -138 8z"/>
<path d="M7132 8802 c-28 -4 -36 -22 -56 -135 -18 -95 -63 -246 -102 -339 -60
-143 -12 -192 149 -153 64 15 72 19 63 33 -5 9 -34 8 -128 -3 -86 -11 -87 0
-19 185 34 92 75 247 86 323 l7 47 64 0 c58 0 79 9 55 25 -16 9 -94 21 -119
17z"/>
<path d="M11416 8798 c-24 -84 -27 -101 -18 -110 11 -11 35 -1 28 11 -3 4 1
28 9 53 7 26 11 49 8 52 -10 10 -23 7 -27 -6z"/>
<path d="M11514 8783 c-3 -10 -12 -35 -20 -56 -15 -39 -12 -57 9 -57 11 0 37
84 37 118 0 18 -20 14 -26 -5z"/>
<path d="M11187 8703 c-9 -43 -25 -115 -35 -159 -18 -77 -16 -114 7 -114 4 0
16 39 25 88 9 48 24 122 32 164 15 72 13 98 -4 98 -4 0 -15 -35 -25 -77z"/>
<path d="M5300 8724 c-19 -43 -19 -64 -1 -64 9 0 41 77 41 98 0 27 -22 9 -40
-34z"/>
<path d="M5376 8725 c-19 -49 -18 -90 2 -90 9 0 15 16 17 46 1 25 6 55 9 67
14 42 -11 22 -28 -23z"/>
<path d="M7406 8731 c-10 -21 -16 -49 -14 -62 4 -32 34 -32 31 -1 -2 13 4 36
12 53 15 28 13 49 -4 49 -4 0 -16 -17 -25 -39z"/>
<path d="M10110 8750 c0 -11 -5 -29 -12 -39 -9 -15 -9 -23 2 -36 12 -14 15
-12 26 22 18 50 17 73 -1 73 -8 0 -15 -9 -15 -20z"/>
<path d="M10188 8724 c-13 -31 -17 -49 -10 -56 11 -11 52 58 52 87 0 30 -22
14 -42 -31z"/>
<path d="M7489 8712 c-16 -49 -15 -72 3 -72 5 0 8 6 5 13 -2 6 2 26 10 44 7
18 13 39 13 48 0 30 -15 14 -31 -33z"/>
<path d="M8273 8738 c-18 -21 -44 -123 -37 -142 8 -21 30 -15 27 9 0 9 7 42
18 73 18 54 14 87 -8 60z"/>
<path d="M8351 8710 c-24 -44 -25 -85 -1 -85 9 0 14 7 12 18 -2 10 6 34 18 53
19 33 19 54 1 54 -4 0 -17 -18 -30 -40z"/>
<path d="M3425 8695 c-16 -40 -14 -87 2 -71 13 13 42 99 37 108 -11 17 -23 6
-39 -37z"/>
<path d="M3103 8718 c-18 -5 -33 -10 -33 -11 0 -32 -38 -195 -61 -264 -40
-122 -38 -141 26 -173 52 -25 149 -37 161 -19 9 16 1 19 -52 23 -66 4 -124 30
-124 54 0 11 15 66 34 123 19 57 37 132 41 166 7 65 22 80 57 59 28 -17 34 3
7 28 -20 20 -29 22 -56 14z"/>
<path d="M3511 8691 c-15 -29 -17 -41 -8 -50 8 -8 16 -2 29 26 33 68 13 92
-21 24z"/>
<path d="M4470 8674 c0 -20 -19 -92 -42 -160 -34 -98 -40 -126 -30 -136 10
-10 16 -7 29 12 32 45 86 97 78 75 -15 -45 -22 -106 -13 -111 5 -3 12 -4 14
-1 11 10 33 127 28 142 -8 20 -33 19 -56 -2 -22 -20 -22 -24 8 98 19 76 18
119 -1 119 -11 0 -15 -11 -15 -36z"/>
<path d="M3830 8692 c0 -5 19 -15 43 -21 23 -7 48 -18 55 -23 25 -21 13 -60
-32 -104 -35 -36 -50 -44 -80 -44 -36 0 -44 7 -27 26 12 13 19 93 12 128 -3
16 -12 31 -19 34 -11 3 -13 -6 -11 -39 2 -24 0 -63 -5 -85 -6 -34 -11 -41 -26
-37 -24 6 -36 -15 -18 -33 13 -13 11 -25 -15 -97 -49 -138 -57 -173 -42 -194
12 -15 14 -16 19 -3 32 92 76 233 76 245 0 11 11 15 40 15 57 0 101 21 138 66
58 71 52 123 -20 160 -30 15 -88 19 -88 6z"/>
<path d="M4325 8688 c-3 -7 -13 -42 -23 -78 -16 -58 -20 -65 -46 -70 -30 -5
-49 -30 -24 -30 8 0 20 6 27 13 9 8 12 8 7 0 -3 -6 -2 -13 3 -15 5 -1 0 -30
-10 -63 -22 -69 -24 -108 -7 -103 6 2 21 40 33 84 20 76 23 79 53 84 41 6 46
24 10 28 -32 4 -33 11 -13 78 8 27 15 57 15 67 0 20 -18 23 -25 5z"/>
<path d="M9431 8653 c-6 -21 -11 -46 -11 -55 0 -12 -8 -18 -25 -18 -14 0 -25
-4 -25 -10 0 -9 14 -14 33 -11 4 1 5 -14 2 -33 -10 -53 13 -55 27 -1 8 29 17
44 25 41 7 -3 27 1 45 9 27 11 30 15 15 20 -9 4 -29 4 -43 1 -24 -6 -25 -6
-18 31 3 21 7 42 8 47 0 5 -4 10 -11 13 -7 2 -16 -12 -22 -34z"/>
<path d="M12675 8657 c-88 -11 -98 -14 -89 -28 4 -7 27 -10 60 -7 l53 5 -44
-35 c-37 -29 -43 -37 -34 -53 5 -10 28 -28 49 -39 22 -11 40 -26 40 -33 0 -7
-13 -26 -30 -42 -22 -21 -40 -28 -72 -29 -35 -1 -43 2 -47 21 -7 26 -25 19
-35 -14 -15 -47 72 -69 141 -36 38 18 73 65 73 100 0 23 -37 57 -73 69 -19 6
-15 12 39 59 37 33 55 57 49 62 -6 5 -41 5 -80 0z"/>
<path d="M1974 8649 c-3 -6 23 -40 60 -76 77 -75 78 -69 -25 -139 -64 -44 -82
-72 -54 -80 13 -4 185 125 199 149 9 15 6 22 -13 35 -13 9 -49 41 -81 70 -58
53 -74 61 -86 41z"/>
<path d="M12185 8590 c-14 -27 -30 -50 -36 -50 -6 0 -18 18 -27 40 -9 22 -23
40 -29 40 -18 0 -16 -20 7 -63 l20 -37 -46 0 c-61 0 -54 -24 8 -28 l46 -3 -25
-55 c-19 -41 -22 -59 -14 -67 8 -8 11 -6 11 6 0 9 4 17 9 17 5 0 12 10 15 23
3 12 13 31 21 41 14 19 16 19 34 2 26 -24 49 -11 26 15 -17 17 -15 18 34 25
64 8 62 28 -2 32 -26 2 -47 5 -47 7 0 1 11 22 24 46 24 41 25 59 6 59 -6 0
-21 -22 -35 -50z"/>
<path d="M6339 8603 c-5 -16 -11 -33 -14 -40 -2 -6 -14 -13 -26 -15 -29 -4
-37 -28 -10 -28 15 0 21 -6 21 -22 0 -13 4 -29 9 -37 14 -22 28 -4 23 30 l-5
31 44 -4 c54 -4 64 14 14 26 -37 10 -39 17 -19 70 4 11 1 16 -10 16 -9 0 -21
-12 -27 -27z"/>
<path d="M7790 8610 c0 -5 4 -10 9 -10 6 0 13 5 16 10 3 6 -1 10 -9 10 -9 0
-16 -4 -16 -10z"/>
<path d="M10455 8576 c-37 -16 -85 -70 -85 -96 0 -29 64 -74 95 -66 28 7 34
25 8 23 -19 -1 -73 30 -73 42 0 16 34 52 61 66 19 10 27 20 22 28 -4 7 0 6 10
-2 19 -15 33 -9 22 8 -8 14 -23 13 -60 -3z"/>
<path d="M7918 8545 c-51 -34 -58 -62 -23 -92 22 -19 25 -26 15 -38 -14 -17
-75 -21 -65 -5 9 14 -18 13 -33 -2 -19 -19 6 -38 52 -38 50 0 75 16 81 52 4
21 0 31 -20 44 -23 15 -24 18 -10 34 8 9 12 20 8 24 -5 4 -3 6 2 5 14 -4 55
19 55 31 0 17 -24 11 -62 -15z"/>
<path d="M10864 8535 c-30 -40 -34 -79 -11 -102 14 -15 20 -15 62 1 25 10 50
26 55 36 26 48 -2 100 -53 100 -18 0 -34 -11 -53 -35z m84 -22 c2 -16 -6 -28
-30 -43 -18 -11 -36 -20 -40 -20 -14 0 -8 40 8 66 21 31 58 29 62 -3z"/>
<path d="M10630 8531 c-11 -22 -3 -76 14 -90 20 -16 80 11 91 43 8 24 6 31
-14 47 -31 25 -77 25 -91 0z m75 -30 c3 -5 -5 -17 -17 -26 -21 -14 -24 -14
-32 4 -14 31 -1 54 23 41 11 -5 22 -14 26 -19z"/>
<path d="M4669 8480 c-20 -16 -42 -43 -49 -60 -32 -78 47 -111 115 -47 45 41
55 87 26 116 -28 28 -50 26 -92 -9z m79 -39 c2 -6 -10 -25 -27 -42 -53 -52
-106 -24 -62 33 16 20 28 25 53 23 18 -1 34 -7 36 -14z"/>
<path d="M4857 8450 c-20 -72 -20 -70 -3 -70 8 0 29 18 46 40 17 22 36 40 41
40 5 0 7 -23 3 -53 -5 -42 -3 -55 10 -66 9 -7 16 -10 17 -5 1 5 2 27 3 49 1
22 6 59 10 83 8 37 7 42 -10 42 -11 0 -35 -13 -55 -29 l-35 -29 4 29 c8 52
-14 31 -31 -31z"/>
<path d="M7736 8498 c-2 -7 -11 -33 -20 -58 -20 -56 -20 -70 -3 -70 12 0 55
114 50 130 -4 11 -23 10 -27 -2z"/>
<path d="M4086 8438 c-8 -13 -22 -39 -31 -59 l-17 -36 -41 44 c-26 28 -44 40
-50 34 -11 -11 51 -91 72 -91 10 0 9 -6 -5 -27 -31 -48 -51 -96 -59 -140 -6
-36 -4 -43 9 -43 9 0 16 8 16 18 0 10 4 22 9 28 5 5 18 34 29 64 12 30 39 89
61 130 22 41 41 81 41 88 0 19 -18 14 -34 -10z"/>
<path d="M6300 8251 c-21 -40 -7 -111 22 -111 4 0 4 22 1 50 -5 40 -3 51 11
56 22 9 20 24 -4 24 -10 0 -24 -9 -30 -19z"/>
<path d="M2510 8253 c-19 -3 -39 -8 -43 -12 -23 -22 -81 -364 -75 -438 4 -47
40 -70 121 -76 68 -5 102 -30 118 -89 12 -48 4 -98 -29 -165 -29 -60 -113
-150 -148 -159 -36 -9 -29 -26 9 -21 47 6 69 20 115 72 47 53 78 115 93 186
13 62 -3 115 -54 170 -30 32 -38 36 -92 38 -77 3 -95 13 -95 56 0 50 18 177
41 292 l21 101 43 12 c24 7 52 9 64 5 23 -7 28 4 9 23 -12 12 -30 13 -98 5z"/>
<path d="M2824 8245 c-4 -9 -7 -38 -8 -67 -2 -71 19 -74 28 -4 3 30 9 61 12
70 4 11 1 16 -10 16 -9 0 -19 -7 -22 -15z"/>
<path d="M4636 8238 c-12 -35 -17 -178 -7 -178 6 0 14 0 18 0 11 0 15 178 3
185 -5 3 -12 0 -14 -7z"/>
<path d="M5460 8196 c-7 -30 -10 -62 -6 -71 9 -26 31 -12 32 21 1 16 5 46 9
67 6 29 5 37 -7 37 -10 0 -19 -19 -28 -54z"/>
<path d="M7374 8223 c3 -16 -3 -52 -13 -82 -19 -54 -18 -95 3 -88 6 2 14 21
17 43 3 21 11 52 18 68 14 36 5 86 -16 86 -11 0 -13 -7 -9 -27z"/>
<path d="M9027 8226 c-49 -18 -33 -36 32 -36 l58 0 -19 -87 c-11 -50 -22 -147
-25 -224 l-5 -137 -57 1 c-65 0 -131 -19 -131 -38 0 -22 12 -24 67 -10 36 9
63 11 84 5 67 -19 75 0 83 190 2 63 12 151 22 195 10 44 18 94 18 110 1 29 -1
30 -49 35 -28 3 -63 1 -78 -4z"/>
<path d="M3096 8195 c-24 -18 -14 -31 15 -19 22 10 145 2 157 -10 18 -18 -86
-156 -118 -156 -18 0 -40 45 -40 82 0 26 -4 38 -14 38 -11 0 -16 -26 -21 -112
-8 -136 -4 -200 13 -206 9 -3 12 19 12 87 l0 90 30 -10 c25 -9 36 -7 64 10 58
36 115 126 108 169 -2 12 -15 28 -30 36 -39 19 -152 20 -176 1z"/>
<path d="M3766 8192 c-4 -6 -10 -255 -7 -304 2 -32 26 -19 44 24 14 33 20 39
30 29 6 -6 12 -33 12 -58 0 -58 20 -68 29 -14 11 68 -26 127 -65 103 -18 -12
-19 -8 -19 108 0 106 -7 139 -24 112z"/>
<path d="M8716 8178 c-17 -64 -26 -119 -21 -128 11 -18 30 -5 32 21 1 13 5 45
9 72 5 33 3 47 -5 47 -6 0 -13 -6 -15 -12z"/>
<path d="M8377 8148 c11 -30 8 -116 -7 -204 -13 -75 -4 -114 24 -114 18 0 28
27 12 33 -10 4 -10 28 1 123 14 125 7 184 -23 184 -12 0 -13 -6 -7 -22z"/>
<path d="M1990 8107 c-25 -18 -75 -50 -112 -70 -70 -39 -82 -59 -48 -77 11 -6
52 -38 91 -70 71 -60 99 -73 99 -46 0 11 -63 71 -142 136 -4 3 22 23 58 44 70
40 124 86 124 105 0 19 -23 12 -70 -22z"/>
<path d="M3597 8088 c-4 -29 -7 -70 -7 -90 0 -36 -1 -37 -55 -49 -31 -7 -54
-17 -52 -23 4 -12 38 -14 78 -3 l26 7 -8 -52 c-9 -58 -2 -105 13 -90 6 6 12
29 13 51 6 82 15 101 52 116 42 18 36 37 -8 25 l-31 -9 4 81 c4 95 -15 122
-25 36z"/>
<path d="M5720 8081 c0 -6 5 -13 10 -16 6 -3 10 1 10 9 0 9 -4 16 -10 16 -5 0
-10 -4 -10 -9z"/>
<path d="M5930 8032 c-44 -24 -49 -47 -17 -80 14 -15 31 -40 37 -56 l11 -29
-66 5 c-50 5 -65 3 -65 -8 0 -37 114 -48 145 -14 15 16 16 24 6 52 -6 18 -23
44 -37 59 l-26 27 23 16 c13 9 34 16 47 16 14 0 22 5 20 13 -7 19 -40 19 -78
-1z"/>
<path d="M7712 8033 c-6 -2 -10 -9 -7 -14 4 -5 0 -6 -7 -4 -20 8 -77 -46 -87
-82 -11 -40 17 -103 60 -134 48 -34 54 -11 9 37 -53 58 -55 100 -6 138 19 14
46 31 60 37 14 7 26 16 26 21 0 9 -27 10 -48 1z"/>
<path d="M4186 7969 c-49 -58 -69 -119 -39 -119 8 0 47 79 45 91 0 3 8 10 18
16 16 11 20 6 36 -53 16 -62 37 -94 48 -76 5 8 -32 136 -47 160 -13 20 -34 14
-61 -19z"/>
<path d="M4014 7980 c-24 -10 -47 -58 -42 -91 2 -13 14 -29 27 -36 21 -10 31
-8 63 8 42 22 48 44 22 85 -22 33 -44 43 -70 34z m37 -50 c24 -20 24 -20 5
-35 -42 -32 -69 -10 -50 39 8 21 17 20 45 -4z"/>
<path d="M8060 7960 c-23 -23 -26 -72 -6 -89 36 -30 129 -21 142 14 12 31 -5
61 -44 78 -50 22 -68 21 -92 -3z m58 -22 c-2 -8 7 -13 22 -13 38 0 38 -32 1
-40 -58 -12 -93 19 -59 53 16 16 39 15 36 0z"/>
<path d="M5699 7943 c-12 -32 -15 -86 -5 -102 11 -17 26 -3 24 22 -1 12 2 41
6 65 9 48 -8 59 -25 15z"/>
<path d="M7844 7946 c-15 -12 -17 -17 -6 -27 6 -7 12 -28 12 -45 0 -43 29 -53
70 -24 32 23 42 70 15 70 -8 0 -15 6 -15 14 0 7 -10 16 -22 20 -31 8 -32 8
-54 -8z m74 -47 c1 -8 -7 -20 -18 -27 -18 -11 -20 -10 -20 11 0 13 3 27 7 31
10 10 28 1 31 -15z"/>
<path d="M3247 7944 c-9 -9 63 -94 79 -94 22 0 17 13 -22 58 -35 42 -45 48
-57 36z"/>
<path d="M3375 7938 c-27 -88 -51 -151 -79 -206 -38 -76 -57 -137 -49 -158 9
-25 22 -15 29 24 4 20 23 69 42 107 27 55 92 225 92 242 0 9 -31 1 -35 -9z"/>
<path d="M5105 7897 c-8 -20 -15 -39 -15 -42 0 -3 -16 -31 -36 -62 -25 -39
-32 -59 -25 -66 13 -13 10 -15 54 53 40 64 62 129 47 144 -6 6 -15 -4 -25 -27z"/>
<path d="M6524 7855 c7 -28 -9 -66 -50 -114 -15 -18 -24 -38 -20 -47 9 -23 42
0 76 52 26 42 29 57 21 122 0 6 -8 12 -17 12 -12 0 -15 -6 -10 -25z"/>
<path d="M1432 7730 c-18 -11 -32 -23 -32 -28 0 -5 -10 -19 -22 -31 -36 -40
-78 -176 -77 -256 0 -83 15 -129 59 -186 49 -60 160 -105 160 -64 0 9 -9 15
-22 15 -45 0 -102 43 -128 95 -22 43 -25 63 -24 145 1 81 5 105 31 168 36 87
64 122 98 122 29 0 33 15 7 29 -14 7 -27 5 -50 -9z"/>
<path d="M2349 7734 c-20 -7 -59 -26 -86 -43 -28 -17 -55 -31 -60 -31 -17 0
-73 -71 -73 -92 0 -20 36 -38 74 -38 13 0 29 -6 35 -13 14 -17 -18 -50 -52
-52 -29 -2 -31 -39 -2 -43 30 -4 84 34 91 63 8 33 -17 61 -68 77 l-39 12 33
30 c29 27 84 60 165 100 13 6 23 19 23 29 0 9 -1 16 -2 16 -2 -1 -19 -7 -39
-15z"/>
<path d="M7366 7703 c-3 -21 -6 -50 -6 -65 0 -15 -31 -89 -70 -164 -38 -75
-67 -140 -64 -145 9 -15 24 -10 52 17 31 29 100 78 122 86 12 5 14 -4 12 -49
-3 -43 -1 -54 9 -51 8 3 15 18 16 34 1 16 4 41 7 56 9 47 -16 54 -79 23 -30
-14 -53 -30 -50 -35 3 -4 -4 -10 -15 -13 -18 -5 -15 4 20 68 52 94 67 139 71
210 5 67 -15 88 -25 28z"/>
<path d="M8773 7713 c0 -16 -12 -53 -26 -83 -14 -30 -27 -64 -29 -75 -2 -13
-14 -22 -32 -25 -38 -6 -47 -30 -12 -30 14 0 26 -1 26 -2 0 -2 -9 -32 -20 -68
-11 -36 -20 -74 -20 -85 0 -31 16 -49 35 -41 13 4 14 10 7 19 -8 9 -3 37 17
97 24 73 31 85 52 88 48 7 99 23 95 31 -3 5 -28 6 -57 4 l-51 -4 7 33 c4 18
15 57 26 87 21 56 19 81 -4 81 -8 0 -14 -11 -14 -27z"/>
<path d="M3795 7700 c-3 -5 -1 -27 5 -47 5 -21 13 -76 16 -123 6 -85 6 -85
-24 -113 -50 -48 -94 -17 -57 39 11 18 22 23 36 19 23 -8 27 20 3 29 -38 14
-87 -43 -82 -96 7 -75 109 -57 150 26 20 42 21 51 10 133 -6 48 -13 97 -16
108 -2 11 -5 23 -5 28 -1 10 -29 9 -36 -3z"/>
<path d="M7160 7708 c-1 -1 -2 -30 -4 -63 -1 -33 -11 -88 -21 -122 -15 -55
-21 -63 -41 -63 -13 0 -24 -4 -24 -10 0 -5 9 -10 21 -10 14 0 19 -5 16 -14
-17 -44 -27 -100 -22 -117 10 -30 19 -14 40 64 16 61 19 67 44 67 14 0 33 5
41 10 11 7 5 10 -24 10 -27 0 -37 4 -33 13 2 7 12 47 22 88 18 81 16 140 -3
147 -7 2 -12 2 -12 0z"/>
<path d="M1807 7685 c-21 -7 -56 -26 -79 -41 -54 -38 -60 -42 -80 -48 -26 -8
-22 -26 6 -26 13 0 43 15 67 34 24 18 55 36 67 40 l24 8 -18 -29 c-10 -15 -31
-43 -46 -61 -48 -56 -31 -79 33 -46 24 12 34 13 45 3 14 -12 20 -59 7 -59 -5
0 -17 -13 -28 -30 -29 -43 -70 -55 -96 -29 -23 23 -52 18 -47 -8 5 -28 64 -53
100 -42 56 16 108 83 108 139 0 30 -46 73 -71 67 -19 -5 -19 -4 -6 11 30 35
69 114 61 122 -5 5 -26 3 -47 -5z"/>
<path d="M3554 7689 c-3 -6 -1 -38 5 -72 24 -144 19 -180 -30 -221 -39 -33
-69 -34 -69 -3 0 29 39 67 68 67 13 0 22 6 22 15 0 10 -10 15 -31 15 -42 0
-89 -50 -89 -94 0 -68 59 -77 121 -18 57 53 70 120 48 248 -10 59 -30 87 -45
63z"/>
<path d="M8130 7663 c-66 -55 -160 -207 -160 -259 0 -22 -43 -67 -74 -78 -15
-5 -16 -9 -6 -21 11 -14 17 -13 46 4 33 20 34 20 47 1 8 -11 28 -25 45 -31 25
-9 39 -7 78 10 58 26 53 36 -10 20 -39 -10 -50 -9 -71 5 -36 24 -31 46 21 96
25 25 59 65 76 88 30 43 78 154 78 179 0 22 -37 15 -70 -14z m3 -85 c-16 -35
-53 -88 -81 -118 l-52 -55 15 44 c20 59 130 210 143 196 2 -2 -9 -32 -25 -67z"/>
<path d="M5618 7654 c-12 -21 -37 -112 -40 -144 -3 -30 -8 -37 -38 -46 -48
-16 -54 -39 -8 -31 l35 5 -8 -46 c-12 -72 -11 -104 4 -100 6 3 17 38 24 79 6
41 12 75 12 77 1 1 24 2 51 2 61 0 67 18 8 22 -41 3 -43 5 -46 36 -2 19 4 54
12 79 9 27 12 51 7 61 -4 8 -11 11 -13 6z"/>
<path d="M4025 7600 c-3 -6 1 -13 10 -16 19 -8 30 0 20 15 -8 14 -22 14 -30 1z"/>
<path d="M6947 7554 c-9 -10 4 -34 19 -34 8 0 14 4 14 9 0 12 -26 32 -33 25z"/>
<path d="M6090 7528 c-67 -35 -73 -53 -27 -92 26 -23 37 -41 37 -60 0 -18 -4
-26 -12 -23 -7 2 -12 11 -10 21 3 19 -9 21 -26 4 -25 -25 -3 -68 37 -68 21 0
41 33 41 70 0 32 -6 43 -37 68 l-38 31 52 23 c48 21 61 37 37 45 -5 2 -29 -7
-54 -19z"/>
<path d="M8320 7527 c0 -8 7 -21 16 -28 14 -11 15 -10 12 11 -3 26 -28 41 -28
17z"/>
<path d="M3214 7505 c-56 -38 -53 -125 4 -125 15 0 37 6 47 14 18 13 20 11 30
-17 7 -22 17 -33 33 -35 23 -4 23 -3 7 22 -11 17 -16 39 -13 63 4 31 0 43 -23
65 -31 31 -55 35 -85 13z m65 -39 c9 -11 6 -18 -15 -35 -30 -24 -40 -26 -49
-11 -9 14 22 60 39 60 7 0 19 -6 25 -14z"/>
<path d="M5799 7491 c-33 -33 -37 -69 -13 -107 25 -38 51 -48 85 -34 39 17 37
30 -5 23 -28 -4 -36 -1 -46 18 -11 19 -10 24 1 28 8 2 27 17 43 33 27 28 28
30 11 48 -25 27 -41 25 -76 -9z m61 -10 c0 -5 -13 -19 -30 -31 -33 -23 -42 -9
-13 22 17 19 43 24 43 9z"/>
<path d="M6633 7491 c-46 -34 -60 -51 -41 -51 9 0 9 -3 -2 -10 -20 -13 -4 -13
21 1 11 5 17 15 13 22 -4 7 -3 9 1 4 5 -4 17 1 28 10 14 14 11 1 -14 -49 -27
-55 -31 -70 -20 -80 10 -11 15 -10 25 4 7 10 16 15 19 11 4 -3 9 1 13 10 3 9
16 23 29 31 23 15 25 14 37 -11 7 -14 21 -31 31 -37 15 -9 23 -6 43 17 25 29
33 90 14 102 -11 7 -13 2 -26 -59 -12 -53 -28 -55 -48 -6 -17 44 -18 44 -75 3
l-23 -17 21 43 c23 43 25 82 5 88 -6 2 -29 -10 -51 -26z"/>
<path d="M4138 7469 c-28 -30 -38 -48 -36 -67 4 -36 24 -38 31 -3 3 16 17 42
30 57 22 25 27 27 41 15 13 -11 15 -24 10 -59 -5 -34 -4 -44 6 -40 7 2 15 11
16 19 2 7 6 26 10 41 5 21 0 33 -19 52 -15 14 -31 26 -38 26 -7 0 -30 -18 -51
-41z"/>
<path d="M8964 7490 c-80 -28 -96 -39 -92 -63 2 -16 17 -27 55 -42 29 -11 53
-23 53 -27 0 -8 -11 -9 -74 -12 -39 -1 -47 -26 -9 -28 79 -4 113 9 113 43 0
18 -28 36 -84 54 -17 5 -15 9 20 30 21 13 49 25 62 25 12 0 22 6 22 14 0 24
-12 25 -66 6z"/>
<path d="M3984 7486 c-9 -22 0 -111 11 -111 6 0 11 28 13 63 2 39 -1 62 -8 62
-6 0 -13 -6 -16 -14z"/>
<path d="M5123 7454 c-32 -24 -33 -25 -33 -5 0 12 -6 21 -13 21 -8 0 -18 -22
-25 -57 -6 -32 -14 -68 -18 -80 -4 -16 -2 -23 8 -23 17 0 52 56 43 70 -3 6 -1
10 6 10 7 0 28 15 47 33 l35 32 -6 -40 c-3 -22 -9 -55 -13 -74 -5 -26 -4 -33
6 -29 20 6 41 77 38 123 -4 50 -29 57 -75 19z"/>
<path d="M8452 7465 c-45 -20 -50 -41 -17 -75 30 -32 27 -37 -30 -42 -19 -2
-30 -9 -30 -18 0 -19 80 -27 101 -9 22 18 17 54 -11 82 l-26 25 46 17 c25 10
45 22 45 26 0 13 -41 10 -78 -6z"/>
<path d="M5324 7435 c-29 -69 -14 -115 37 -115 58 0 92 96 48 136 -17 16 -22
16 -29 4 -7 -10 -5 -19 5 -26 29 -22 10 -84 -25 -84 -25 0 -27 38 -5 79 14 27
11 41 -7 41 -5 0 -16 -16 -24 -35z"/>
<path d="M4460 7436 c-5 -15 -10 -38 -10 -51 0 -36 -54 -58 -89 -36 -10 7 -11
13 -1 31 10 18 18 21 46 17 24 -4 34 -2 34 8 0 16 -22 25 -60 25 -31 0 -70
-39 -70 -70 0 -41 81 -66 129 -40 16 8 19 4 25 -37 3 -25 6 -61 6 -79 0 -32
-2 -34 -35 -34 -50 0 -113 -34 -121 -65 -13 -53 28 -125 73 -125 36 0 90 58
105 113 6 25 15 44 18 42 3 -2 12 1 20 6 13 8 13 10 0 19 -8 5 -19 11 -24 13
-4 1 -9 62 -10 135 -2 138 -15 184 -36 128z m10 -311 c0 -30 -28 -83 -50 -95
-48 -26 -101 24 -73 69 23 38 123 58 123 26z"/>
<path d="M6911 7413 c-13 -46 -13 -53 -3 -53 5 0 14 17 20 39 14 47 15 51 2
51 -5 0 -14 -17 -19 -37z"/>
<path d="M8239 7366 c-14 -40 -14 -46 -1 -51 21 -8 24 -3 29 50 7 58 -7 58
-28 1z"/>
<path d="M1973 7374 c-8 -20 13 -42 27 -28 12 12 3 44 -11 44 -5 0 -12 -7 -16
-16z"/>
<path d="M6710 7273 c-31 -12 -120 -84 -143 -115 -41 -55 -48 -77 -54 -153
l-6 -74 -48 -6 c-27 -4 -47 -11 -44 -15 3 -5 26 -6 50 -3 l45 5 0 -38 c-1 -50
-34 -124 -56 -124 -11 0 -14 -5 -10 -16 3 -9 6 -18 6 -20 0 -2 7 -4 15 -4 25
0 68 87 74 154 l6 61 44 5 c25 3 46 10 48 16 2 7 -13 8 -47 4 l-50 -6 0 40 c1
74 63 177 144 237 30 22 43 26 53 18 7 -6 13 -18 13 -25 0 -8 5 -14 10 -14 17
0 11 46 -8 63 -20 18 -20 18 -42 10z"/>
<path d="M10253 7248 c-6 -7 -16 -31 -23 -53 -6 -22 -30 -83 -51 -136 -40 -97
-40 -97 -85 -108 -52 -13 -60 -35 -10 -29 l34 4 -17 -36 c-28 -55 -33 -86 -16
-100 12 -10 15 -9 15 6 0 11 13 46 29 80 30 63 45 74 104 74 15 0 27 5 27 10
0 6 -18 10 -40 10 -22 0 -40 1 -40 3 0 2 12 32 26 68 45 112 73 204 65 212 -4
4 -12 2 -18 -5z"/>
<path d="M2952 7218 c-20 -25 -85 -124 -122 -188 -21 -36 -61 -96 -89 -134
-28 -38 -51 -75 -51 -82 0 -26 25 -14 44 21 31 57 49 67 121 71 l65 2 1 -36
c1 -46 14 -84 22 -62 3 8 8 36 12 61 5 42 9 47 35 53 39 7 39 26 0 26 -27 0
-30 3 -30 33 0 17 5 61 10 97 24 156 24 150 8 150 -9 0 -20 -6 -26 -12z m-28
-196 l-7 -80 -50 -6 c-27 -4 -52 -5 -55 -1 -3 3 8 22 24 43 17 20 43 58 59 84
16 26 31 46 33 44 1 -2 0 -39 -4 -84z"/>
<path d="M3595 7188 c-82 -42 -113 -87 -118 -170 -3 -47 -6 -54 -30 -62 -34
-12 -35 -26 -2 -26 23 0 25 -3 25 -47 -1 -62 -54 -222 -80 -238 -14 -9 -12
-25 3 -25 44 0 95 110 103 226 l7 84 64 0 64 0 -22 -29 c-24 -32 -22 -59 4
-75 14 -9 26 -6 56 10 l39 21 0 -24 c0 -31 23 -56 45 -47 21 8 22 24 2 24 -13
0 -17 7 -17 30 0 3 3 22 6 43 9 46 -8 49 -48 8 -25 -26 -66 -47 -66 -34 0 17
24 42 50 53 39 16 34 34 -11 38 -19 1 -64 5 -100 8 l-66 6 12 59 c7 32 19 67
26 76 47 59 99 88 140 79 31 -6 37 2 17 22 -18 18 -58 14 -103 -10z"/>
<path d="M7952 7158 c-29 -140 -32 -147 -71 -150 -42 -4 -48 -22 -8 -26 15 -2
27 -5 27 -7 0 -2 -11 -27 -25 -57 -14 -29 -25 -63 -25 -75 0 -47 28 -20 61 58
22 53 42 85 57 92 25 12 29 27 6 27 -10 0 -13 6 -10 18 3 9 8 40 12 67 3 27 8
53 10 57 7 11 -5 48 -15 48 -4 0 -13 -24 -19 -52z"/>
<path d="M4170 7173 c0 -37 -53 -233 -63 -233 -5 0 -8 -2 -5 -6 3 -3 -1 -26
-8 -51 -17 -55 -18 -93 -4 -93 6 0 12 6 14 13 2 6 11 38 20 70 l17 57 50 0
c27 0 49 5 49 10 0 6 -21 10 -46 10 -39 0 -45 3 -40 18 15 47 35 136 41 176 6
39 5 46 -9 46 -9 0 -16 -8 -16 -17z"/>
<path d="M2142 7153 c-6 -10 -13 -39 -17 -65 l-7 -47 -28 20 c-31 23 -73 22
-78 -2 -2 -11 13 -23 47 -38 49 -20 49 -22 41 -52 -5 -18 -18 -37 -28 -45 -30
-21 -75 -92 -68 -109 14 -39 68 -4 95 63 12 29 74 67 92 57 5 -4 16 -19 24
-36 17 -31 42 -38 51 -14 3 8 -1 24 -10 37 -9 12 -16 27 -16 34 0 11 91 74
107 74 15 0 44 36 36 43 -13 13 -51 7 -75 -13 -14 -11 -40 -21 -58 -22 -32 -3
-33 -2 -49 62 -17 68 -40 89 -59 53z m28 -98 c0 -14 -4 -25 -9 -25 -4 0 -6 11
-3 25 2 14 6 25 8 25 2 0 4 -11 4 -25z"/>
<path d="M8586 7043 c-11 -11 -6 -23 9 -23 8 0 15 4 15 9 0 13 -16 22 -24 14z"/>
<path d="M7413 6995 c-95 -75 -98 -195 -5 -195 33 0 97 32 86 43 -4 3 -15 2
-26 -4 -10 -6 -36 -9 -56 -7 -29 2 -38 8 -40 24 -2 17 4 23 27 27 39 8 101 63
101 91 0 49 -39 59 -87 21z m57 -18 c0 -16 -24 -39 -58 -57 -38 -19 -36 -5 3
34 38 38 55 45 55 23z"/>
<path d="M5988 6973 c-39 -58 -84 -107 -91 -97 -3 5 -8 31 -12 57 -8 55 -31
60 -29 6 2 -61 4 -67 19 -82 13 -13 6 -28 -55 -120 -39 -58 -70 -115 -70 -126
0 -26 28 -28 37 -3 4 9 14 28 24 42 66 96 220 335 222 343 5 26 -23 13 -45
-20z"/>
<path d="M7596 6975 c-10 -19 -14 -40 -10 -47 4 -6 3 -8 -3 -5 -13 8 -47 -63
-35 -75 5 -5 35 16 72 52 35 33 67 60 72 60 4 0 1 -19 -7 -41 -8 -23 -15 -53
-15 -66 0 -42 24 -11 45 56 28 94 8 115 -60 61 -44 -35 -49 -37 -35 -11 12 24
13 51 1 51 -5 0 -16 -16 -25 -35z"/>
<path d="M10692 6994 c-49 -21 -50 -40 -7 -84 28 -29 34 -40 23 -46 -15 -10
-48 -6 -65 8 -13 10 -33 3 -33 -12 0 -17 32 -40 55 -40 35 0 74 20 81 43 4 14
-4 30 -31 57 l-38 39 49 14 c26 7 50 19 52 25 5 16 -45 14 -86 -4z"/>
<path d="M5280 6983 c-35 -23 -80 -65 -80 -75 0 -16 26 -7 60 22 19 17 38 30
41 30 4 0 0 -29 -10 -65 -23 -83 -12 -98 45 -60 38 26 39 26 48 6 11 -26 37
-27 65 -3 24 19 55 118 40 128 -16 9 -27 -5 -34 -43 -7 -42 -30 -83 -45 -83
-6 0 -10 7 -10 15 0 24 -26 28 -55 9 -14 -9 -28 -15 -30 -12 -3 2 3 30 11 61
24 82 8 107 -46 70z"/>
<path d="M5624 6965 c-41 -32 -58 -73 -45 -108 13 -34 56 -36 96 -5 l28 22 15
-22 c8 -12 21 -22 28 -22 17 0 18 12 2 28 -9 9 -8 21 1 52 6 22 9 45 6 50 -3
5 -30 -16 -59 -46 -34 -35 -61 -55 -72 -52 -29 5 -27 24 7 62 22 26 39 36 61
36 39 0 32 24 -8 28 -19 1 -40 -6 -60 -23z"/>
<path d="M8090 6934 c-59 -55 -66 -90 -24 -123 33 -26 70 -27 108 -2 l28 19
-44 -5 c-55 -6 -95 11 -77 33 6 8 17 14 24 14 26 0 76 35 81 58 7 25 -10 52
-33 52 -7 0 -36 -21 -63 -46z m65 -3 c-3 -6 -21 -18 -38 -26 l-32 -16 34 30
c33 29 51 35 36 12z"/>
<path d="M9703 6960 c-18 -11 -33 -15 -33 -10 0 22 -28 8 -40 -19 -6 -16 -25
-41 -41 -57 -30 -29 -38 -54 -17 -54 6 0 31 20 54 44 35 37 108 86 128 86 2 0
-4 -23 -15 -50 -10 -28 -19 -59 -19 -70 0 -28 30 -26 30 3 1 12 11 47 24 77
14 30 22 58 20 62 -9 15 -59 8 -91 -12z"/>
<path d="M10371 6950 c-48 -35 -65 -69 -51 -104 17 -46 87 -61 135 -30 28 19
24 39 -5 24 -33 -18 -100 -10 -100 12 0 5 24 20 54 33 57 25 72 45 56 76 -15
27 -40 24 -89 -11z m36 -36 c-25 -21 -57 -32 -57 -19 0 9 74 54 79 49 3 -3 -7
-17 -22 -30z"/>
<path d="M3866 6949 c-33 -26 -33 -49 -1 -79 37 -35 33 -54 -11 -47 -32 5 -35
4 -32 -16 4 -31 55 -35 86 -7 29 27 28 32 -9 75 -35 40 -29 61 18 67 15 2 28
9 31 16 6 20 -53 14 -82 -9z"/>
<path d="M4627 6942 c-15 -16 -29 -44 -33 -70 -9 -60 9 -54 40 13 25 56 44 67
66 40 10 -12 16 -13 24 -5 8 8 5 17 -13 31 -32 26 -53 24 -84 -9z"/>
<path d="M6847 6945 c-26 -27 -52 -108 -41 -127 10 -15 34 19 34 48 0 12 10
33 21 48 17 22 27 26 47 21 20 -5 23 -3 18 10 -3 9 -6 19 -6 21 0 15 -52 0
-73 -21z"/>
<path d="M9863 6941 c-12 -16 -28 -40 -35 -56 -11 -24 -10 -29 7 -42 23 -16
53 -11 110 20 69 38 55 99 -24 103 -29 2 -40 -3 -58 -25z m95 -23 c2 -10 -13
-23 -41 -37 -73 -35 -86 -27 -37 24 32 33 73 40 78 13z"/>
<path d="M4353 6926 c-31 -28 -37 -40 -36 -70 1 -52 26 -76 77 -76 46 0 56 5
74 38 11 19 10 22 -7 22 -10 0 -21 -7 -25 -15 -3 -9 -19 -15 -41 -15 -29 0
-37 5 -45 26 -6 14 -7 31 -4 37 16 29 49 57 66 57 29 0 21 -16 -17 -34 -39
-19 -48 -41 -12 -30 70 21 94 53 65 82 -21 21 -57 13 -95 -22z"/>
<path d="M8368 6948 c-31 -11 -98 -98 -98 -128 0 -32 16 -23 43 23 36 62 61
81 110 86 4 1 7 5 7 10 0 14 -33 19 -62 9z"/>
<path d="M6683 6939 c-24 -9 -59 -89 -49 -114 10 -26 34 -28 66 -5 33 24 39
60 17 102 -10 20 -17 23 -34 17z m-2 -93 c-26 -25 -27 -9 -3 40 l17 37 3 -28
c2 -18 -4 -35 -17 -49z"/>
<path d="M8654 6906 c-44 -44 -57 -76 -29 -76 8 0 15 6 15 13 0 19 63 77 83
77 18 0 17 -17 -4 -84 -10 -34 2 -54 19 -33 18 21 32 109 21 129 -17 32 -58
22 -105 -26z"/>
<path d="M9019 6906 c-21 -36 -42 -46 -98 -46 -27 0 -31 2 -22 14 7 8 27 17
46 20 51 10 47 36 -5 36 -67 0 -116 -66 -75 -100 11 -9 35 -11 76 -7 59 5 61
4 55 -16 -3 -12 -13 -64 -23 -114 l-16 -93 -31 0 c-40 0 -107 -39 -123 -70
-15 -30 -17 -84 -3 -111 14 -25 60 -25 91 0 13 10 37 46 53 80 29 60 30 61 72
61 47 0 74 8 74 21 0 5 -7 9 -15 9 -8 0 -15 -5 -15 -11 0 -6 -7 -3 -16 5 -8 9
-24 16 -35 16 -24 0 -24 4 2 131 16 80 26 109 45 127 27 25 29 34 14 63 -15
27 -28 24 -51 -15z m-79 -354 c0 -4 -15 -32 -33 -62 -25 -43 -38 -55 -57 -55
-21 0 -26 5 -28 32 -4 44 12 71 51 82 41 12 67 13 67 3z"/>
<path d="M8490 6858 c-18 -41 -18 -58 1 -58 10 0 21 25 33 73 10 42 -12 33
-34 -15z"/>
</g>
</svg>
